<svg width="36" height="38" viewBox="0 0 36 38" fill="none" xmlns="http://www.w3.org/2000/svg">
<rect x="16.3706" y="0.947754" width="1.30866" height="1.30866" fill="black"/>
<rect x="25.5308" y="0.947754" width="1.30866" height="1.30866" fill="black"/>
<rect x="16.3706" y="2.25635" width="1.30866" height="1.30866" fill="#1A385C"/>
<rect x="24.2222" y="2.25635" width="1.30866" height="1.30866" fill="black"/>
<rect x="25.5308" y="2.25635" width="1.30866" height="1.30866" fill="#09131F"/>
<rect x="15.0615" y="3.56494" width="1.30866" height="1.30866" fill="black"/>
<rect x="16.3706" y="3.56494" width="1.30866" height="1.30866" fill="#224B7A"/>
<rect x="17.6792" y="3.56494" width="1.30866" height="1.30866" fill="black"/>
<rect x="22.9136" y="3.56494" width="1.30866" height="1.30866" fill="black"/>
<rect x="24.2222" y="3.56494" width="1.30866" height="1.30866" fill="#224B7A"/>
<rect x="25.5308" y="3.56494" width="1.30866" height="1.30866" fill="#1E426B"/>
<rect x="26.8398" y="3.56494" width="1.30866" height="1.30866" fill="black"/>
<rect x="15.0615" y="4.87378" width="1.30866" height="1.30866" fill="black"/>
<rect x="16.3706" y="4.87378" width="1.30866" height="1.30866" fill="#224B7A"/>
<rect x="17.6792" y="4.87378" width="1.30866" height="1.30866" fill="#224B7A"/>
<rect x="22.9136" y="4.87378" width="1.30866" height="1.30866" fill="#204773"/>
<rect x="24.2222" y="4.87378" width="1.30866" height="1.30866" fill="#224B7A"/>
<rect x="25.5308" y="4.87378" width="1.30866" height="1.30866" fill="#224B7A"/>
<rect x="26.8398" y="4.87378" width="1.30866" height="1.30866" fill="black"/>
<rect x="13.7529" y="6.18237" width="1.30866" height="1.30866" fill="black"/>
<rect x="15.0615" y="6.18237" width="1.30866" height="1.30866" fill="black"/>
<rect x="16.3706" y="6.18237" width="1.30866" height="1.30866" fill="#132A45"/>
<rect x="17.6792" y="6.18237" width="1.30866" height="1.30866" fill="#224B7A"/>
<rect x="18.9878" y="6.18237" width="1.30866" height="1.30866" fill="#224B7A"/>
<rect x="20.2964" y="6.18237" width="1.30866" height="1.30866" fill="#234D7C"/>
<rect x="21.605" y="6.18237" width="1.30866" height="1.30866" fill="#2C6897"/>
<rect x="22.9136" y="6.18237" width="1.30866" height="1.30866" fill="#224B7A"/>
<rect x="24.2222" y="6.18237" width="1.30866" height="1.30866" fill="#0F2135"/>
<rect x="25.5308" y="6.18237" width="1.30866" height="1.30866" fill="#224B7A"/>
<rect x="26.8398" y="6.18237" width="1.30866" height="1.30866" fill="#1C3D63"/>
<rect x="11.1357" y="7.49097" width="1.30866" height="1.30866" fill="black"/>
<rect x="12.4443" y="7.49097" width="1.30866" height="1.30866" fill="#224B7A"/>
<rect x="13.7529" y="7.49097" width="1.30866" height="1.30866" fill="#224B7A"/>
<rect x="15.0615" y="7.49097" width="1.30866" height="1.30866" fill="#224B7A"/>
<rect x="16.3706" y="7.49097" width="1.30866" height="1.30866" fill="#224B7A"/>
<rect x="17.6792" y="7.49097" width="1.30866" height="1.30866" fill="#2B6695"/>
<rect x="18.9878" y="7.49097" width="1.30866" height="1.30866" fill="#2C6897"/>
<rect x="20.2964" y="7.49097" width="1.30866" height="1.30866" fill="#2C6897"/>
<rect x="21.605" y="7.49097" width="1.30866" height="1.30866" fill="#2C6897"/>
<rect x="22.9136" y="7.49097" width="1.30866" height="1.30866" fill="#2C6897"/>
<rect x="24.2222" y="7.49097" width="1.30866" height="1.30866" fill="#275A89"/>
<rect x="25.5308" y="7.49097" width="1.30866" height="1.30866" fill="#224B7A"/>
<rect x="26.8398" y="7.49097" width="1.30866" height="1.30866" fill="#224B7A"/>
<rect x="28.1484" y="7.49097" width="1.30866" height="1.30866" fill="black"/>
<rect x="8.51855" y="8.7998" width="1.30866" height="1.30866" fill="black"/>
<rect x="9.82715" y="8.7998" width="1.30866" height="1.30866" fill="#224B7A"/>
<rect x="11.1357" y="8.7998" width="1.30866" height="1.30866" fill="#224B7A"/>
<rect x="12.4443" y="8.7998" width="1.30866" height="1.30866" fill="#224B7A"/>
<rect x="13.7529" y="8.7998" width="1.30866" height="1.30866" fill="#224B7A"/>
<rect x="15.0615" y="8.7998" width="1.30866" height="1.30866" fill="#2C6897"/>
<rect x="16.3706" y="8.7998" width="1.30866" height="1.30866" fill="#2C6897"/>
<rect x="17.6792" y="8.7998" width="1.30866" height="1.30866" fill="#2C6897"/>
<rect x="18.9878" y="8.7998" width="1.30866" height="1.30866" fill="#2C6897"/>
<rect x="20.2964" y="8.7998" width="1.30866" height="1.30866" fill="#2C6897"/>
<rect x="21.605" y="8.7998" width="1.30866" height="1.30866" fill="#2C6897"/>
<rect x="22.9136" y="8.7998" width="1.30866" height="1.30866" fill="#2C6897"/>
<rect x="24.2222" y="8.7998" width="1.30866" height="1.30866" fill="#2C6897"/>
<rect x="25.5308" y="8.7998" width="1.30866" height="1.30866" fill="#224B7A"/>
<rect x="26.8398" y="8.7998" width="1.30866" height="1.30866" fill="#224B7A"/>
<rect x="28.1484" y="8.7998" width="1.30866" height="1.30866" fill="black"/>
<rect x="7.20996" y="10.1084" width="1.30866" height="1.30866" fill="black"/>
<rect x="8.51855" y="10.1084" width="1.30866" height="1.30866" fill="#224B7A"/>
<rect x="9.82715" y="10.1084" width="1.30866" height="1.30866" fill="#224B7A"/>
<rect x="11.1357" y="10.1084" width="1.30866" height="1.30866" fill="#224B7A"/>
<rect x="12.4443" y="10.1084" width="1.30866" height="1.30866" fill="#2C6897"/>
<rect x="13.7529" y="10.1084" width="1.30866" height="1.30866" fill="#2C6897"/>
<rect x="15.0615" y="10.1084" width="1.30866" height="1.30866" fill="#2C6897"/>
<rect x="16.3706" y="10.1084" width="1.30866" height="1.30866" fill="#2C6897"/>
<rect x="17.6792" y="10.1084" width="1.30866" height="1.30866" fill="#2C6897"/>
<rect x="18.9878" y="10.1084" width="1.30866" height="1.30866" fill="#2C6897"/>
<rect x="20.2964" y="10.1084" width="1.30866" height="1.30866" fill="#2C6897"/>
<rect x="21.605" y="10.1084" width="1.30866" height="1.30866" fill="#2C6897"/>
<rect x="22.9136" y="10.1084" width="1.30866" height="1.30866" fill="#2C6897"/>
<rect x="24.2222" y="10.1084" width="1.30866" height="1.30866" fill="#2C6897"/>
<rect x="25.5308" y="10.1084" width="1.30866" height="1.30866" fill="#224B7A"/>
<rect x="26.8398" y="10.1084" width="1.30866" height="1.30866" fill="#224B7A"/>
<rect x="28.1484" y="10.1084" width="1.30866" height="1.30866" fill="#224B7A"/>
<rect x="5.90137" y="11.417" width="1.30866" height="1.30866" fill="black"/>
<rect x="7.20996" y="11.417" width="1.30866" height="1.30866" fill="#224B7A"/>
<rect x="8.51855" y="11.417" width="1.30866" height="1.30866" fill="#224B7A"/>
<rect x="9.82715" y="11.417" width="1.30866" height="1.30866" fill="#265483"/>
<rect x="11.1357" y="11.417" width="1.30866" height="1.30866" fill="#2C6897"/>
<rect x="12.4443" y="11.417" width="1.30866" height="1.30866" fill="#2C6897"/>
<rect x="13.7529" y="11.417" width="1.30866" height="1.30866" fill="#2C6897"/>
<rect x="15.0615" y="11.417" width="1.30866" height="1.30866" fill="#2C6897"/>
<rect x="16.3706" y="11.417" width="1.30866" height="1.30866" fill="#2C6897"/>
<rect x="17.6792" y="11.417" width="1.30866" height="1.30866" fill="#2C6897"/>
<rect x="18.9878" y="11.417" width="1.30866" height="1.30866" fill="#2C6897"/>
<rect x="20.2964" y="11.417" width="1.30866" height="1.30866" fill="#2C6897"/>
<rect x="21.605" y="11.417" width="1.30866" height="1.30866" fill="#2C6897"/>
<rect x="22.9136" y="11.417" width="1.30866" height="1.30866" fill="#2C6897"/>
<rect x="24.2222" y="11.417" width="1.30866" height="1.30866" fill="#2C6897"/>
<rect x="25.5308" y="11.417" width="1.30866" height="1.30866" fill="#224B7A"/>
<rect x="26.8398" y="11.417" width="1.30866" height="1.30866" fill="#224B7A"/>
<rect x="28.1484" y="11.417" width="1.30866" height="1.30866" fill="#224B7A"/>
<rect x="29.457" y="11.417" width="1.30866" height="1.30866" fill="black"/>
<rect x="5.90137" y="12.7256" width="1.30866" height="1.30866" fill="#152F4D"/>
<rect x="7.20996" y="12.7256" width="1.30866" height="1.30866" fill="#224B7A"/>
<rect x="8.51855" y="12.7256" width="1.30866" height="1.30866" fill="#2B6695"/>
<rect x="9.82715" y="12.7256" width="1.30866" height="1.30866" fill="#2C6897"/>
<rect x="11.1357" y="12.7256" width="1.30866" height="1.30866" fill="#2C6897"/>
<rect x="12.4443" y="12.7256" width="1.30866" height="1.30866" fill="#2C6897"/>
<rect x="13.7529" y="12.7256" width="1.30866" height="1.30866" fill="#2C6897"/>
<rect x="15.0615" y="12.7256" width="1.30866" height="1.30866" fill="#2C6897"/>
<rect x="16.3706" y="12.7256" width="1.30866" height="1.30866" fill="#2C6897"/>
<rect x="17.6792" y="12.7256" width="1.30866" height="1.30866" fill="#2C6897"/>
<rect x="18.9878" y="12.7256" width="1.30866" height="1.30866" fill="#2C6897"/>
<rect x="20.2964" y="12.7256" width="1.30866" height="1.30866" fill="#2C6897"/>
<rect x="21.605" y="12.7256" width="1.30866" height="1.30866" fill="#2C6897"/>
<rect x="22.9136" y="12.7256" width="1.30866" height="1.30866" fill="#2C6897"/>
<rect x="24.2222" y="12.7256" width="1.30866" height="1.30866" fill="#2C6897"/>
<rect x="25.5308" y="12.7256" width="1.30866" height="1.30866" fill="#224B7A"/>
<rect x="26.8398" y="12.7256" width="1.30866" height="1.30866" fill="#224B7A"/>
<rect x="28.1484" y="12.7256" width="1.30866" height="1.30866" fill="#224B7A"/>
<rect x="29.457" y="12.7256" width="1.30866" height="1.30866" fill="#1A385C"/>
<rect x="4.59229" y="14.0344" width="1.30866" height="1.30866" fill="black"/>
<rect x="5.90137" y="14.0344" width="1.30866" height="1.30866" fill="#224B7A"/>
<rect x="7.20996" y="14.0344" width="1.30866" height="1.30866" fill="#2B6493"/>
<rect x="8.51855" y="14.0344" width="1.30866" height="1.30866" fill="#2C6897"/>
<rect x="9.82715" y="14.0344" width="1.30866" height="1.30866" fill="#2C6897"/>
<rect x="11.1357" y="14.0344" width="1.30866" height="1.30866" fill="#2C6897"/>
<rect x="12.4443" y="14.0344" width="1.30866" height="1.30866" fill="#2C6897"/>
<rect x="13.7529" y="14.0344" width="1.30866" height="1.30866" fill="#2C6897"/>
<rect x="15.0615" y="14.0344" width="1.30866" height="1.30866" fill="#2C6897"/>
<rect x="16.3706" y="14.0344" width="1.30866" height="1.30866" fill="#2C6897"/>
<rect x="17.6792" y="14.0344" width="1.30866" height="1.30866" fill="#2C6897"/>
<rect x="18.9878" y="14.0344" width="1.30866" height="1.30866" fill="#2C6897"/>
<rect x="20.2964" y="14.0344" width="1.30866" height="1.30866" fill="#2C6897"/>
<rect x="21.605" y="14.0344" width="1.30866" height="1.30866" fill="#2C6897"/>
<rect x="22.9136" y="14.0344" width="1.30866" height="1.30866" fill="#2C6897"/>
<rect x="24.2222" y="14.0344" width="1.30866" height="1.30866" fill="#2C6897"/>
<rect x="25.5308" y="14.0344" width="1.30866" height="1.30866" fill="#224B7A"/>
<rect x="26.8398" y="14.0344" width="1.30866" height="1.30866" fill="#224B7A"/>
<rect x="28.1484" y="14.0344" width="1.30866" height="1.30866" fill="#224B7A"/>
<rect x="29.457" y="14.0344" width="1.30866" height="1.30866" fill="#224B7A"/>
<rect x="30.7656" y="14.0344" width="1.30866" height="1.30866" fill="black"/>
<rect x="4.59229" y="15.343" width="1.30866" height="1.30866" fill="#020508"/>
<rect x="5.90137" y="15.343" width="1.30866" height="1.30866" fill="#224B7A"/>
<rect x="7.20996" y="15.343" width="1.30866" height="1.30866" fill="#2C6897"/>
<rect x="8.51855" y="15.343" width="1.30866" height="1.30866" fill="#2C6897"/>
<rect x="9.82715" y="15.343" width="1.30866" height="1.30866" fill="#0E212F"/>
<rect x="11.1357" y="15.343" width="1.30866" height="1.30866" fill="#050D13"/>
<rect x="12.4443" y="15.343" width="1.30866" height="1.30866" fill="#2A618D"/>
<rect x="13.7529" y="15.343" width="1.30866" height="1.30866" fill="#2C6897"/>
<rect x="15.0615" y="15.343" width="1.30866" height="1.30866" fill="#2C6897"/>
<rect x="16.3706" y="15.343" width="1.30866" height="1.30866" fill="#2C6897"/>
<rect x="17.6792" y="15.343" width="1.30866" height="1.30866" fill="#2C6897"/>
<rect x="18.9878" y="15.343" width="1.30866" height="1.30866" fill="#2C6897"/>
<rect x="20.2964" y="15.343" width="1.30866" height="1.30866" fill="#2C6897"/>
<rect x="21.605" y="15.343" width="1.30866" height="1.30866" fill="#2C6897"/>
<rect x="22.9136" y="15.343" width="1.30866" height="1.30866" fill="#2C6897"/>
<rect x="24.2222" y="15.343" width="1.30866" height="1.30866" fill="#2C6897"/>
<rect x="25.5308" y="15.343" width="1.30866" height="1.30866" fill="#224B7A"/>
<rect x="26.8398" y="15.343" width="1.30866" height="1.30866" fill="#224B7A"/>
<rect x="28.1484" y="15.343" width="1.30866" height="1.30866" fill="#224B7A"/>
<rect x="29.457" y="15.343" width="1.30866" height="1.30866" fill="#224B7A"/>
<rect x="30.7656" y="15.343" width="1.30866" height="1.30866" fill="#09131F"/>
<rect x="4.59229" y="16.6516" width="1.30866" height="1.30866" fill="#204773"/>
<rect x="5.90137" y="16.6516" width="1.30866" height="1.30866" fill="#2B6493"/>
<rect x="7.20996" y="16.6516" width="1.30866" height="1.30866" fill="#060D13"/>
<rect x="8.51855" y="16.6516" width="1.30866" height="1.30866" fill="#152C2E"/>
<rect x="9.82715" y="16.6516" width="1.30866" height="1.30866" fill="#53AEB7"/>
<rect x="11.1357" y="16.6516" width="1.30866" height="1.30866" fill="#53AEB7"/>
<rect x="12.4443" y="16.6516" width="1.30866" height="1.30866" fill="#53AEB7"/>
<rect x="13.7529" y="16.6516" width="1.30866" height="1.30866" fill="black"/>
<rect x="15.0615" y="16.6516" width="1.30866" height="1.30866" fill="#2C6897"/>
<rect x="16.3706" y="16.6516" width="1.30866" height="1.30866" fill="#2C6897"/>
<rect x="17.6792" y="16.6516" width="1.30866" height="1.30866" fill="#2C6897"/>
<rect x="18.9878" y="16.6516" width="1.30866" height="1.30866" fill="#2C6897"/>
<rect x="20.2964" y="16.6516" width="1.30866" height="1.30866" fill="#2C6897"/>
<rect x="21.605" y="16.6516" width="1.30866" height="1.30866" fill="#2C6897"/>
<rect x="22.9136" y="16.6516" width="1.30866" height="1.30866" fill="#2C6897"/>
<rect x="24.2222" y="16.6516" width="1.30866" height="1.30866" fill="#2C6897"/>
<rect x="25.5308" y="16.6516" width="1.30866" height="1.30866" fill="#224B7A"/>
<rect x="26.8398" y="16.6516" width="1.30866" height="1.30866" fill="#224B7A"/>
<rect x="28.1484" y="16.6516" width="1.30866" height="1.30866" fill="#224B7A"/>
<rect x="29.457" y="16.6516" width="1.30866" height="1.30866" fill="#224B7A"/>
<rect x="30.7656" y="16.6516" width="1.30866" height="1.30866" fill="#224B7A"/>
<rect x="32.0742" y="16.6516" width="1.30866" height="1.30866" fill="black"/>
<rect x="4.59229" y="17.9602" width="1.30866" height="1.30866" fill="#224B7A"/>
<rect x="5.90137" y="17.9602" width="1.30866" height="1.30866" fill="#2C6897"/>
<rect x="7.20996" y="17.9602" width="1.30866" height="1.30866" fill="black"/>
<rect x="8.51855" y="17.9602" width="1.30866" height="1.30866" fill="black"/>
<rect x="9.82715" y="17.9602" width="1.30866" height="1.30866" fill="black"/>
<rect x="11.1357" y="17.9602" width="1.30866" height="1.30866" fill="#53AEB7"/>
<rect x="12.4443" y="17.9602" width="1.30866" height="1.30866" fill="#53AEB7"/>
<rect x="13.7529" y="17.9602" width="1.30866" height="1.30866" fill="#53AEB7"/>
<rect x="15.0615" y="17.9602" width="1.30866" height="1.30866" fill="#2C6897"/>
<rect x="16.3706" y="17.9602" width="1.30866" height="1.30866" fill="#2C6897"/>
<rect x="17.6792" y="17.9602" width="1.30866" height="1.30866" fill="#2C6897"/>
<rect x="18.9878" y="17.9602" width="1.30866" height="1.30866" fill="#2C6897"/>
<rect x="20.2964" y="17.9602" width="1.30866" height="1.30866" fill="#2C6897"/>
<rect x="21.605" y="17.9602" width="1.30866" height="1.30866" fill="#2C6897"/>
<rect x="22.9136" y="17.9602" width="1.30866" height="1.30866" fill="#2C6897"/>
<rect x="24.2222" y="17.9602" width="1.30866" height="1.30866" fill="#2C6897"/>
<rect x="25.5308" y="17.9602" width="1.30866" height="1.30866" fill="#224B7A"/>
<rect x="26.8398" y="17.9602" width="1.30866" height="1.30866" fill="#224B7A"/>
<rect x="28.1484" y="17.9602" width="1.30866" height="1.30866" fill="#224B7A"/>
<rect x="29.457" y="17.9602" width="1.30866" height="1.30866" fill="#224B7A"/>
<rect x="30.7656" y="17.9602" width="1.30866" height="1.30866" fill="#224B7A"/>
<rect x="32.0742" y="17.9602" width="1.30866" height="1.30866" fill="black"/>
<rect x="4.59229" y="19.269" width="1.30866" height="1.30866" fill="#224B7A"/>
<rect x="5.90137" y="19.269" width="1.30866" height="1.30866" fill="#060D13"/>
<rect x="7.20996" y="19.269" width="1.30866" height="1.30866" fill="white"/>
<rect x="8.51855" y="19.269" width="1.30866" height="1.30866" fill="black"/>
<rect x="9.82715" y="19.269" width="1.30866" height="1.30866" fill="black"/>
<rect x="11.1357" y="19.269" width="1.30866" height="1.30866" fill="#53AEB7"/>
<rect x="12.4443" y="19.269" width="1.30866" height="1.30866" fill="#53AEB7"/>
<rect x="13.7529" y="19.269" width="1.30866" height="1.30866" fill="#346D72"/>
<rect x="15.0615" y="19.269" width="1.30866" height="1.30866" fill="#2C6897"/>
<rect x="16.3706" y="19.269" width="1.30866" height="1.30866" fill="#2C6897"/>
<rect x="17.6792" y="19.269" width="1.30866" height="1.30866" fill="#2C6897"/>
<rect x="18.9878" y="19.269" width="1.30866" height="1.30866" fill="#2C6897"/>
<rect x="20.2964" y="19.269" width="1.30866" height="1.30866" fill="#2C6897"/>
<rect x="21.605" y="19.269" width="1.30866" height="1.30866" fill="#2C6897"/>
<rect x="22.9136" y="19.269" width="1.30866" height="1.30866" fill="#2C6897"/>
<rect x="24.2222" y="19.269" width="1.30866" height="1.30866" fill="#2C6897"/>
<rect x="25.5308" y="19.269" width="1.30866" height="1.30866" fill="#224B7A"/>
<rect x="26.8398" y="19.269" width="1.30866" height="1.30866" fill="#224B7A"/>
<rect x="28.1484" y="19.269" width="1.30866" height="1.30866" fill="#224B7A"/>
<rect x="29.457" y="19.269" width="1.30866" height="1.30866" fill="#224B7A"/>
<rect x="30.7656" y="19.269" width="1.30866" height="1.30866" fill="#224B7A"/>
<rect x="32.0742" y="19.269" width="1.30866" height="1.30866" fill="#224B7A"/>
<rect x="33.3828" y="19.269" width="1.30866" height="1.30866" fill="black"/>
<rect x="3.28369" y="20.5776" width="1.30866" height="1.30866" fill="black"/>
<rect x="4.59229" y="20.5776" width="1.30866" height="1.30866" fill="#2B6795"/>
<rect x="5.90137" y="20.5776" width="1.30866" height="1.30866" fill="black"/>
<rect x="7.20996" y="20.5776" width="1.30866" height="1.30866" fill="black"/>
<rect x="8.51855" y="20.5776" width="1.30866" height="1.30866" fill="black"/>
<rect x="9.82715" y="20.5776" width="1.30866" height="1.30866" fill="#4998A0"/>
<rect x="11.1357" y="20.5776" width="1.30866" height="1.30866" fill="#53AEB7"/>
<rect x="12.4443" y="20.5776" width="1.30866" height="1.30866" fill="#53AEB7"/>
<rect x="13.7529" y="20.5776" width="1.30866" height="1.30866" fill="black"/>
<rect x="15.0615" y="20.5776" width="1.30866" height="1.30866" fill="#2C6897"/>
<rect x="16.3706" y="20.5776" width="1.30866" height="1.30866" fill="#2C6897"/>
<rect x="17.6792" y="20.5776" width="1.30866" height="1.30866" fill="#2C6897"/>
<rect x="18.9878" y="20.5776" width="1.30866" height="1.30866" fill="#2C6897"/>
<rect x="20.2964" y="20.5776" width="1.30866" height="1.30866" fill="#2C6897"/>
<rect x="21.605" y="20.5776" width="1.30866" height="1.30866" fill="#2C6897"/>
<rect x="22.9136" y="20.5776" width="1.30866" height="1.30866" fill="#2C6897"/>
<rect x="24.2222" y="20.5776" width="1.30866" height="1.30866" fill="#2C6897"/>
<rect x="25.5308" y="20.5776" width="1.30866" height="1.30866" fill="#224B7A"/>
<rect x="26.8398" y="20.5776" width="1.30866" height="1.30866" fill="#224B7A"/>
<rect x="28.1484" y="20.5776" width="1.30866" height="1.30866" fill="#224B7A"/>
<rect x="29.457" y="20.5776" width="1.30866" height="1.30866" fill="#224B7A"/>
<rect x="30.7656" y="20.5776" width="1.30866" height="1.30866" fill="#224B7A"/>
<rect x="32.0742" y="20.5776" width="1.30866" height="1.30866" fill="#224B7A"/>
<rect x="33.3828" y="20.5776" width="1.30866" height="1.30866" fill="#0B1726"/>
<rect x="3.28369" y="21.8862" width="1.30866" height="1.30866" fill="black"/>
<rect x="4.59229" y="21.8862" width="1.30866" height="1.30866" fill="#2C6897"/>
<rect x="5.90137" y="21.8862" width="1.30866" height="1.30866" fill="black"/>
<rect x="7.20996" y="21.8862" width="1.30866" height="1.30866" fill="#3A787E"/>
<rect x="8.51855" y="21.8862" width="1.30866" height="1.30866" fill="#53AEB7"/>
<rect x="9.82715" y="21.8862" width="1.30866" height="1.30866" fill="#53AEB7"/>
<rect x="11.1357" y="21.8862" width="1.30866" height="1.30866" fill="#53AEB7"/>
<rect x="12.4443" y="21.8862" width="1.30866" height="1.30866" fill="black"/>
<rect x="13.7529" y="21.8862" width="1.30866" height="1.30866" fill="#2C6897"/>
<rect x="15.0615" y="21.8862" width="1.30866" height="1.30866" fill="#2C6897"/>
<rect x="16.3706" y="21.8862" width="1.30866" height="1.30866" fill="#2C6897"/>
<rect x="17.6792" y="21.8862" width="1.30866" height="1.30866" fill="#2C6897"/>
<rect x="18.9878" y="21.8862" width="1.30866" height="1.30866" fill="#2C6897"/>
<rect x="20.2964" y="21.8862" width="1.30866" height="1.30866" fill="#2C6897"/>
<rect x="21.605" y="21.8862" width="1.30866" height="1.30866" fill="#2C6897"/>
<rect x="22.9136" y="21.8862" width="1.30866" height="1.30866" fill="#2C6897"/>
<rect x="24.2222" y="21.8862" width="1.30866" height="1.30866" fill="#2C6897"/>
<rect x="25.5308" y="21.8862" width="1.30866" height="1.30866" fill="#224B7A"/>
<rect x="26.8398" y="21.8862" width="1.30866" height="1.30866" fill="#1E426B"/>
<rect x="28.1484" y="21.8862" width="1.30866" height="1.30866" fill="#1E426B"/>
<rect x="29.457" y="21.8862" width="1.30866" height="1.30866" fill="#224B7A"/>
<rect x="30.7656" y="21.8862" width="1.30866" height="1.30866" fill="#224B7A"/>
<rect x="32.0742" y="21.8862" width="1.30866" height="1.30866" fill="#224B7A"/>
<rect x="33.3828" y="21.8862" width="1.30866" height="1.30866" fill="#224B7A"/>
<rect x="34.6914" y="21.8862" width="1.30866" height="1.30866" fill="black"/>
<rect x="1.9751" y="23.1948" width="1.30866" height="1.30866" fill="black"/>
<rect x="3.28369" y="23.1948" width="1.30866" height="1.30866" fill="#224B7A"/>
<rect x="4.59229" y="23.1948" width="1.30866" height="1.30866" fill="#224B7A"/>
<rect x="5.90137" y="23.1948" width="1.30866" height="1.30866" fill="#224B7A"/>
<rect x="7.20996" y="23.1948" width="1.30866" height="1.30866" fill="#2C6897"/>
<rect x="8.51855" y="23.1948" width="1.30866" height="1.30866" fill="#2C6897"/>
<rect x="9.82715" y="23.1948" width="1.30866" height="1.30866" fill="#275B84"/>
<rect x="11.1357" y="23.1948" width="1.30866" height="1.30866" fill="#2C6897"/>
<rect x="12.4443" y="23.1948" width="1.30866" height="1.30866" fill="#2C6897"/>
<rect x="13.7529" y="23.1948" width="1.30866" height="1.30866" fill="#2C6897"/>
<rect x="15.0615" y="23.1948" width="1.30866" height="1.30866" fill="#2C6897"/>
<rect x="16.3706" y="23.1948" width="1.30866" height="1.30866" fill="#2C6897"/>
<rect x="17.6792" y="23.1948" width="1.30866" height="1.30866" fill="#2C6897"/>
<rect x="18.9878" y="23.1948" width="1.30866" height="1.30866" fill="#0E212F"/>
<rect x="20.2964" y="23.1948" width="1.30866" height="1.30866" fill="black"/>
<rect x="21.605" y="23.1948" width="1.30866" height="1.30866" fill="#112739"/>
<rect x="22.9136" y="23.1948" width="1.30866" height="1.30866" fill="#275B84"/>
<rect x="24.2222" y="23.1948" width="1.30866" height="1.30866" fill="#2C6897"/>
<rect x="25.5308" y="23.1948" width="1.30866" height="1.30866" fill="#224B7A"/>
<rect x="26.8398" y="23.1948" width="1.30866" height="1.30866" fill="#224B7A"/>
<rect x="28.1484" y="23.1948" width="1.30866" height="1.30866" fill="#224B7A"/>
<rect x="29.457" y="23.1948" width="1.30866" height="1.30866" fill="#224B7A"/>
<rect x="30.7656" y="23.1948" width="1.30866" height="1.30866" fill="#224B7A"/>
<rect x="32.0742" y="23.1948" width="1.30866" height="1.30866" fill="#224B7A"/>
<rect x="33.3828" y="23.1948" width="1.30866" height="1.30866" fill="#224B7A"/>
<rect x="34.6914" y="23.1948" width="1.30866" height="1.30866" fill="black"/>
<rect x="0.666504" y="24.5037" width="1.30866" height="1.30866" fill="black"/>
<rect x="1.9751" y="24.5037" width="1.30866" height="1.30866" fill="black"/>
<rect x="3.28369" y="24.5037" width="1.30866" height="1.30866" fill="black"/>
<rect x="4.59229" y="24.5037" width="1.30866" height="1.30866" fill="#224B7A"/>
<rect x="5.90137" y="24.5037" width="1.30866" height="1.30866" fill="#224B7A"/>
<rect x="7.20996" y="24.5037" width="1.30866" height="1.30866" fill="#224B7A"/>
<rect x="8.51855" y="24.5037" width="1.30866" height="1.30866" fill="#224B7A"/>
<rect x="9.82715" y="24.5037" width="1.30866" height="1.30866" fill="#265685"/>
<rect x="11.1357" y="24.5037" width="1.30866" height="1.30866" fill="#2C6897"/>
<rect x="12.4443" y="24.5037" width="1.30866" height="1.30866" fill="#2C6897"/>
<rect x="13.7529" y="24.5037" width="1.30866" height="1.30866" fill="#2C6897"/>
<rect x="15.0615" y="24.5037" width="1.30866" height="1.30866" fill="#132E42"/>
<rect x="16.3706" y="24.5037" width="1.30866" height="1.30866" fill="#193B55"/>
<rect x="17.6792" y="24.5037" width="1.30866" height="1.30866" fill="#2C6897"/>
<rect x="18.9878" y="24.5037" width="1.30866" height="1.30866" fill="#2C6897"/>
<rect x="20.2964" y="24.5037" width="1.30866" height="1.30866" fill="#2C6897"/>
<rect x="21.605" y="24.5037" width="1.30866" height="1.30866" fill="#2C6897"/>
<rect x="22.9136" y="24.5037" width="1.30866" height="1.30866" fill="#2C6897"/>
<rect x="24.2222" y="24.5037" width="1.30866" height="1.30866" fill="#2C6897"/>
<rect x="25.5308" y="24.5037" width="1.30866" height="1.30866" fill="#224B7A"/>
<rect x="26.8398" y="24.5037" width="1.30866" height="1.30866" fill="#224B7A"/>
<rect x="28.1484" y="24.5037" width="1.30866" height="1.30866" fill="#224B7A"/>
<rect x="29.457" y="24.5037" width="1.30866" height="1.30866" fill="#224B7A"/>
<rect x="30.7656" y="24.5037" width="1.30866" height="1.30866" fill="#224B7A"/>
<rect x="32.0742" y="24.5037" width="1.30866" height="1.30866" fill="#224B7A"/>
<rect x="33.3828" y="24.5037" width="1.30866" height="1.30866" fill="#05090F"/>
<rect x="1.9751" y="25.8123" width="1.30866" height="1.30866" fill="black"/>
<rect x="3.28369" y="25.8123" width="1.30866" height="1.30866" fill="#224B7A"/>
<rect x="4.59229" y="25.8123" width="1.30866" height="1.30866" fill="#224B7A"/>
<rect x="5.90137" y="25.8123" width="1.30866" height="1.30866" fill="#224B7A"/>
<rect x="7.20996" y="25.8123" width="1.30866" height="1.30866" fill="#224B7A"/>
<rect x="8.51855" y="25.8123" width="1.30866" height="1.30866" fill="#224B7A"/>
<rect x="9.82715" y="25.8123" width="1.30866" height="1.30866" fill="#224B7A"/>
<rect x="11.1357" y="25.8123" width="1.30866" height="1.30866" fill="#224B7A"/>
<rect x="12.4443" y="25.8123" width="1.30866" height="1.30866" fill="#224B7A"/>
<rect x="13.7529" y="25.8123" width="1.30866" height="1.30866" fill="#2C6897"/>
<rect x="15.0615" y="25.8123" width="1.30866" height="1.30866" fill="#2C6897"/>
<rect x="16.3706" y="25.8123" width="1.30866" height="1.30866" fill="#03070A"/>
<rect x="17.6792" y="25.8123" width="1.30866" height="1.30866" fill="black"/>
<rect x="18.9878" y="25.8123" width="1.30866" height="1.30866" fill="black"/>
<rect x="20.2964" y="25.8123" width="1.30866" height="1.30866" fill="black"/>
<rect x="21.605" y="25.8123" width="1.30866" height="1.30866" fill="black"/>
<rect x="22.9136" y="25.8123" width="1.30866" height="1.30866" fill="black"/>
<rect x="24.2222" y="25.8123" width="1.30866" height="1.30866" fill="black"/>
<rect x="25.5308" y="25.8123" width="1.30866" height="1.30866" fill="black"/>
<rect x="26.8398" y="25.8123" width="1.30866" height="1.30866" fill="black"/>
<rect x="28.1484" y="25.8123" width="1.30866" height="1.30866" fill="#224B7A"/>
<rect x="29.457" y="25.8123" width="1.30866" height="1.30866" fill="#224B7A"/>
<rect x="30.7656" y="25.8123" width="1.30866" height="1.30866" fill="#224B7A"/>
<rect x="32.0742" y="25.8123" width="1.30866" height="1.30866" fill="#224B7A"/>
<rect x="1.9751" y="27.1208" width="1.30866" height="1.30866" fill="#020508"/>
<rect x="3.28369" y="27.1208" width="1.30866" height="1.30866" fill="#224B7A"/>
<rect x="4.59229" y="27.1208" width="1.30866" height="1.30866" fill="#224B7A"/>
<rect x="5.90137" y="27.1208" width="1.30866" height="1.30866" fill="#224B7A"/>
<rect x="7.20996" y="27.1208" width="1.30866" height="1.30866" fill="black"/>
<rect x="8.51855" y="27.1208" width="1.30866" height="1.30866" fill="#224B7A"/>
<rect x="9.82715" y="27.1208" width="1.30866" height="1.30866" fill="#224B7A"/>
<rect x="11.1357" y="27.1208" width="1.30866" height="1.30866" fill="#224B7A"/>
<rect x="12.4443" y="27.1208" width="1.30866" height="1.30866" fill="#224B7A"/>
<rect x="13.7529" y="27.1208" width="1.30866" height="1.30866" fill="#224B7A"/>
<rect x="15.0615" y="27.1208" width="1.30866" height="1.30866" fill="#224B7A"/>
<rect x="16.3706" y="27.1208" width="1.30866" height="1.30866" fill="#285D8C"/>
<rect x="17.6792" y="27.1208" width="1.30866" height="1.30866" fill="#2C6897"/>
<rect x="18.9878" y="27.1208" width="1.30866" height="1.30866" fill="#2C6897"/>
<rect x="20.2964" y="27.1208" width="1.30866" height="1.30866" fill="#2C6897"/>
<rect x="21.605" y="27.1208" width="1.30866" height="1.30866" fill="#2C6897"/>
<rect x="22.9136" y="27.1208" width="1.30866" height="1.30866" fill="#2C6897"/>
<rect x="24.2222" y="27.1208" width="1.30866" height="1.30866" fill="#2C6897"/>
<rect x="25.5308" y="27.1208" width="1.30866" height="1.30866" fill="#224B7A"/>
<rect x="26.8398" y="27.1208" width="1.30866" height="1.30866" fill="#224B7A"/>
<rect x="28.1484" y="27.1208" width="1.30866" height="1.30866" fill="#224B7A"/>
<rect x="29.457" y="27.1208" width="1.30866" height="1.30866" fill="#224B7A"/>
<rect x="30.7656" y="27.1208" width="1.30866" height="1.30866" fill="#224B7A"/>
<rect x="32.0742" y="27.1208" width="1.30866" height="1.30866" fill="black"/>
<rect x="1.9751" y="28.4294" width="1.30866" height="1.30866" fill="black"/>
<rect x="3.28369" y="28.4294" width="1.30866" height="1.30866" fill="black"/>
<rect x="4.59229" y="28.4294" width="1.30866" height="1.30866" fill="#224B7A"/>
<rect x="5.90137" y="28.4294" width="1.30866" height="1.30866" fill="black"/>
<rect x="7.20996" y="28.4294" width="1.30866" height="1.30866" fill="#224B7A"/>
<rect x="8.51855" y="28.4294" width="1.30866" height="1.30866" fill="#224B7A"/>
<rect x="9.82715" y="28.4294" width="1.30866" height="1.30866" fill="#224B7A"/>
<rect x="11.1357" y="28.4294" width="1.30866" height="1.30866" fill="#224B7A"/>
<rect x="12.4443" y="28.4294" width="1.30866" height="1.30866" fill="#224B7A"/>
<rect x="13.7529" y="28.4294" width="1.30866" height="1.30866" fill="#224B7A"/>
<rect x="15.0615" y="28.4294" width="1.30866" height="1.30866" fill="#224B7A"/>
<rect x="16.3706" y="28.4294" width="1.30866" height="1.30866" fill="#224B7A"/>
<rect x="17.6792" y="28.4294" width="1.30866" height="1.30866" fill="#224B7A"/>
<rect x="18.9878" y="28.4294" width="1.30866" height="1.30866" fill="#224B7A"/>
<rect x="20.2964" y="28.4294" width="1.30866" height="1.30866" fill="#2C6897"/>
<rect x="21.605" y="28.4294" width="1.30866" height="1.30866" fill="#2C6897"/>
<rect x="22.9136" y="28.4294" width="1.30866" height="1.30866" fill="#2C6897"/>
<rect x="24.2222" y="28.4294" width="1.30866" height="1.30866" fill="#2C6897"/>
<rect x="25.5308" y="28.4294" width="1.30866" height="1.30866" fill="#224B7A"/>
<rect x="26.8398" y="28.4294" width="1.30866" height="1.30866" fill="#224B7A"/>
<rect x="28.1484" y="28.4294" width="1.30866" height="1.30866" fill="#224B7A"/>
<rect x="29.457" y="28.4294" width="1.30866" height="1.30866" fill="#224B7A"/>
<rect x="30.7656" y="28.4294" width="1.30866" height="1.30866" fill="black"/>
<rect x="3.28369" y="29.7383" width="1.30866" height="1.30866" fill="#224B7A"/>
<rect x="4.59229" y="29.7383" width="1.30866" height="1.30866" fill="#224B7A"/>
<rect x="5.90137" y="29.7383" width="1.30866" height="1.30866" fill="#224B7A"/>
<rect x="7.20996" y="29.7383" width="1.30866" height="1.30866" fill="#224B7A"/>
<rect x="8.51855" y="29.7383" width="1.30866" height="1.30866" fill="#224B7A"/>
<rect x="9.82715" y="29.7383" width="1.30866" height="1.30866" fill="#224B7A"/>
<rect x="11.1357" y="29.7383" width="1.30866" height="1.30866" fill="#224B7A"/>
<rect x="12.4443" y="29.7383" width="1.30866" height="1.30866" fill="#224B7A"/>
<rect x="13.7529" y="29.7383" width="1.30866" height="1.30866" fill="#224B7A"/>
<rect x="15.0615" y="29.7383" width="1.30866" height="1.30866" fill="#224B7A"/>
<rect x="16.3706" y="29.7383" width="1.30866" height="1.30866" fill="#224B7A"/>
<rect x="17.6792" y="29.7383" width="1.30866" height="1.30866" fill="#224B7A"/>
<rect x="18.9878" y="29.7383" width="1.30866" height="1.30866" fill="#224B7A"/>
<rect x="20.2964" y="29.7383" width="1.30866" height="1.30866" fill="#224B7A"/>
<rect x="21.605" y="29.7383" width="1.30866" height="1.30866" fill="#224B7A"/>
<rect x="22.9136" y="29.7383" width="1.30866" height="1.30866" fill="#2B6391"/>
<rect x="24.2222" y="29.7383" width="1.30866" height="1.30866" fill="#2C6897"/>
<rect x="25.5308" y="29.7383" width="1.30866" height="1.30866" fill="#224B7A"/>
<rect x="26.8398" y="29.7383" width="1.30866" height="1.30866" fill="#224B7A"/>
<rect x="28.1484" y="29.7383" width="1.30866" height="1.30866" fill="#224B7A"/>
<rect x="29.457" y="29.7383" width="1.30866" height="1.30866" fill="black"/>
<rect x="3.28369" y="31.0469" width="1.30866" height="1.30866" fill="black"/>
<rect x="4.59229" y="31.0469" width="1.30866" height="1.30866" fill="#224B7A"/>
<rect x="5.90137" y="31.0469" width="1.30866" height="1.30866" fill="#224B7A"/>
<rect x="7.20996" y="31.0469" width="1.30866" height="1.30866" fill="#224B7A"/>
<rect x="8.51855" y="31.0469" width="1.30866" height="1.30866" fill="#224B7A"/>
<rect x="9.82715" y="31.0469" width="1.30866" height="1.30866" fill="#224B7A"/>
<rect x="11.1357" y="31.0469" width="1.30866" height="1.30866" fill="#224B7A"/>
<rect x="12.4443" y="31.0469" width="1.30866" height="1.30866" fill="#224B7A"/>
<rect x="13.7529" y="31.0469" width="1.30866" height="1.30866" fill="#224B7A"/>
<rect x="15.0615" y="31.0469" width="1.30866" height="1.30866" fill="#224B7A"/>
<rect x="16.3706" y="31.0469" width="1.30866" height="1.30866" fill="#224B7A"/>
<rect x="17.6792" y="31.0469" width="1.30866" height="1.30866" fill="#224B7A"/>
<rect x="18.9878" y="31.0469" width="1.30866" height="1.30866" fill="#224B7A"/>
<rect x="20.2964" y="31.0469" width="1.30866" height="1.30866" fill="#224B7A"/>
<rect x="21.605" y="31.0469" width="1.30866" height="1.30866" fill="#224B7A"/>
<rect x="22.9136" y="31.0469" width="1.30866" height="1.30866" fill="#224B7A"/>
<rect x="24.2222" y="31.0469" width="1.30866" height="1.30866" fill="#224B7A"/>
<rect x="25.5308" y="31.0469" width="1.30866" height="1.30866" fill="#224B7A"/>
<rect x="26.8398" y="31.0469" width="1.30866" height="1.30866" fill="#0F2135"/>
<rect x="28.1484" y="31.0469" width="1.30866" height="1.30866" fill="black"/>
<rect x="5.90137" y="32.3555" width="1.30866" height="1.30866" fill="black"/>
<rect x="7.20996" y="32.3555" width="1.30866" height="1.30866" fill="black"/>
<rect x="8.51855" y="32.3555" width="1.30866" height="1.30866" fill="#224B7A"/>
<rect x="9.82715" y="32.3555" width="1.30866" height="1.30866" fill="#224B7A"/>
<rect x="11.1357" y="32.3555" width="1.30866" height="1.30866" fill="#224B7A"/>
<rect x="12.4443" y="32.3555" width="1.30866" height="1.30866" fill="#224B7A"/>
<rect x="13.7529" y="32.3555" width="1.30866" height="1.30866" fill="#224B7A"/>
<rect x="15.0615" y="32.3555" width="1.30866" height="1.30866" fill="#224B7A"/>
<rect x="16.3706" y="32.3555" width="1.30866" height="1.30866" fill="#224B7A"/>
<rect x="17.6792" y="32.3555" width="1.30866" height="1.30866" fill="#224B7A"/>
<rect x="18.9878" y="32.3555" width="1.30866" height="1.30866" fill="#224B7A"/>
<rect x="20.2964" y="32.3555" width="1.30866" height="1.30866" fill="#224B7A"/>
<rect x="21.605" y="32.3555" width="1.30866" height="1.30866" fill="#224B7A"/>
<rect x="22.9136" y="32.3555" width="1.30866" height="1.30866" fill="#224B7A"/>
<rect x="24.2222" y="32.3555" width="1.30866" height="1.30866" fill="#204773"/>
<rect x="25.5308" y="32.3555" width="1.30866" height="1.30866" fill="black"/>
<rect x="8.51855" y="33.6641" width="1.30866" height="1.30866" fill="black"/>
<rect x="9.82715" y="33.6641" width="1.30866" height="1.30866" fill="#09131F"/>
<rect x="11.1357" y="33.6641" width="1.30866" height="1.30866" fill="#224B7A"/>
<rect x="12.4443" y="33.6641" width="1.30866" height="1.30866" fill="#224B7A"/>
<rect x="13.7529" y="33.6641" width="1.30866" height="1.30866" fill="#224B7A"/>
<rect x="15.0615" y="33.6641" width="1.30866" height="1.30866" fill="#224B7A"/>
<rect x="16.3706" y="33.6641" width="1.30866" height="1.30866" fill="#224B7A"/>
<rect x="17.6792" y="33.6641" width="1.30866" height="1.30866" fill="#224B7A"/>
<rect x="18.9878" y="33.6641" width="1.30866" height="1.30866" fill="#224B7A"/>
<rect x="20.2964" y="33.6641" width="1.30866" height="1.30866" fill="#1A395C"/>
<rect x="21.605" y="33.6641" width="1.30866" height="1.30866" fill="black"/>
<rect x="22.9136" y="33.6641" width="1.30866" height="1.30866" fill="black"/>
<rect x="11.1357" y="34.9729" width="1.30866" height="1.30866" fill="black"/>
<rect x="12.4443" y="34.9729" width="1.30866" height="1.30866" fill="#224B7A"/>
<rect x="13.7529" y="34.9729" width="1.30866" height="1.30866" fill="#224B7A"/>
<rect x="15.0615" y="34.9729" width="1.30866" height="1.30866" fill="#1A395C"/>
<rect x="16.3706" y="34.9729" width="1.30866" height="1.30866" fill="black"/>
<rect x="17.6792" y="34.9729" width="1.30866" height="1.30866" fill="black"/>
<rect x="12.4443" y="36.2815" width="1.30866" height="1.30866" fill="black"/>
</svg>
