<svg width="133" height="133" viewBox="0 0 133 133" fill="none" xmlns="http://www.w3.org/2000/svg">
<rect x="60.814" y="0.0738525" width="6" height="6" fill="white"/>
<rect x="66.814" y="0.0738525" width="6" height="6" fill="white"/>
<rect x="72.814" y="0.0738525" width="6" height="6" fill="white"/>
<rect x="36.814" y="6.07385" width="6" height="6" fill="white"/>
<rect x="42.814" y="6.07385" width="6" height="6" fill="white"/>
<rect x="48.814" y="6.07385" width="6" height="6" fill="white"/>
<rect x="54.814" y="6.07385" width="6" height="6" fill="white"/>
<rect x="60.814" y="6.07385" width="6" height="6" fill="white"/>
<rect x="66.814" y="6.07385" width="6" height="6" fill="white"/>
<rect x="72.814" y="6.07385" width="6" height="6" fill="white"/>
<rect x="78.814" y="6.07385" width="6" height="6" fill="white"/>
<rect x="84.814" y="6.07385" width="6" height="6" fill="white"/>
<rect x="90.814" y="6.07385" width="6" height="6" fill="white"/>
<rect x="30.814" y="12.0739" width="6" height="6" fill="white"/>
<rect x="36.814" y="12.0739" width="6" height="6" fill="white"/>
<rect x="42.814" y="12.0739" width="6" height="6" fill="white"/>
<rect x="48.814" y="12.0739" width="6" height="6" fill="white"/>
<rect x="54.814" y="12.0739" width="6" height="6" fill="white"/>
<rect x="60.814" y="12.0739" width="6" height="6" fill="white"/>
<rect x="66.814" y="12.0739" width="6" height="6" fill="white"/>
<rect x="72.814" y="12.0739" width="6" height="6" fill="white"/>
<rect x="78.814" y="12.0739" width="6" height="6" fill="white"/>
<rect x="84.814" y="12.0739" width="6" height="6" fill="white"/>
<rect x="90.814" y="12.0739" width="6" height="6" fill="white"/>
<rect x="96.814" y="12.0739" width="6" height="6" fill="white"/>
<rect x="102.814" y="12.0739" width="6" height="6" fill="white"/>
<rect x="24.814" y="18.0739" width="6" height="6" fill="white"/>
<rect x="30.814" y="18.0739" width="6" height="6" fill="white"/>
<rect x="36.814" y="18.0739" width="6" height="6" fill="white"/>
<rect x="42.814" y="18.0739" width="6" height="6" fill="white"/>
<rect x="48.814" y="18.0739" width="6" height="6" fill="white"/>
<rect x="54.814" y="18.0739" width="6" height="6" fill="white"/>
<rect x="60.814" y="18.0739" width="6" height="6" fill="white"/>
<rect x="66.814" y="18.0739" width="6" height="6" fill="white"/>
<rect x="72.814" y="18.0739" width="6" height="6" fill="white"/>
<rect x="78.814" y="18.0739" width="6" height="6" fill="white"/>
<rect x="84.814" y="18.0739" width="6" height="6" fill="white"/>
<rect x="90.814" y="18.0739" width="6" height="6" fill="white"/>
<rect x="96.814" y="18.0739" width="6" height="6" fill="white"/>
<rect x="102.814" y="18.0739" width="6" height="6" fill="white"/>
<rect x="108.814" y="18.0739" width="6" height="6" fill="white"/>
<rect x="18.814" y="24.0739" width="6" height="6" fill="white"/>
<rect x="24.814" y="24.0739" width="6" height="6" fill="white"/>
<rect x="30.814" y="24.0739" width="6" height="6" fill="black"/>
<rect x="36.814" y="24.0739" width="6" height="6" fill="black"/>
<rect x="42.814" y="24.0739" width="6" height="6" fill="black"/>
<rect x="48.814" y="24.0739" width="6" height="6" fill="black"/>
<rect x="54.814" y="24.0739" width="6" height="6" fill="white"/>
<rect x="60.814" y="24.0739" width="6" height="6" fill="white"/>
<rect x="66.814" y="24.0739" width="6" height="6" fill="white"/>
<rect x="72.814" y="24.0739" width="6" height="6" fill="white"/>
<rect x="78.814" y="24.0739" width="6" height="6" fill="white"/>
<rect x="84.814" y="24.0739" width="6" height="6" fill="white"/>
<rect x="90.814" y="24.0739" width="6" height="6" fill="white"/>
<rect x="96.814" y="24.0739" width="6" height="6" fill="white"/>
<rect x="102.814" y="24.0739" width="6" height="6" fill="white"/>
<rect x="108.814" y="24.0739" width="6" height="6" fill="white"/>
<rect x="114.814" y="24.0739" width="6" height="6" fill="white"/>
<rect x="12.814" y="30.0739" width="6" height="6" fill="white"/>
<rect x="18.814" y="30.0739" width="6" height="6" fill="black"/>
<rect x="24.814" y="30.0739" width="6" height="6" fill="black"/>
<rect x="30.814" y="30.0739" width="6" height="6" fill="black"/>
<rect x="36.814" y="30.0739" width="6" height="6" fill="black"/>
<rect x="42.814" y="30.0739" width="6" height="6" fill="black"/>
<rect x="48.814" y="30.0739" width="6" height="6" fill="black"/>
<rect x="54.814" y="30.0739" width="6" height="6" fill="black"/>
<rect x="60.814" y="30.0739" width="6" height="6" fill="black"/>
<rect x="66.814" y="30.0739" width="6" height="6" fill="white"/>
<rect x="72.814" y="30.0739" width="6" height="6" fill="white"/>
<rect x="78.814" y="30.0739" width="6" height="6" fill="white"/>
<rect x="84.814" y="30.0739" width="6" height="6" fill="white"/>
<rect x="90.814" y="30.0739" width="6" height="6" fill="white"/>
<rect x="96.814" y="30.0739" width="6" height="6" fill="white"/>
<rect x="102.814" y="30.0739" width="6" height="6" fill="white"/>
<rect x="108.814" y="30.0739" width="6" height="6" fill="white"/>
<rect x="114.814" y="30.0739" width="6" height="6" fill="white"/>
<rect x="6.81396" y="36.0739" width="6" height="6" fill="white"/>
<rect x="12.814" y="36.0739" width="6" height="6" fill="black"/>
<rect x="18.814" y="36.0739" width="6" height="6" fill="black"/>
<rect x="24.814" y="36.0739" width="6" height="6" fill="black"/>
<rect x="30.814" y="36.0739" width="6" height="6" fill="black"/>
<rect x="36.814" y="36.0739" width="6" height="6" fill="black"/>
<rect x="42.814" y="36.0739" width="6" height="6" fill="black"/>
<rect x="48.814" y="36.0739" width="6" height="6" fill="black"/>
<rect x="54.814" y="36.0739" width="6" height="6" fill="black"/>
<rect x="60.814" y="36.0739" width="6" height="6" fill="black"/>
<rect x="66.814" y="36.0739" width="6" height="6" fill="black"/>
<rect x="72.814" y="36.0739" width="6" height="6" fill="white"/>
<rect x="78.814" y="36.0739" width="6" height="6" fill="white"/>
<rect x="84.814" y="36.0739" width="6" height="6" fill="white"/>
<rect x="90.814" y="36.0739" width="6" height="6" fill="white"/>
<rect x="96.814" y="36.0739" width="6" height="6" fill="white"/>
<rect x="102.814" y="36.0739" width="6" height="6" fill="white"/>
<rect x="108.814" y="36.0739" width="6" height="6" fill="white"/>
<rect x="114.814" y="36.0739" width="6" height="6" fill="white"/>
<rect x="120.814" y="36.0739" width="6" height="6" fill="white"/>
<rect x="6.81396" y="42.0739" width="6" height="6" fill="#DFDFDF"/>
<rect x="12.814" y="42.0739" width="6" height="6" fill="black"/>
<rect x="18.814" y="42.0739" width="6" height="6" fill="black"/>
<rect x="24.814" y="42.0739" width="6" height="6" fill="black"/>
<rect x="30.814" y="42.0739" width="6" height="6" fill="black"/>
<rect x="36.814" y="42.0739" width="6" height="6" fill="black"/>
<rect x="42.814" y="42.0739" width="6" height="6" fill="black"/>
<rect x="48.814" y="42.0739" width="6" height="6" fill="#101010"/>
<rect x="54.814" y="42.0739" width="6" height="6" fill="white"/>
<rect x="60.814" y="42.0739" width="6" height="6" fill="#404040"/>
<rect x="66.814" y="42.0739" width="6" height="6" fill="black"/>
<rect x="72.814" y="42.0739" width="6" height="6" fill="#101010"/>
<rect x="78.814" y="42.0739" width="6" height="6" fill="white"/>
<rect x="84.814" y="42.0739" width="6" height="6" fill="white"/>
<rect x="90.814" y="42.0739" width="6" height="6" fill="white"/>
<rect x="96.814" y="42.0739" width="6" height="6" fill="white"/>
<rect x="102.814" y="42.0739" width="6" height="6" fill="white"/>
<rect x="108.814" y="42.0739" width="6" height="6" fill="white"/>
<rect x="114.814" y="42.0739" width="6" height="6" fill="white"/>
<rect x="120.814" y="42.0739" width="6" height="6" fill="white"/>
<rect x="6.81396" y="48.0739" width="6" height="6" fill="black"/>
<rect x="12.814" y="48.0739" width="6" height="6" fill="black"/>
<rect x="18.814" y="48.0739" width="6" height="6" fill="black"/>
<rect x="24.814" y="48.0739" width="6" height="6" fill="black"/>
<rect x="30.814" y="48.0739" width="6" height="6" fill="black"/>
<rect x="36.814" y="48.0739" width="6" height="6" fill="black"/>
<rect x="42.814" y="48.0739" width="6" height="6" fill="black"/>
<rect x="48.814" y="48.0739" width="6" height="6" fill="white"/>
<rect x="54.814" y="48.0739" width="6" height="6" fill="white"/>
<rect x="60.814" y="48.0739" width="6" height="6" fill="white"/>
<rect x="66.814" y="48.0739" width="6" height="6" fill="black"/>
<rect x="72.814" y="48.0739" width="6" height="6" fill="black"/>
<rect x="78.814" y="48.0739" width="6" height="6" fill="white"/>
<rect x="84.814" y="48.0739" width="6" height="6" fill="white"/>
<rect x="90.814" y="48.0739" width="6" height="6" fill="white"/>
<rect x="96.814" y="48.0739" width="6" height="6" fill="white"/>
<rect x="102.814" y="48.0739" width="6" height="6" fill="white"/>
<rect x="108.814" y="48.0739" width="6" height="6" fill="white"/>
<rect x="114.814" y="48.0739" width="6" height="6" fill="white"/>
<rect x="120.814" y="48.0739" width="6" height="6" fill="white"/>
<rect x="126.814" y="48.0739" width="6" height="6" fill="white"/>
<rect x="6.81396" y="54.0739" width="6" height="6" fill="black"/>
<rect x="12.814" y="54.0739" width="6" height="6" fill="black"/>
<rect x="18.814" y="54.0739" width="6" height="6" fill="black"/>
<rect x="24.814" y="54.0739" width="6" height="6" fill="black"/>
<rect x="30.814" y="54.0739" width="6" height="6" fill="black"/>
<rect x="36.814" y="54.0739" width="6" height="6" fill="black"/>
<rect x="42.814" y="54.0739" width="6" height="6" fill="black"/>
<rect x="48.814" y="54.0739" width="6" height="6" fill="white"/>
<rect x="54.814" y="54.0739" width="6" height="6" fill="white"/>
<rect x="60.814" y="54.0739" width="6" height="6" fill="white"/>
<rect x="66.814" y="54.0739" width="6" height="6" fill="black"/>
<rect x="72.814" y="54.0739" width="6" height="6" fill="black"/>
<rect x="78.814" y="54.0739" width="6" height="6" fill="white"/>
<rect x="84.814" y="54.0739" width="6" height="6" fill="white"/>
<rect x="90.814" y="54.0739" width="6" height="6" fill="white"/>
<rect x="96.814" y="54.0739" width="6" height="6" fill="white"/>
<rect x="102.814" y="54.0739" width="6" height="6" fill="white"/>
<rect x="108.814" y="54.0739" width="6" height="6" fill="white"/>
<rect x="114.814" y="54.0739" width="6" height="6" fill="white"/>
<rect x="120.814" y="54.0739" width="6" height="6" fill="white"/>
<rect x="126.814" y="54.0739" width="6" height="6" fill="white"/>
<rect x="0.813965" y="60.0739" width="6" height="6" fill="white"/>
<rect x="6.81396" y="60.0739" width="6" height="6" fill="black"/>
<rect x="12.814" y="60.0739" width="6" height="6" fill="black"/>
<rect x="18.814" y="60.0739" width="6" height="6" fill="black"/>
<rect x="24.814" y="60.0739" width="6" height="6" fill="black"/>
<rect x="30.814" y="60.0739" width="6" height="6" fill="black"/>
<rect x="36.814" y="60.0739" width="6" height="6" fill="black"/>
<rect x="42.814" y="60.0739" width="6" height="6" fill="black"/>
<rect x="48.814" y="60.0739" width="6" height="6" fill="black"/>
<rect x="54.814" y="60.0739" width="6" height="6" fill="black"/>
<rect x="60.814" y="60.0739" width="6" height="6" fill="black"/>
<rect x="66.814" y="60.0739" width="6" height="6" fill="black"/>
<rect x="72.814" y="60.0739" width="6" height="6" fill="black"/>
<rect x="78.814" y="60.0739" width="6" height="6" fill="white"/>
<rect x="84.814" y="60.0739" width="6" height="6" fill="white"/>
<rect x="90.814" y="60.0739" width="6" height="6" fill="white"/>
<rect x="96.814" y="60.0739" width="6" height="6" fill="white"/>
<rect x="102.814" y="60.0739" width="6" height="6" fill="white"/>
<rect x="108.814" y="60.0739" width="6" height="6" fill="white"/>
<rect x="114.814" y="60.0739" width="6" height="6" fill="white"/>
<rect x="120.814" y="60.0739" width="6" height="6" fill="white"/>
<rect x="126.814" y="60.0739" width="6" height="6" fill="white"/>
<rect x="0.813965" y="66.0739" width="6" height="6" fill="white"/>
<rect x="6.81396" y="66.0739" width="6" height="6" fill="black"/>
<rect x="12.814" y="66.0739" width="6" height="6" fill="black"/>
<rect x="18.814" y="66.0739" width="6" height="6" fill="black"/>
<rect x="24.814" y="66.0739" width="6" height="6" fill="black"/>
<rect x="30.814" y="66.0739" width="6" height="6" fill="black"/>
<rect x="36.814" y="66.0739" width="6" height="6" fill="black"/>
<rect x="42.814" y="66.0739" width="6" height="6" fill="black"/>
<rect x="48.814" y="66.0739" width="6" height="6" fill="black"/>
<rect x="54.814" y="66.0739" width="6" height="6" fill="black"/>
<rect x="60.814" y="66.0739" width="6" height="6" fill="black"/>
<rect x="66.814" y="66.0739" width="6" height="6" fill="black"/>
<rect x="72.814" y="66.0739" width="6" height="6" fill="black"/>
<rect x="78.814" y="66.0739" width="6" height="6" fill="white"/>
<rect x="84.814" y="66.0739" width="6" height="6" fill="white"/>
<rect x="90.814" y="66.0739" width="6" height="6" fill="white"/>
<rect x="96.814" y="66.0739" width="6" height="6" fill="white"/>
<rect x="102.814" y="66.0739" width="6" height="6" fill="white"/>
<rect x="108.814" y="66.0739" width="6" height="6" fill="white"/>
<rect x="114.814" y="66.0739" width="6" height="6" fill="white"/>
<rect x="120.814" y="66.0739" width="6" height="6" fill="white"/>
<rect x="126.814" y="66.0739" width="6" height="6" fill="white"/>
<rect x="0.813965" y="72.0739" width="6" height="6" fill="white"/>
<rect x="6.81396" y="72.0739" width="6" height="6" fill="black"/>
<rect x="12.814" y="72.0739" width="6" height="6" fill="black"/>
<rect x="18.814" y="72.0739" width="6" height="6" fill="black"/>
<rect x="24.814" y="72.0739" width="6" height="6" fill="black"/>
<rect x="30.814" y="72.0739" width="6" height="6" fill="black"/>
<rect x="36.814" y="72.0739" width="6" height="6" fill="black"/>
<rect x="42.814" y="72.0739" width="6" height="6" fill="black"/>
<rect x="48.814" y="72.0739" width="6" height="6" fill="black"/>
<rect x="54.814" y="72.0739" width="6" height="6" fill="black"/>
<rect x="60.814" y="72.0739" width="6" height="6" fill="black"/>
<rect x="66.814" y="72.0739" width="6" height="6" fill="black"/>
<rect x="72.814" y="72.0739" width="6" height="6" fill="black"/>
<rect x="78.814" y="72.0739" width="6" height="6" fill="white"/>
<rect x="84.814" y="72.0739" width="6" height="6" fill="white"/>
<rect x="90.814" y="72.0739" width="6" height="6" fill="white"/>
<rect x="96.814" y="72.0739" width="6" height="6" fill="white"/>
<rect x="102.814" y="72.0739" width="6" height="6" fill="white"/>
<rect x="108.814" y="72.0739" width="6" height="6" fill="white"/>
<rect x="114.814" y="72.0739" width="6" height="6" fill="white"/>
<rect x="120.814" y="72.0739" width="6" height="6" fill="white"/>
<rect x="126.814" y="72.0739" width="6" height="6" fill="white"/>
<rect x="6.81396" y="78.0739" width="6" height="6" fill="white"/>
<rect x="12.814" y="78.0739" width="6" height="6" fill="black"/>
<rect x="18.814" y="78.0739" width="6" height="6" fill="black"/>
<rect x="24.814" y="78.0739" width="6" height="6" fill="black"/>
<rect x="30.814" y="78.0739" width="6" height="6" fill="black"/>
<rect x="36.814" y="78.0739" width="6" height="6" fill="black"/>
<rect x="42.814" y="78.0739" width="6" height="6" fill="black"/>
<rect x="48.814" y="78.0739" width="6" height="6" fill="black"/>
<rect x="54.814" y="78.0739" width="6" height="6" fill="black"/>
<rect x="60.814" y="78.0739" width="6" height="6" fill="black"/>
<rect x="66.814" y="78.0739" width="6" height="6" fill="black"/>
<rect x="72.814" y="78.0739" width="6" height="6" fill="#9F9F9F"/>
<rect x="78.814" y="78.0739" width="6" height="6" fill="white"/>
<rect x="84.814" y="78.0739" width="6" height="6" fill="white"/>
<rect x="90.814" y="78.0739" width="6" height="6" fill="white"/>
<rect x="96.814" y="78.0739" width="6" height="6" fill="white"/>
<rect x="102.814" y="78.0739" width="6" height="6" fill="white"/>
<rect x="108.814" y="78.0739" width="6" height="6" fill="white"/>
<rect x="114.814" y="78.0739" width="6" height="6" fill="white"/>
<rect x="120.814" y="78.0739" width="6" height="6" fill="white"/>
<rect x="126.814" y="78.0739" width="6" height="6" fill="white"/>
<rect x="6.81396" y="84.0739" width="6" height="6" fill="white"/>
<rect x="12.814" y="84.0739" width="6" height="6" fill="black"/>
<rect x="18.814" y="84.0739" width="6" height="6" fill="black"/>
<rect x="24.814" y="84.0739" width="6" height="6" fill="black"/>
<rect x="30.814" y="84.0739" width="6" height="6" fill="black"/>
<rect x="36.814" y="84.0739" width="6" height="6" fill="black"/>
<rect x="42.814" y="84.0739" width="6" height="6" fill="black"/>
<rect x="48.814" y="84.0739" width="6" height="6" fill="black"/>
<rect x="54.814" y="84.0739" width="6" height="6" fill="black"/>
<rect x="60.814" y="84.0739" width="6" height="6" fill="black"/>
<rect x="66.814" y="84.0739" width="6" height="6" fill="black"/>
<rect x="72.814" y="84.0739" width="6" height="6" fill="white"/>
<rect x="78.814" y="84.0739" width="6" height="6" fill="white"/>
<rect x="84.814" y="84.0739" width="6" height="6" fill="white"/>
<rect x="90.814" y="84.0739" width="6" height="6" fill="white"/>
<rect x="96.814" y="84.0739" width="6" height="6" fill="white"/>
<rect x="102.814" y="84.0739" width="6" height="6" fill="white"/>
<rect x="108.814" y="84.0739" width="6" height="6" fill="white"/>
<rect x="114.814" y="84.0739" width="6" height="6" fill="white"/>
<rect x="120.814" y="84.0739" width="6" height="6" fill="white"/>
<rect x="126.814" y="84.0739" width="6" height="6" fill="white"/>
<rect x="6.81396" y="90.0739" width="6" height="6" fill="white"/>
<rect x="12.814" y="90.0739" width="6" height="6" fill="white"/>
<rect x="18.814" y="90.0739" width="6" height="6" fill="#7F7F7F"/>
<rect x="24.814" y="90.0739" width="6" height="6" fill="black"/>
<rect x="30.814" y="90.0739" width="6" height="6" fill="black"/>
<rect x="36.814" y="90.0739" width="6" height="6" fill="black"/>
<rect x="42.814" y="90.0739" width="6" height="6" fill="black"/>
<rect x="48.814" y="90.0739" width="6" height="6" fill="black"/>
<rect x="54.814" y="90.0739" width="6" height="6" fill="black"/>
<rect x="60.814" y="90.0739" width="6" height="6" fill="#101010"/>
<rect x="66.814" y="90.0739" width="6" height="6" fill="white"/>
<rect x="72.814" y="90.0739" width="6" height="6" fill="white"/>
<rect x="78.814" y="90.0739" width="6" height="6" fill="white"/>
<rect x="84.814" y="90.0739" width="6" height="6" fill="white"/>
<rect x="90.814" y="90.0739" width="6" height="6" fill="white"/>
<rect x="96.814" y="90.0739" width="6" height="6" fill="white"/>
<rect x="102.814" y="90.0739" width="6" height="6" fill="white"/>
<rect x="108.814" y="90.0739" width="6" height="6" fill="white"/>
<rect x="114.814" y="90.0739" width="6" height="6" fill="white"/>
<rect x="120.814" y="90.0739" width="6" height="6" fill="white"/>
<rect x="12.814" y="96.0739" width="6" height="6" fill="white"/>
<rect x="18.814" y="96.0739" width="6" height="6" fill="white"/>
<rect x="24.814" y="96.0739" width="6" height="6" fill="white"/>
<rect x="30.814" y="96.0739" width="6" height="6" fill="#DFDFDF"/>
<rect x="36.814" y="96.0739" width="6" height="6" fill="black"/>
<rect x="42.814" y="96.0739" width="6" height="6" fill="black"/>
<rect x="48.814" y="96.0739" width="6" height="6" fill="#AFAFAF"/>
<rect x="54.814" y="96.0739" width="6" height="6" fill="white"/>
<rect x="60.814" y="96.0739" width="6" height="6" fill="white"/>
<rect x="66.814" y="96.0739" width="6" height="6" fill="white"/>
<rect x="72.814" y="96.0739" width="6" height="6" fill="white"/>
<rect x="78.814" y="96.0739" width="6" height="6" fill="white"/>
<rect x="84.814" y="96.0739" width="6" height="6" fill="white"/>
<rect x="90.814" y="96.0739" width="6" height="6" fill="white"/>
<rect x="96.814" y="96.0739" width="6" height="6" fill="white"/>
<rect x="102.814" y="96.0739" width="6" height="6" fill="white"/>
<rect x="108.814" y="96.0739" width="6" height="6" fill="white"/>
<rect x="114.814" y="96.0739" width="6" height="6" fill="white"/>
<rect x="120.814" y="96.0739" width="6" height="6" fill="white"/>
<rect x="12.814" y="102.074" width="6" height="6" fill="white"/>
<rect x="18.814" y="102.074" width="6" height="6" fill="white"/>
<rect x="24.814" y="102.074" width="6" height="6" fill="white"/>
<rect x="30.814" y="102.074" width="6" height="6" fill="white"/>
<rect x="36.814" y="102.074" width="6" height="6" fill="white"/>
<rect x="42.814" y="102.074" width="6" height="6" fill="white"/>
<rect x="48.814" y="102.074" width="6" height="6" fill="white"/>
<rect x="54.814" y="102.074" width="6" height="6" fill="white"/>
<rect x="60.814" y="102.074" width="6" height="6" fill="white"/>
<rect x="66.814" y="102.074" width="6" height="6" fill="white"/>
<rect x="72.814" y="102.074" width="6" height="6" fill="white"/>
<rect x="78.814" y="102.074" width="6" height="6" fill="white"/>
<rect x="84.814" y="102.074" width="6" height="6" fill="white"/>
<rect x="90.814" y="102.074" width="6" height="6" fill="white"/>
<rect x="96.814" y="102.074" width="6" height="6" fill="white"/>
<rect x="102.814" y="102.074" width="6" height="6" fill="white"/>
<rect x="108.814" y="102.074" width="6" height="6" fill="white"/>
<rect x="114.814" y="102.074" width="6" height="6" fill="white"/>
<rect x="18.814" y="108.074" width="6" height="6" fill="white"/>
<rect x="24.814" y="108.074" width="6" height="6" fill="white"/>
<rect x="30.814" y="108.074" width="6" height="6" fill="white"/>
<rect x="36.814" y="108.074" width="6" height="6" fill="white"/>
<rect x="42.814" y="108.074" width="6" height="6" fill="white"/>
<rect x="48.814" y="108.074" width="6" height="6" fill="white"/>
<rect x="54.814" y="108.074" width="6" height="6" fill="white"/>
<rect x="60.814" y="108.074" width="6" height="6" fill="white"/>
<rect x="66.814" y="108.074" width="6" height="6" fill="white"/>
<rect x="72.814" y="108.074" width="6" height="6" fill="white"/>
<rect x="78.814" y="108.074" width="6" height="6" fill="white"/>
<rect x="84.814" y="108.074" width="6" height="6" fill="white"/>
<rect x="90.814" y="108.074" width="6" height="6" fill="white"/>
<rect x="96.814" y="108.074" width="6" height="6" fill="white"/>
<rect x="102.814" y="108.074" width="6" height="6" fill="white"/>
<rect x="108.814" y="108.074" width="6" height="6" fill="white"/>
<rect x="24.814" y="114.074" width="6" height="6" fill="white"/>
<rect x="30.814" y="114.074" width="6" height="6" fill="white"/>
<rect x="36.814" y="114.074" width="6" height="6" fill="white"/>
<rect x="42.814" y="114.074" width="6" height="6" fill="white"/>
<rect x="48.814" y="114.074" width="6" height="6" fill="white"/>
<rect x="54.814" y="114.074" width="6" height="6" fill="white"/>
<rect x="60.814" y="114.074" width="6" height="6" fill="white"/>
<rect x="66.814" y="114.074" width="6" height="6" fill="white"/>
<rect x="72.814" y="114.074" width="6" height="6" fill="white"/>
<rect x="78.814" y="114.074" width="6" height="6" fill="white"/>
<rect x="84.814" y="114.074" width="6" height="6" fill="white"/>
<rect x="90.814" y="114.074" width="6" height="6" fill="white"/>
<rect x="96.814" y="114.074" width="6" height="6" fill="white"/>
<rect x="102.814" y="114.074" width="6" height="6" fill="white"/>
<rect x="30.814" y="120.074" width="6" height="6" fill="white"/>
<rect x="36.814" y="120.074" width="6" height="6" fill="white"/>
<rect x="42.814" y="120.074" width="6" height="6" fill="white"/>
<rect x="48.814" y="120.074" width="6" height="6" fill="white"/>
<rect x="54.814" y="120.074" width="6" height="6" fill="white"/>
<rect x="60.814" y="120.074" width="6" height="6" fill="white"/>
<rect x="66.814" y="120.074" width="6" height="6" fill="white"/>
<rect x="72.814" y="120.074" width="6" height="6" fill="white"/>
<rect x="78.814" y="120.074" width="6" height="6" fill="white"/>
<rect x="84.814" y="120.074" width="6" height="6" fill="white"/>
<rect x="90.814" y="120.074" width="6" height="6" fill="white"/>
<rect x="96.814" y="120.074" width="6" height="6" fill="white"/>
<rect x="42.814" y="126.074" width="6" height="6" fill="white"/>
<rect x="48.814" y="126.074" width="6" height="6" fill="white"/>
<rect x="54.814" y="126.074" width="6" height="6" fill="white"/>
<rect x="60.814" y="126.074" width="6" height="6" fill="white"/>
<rect x="66.814" y="126.074" width="6" height="6" fill="white"/>
<rect x="72.814" y="126.074" width="6" height="6" fill="white"/>
<rect x="78.814" y="126.074" width="6" height="6" fill="white"/>
<rect x="84.814" y="126.074" width="6" height="6" fill="white"/>
</svg>
