<svg width="133" height="133" viewBox="0 0 133 133" fill="none" xmlns="http://www.w3.org/2000/svg">
<rect x="60.814" y="0.523865" width="6" height="6" fill="white"/>
<rect x="66.814" y="0.523865" width="6" height="6" fill="white"/>
<rect x="72.814" y="0.523865" width="6" height="6" fill="white"/>
<rect x="36.814" y="6.52386" width="6" height="6" fill="white"/>
<rect x="42.814" y="6.52386" width="6" height="6" fill="white"/>
<rect x="48.814" y="6.52386" width="6" height="6" fill="white"/>
<rect x="54.814" y="6.52386" width="6" height="6" fill="white"/>
<rect x="60.814" y="6.52386" width="6" height="6" fill="white"/>
<rect x="66.814" y="6.52386" width="6" height="6" fill="white"/>
<rect x="72.814" y="6.52386" width="6" height="6" fill="white"/>
<rect x="78.814" y="6.52386" width="6" height="6" fill="white"/>
<rect x="84.814" y="6.52386" width="6" height="6" fill="white"/>
<rect x="90.814" y="6.52386" width="6" height="6" fill="white"/>
<rect x="30.814" y="12.5239" width="6" height="6" fill="white"/>
<rect x="36.814" y="12.5239" width="6" height="6" fill="white"/>
<rect x="42.814" y="12.5239" width="6" height="6" fill="white"/>
<rect x="48.814" y="12.5239" width="6" height="6" fill="white"/>
<rect x="54.814" y="12.5239" width="6" height="6" fill="white"/>
<rect x="60.814" y="12.5239" width="6" height="6" fill="white"/>
<rect x="66.814" y="12.5239" width="6" height="6" fill="white"/>
<rect x="72.814" y="12.5239" width="6" height="6" fill="white"/>
<rect x="78.814" y="12.5239" width="6" height="6" fill="white"/>
<rect x="84.814" y="12.5239" width="6" height="6" fill="white"/>
<rect x="90.814" y="12.5239" width="6" height="6" fill="white"/>
<rect x="96.814" y="12.5239" width="6" height="6" fill="white"/>
<rect x="102.814" y="12.5239" width="6" height="6" fill="white"/>
<rect x="24.814" y="18.5239" width="6" height="6" fill="white"/>
<rect x="30.814" y="18.5239" width="6" height="6" fill="white"/>
<rect x="36.814" y="18.5239" width="6" height="6" fill="white"/>
<rect x="42.814" y="18.5239" width="6" height="6" fill="white"/>
<rect x="48.814" y="18.5239" width="6" height="6" fill="white"/>
<rect x="54.814" y="18.5239" width="6" height="6" fill="white"/>
<rect x="60.814" y="18.5239" width="6" height="6" fill="white"/>
<rect x="66.814" y="18.5239" width="6" height="6" fill="white"/>
<rect x="72.814" y="18.5239" width="6" height="6" fill="white"/>
<rect x="78.814" y="18.5239" width="6" height="6" fill="white"/>
<rect x="84.814" y="18.5239" width="6" height="6" fill="white"/>
<rect x="90.814" y="18.5239" width="6" height="6" fill="white"/>
<rect x="96.814" y="18.5239" width="6" height="6" fill="white"/>
<rect x="102.814" y="18.5239" width="6" height="6" fill="white"/>
<rect x="108.814" y="18.5239" width="6" height="6" fill="white"/>
<rect x="18.814" y="24.5239" width="6" height="6" fill="white"/>
<rect x="24.814" y="24.5239" width="6" height="6" fill="white"/>
<rect x="30.814" y="24.5239" width="6" height="6" fill="white"/>
<rect x="36.814" y="24.5239" width="6" height="6" fill="white"/>
<rect x="42.814" y="24.5239" width="6" height="6" fill="white"/>
<rect x="48.814" y="24.5239" width="6" height="6" fill="white"/>
<rect x="54.814" y="24.5239" width="6" height="6" fill="white"/>
<rect x="60.814" y="24.5239" width="6" height="6" fill="white"/>
<rect x="66.814" y="24.5239" width="6" height="6" fill="white"/>
<rect x="72.814" y="24.5239" width="6" height="6" fill="white"/>
<rect x="78.814" y="24.5239" width="6" height="6" fill="#101010"/>
<rect x="84.814" y="24.5239" width="6" height="6" fill="black"/>
<rect x="90.814" y="24.5239" width="6" height="6" fill="black"/>
<rect x="96.814" y="24.5239" width="6" height="6" fill="black"/>
<rect x="102.814" y="24.5239" width="6" height="6" fill="#707070"/>
<rect x="108.814" y="24.5239" width="6" height="6" fill="white"/>
<rect x="114.814" y="24.5239" width="6" height="6" fill="white"/>
<rect x="12.814" y="30.5239" width="6" height="6" fill="white"/>
<rect x="18.814" y="30.5239" width="6" height="6" fill="white"/>
<rect x="24.814" y="30.5239" width="6" height="6" fill="white"/>
<rect x="30.814" y="30.5239" width="6" height="6" fill="white"/>
<rect x="36.814" y="30.5239" width="6" height="6" fill="white"/>
<rect x="42.814" y="30.5239" width="6" height="6" fill="white"/>
<rect x="48.814" y="30.5239" width="6" height="6" fill="white"/>
<rect x="54.814" y="30.5239" width="6" height="6" fill="white"/>
<rect x="60.814" y="30.5239" width="6" height="6" fill="white"/>
<rect x="66.814" y="30.5239" width="6" height="6" fill="#909090"/>
<rect x="72.814" y="30.5239" width="6" height="6" fill="black"/>
<rect x="78.814" y="30.5239" width="6" height="6" fill="black"/>
<rect x="84.814" y="30.5239" width="6" height="6" fill="black"/>
<rect x="90.814" y="30.5239" width="6" height="6" fill="black"/>
<rect x="96.814" y="30.5239" width="6" height="6" fill="black"/>
<rect x="102.814" y="30.5239" width="6" height="6" fill="black"/>
<rect x="108.814" y="30.5239" width="6" height="6" fill="black"/>
<rect x="114.814" y="30.5239" width="6" height="6" fill="white"/>
<rect x="6.81396" y="36.5239" width="6" height="6" fill="white"/>
<rect x="12.814" y="36.5239" width="6" height="6" fill="white"/>
<rect x="18.814" y="36.5239" width="6" height="6" fill="white"/>
<rect x="24.814" y="36.5239" width="6" height="6" fill="white"/>
<rect x="30.814" y="36.5239" width="6" height="6" fill="white"/>
<rect x="36.814" y="36.5239" width="6" height="6" fill="white"/>
<rect x="42.814" y="36.5239" width="6" height="6" fill="white"/>
<rect x="48.814" y="36.5239" width="6" height="6" fill="white"/>
<rect x="54.814" y="36.5239" width="6" height="6" fill="white"/>
<rect x="60.814" y="36.5239" width="6" height="6" fill="#909090"/>
<rect x="66.814" y="36.5239" width="6" height="6" fill="black"/>
<rect x="72.814" y="36.5239" width="6" height="6" fill="black"/>
<rect x="78.814" y="36.5239" width="6" height="6" fill="black"/>
<rect x="84.814" y="36.5239" width="6" height="6" fill="black"/>
<rect x="90.814" y="36.5239" width="6" height="6" fill="black"/>
<rect x="96.814" y="36.5239" width="6" height="6" fill="black"/>
<rect x="102.814" y="36.5239" width="6" height="6" fill="black"/>
<rect x="108.814" y="36.5239" width="6" height="6" fill="black"/>
<rect x="114.814" y="36.5239" width="6" height="6" fill="black"/>
<rect x="120.814" y="36.5239" width="6" height="6" fill="white"/>
<rect x="6.81396" y="42.5239" width="6" height="6" fill="white"/>
<rect x="12.814" y="42.5239" width="6" height="6" fill="white"/>
<rect x="18.814" y="42.5239" width="6" height="6" fill="white"/>
<rect x="24.814" y="42.5239" width="6" height="6" fill="white"/>
<rect x="30.814" y="42.5239" width="6" height="6" fill="white"/>
<rect x="36.814" y="42.5239" width="6" height="6" fill="white"/>
<rect x="42.814" y="42.5239" width="6" height="6" fill="white"/>
<rect x="48.814" y="42.5239" width="6" height="6" fill="white"/>
<rect x="54.814" y="42.5239" width="6" height="6" fill="white"/>
<rect x="60.814" y="42.5239" width="6" height="6" fill="black"/>
<rect x="66.814" y="42.5239" width="6" height="6" fill="black"/>
<rect x="72.814" y="42.5239" width="6" height="6" fill="black"/>
<rect x="78.814" y="42.5239" width="6" height="6" fill="black"/>
<rect x="84.814" y="42.5239" width="6" height="6" fill="black"/>
<rect x="90.814" y="42.5239" width="6" height="6" fill="black"/>
<rect x="96.814" y="42.5239" width="6" height="6" fill="black"/>
<rect x="102.814" y="42.5239" width="6" height="6" fill="white"/>
<rect x="108.814" y="42.5239" width="6" height="6" fill="white"/>
<rect x="114.814" y="42.5239" width="6" height="6" fill="black"/>
<rect x="120.814" y="42.5239" width="6" height="6" fill="black"/>
<rect x="6.81396" y="48.5239" width="6" height="6" fill="white"/>
<rect x="12.814" y="48.5239" width="6" height="6" fill="white"/>
<rect x="18.814" y="48.5239" width="6" height="6" fill="white"/>
<rect x="24.814" y="48.5239" width="6" height="6" fill="white"/>
<rect x="30.814" y="48.5239" width="6" height="6" fill="white"/>
<rect x="36.814" y="48.5239" width="6" height="6" fill="white"/>
<rect x="42.814" y="48.5239" width="6" height="6" fill="white"/>
<rect x="48.814" y="48.5239" width="6" height="6" fill="white"/>
<rect x="54.814" y="48.5239" width="6" height="6" fill="#404040"/>
<rect x="60.814" y="48.5239" width="6" height="6" fill="black"/>
<rect x="66.814" y="48.5239" width="6" height="6" fill="black"/>
<rect x="72.814" y="48.5239" width="6" height="6" fill="black"/>
<rect x="78.814" y="48.5239" width="6" height="6" fill="black"/>
<rect x="84.814" y="48.5239" width="6" height="6" fill="black"/>
<rect x="90.814" y="48.5239" width="6" height="6" fill="black"/>
<rect x="96.814" y="48.5239" width="6" height="6" fill="white"/>
<rect x="102.814" y="48.5239" width="6" height="6" fill="white"/>
<rect x="108.814" y="48.5239" width="6" height="6" fill="white"/>
<rect x="114.814" y="48.5239" width="6" height="6" fill="#505050"/>
<rect x="120.814" y="48.5239" width="6" height="6" fill="black"/>
<rect x="126.814" y="48.5239" width="6" height="6" fill="white"/>
<rect x="6.81396" y="54.5239" width="6" height="6" fill="white"/>
<rect x="12.814" y="54.5239" width="6" height="6" fill="white"/>
<rect x="18.814" y="54.5239" width="6" height="6" fill="white"/>
<rect x="24.814" y="54.5239" width="6" height="6" fill="white"/>
<rect x="30.814" y="54.5239" width="6" height="6" fill="white"/>
<rect x="36.814" y="54.5239" width="6" height="6" fill="white"/>
<rect x="42.814" y="54.5239" width="6" height="6" fill="white"/>
<rect x="48.814" y="54.5239" width="6" height="6" fill="white"/>
<rect x="54.814" y="54.5239" width="6" height="6" fill="black"/>
<rect x="60.814" y="54.5239" width="6" height="6" fill="black"/>
<rect x="66.814" y="54.5239" width="6" height="6" fill="black"/>
<rect x="72.814" y="54.5239" width="6" height="6" fill="black"/>
<rect x="78.814" y="54.5239" width="6" height="6" fill="black"/>
<rect x="84.814" y="54.5239" width="6" height="6" fill="black"/>
<rect x="90.814" y="54.5239" width="6" height="6" fill="black"/>
<rect x="96.814" y="54.5239" width="6" height="6" fill="#DFDFDF"/>
<rect x="102.814" y="54.5239" width="6" height="6" fill="white"/>
<rect x="108.814" y="54.5239" width="6" height="6" fill="white"/>
<rect x="114.814" y="54.5239" width="6" height="6" fill="black"/>
<rect x="120.814" y="54.5239" width="6" height="6" fill="black"/>
<rect x="126.814" y="54.5239" width="6" height="6" fill="black"/>
<rect x="0.813965" y="60.5239" width="6" height="6" fill="white"/>
<rect x="6.81396" y="60.5239" width="6" height="6" fill="white"/>
<rect x="12.814" y="60.5239" width="6" height="6" fill="white"/>
<rect x="18.814" y="60.5239" width="6" height="6" fill="white"/>
<rect x="24.814" y="60.5239" width="6" height="6" fill="white"/>
<rect x="30.814" y="60.5239" width="6" height="6" fill="white"/>
<rect x="36.814" y="60.5239" width="6" height="6" fill="white"/>
<rect x="42.814" y="60.5239" width="6" height="6" fill="white"/>
<rect x="48.814" y="60.5239" width="6" height="6" fill="white"/>
<rect x="54.814" y="60.5239" width="6" height="6" fill="black"/>
<rect x="60.814" y="60.5239" width="6" height="6" fill="black"/>
<rect x="66.814" y="60.5239" width="6" height="6" fill="black"/>
<rect x="72.814" y="60.5239" width="6" height="6" fill="black"/>
<rect x="78.814" y="60.5239" width="6" height="6" fill="black"/>
<rect x="84.814" y="60.5239" width="6" height="6" fill="black"/>
<rect x="90.814" y="60.5239" width="6" height="6" fill="black"/>
<rect x="96.814" y="60.5239" width="6" height="6" fill="black"/>
<rect x="102.814" y="60.5239" width="6" height="6" fill="black"/>
<rect x="108.814" y="60.5239" width="6" height="6" fill="black"/>
<rect x="114.814" y="60.5239" width="6" height="6" fill="black"/>
<rect x="120.814" y="60.5239" width="6" height="6" fill="black"/>
<rect x="126.814" y="60.5239" width="6" height="6" fill="black"/>
<rect x="0.813965" y="66.5239" width="6" height="6" fill="white"/>
<rect x="6.81396" y="66.5239" width="6" height="6" fill="white"/>
<rect x="12.814" y="66.5239" width="6" height="6" fill="white"/>
<rect x="18.814" y="66.5239" width="6" height="6" fill="white"/>
<rect x="24.814" y="66.5239" width="6" height="6" fill="white"/>
<rect x="30.814" y="66.5239" width="6" height="6" fill="white"/>
<rect x="36.814" y="66.5239" width="6" height="6" fill="white"/>
<rect x="42.814" y="66.5239" width="6" height="6" fill="white"/>
<rect x="48.814" y="66.5239" width="6" height="6" fill="white"/>
<rect x="54.814" y="66.5239" width="6" height="6" fill="black"/>
<rect x="60.814" y="66.5239" width="6" height="6" fill="black"/>
<rect x="66.814" y="66.5239" width="6" height="6" fill="black"/>
<rect x="72.814" y="66.5239" width="6" height="6" fill="black"/>
<rect x="78.814" y="66.5239" width="6" height="6" fill="black"/>
<rect x="84.814" y="66.5239" width="6" height="6" fill="black"/>
<rect x="90.814" y="66.5239" width="6" height="6" fill="black"/>
<rect x="96.814" y="66.5239" width="6" height="6" fill="black"/>
<rect x="102.814" y="66.5239" width="6" height="6" fill="black"/>
<rect x="108.814" y="66.5239" width="6" height="6" fill="black"/>
<rect x="114.814" y="66.5239" width="6" height="6" fill="black"/>
<rect x="120.814" y="66.5239" width="6" height="6" fill="black"/>
<rect x="126.814" y="66.5239" width="6" height="6" fill="#404040"/>
<rect x="0.813965" y="72.5239" width="6" height="6" fill="white"/>
<rect x="6.81396" y="72.5239" width="6" height="6" fill="white"/>
<rect x="12.814" y="72.5239" width="6" height="6" fill="white"/>
<rect x="18.814" y="72.5239" width="6" height="6" fill="white"/>
<rect x="24.814" y="72.5239" width="6" height="6" fill="white"/>
<rect x="30.814" y="72.5239" width="6" height="6" fill="white"/>
<rect x="36.814" y="72.5239" width="6" height="6" fill="white"/>
<rect x="42.814" y="72.5239" width="6" height="6" fill="white"/>
<rect x="48.814" y="72.5239" width="6" height="6" fill="white"/>
<rect x="54.814" y="72.5239" width="6" height="6" fill="#BFBFBF"/>
<rect x="60.814" y="72.5239" width="6" height="6" fill="black"/>
<rect x="66.814" y="72.5239" width="6" height="6" fill="black"/>
<rect x="72.814" y="72.5239" width="6" height="6" fill="black"/>
<rect x="78.814" y="72.5239" width="6" height="6" fill="black"/>
<rect x="84.814" y="72.5239" width="6" height="6" fill="black"/>
<rect x="90.814" y="72.5239" width="6" height="6" fill="black"/>
<rect x="96.814" y="72.5239" width="6" height="6" fill="black"/>
<rect x="102.814" y="72.5239" width="6" height="6" fill="black"/>
<rect x="108.814" y="72.5239" width="6" height="6" fill="black"/>
<rect x="114.814" y="72.5239" width="6" height="6" fill="black"/>
<rect x="120.814" y="72.5239" width="6" height="6" fill="black"/>
<rect x="126.814" y="72.5239" width="6" height="6" fill="white"/>
<rect x="6.81396" y="78.5239" width="6" height="6" fill="white"/>
<rect x="12.814" y="78.5239" width="6" height="6" fill="white"/>
<rect x="18.814" y="78.5239" width="6" height="6" fill="white"/>
<rect x="24.814" y="78.5239" width="6" height="6" fill="white"/>
<rect x="30.814" y="78.5239" width="6" height="6" fill="white"/>
<rect x="36.814" y="78.5239" width="6" height="6" fill="white"/>
<rect x="42.814" y="78.5239" width="6" height="6" fill="white"/>
<rect x="48.814" y="78.5239" width="6" height="6" fill="white"/>
<rect x="54.814" y="78.5239" width="6" height="6" fill="white"/>
<rect x="60.814" y="78.5239" width="6" height="6" fill="black"/>
<rect x="66.814" y="78.5239" width="6" height="6" fill="black"/>
<rect x="72.814" y="78.5239" width="6" height="6" fill="black"/>
<rect x="78.814" y="78.5239" width="6" height="6" fill="black"/>
<rect x="84.814" y="78.5239" width="6" height="6" fill="black"/>
<rect x="90.814" y="78.5239" width="6" height="6" fill="black"/>
<rect x="96.814" y="78.5239" width="6" height="6" fill="black"/>
<rect x="102.814" y="78.5239" width="6" height="6" fill="black"/>
<rect x="108.814" y="78.5239" width="6" height="6" fill="black"/>
<rect x="114.814" y="78.5239" width="6" height="6" fill="black"/>
<rect x="120.814" y="78.5239" width="6" height="6" fill="black"/>
<rect x="126.814" y="78.5239" width="6" height="6" fill="white"/>
<rect x="6.81396" y="84.5239" width="6" height="6" fill="white"/>
<rect x="12.814" y="84.5239" width="6" height="6" fill="white"/>
<rect x="18.814" y="84.5239" width="6" height="6" fill="white"/>
<rect x="24.814" y="84.5239" width="6" height="6" fill="white"/>
<rect x="30.814" y="84.5239" width="6" height="6" fill="white"/>
<rect x="36.814" y="84.5239" width="6" height="6" fill="white"/>
<rect x="42.814" y="84.5239" width="6" height="6" fill="white"/>
<rect x="48.814" y="84.5239" width="6" height="6" fill="white"/>
<rect x="54.814" y="84.5239" width="6" height="6" fill="white"/>
<rect x="60.814" y="84.5239" width="6" height="6" fill="white"/>
<rect x="66.814" y="84.5239" width="6" height="6" fill="black"/>
<rect x="72.814" y="84.5239" width="6" height="6" fill="black"/>
<rect x="78.814" y="84.5239" width="6" height="6" fill="black"/>
<rect x="84.814" y="84.5239" width="6" height="6" fill="black"/>
<rect x="90.814" y="84.5239" width="6" height="6" fill="black"/>
<rect x="96.814" y="84.5239" width="6" height="6" fill="black"/>
<rect x="102.814" y="84.5239" width="6" height="6" fill="black"/>
<rect x="108.814" y="84.5239" width="6" height="6" fill="black"/>
<rect x="114.814" y="84.5239" width="6" height="6" fill="black"/>
<rect x="120.814" y="84.5239" width="6" height="6" fill="white"/>
<rect x="126.814" y="84.5239" width="6" height="6" fill="white"/>
<rect x="6.81396" y="90.5239" width="6" height="6" fill="white"/>
<rect x="12.814" y="90.5239" width="6" height="6" fill="white"/>
<rect x="18.814" y="90.5239" width="6" height="6" fill="white"/>
<rect x="24.814" y="90.5239" width="6" height="6" fill="white"/>
<rect x="30.814" y="90.5239" width="6" height="6" fill="white"/>
<rect x="36.814" y="90.5239" width="6" height="6" fill="white"/>
<rect x="42.814" y="90.5239" width="6" height="6" fill="white"/>
<rect x="48.814" y="90.5239" width="6" height="6" fill="white"/>
<rect x="54.814" y="90.5239" width="6" height="6" fill="white"/>
<rect x="60.814" y="90.5239" width="6" height="6" fill="white"/>
<rect x="66.814" y="90.5239" width="6" height="6" fill="white"/>
<rect x="72.814" y="90.5239" width="6" height="6" fill="black"/>
<rect x="78.814" y="90.5239" width="6" height="6" fill="black"/>
<rect x="84.814" y="90.5239" width="6" height="6" fill="black"/>
<rect x="90.814" y="90.5239" width="6" height="6" fill="black"/>
<rect x="96.814" y="90.5239" width="6" height="6" fill="black"/>
<rect x="102.814" y="90.5239" width="6" height="6" fill="black"/>
<rect x="108.814" y="90.5239" width="6" height="6" fill="black"/>
<rect x="114.814" y="90.5239" width="6" height="6" fill="white"/>
<rect x="120.814" y="90.5239" width="6" height="6" fill="white"/>
<rect x="12.814" y="96.5239" width="6" height="6" fill="white"/>
<rect x="18.814" y="96.5239" width="6" height="6" fill="white"/>
<rect x="24.814" y="96.5239" width="6" height="6" fill="white"/>
<rect x="30.814" y="96.5239" width="6" height="6" fill="white"/>
<rect x="36.814" y="96.5239" width="6" height="6" fill="white"/>
<rect x="42.814" y="96.5239" width="6" height="6" fill="white"/>
<rect x="48.814" y="96.5239" width="6" height="6" fill="white"/>
<rect x="54.814" y="96.5239" width="6" height="6" fill="white"/>
<rect x="60.814" y="96.5239" width="6" height="6" fill="white"/>
<rect x="66.814" y="96.5239" width="6" height="6" fill="white"/>
<rect x="72.814" y="96.5239" width="6" height="6" fill="white"/>
<rect x="78.814" y="96.5239" width="6" height="6" fill="white"/>
<rect x="84.814" y="96.5239" width="6" height="6" fill="#404040"/>
<rect x="90.814" y="96.5239" width="6" height="6" fill="black"/>
<rect x="96.814" y="96.5239" width="6" height="6" fill="#707070"/>
<rect x="102.814" y="96.5239" width="6" height="6" fill="white"/>
<rect x="108.814" y="96.5239" width="6" height="6" fill="white"/>
<rect x="114.814" y="96.5239" width="6" height="6" fill="white"/>
<rect x="120.814" y="96.5239" width="6" height="6" fill="white"/>
<rect x="12.814" y="102.524" width="6" height="6" fill="white"/>
<rect x="18.814" y="102.524" width="6" height="6" fill="white"/>
<rect x="24.814" y="102.524" width="6" height="6" fill="white"/>
<rect x="30.814" y="102.524" width="6" height="6" fill="white"/>
<rect x="36.814" y="102.524" width="6" height="6" fill="white"/>
<rect x="42.814" y="102.524" width="6" height="6" fill="white"/>
<rect x="48.814" y="102.524" width="6" height="6" fill="white"/>
<rect x="54.814" y="102.524" width="6" height="6" fill="white"/>
<rect x="60.814" y="102.524" width="6" height="6" fill="white"/>
<rect x="66.814" y="102.524" width="6" height="6" fill="white"/>
<rect x="72.814" y="102.524" width="6" height="6" fill="white"/>
<rect x="78.814" y="102.524" width="6" height="6" fill="white"/>
<rect x="84.814" y="102.524" width="6" height="6" fill="white"/>
<rect x="90.814" y="102.524" width="6" height="6" fill="white"/>
<rect x="96.814" y="102.524" width="6" height="6" fill="white"/>
<rect x="102.814" y="102.524" width="6" height="6" fill="white"/>
<rect x="108.814" y="102.524" width="6" height="6" fill="white"/>
<rect x="114.814" y="102.524" width="6" height="6" fill="white"/>
<rect x="18.814" y="108.524" width="6" height="6" fill="white"/>
<rect x="24.814" y="108.524" width="6" height="6" fill="white"/>
<rect x="30.814" y="108.524" width="6" height="6" fill="white"/>
<rect x="36.814" y="108.524" width="6" height="6" fill="white"/>
<rect x="42.814" y="108.524" width="6" height="6" fill="white"/>
<rect x="48.814" y="108.524" width="6" height="6" fill="white"/>
<rect x="54.814" y="108.524" width="6" height="6" fill="white"/>
<rect x="60.814" y="108.524" width="6" height="6" fill="white"/>
<rect x="66.814" y="108.524" width="6" height="6" fill="white"/>
<rect x="72.814" y="108.524" width="6" height="6" fill="white"/>
<rect x="78.814" y="108.524" width="6" height="6" fill="white"/>
<rect x="84.814" y="108.524" width="6" height="6" fill="white"/>
<rect x="90.814" y="108.524" width="6" height="6" fill="white"/>
<rect x="96.814" y="108.524" width="6" height="6" fill="white"/>
<rect x="102.814" y="108.524" width="6" height="6" fill="white"/>
<rect x="108.814" y="108.524" width="6" height="6" fill="white"/>
<rect x="24.814" y="114.524" width="6" height="6" fill="white"/>
<rect x="30.814" y="114.524" width="6" height="6" fill="white"/>
<rect x="36.814" y="114.524" width="6" height="6" fill="white"/>
<rect x="42.814" y="114.524" width="6" height="6" fill="white"/>
<rect x="48.814" y="114.524" width="6" height="6" fill="white"/>
<rect x="54.814" y="114.524" width="6" height="6" fill="white"/>
<rect x="60.814" y="114.524" width="6" height="6" fill="white"/>
<rect x="66.814" y="114.524" width="6" height="6" fill="white"/>
<rect x="72.814" y="114.524" width="6" height="6" fill="white"/>
<rect x="78.814" y="114.524" width="6" height="6" fill="white"/>
<rect x="84.814" y="114.524" width="6" height="6" fill="white"/>
<rect x="90.814" y="114.524" width="6" height="6" fill="white"/>
<rect x="96.814" y="114.524" width="6" height="6" fill="white"/>
<rect x="102.814" y="114.524" width="6" height="6" fill="white"/>
<rect x="30.814" y="120.524" width="6" height="6" fill="white"/>
<rect x="36.814" y="120.524" width="6" height="6" fill="white"/>
<rect x="42.814" y="120.524" width="6" height="6" fill="white"/>
<rect x="48.814" y="120.524" width="6" height="6" fill="white"/>
<rect x="54.814" y="120.524" width="6" height="6" fill="white"/>
<rect x="60.814" y="120.524" width="6" height="6" fill="white"/>
<rect x="66.814" y="120.524" width="6" height="6" fill="white"/>
<rect x="72.814" y="120.524" width="6" height="6" fill="white"/>
<rect x="78.814" y="120.524" width="6" height="6" fill="white"/>
<rect x="84.814" y="120.524" width="6" height="6" fill="white"/>
<rect x="90.814" y="120.524" width="6" height="6" fill="white"/>
<rect x="96.814" y="120.524" width="6" height="6" fill="white"/>
<rect x="48.814" y="126.524" width="6" height="6" fill="white"/>
<rect x="54.814" y="126.524" width="6" height="6" fill="white"/>
<rect x="60.814" y="126.524" width="6" height="6" fill="white"/>
<rect x="66.814" y="126.524" width="6" height="6" fill="white"/>
<rect x="72.814" y="126.524" width="6" height="6" fill="white"/>
<rect x="78.814" y="126.524" width="6" height="6" fill="white"/>
<rect x="84.814" y="126.524" width="6" height="6" fill="white"/>
</svg>
