<svg width="133" height="133" viewBox="0 0 133 133" fill="none" xmlns="http://www.w3.org/2000/svg">
<rect x="54.814" y="0.366943" width="6" height="6" fill="white"/>
<rect x="60.814" y="0.366943" width="6" height="6" fill="white"/>
<rect x="66.814" y="0.366943" width="6" height="6" fill="white"/>
<rect x="72.814" y="0.366943" width="6" height="6" fill="white"/>
<rect x="36.814" y="6.36694" width="6" height="6" fill="white"/>
<rect x="42.814" y="6.36694" width="6" height="6" fill="white"/>
<rect x="48.814" y="6.36694" width="6" height="6" fill="black"/>
<rect x="54.814" y="6.36694" width="6" height="6" fill="black"/>
<rect x="60.814" y="6.36694" width="6" height="6" fill="black"/>
<rect x="66.814" y="6.36694" width="6" height="6" fill="black"/>
<rect x="72.814" y="6.36694" width="6" height="6" fill="black"/>
<rect x="78.814" y="6.36694" width="6" height="6" fill="black"/>
<rect x="84.814" y="6.36694" width="6" height="6" fill="#A0A0A0"/>
<rect x="90.814" y="6.36694" width="6" height="6" fill="white"/>
<rect x="30.814" y="12.3669" width="6" height="6" fill="white"/>
<rect x="36.814" y="12.3669" width="6" height="6" fill="white"/>
<rect x="42.814" y="12.3669" width="6" height="6" fill="black"/>
<rect x="48.814" y="12.3669" width="6" height="6" fill="black"/>
<rect x="54.814" y="12.3669" width="6" height="6" fill="black"/>
<rect x="60.814" y="12.3669" width="6" height="6" fill="black"/>
<rect x="66.814" y="12.3669" width="6" height="6" fill="black"/>
<rect x="72.814" y="12.3669" width="6" height="6" fill="black"/>
<rect x="78.814" y="12.3669" width="6" height="6" fill="black"/>
<rect x="84.814" y="12.3669" width="6" height="6" fill="black"/>
<rect x="90.814" y="12.3669" width="6" height="6" fill="black"/>
<rect x="96.814" y="12.3669" width="6" height="6" fill="white"/>
<rect x="102.814" y="12.3669" width="6" height="6" fill="white"/>
<rect x="24.814" y="18.3669" width="6" height="6" fill="white"/>
<rect x="30.814" y="18.3669" width="6" height="6" fill="white"/>
<rect x="36.814" y="18.3669" width="6" height="6" fill="black"/>
<rect x="42.814" y="18.3669" width="6" height="6" fill="black"/>
<rect x="48.814" y="18.3669" width="6" height="6" fill="black"/>
<rect x="54.814" y="18.3669" width="6" height="6" fill="black"/>
<rect x="60.814" y="18.3669" width="6" height="6" fill="black"/>
<rect x="66.814" y="18.3669" width="6" height="6" fill="black"/>
<rect x="72.814" y="18.3669" width="6" height="6" fill="black"/>
<rect x="78.814" y="18.3669" width="6" height="6" fill="black"/>
<rect x="84.814" y="18.3669" width="6" height="6" fill="black"/>
<rect x="90.814" y="18.3669" width="6" height="6" fill="black"/>
<rect x="96.814" y="18.3669" width="6" height="6" fill="#808080"/>
<rect x="102.814" y="18.3669" width="6" height="6" fill="white"/>
<rect x="108.814" y="18.3669" width="6" height="6" fill="white"/>
<rect x="18.814" y="24.3669" width="6" height="6" fill="white"/>
<rect x="24.814" y="24.3669" width="6" height="6" fill="white"/>
<rect x="30.814" y="24.3669" width="6" height="6" fill="#404040"/>
<rect x="36.814" y="24.3669" width="6" height="6" fill="black"/>
<rect x="42.814" y="24.3669" width="6" height="6" fill="black"/>
<rect x="48.814" y="24.3669" width="6" height="6" fill="black"/>
<rect x="54.814" y="24.3669" width="6" height="6" fill="black"/>
<rect x="60.814" y="24.3669" width="6" height="6" fill="black"/>
<rect x="66.814" y="24.3669" width="6" height="6" fill="black"/>
<rect x="72.814" y="24.3669" width="6" height="6" fill="white"/>
<rect x="78.814" y="24.3669" width="6" height="6" fill="white"/>
<rect x="84.814" y="24.3669" width="6" height="6" fill="white"/>
<rect x="90.814" y="24.3669" width="6" height="6" fill="black"/>
<rect x="96.814" y="24.3669" width="6" height="6" fill="black"/>
<rect x="102.814" y="24.3669" width="6" height="6" fill="white"/>
<rect x="108.814" y="24.3669" width="6" height="6" fill="white"/>
<rect x="114.814" y="24.3669" width="6" height="6" fill="white"/>
<rect x="12.814" y="30.3669" width="6" height="6" fill="white"/>
<rect x="18.814" y="30.3669" width="6" height="6" fill="white"/>
<rect x="24.814" y="30.3669" width="6" height="6" fill="white"/>
<rect x="30.814" y="30.3669" width="6" height="6" fill="black"/>
<rect x="36.814" y="30.3669" width="6" height="6" fill="black"/>
<rect x="42.814" y="30.3669" width="6" height="6" fill="black"/>
<rect x="48.814" y="30.3669" width="6" height="6" fill="black"/>
<rect x="54.814" y="30.3669" width="6" height="6" fill="black"/>
<rect x="60.814" y="30.3669" width="6" height="6" fill="black"/>
<rect x="66.814" y="30.3669" width="6" height="6" fill="black"/>
<rect x="72.814" y="30.3669" width="6" height="6" fill="white"/>
<rect x="78.814" y="30.3669" width="6" height="6" fill="white"/>
<rect x="84.814" y="30.3669" width="6" height="6" fill="white"/>
<rect x="90.814" y="30.3669" width="6" height="6" fill="black"/>
<rect x="96.814" y="30.3669" width="6" height="6" fill="black"/>
<rect x="102.814" y="30.3669" width="6" height="6" fill="white"/>
<rect x="108.814" y="30.3669" width="6" height="6" fill="white"/>
<rect x="114.814" y="30.3669" width="6" height="6" fill="white"/>
<rect x="6.81396" y="36.3669" width="6" height="6" fill="white"/>
<rect x="12.814" y="36.3669" width="6" height="6" fill="white"/>
<rect x="18.814" y="36.3669" width="6" height="6" fill="white"/>
<rect x="24.814" y="36.3669" width="6" height="6" fill="white"/>
<rect x="30.814" y="36.3669" width="6" height="6" fill="black"/>
<rect x="36.814" y="36.3669" width="6" height="6" fill="black"/>
<rect x="42.814" y="36.3669" width="6" height="6" fill="black"/>
<rect x="48.814" y="36.3669" width="6" height="6" fill="black"/>
<rect x="54.814" y="36.3669" width="6" height="6" fill="black"/>
<rect x="60.814" y="36.3669" width="6" height="6" fill="black"/>
<rect x="66.814" y="36.3669" width="6" height="6" fill="black"/>
<rect x="72.814" y="36.3669" width="6" height="6" fill="black"/>
<rect x="78.814" y="36.3669" width="6" height="6" fill="white"/>
<rect x="84.814" y="36.3669" width="6" height="6" fill="white"/>
<rect x="90.814" y="36.3669" width="6" height="6" fill="black"/>
<rect x="96.814" y="36.3669" width="6" height="6" fill="black"/>
<rect x="102.814" y="36.3669" width="6" height="6" fill="#AFAFAF"/>
<rect x="108.814" y="36.3669" width="6" height="6" fill="white"/>
<rect x="114.814" y="36.3669" width="6" height="6" fill="white"/>
<rect x="120.814" y="36.3669" width="6" height="6" fill="white"/>
<rect x="6.81396" y="42.3669" width="6" height="6" fill="white"/>
<rect x="12.814" y="42.3669" width="6" height="6" fill="white"/>
<rect x="18.814" y="42.3669" width="6" height="6" fill="white"/>
<rect x="24.814" y="42.3669" width="6" height="6" fill="white"/>
<rect x="30.814" y="42.3669" width="6" height="6" fill="black"/>
<rect x="36.814" y="42.3669" width="6" height="6" fill="black"/>
<rect x="42.814" y="42.3669" width="6" height="6" fill="black"/>
<rect x="48.814" y="42.3669" width="6" height="6" fill="black"/>
<rect x="54.814" y="42.3669" width="6" height="6" fill="black"/>
<rect x="60.814" y="42.3669" width="6" height="6" fill="black"/>
<rect x="66.814" y="42.3669" width="6" height="6" fill="black"/>
<rect x="72.814" y="42.3669" width="6" height="6" fill="black"/>
<rect x="78.814" y="42.3669" width="6" height="6" fill="black"/>
<rect x="84.814" y="42.3669" width="6" height="6" fill="black"/>
<rect x="90.814" y="42.3669" width="6" height="6" fill="black"/>
<rect x="96.814" y="42.3669" width="6" height="6" fill="black"/>
<rect x="102.814" y="42.3669" width="6" height="6" fill="#DFDFDF"/>
<rect x="108.814" y="42.3669" width="6" height="6" fill="white"/>
<rect x="114.814" y="42.3669" width="6" height="6" fill="white"/>
<rect x="120.814" y="42.3669" width="6" height="6" fill="white"/>
<rect x="6.81396" y="48.3669" width="6" height="6" fill="white"/>
<rect x="12.814" y="48.3669" width="6" height="6" fill="white"/>
<rect x="18.814" y="48.3669" width="6" height="6" fill="white"/>
<rect x="24.814" y="48.3669" width="6" height="6" fill="white"/>
<rect x="30.814" y="48.3669" width="6" height="6" fill="black"/>
<rect x="36.814" y="48.3669" width="6" height="6" fill="black"/>
<rect x="42.814" y="48.3669" width="6" height="6" fill="black"/>
<rect x="48.814" y="48.3669" width="6" height="6" fill="black"/>
<rect x="54.814" y="48.3669" width="6" height="6" fill="black"/>
<rect x="60.814" y="48.3669" width="6" height="6" fill="black"/>
<rect x="66.814" y="48.3669" width="6" height="6" fill="black"/>
<rect x="72.814" y="48.3669" width="6" height="6" fill="black"/>
<rect x="78.814" y="48.3669" width="6" height="6" fill="black"/>
<rect x="84.814" y="48.3669" width="6" height="6" fill="black"/>
<rect x="90.814" y="48.3669" width="6" height="6" fill="black"/>
<rect x="96.814" y="48.3669" width="6" height="6" fill="black"/>
<rect x="102.814" y="48.3669" width="6" height="6" fill="white"/>
<rect x="108.814" y="48.3669" width="6" height="6" fill="white"/>
<rect x="114.814" y="48.3669" width="6" height="6" fill="white"/>
<rect x="120.814" y="48.3669" width="6" height="6" fill="white"/>
<rect x="126.814" y="48.3669" width="6" height="6" fill="white"/>
<rect x="0.813965" y="54.3669" width="6" height="6" fill="white"/>
<rect x="6.81396" y="54.3669" width="6" height="6" fill="white"/>
<rect x="12.814" y="54.3669" width="6" height="6" fill="white"/>
<rect x="18.814" y="54.3669" width="6" height="6" fill="white"/>
<rect x="24.814" y="54.3669" width="6" height="6" fill="white"/>
<rect x="30.814" y="54.3669" width="6" height="6" fill="#EFEFEF"/>
<rect x="36.814" y="54.3669" width="6" height="6" fill="black"/>
<rect x="42.814" y="54.3669" width="6" height="6" fill="black"/>
<rect x="48.814" y="54.3669" width="6" height="6" fill="black"/>
<rect x="54.814" y="54.3669" width="6" height="6" fill="black"/>
<rect x="60.814" y="54.3669" width="6" height="6" fill="black"/>
<rect x="66.814" y="54.3669" width="6" height="6" fill="black"/>
<rect x="72.814" y="54.3669" width="6" height="6" fill="black"/>
<rect x="78.814" y="54.3669" width="6" height="6" fill="black"/>
<rect x="84.814" y="54.3669" width="6" height="6" fill="black"/>
<rect x="90.814" y="54.3669" width="6" height="6" fill="black"/>
<rect x="96.814" y="54.3669" width="6" height="6" fill="black"/>
<rect x="102.814" y="54.3669" width="6" height="6" fill="white"/>
<rect x="108.814" y="54.3669" width="6" height="6" fill="white"/>
<rect x="114.814" y="54.3669" width="6" height="6" fill="white"/>
<rect x="120.814" y="54.3669" width="6" height="6" fill="white"/>
<rect x="126.814" y="54.3669" width="6" height="6" fill="white"/>
<rect x="0.813965" y="60.3669" width="6" height="6" fill="white"/>
<rect x="6.81396" y="60.3669" width="6" height="6" fill="white"/>
<rect x="12.814" y="60.3669" width="6" height="6" fill="white"/>
<rect x="18.814" y="60.3669" width="6" height="6" fill="white"/>
<rect x="24.814" y="60.3669" width="6" height="6" fill="white"/>
<rect x="30.814" y="60.3669" width="6" height="6" fill="white"/>
<rect x="36.814" y="60.3669" width="6" height="6" fill="black"/>
<rect x="42.814" y="60.3669" width="6" height="6" fill="black"/>
<rect x="48.814" y="60.3669" width="6" height="6" fill="black"/>
<rect x="54.814" y="60.3669" width="6" height="6" fill="black"/>
<rect x="60.814" y="60.3669" width="6" height="6" fill="black"/>
<rect x="66.814" y="60.3669" width="6" height="6" fill="black"/>
<rect x="72.814" y="60.3669" width="6" height="6" fill="black"/>
<rect x="78.814" y="60.3669" width="6" height="6" fill="black"/>
<rect x="84.814" y="60.3669" width="6" height="6" fill="black"/>
<rect x="90.814" y="60.3669" width="6" height="6" fill="black"/>
<rect x="96.814" y="60.3669" width="6" height="6" fill="white"/>
<rect x="102.814" y="60.3669" width="6" height="6" fill="white"/>
<rect x="108.814" y="60.3669" width="6" height="6" fill="white"/>
<rect x="114.814" y="60.3669" width="6" height="6" fill="white"/>
<rect x="120.814" y="60.3669" width="6" height="6" fill="white"/>
<rect x="126.814" y="60.3669" width="6" height="6" fill="white"/>
<rect x="0.813965" y="66.3669" width="6" height="6" fill="white"/>
<rect x="6.81396" y="66.3669" width="6" height="6" fill="white"/>
<rect x="12.814" y="66.3669" width="6" height="6" fill="white"/>
<rect x="18.814" y="66.3669" width="6" height="6" fill="white"/>
<rect x="24.814" y="66.3669" width="6" height="6" fill="white"/>
<rect x="30.814" y="66.3669" width="6" height="6" fill="white"/>
<rect x="36.814" y="66.3669" width="6" height="6" fill="white"/>
<rect x="42.814" y="66.3669" width="6" height="6" fill="black"/>
<rect x="48.814" y="66.3669" width="6" height="6" fill="black"/>
<rect x="54.814" y="66.3669" width="6" height="6" fill="black"/>
<rect x="60.814" y="66.3669" width="6" height="6" fill="black"/>
<rect x="66.814" y="66.3669" width="6" height="6" fill="black"/>
<rect x="72.814" y="66.3669" width="6" height="6" fill="black"/>
<rect x="78.814" y="66.3669" width="6" height="6" fill="black"/>
<rect x="84.814" y="66.3669" width="6" height="6" fill="black"/>
<rect x="90.814" y="66.3669" width="6" height="6" fill="#EFEFEF"/>
<rect x="96.814" y="66.3669" width="6" height="6" fill="white"/>
<rect x="102.814" y="66.3669" width="6" height="6" fill="white"/>
<rect x="108.814" y="66.3669" width="6" height="6" fill="white"/>
<rect x="114.814" y="66.3669" width="6" height="6" fill="white"/>
<rect x="120.814" y="66.3669" width="6" height="6" fill="white"/>
<rect x="126.814" y="66.3669" width="6" height="6" fill="white"/>
<rect x="0.813965" y="72.3669" width="6" height="6" fill="white"/>
<rect x="6.81396" y="72.3669" width="6" height="6" fill="white"/>
<rect x="12.814" y="72.3669" width="6" height="6" fill="white"/>
<rect x="18.814" y="72.3669" width="6" height="6" fill="white"/>
<rect x="24.814" y="72.3669" width="6" height="6" fill="white"/>
<rect x="30.814" y="72.3669" width="6" height="6" fill="white"/>
<rect x="36.814" y="72.3669" width="6" height="6" fill="white"/>
<rect x="42.814" y="72.3669" width="6" height="6" fill="white"/>
<rect x="48.814" y="72.3669" width="6" height="6" fill="#DFDFDF"/>
<rect x="54.814" y="72.3669" width="6" height="6" fill="black"/>
<rect x="60.814" y="72.3669" width="6" height="6" fill="black"/>
<rect x="66.814" y="72.3669" width="6" height="6" fill="black"/>
<rect x="72.814" y="72.3669" width="6" height="6" fill="black"/>
<rect x="78.814" y="72.3669" width="6" height="6" fill="black"/>
<rect x="84.814" y="72.3669" width="6" height="6" fill="white"/>
<rect x="90.814" y="72.3669" width="6" height="6" fill="white"/>
<rect x="96.814" y="72.3669" width="6" height="6" fill="white"/>
<rect x="102.814" y="72.3669" width="6" height="6" fill="white"/>
<rect x="108.814" y="72.3669" width="6" height="6" fill="white"/>
<rect x="114.814" y="72.3669" width="6" height="6" fill="white"/>
<rect x="120.814" y="72.3669" width="6" height="6" fill="white"/>
<rect x="126.814" y="72.3669" width="6" height="6" fill="white"/>
<rect x="6.81396" y="78.3669" width="6" height="6" fill="white"/>
<rect x="12.814" y="78.3669" width="6" height="6" fill="white"/>
<rect x="18.814" y="78.3669" width="6" height="6" fill="white"/>
<rect x="24.814" y="78.3669" width="6" height="6" fill="white"/>
<rect x="30.814" y="78.3669" width="6" height="6" fill="white"/>
<rect x="36.814" y="78.3669" width="6" height="6" fill="white"/>
<rect x="42.814" y="78.3669" width="6" height="6" fill="white"/>
<rect x="48.814" y="78.3669" width="6" height="6" fill="white"/>
<rect x="54.814" y="78.3669" width="6" height="6" fill="white"/>
<rect x="60.814" y="78.3669" width="6" height="6" fill="white"/>
<rect x="66.814" y="78.3669" width="6" height="6" fill="white"/>
<rect x="72.814" y="78.3669" width="6" height="6" fill="white"/>
<rect x="78.814" y="78.3669" width="6" height="6" fill="white"/>
<rect x="84.814" y="78.3669" width="6" height="6" fill="white"/>
<rect x="90.814" y="78.3669" width="6" height="6" fill="white"/>
<rect x="96.814" y="78.3669" width="6" height="6" fill="white"/>
<rect x="102.814" y="78.3669" width="6" height="6" fill="white"/>
<rect x="108.814" y="78.3669" width="6" height="6" fill="white"/>
<rect x="114.814" y="78.3669" width="6" height="6" fill="white"/>
<rect x="120.814" y="78.3669" width="6" height="6" fill="white"/>
<rect x="126.814" y="78.3669" width="6" height="6" fill="white"/>
<rect x="6.81396" y="84.3669" width="6" height="6" fill="white"/>
<rect x="12.814" y="84.3669" width="6" height="6" fill="white"/>
<rect x="18.814" y="84.3669" width="6" height="6" fill="white"/>
<rect x="24.814" y="84.3669" width="6" height="6" fill="white"/>
<rect x="30.814" y="84.3669" width="6" height="6" fill="white"/>
<rect x="36.814" y="84.3669" width="6" height="6" fill="white"/>
<rect x="42.814" y="84.3669" width="6" height="6" fill="white"/>
<rect x="48.814" y="84.3669" width="6" height="6" fill="white"/>
<rect x="54.814" y="84.3669" width="6" height="6" fill="white"/>
<rect x="60.814" y="84.3669" width="6" height="6" fill="white"/>
<rect x="66.814" y="84.3669" width="6" height="6" fill="white"/>
<rect x="72.814" y="84.3669" width="6" height="6" fill="white"/>
<rect x="78.814" y="84.3669" width="6" height="6" fill="white"/>
<rect x="84.814" y="84.3669" width="6" height="6" fill="white"/>
<rect x="90.814" y="84.3669" width="6" height="6" fill="white"/>
<rect x="96.814" y="84.3669" width="6" height="6" fill="white"/>
<rect x="102.814" y="84.3669" width="6" height="6" fill="white"/>
<rect x="108.814" y="84.3669" width="6" height="6" fill="white"/>
<rect x="114.814" y="84.3669" width="6" height="6" fill="white"/>
<rect x="120.814" y="84.3669" width="6" height="6" fill="white"/>
<rect x="126.814" y="84.3669" width="6" height="6" fill="white"/>
<rect x="6.81396" y="90.3669" width="6" height="6" fill="white"/>
<rect x="12.814" y="90.3669" width="6" height="6" fill="white"/>
<rect x="18.814" y="90.3669" width="6" height="6" fill="white"/>
<rect x="24.814" y="90.3669" width="6" height="6" fill="white"/>
<rect x="30.814" y="90.3669" width="6" height="6" fill="white"/>
<rect x="36.814" y="90.3669" width="6" height="6" fill="white"/>
<rect x="42.814" y="90.3669" width="6" height="6" fill="white"/>
<rect x="48.814" y="90.3669" width="6" height="6" fill="white"/>
<rect x="54.814" y="90.3669" width="6" height="6" fill="white"/>
<rect x="60.814" y="90.3669" width="6" height="6" fill="white"/>
<rect x="66.814" y="90.3669" width="6" height="6" fill="white"/>
<rect x="72.814" y="90.3669" width="6" height="6" fill="white"/>
<rect x="78.814" y="90.3669" width="6" height="6" fill="white"/>
<rect x="84.814" y="90.3669" width="6" height="6" fill="white"/>
<rect x="90.814" y="90.3669" width="6" height="6" fill="white"/>
<rect x="96.814" y="90.3669" width="6" height="6" fill="white"/>
<rect x="102.814" y="90.3669" width="6" height="6" fill="white"/>
<rect x="108.814" y="90.3669" width="6" height="6" fill="white"/>
<rect x="114.814" y="90.3669" width="6" height="6" fill="white"/>
<rect x="120.814" y="90.3669" width="6" height="6" fill="white"/>
<rect x="12.814" y="96.3669" width="6" height="6" fill="white"/>
<rect x="18.814" y="96.3669" width="6" height="6" fill="white"/>
<rect x="24.814" y="96.3669" width="6" height="6" fill="white"/>
<rect x="30.814" y="96.3669" width="6" height="6" fill="white"/>
<rect x="36.814" y="96.3669" width="6" height="6" fill="white"/>
<rect x="42.814" y="96.3669" width="6" height="6" fill="white"/>
<rect x="48.814" y="96.3669" width="6" height="6" fill="white"/>
<rect x="54.814" y="96.3669" width="6" height="6" fill="white"/>
<rect x="60.814" y="96.3669" width="6" height="6" fill="white"/>
<rect x="66.814" y="96.3669" width="6" height="6" fill="white"/>
<rect x="72.814" y="96.3669" width="6" height="6" fill="white"/>
<rect x="78.814" y="96.3669" width="6" height="6" fill="white"/>
<rect x="84.814" y="96.3669" width="6" height="6" fill="white"/>
<rect x="90.814" y="96.3669" width="6" height="6" fill="white"/>
<rect x="96.814" y="96.3669" width="6" height="6" fill="white"/>
<rect x="102.814" y="96.3669" width="6" height="6" fill="white"/>
<rect x="108.814" y="96.3669" width="6" height="6" fill="white"/>
<rect x="114.814" y="96.3669" width="6" height="6" fill="white"/>
<rect x="120.814" y="96.3669" width="6" height="6" fill="white"/>
<rect x="12.814" y="102.367" width="6" height="6" fill="white"/>
<rect x="18.814" y="102.367" width="6" height="6" fill="white"/>
<rect x="24.814" y="102.367" width="6" height="6" fill="white"/>
<rect x="30.814" y="102.367" width="6" height="6" fill="white"/>
<rect x="36.814" y="102.367" width="6" height="6" fill="white"/>
<rect x="42.814" y="102.367" width="6" height="6" fill="white"/>
<rect x="48.814" y="102.367" width="6" height="6" fill="white"/>
<rect x="54.814" y="102.367" width="6" height="6" fill="white"/>
<rect x="60.814" y="102.367" width="6" height="6" fill="white"/>
<rect x="66.814" y="102.367" width="6" height="6" fill="white"/>
<rect x="72.814" y="102.367" width="6" height="6" fill="white"/>
<rect x="78.814" y="102.367" width="6" height="6" fill="white"/>
<rect x="84.814" y="102.367" width="6" height="6" fill="white"/>
<rect x="90.814" y="102.367" width="6" height="6" fill="white"/>
<rect x="96.814" y="102.367" width="6" height="6" fill="white"/>
<rect x="102.814" y="102.367" width="6" height="6" fill="white"/>
<rect x="108.814" y="102.367" width="6" height="6" fill="white"/>
<rect x="114.814" y="102.367" width="6" height="6" fill="white"/>
<rect x="18.814" y="108.367" width="6" height="6" fill="white"/>
<rect x="24.814" y="108.367" width="6" height="6" fill="white"/>
<rect x="30.814" y="108.367" width="6" height="6" fill="white"/>
<rect x="36.814" y="108.367" width="6" height="6" fill="white"/>
<rect x="42.814" y="108.367" width="6" height="6" fill="white"/>
<rect x="48.814" y="108.367" width="6" height="6" fill="white"/>
<rect x="54.814" y="108.367" width="6" height="6" fill="white"/>
<rect x="60.814" y="108.367" width="6" height="6" fill="white"/>
<rect x="66.814" y="108.367" width="6" height="6" fill="white"/>
<rect x="72.814" y="108.367" width="6" height="6" fill="white"/>
<rect x="78.814" y="108.367" width="6" height="6" fill="white"/>
<rect x="84.814" y="108.367" width="6" height="6" fill="white"/>
<rect x="90.814" y="108.367" width="6" height="6" fill="white"/>
<rect x="96.814" y="108.367" width="6" height="6" fill="white"/>
<rect x="102.814" y="108.367" width="6" height="6" fill="white"/>
<rect x="108.814" y="108.367" width="6" height="6" fill="white"/>
<rect x="24.814" y="114.367" width="6" height="6" fill="white"/>
<rect x="30.814" y="114.367" width="6" height="6" fill="white"/>
<rect x="36.814" y="114.367" width="6" height="6" fill="white"/>
<rect x="42.814" y="114.367" width="6" height="6" fill="white"/>
<rect x="48.814" y="114.367" width="6" height="6" fill="white"/>
<rect x="54.814" y="114.367" width="6" height="6" fill="white"/>
<rect x="60.814" y="114.367" width="6" height="6" fill="white"/>
<rect x="66.814" y="114.367" width="6" height="6" fill="white"/>
<rect x="72.814" y="114.367" width="6" height="6" fill="white"/>
<rect x="78.814" y="114.367" width="6" height="6" fill="white"/>
<rect x="84.814" y="114.367" width="6" height="6" fill="white"/>
<rect x="90.814" y="114.367" width="6" height="6" fill="white"/>
<rect x="96.814" y="114.367" width="6" height="6" fill="white"/>
<rect x="102.814" y="114.367" width="6" height="6" fill="white"/>
<rect x="36.814" y="120.367" width="6" height="6" fill="white"/>
<rect x="42.814" y="120.367" width="6" height="6" fill="white"/>
<rect x="48.814" y="120.367" width="6" height="6" fill="white"/>
<rect x="54.814" y="120.367" width="6" height="6" fill="white"/>
<rect x="60.814" y="120.367" width="6" height="6" fill="white"/>
<rect x="66.814" y="120.367" width="6" height="6" fill="white"/>
<rect x="72.814" y="120.367" width="6" height="6" fill="white"/>
<rect x="78.814" y="120.367" width="6" height="6" fill="white"/>
<rect x="84.814" y="120.367" width="6" height="6" fill="white"/>
<rect x="90.814" y="120.367" width="6" height="6" fill="white"/>
<rect x="96.814" y="120.367" width="6" height="6" fill="white"/>
<rect x="48.814" y="126.367" width="6" height="6" fill="white"/>
<rect x="54.814" y="126.367" width="6" height="6" fill="white"/>
<rect x="60.814" y="126.367" width="6" height="6" fill="white"/>
<rect x="66.814" y="126.367" width="6" height="6" fill="white"/>
<rect x="72.814" y="126.367" width="6" height="6" fill="white"/>
<rect x="78.814" y="126.367" width="6" height="6" fill="white"/>
<rect x="84.814" y="126.367" width="6" height="6" fill="white"/>
</svg>
