<svg width="36" height="37" viewBox="0 0 36 37" fill="none" xmlns="http://www.w3.org/2000/svg">
<rect x="16.3188" y="0.233887" width="1.30866" height="1.30866" fill="black"/>
<rect x="25.479" y="0.233887" width="1.30866" height="1.30866" fill="black"/>
<rect x="16.3188" y="1.54248" width="1.30866" height="1.30866" fill="#1A385C"/>
<rect x="24.1704" y="1.54248" width="1.30866" height="1.30866" fill="black"/>
<rect x="25.479" y="1.54248" width="1.30866" height="1.30866" fill="#09131F"/>
<rect x="15.0098" y="2.85107" width="1.30866" height="1.30866" fill="black"/>
<rect x="16.3188" y="2.85107" width="1.30866" height="1.30866" fill="#224B7A"/>
<rect x="17.6274" y="2.85107" width="1.30866" height="1.30866" fill="black"/>
<rect x="22.8618" y="2.85107" width="1.30866" height="1.30866" fill="black"/>
<rect x="24.1704" y="2.85107" width="1.30866" height="1.30866" fill="#224B7A"/>
<rect x="25.479" y="2.85107" width="1.30866" height="1.30866" fill="#1E426B"/>
<rect x="26.7881" y="2.85107" width="1.30866" height="1.30866" fill="black"/>
<rect x="15.0098" y="4.15991" width="1.30866" height="1.30866" fill="black"/>
<rect x="16.3188" y="4.15991" width="1.30866" height="1.30866" fill="#224B7A"/>
<rect x="17.6274" y="4.15991" width="1.30866" height="1.30866" fill="#224B7A"/>
<rect x="22.8618" y="4.15991" width="1.30866" height="1.30866" fill="#204773"/>
<rect x="24.1704" y="4.15991" width="1.30866" height="1.30866" fill="#224B7A"/>
<rect x="25.479" y="4.15991" width="1.30866" height="1.30866" fill="#224B7A"/>
<rect x="26.7881" y="4.15991" width="1.30866" height="1.30866" fill="black"/>
<rect x="13.7012" y="5.46851" width="1.30866" height="1.30866" fill="black"/>
<rect x="15.0098" y="5.46851" width="1.30866" height="1.30866" fill="black"/>
<rect x="16.3188" y="5.46851" width="1.30866" height="1.30866" fill="#132A45"/>
<rect x="17.6274" y="5.46851" width="1.30866" height="1.30866" fill="#224B7A"/>
<rect x="18.936" y="5.46851" width="1.30866" height="1.30866" fill="#224B7A"/>
<rect x="20.2446" y="5.46851" width="1.30866" height="1.30866" fill="#234D7C"/>
<rect x="21.5532" y="5.46851" width="1.30866" height="1.30866" fill="#2C6897"/>
<rect x="22.8618" y="5.46851" width="1.30866" height="1.30866" fill="#224B7A"/>
<rect x="24.1704" y="5.46851" width="1.30866" height="1.30866" fill="#0F2135"/>
<rect x="25.479" y="5.46851" width="1.30866" height="1.30866" fill="#224B7A"/>
<rect x="26.7881" y="5.46851" width="1.30866" height="1.30866" fill="#1C3D63"/>
<rect x="11.084" y="6.7771" width="1.30866" height="1.30866" fill="black"/>
<rect x="12.3926" y="6.7771" width="1.30866" height="1.30866" fill="#224B7A"/>
<rect x="13.7012" y="6.7771" width="1.30866" height="1.30866" fill="#224B7A"/>
<rect x="15.0098" y="6.7771" width="1.30866" height="1.30866" fill="#224B7A"/>
<rect x="16.3188" y="6.7771" width="1.30866" height="1.30866" fill="#224B7A"/>
<rect x="17.6274" y="6.7771" width="1.30866" height="1.30866" fill="#2B6695"/>
<rect x="18.936" y="6.7771" width="1.30866" height="1.30866" fill="#2C6897"/>
<rect x="20.2446" y="6.7771" width="1.30866" height="1.30866" fill="#2C6897"/>
<rect x="21.5532" y="6.7771" width="1.30866" height="1.30866" fill="#2C6897"/>
<rect x="22.8618" y="6.7771" width="1.30866" height="1.30866" fill="#2C6897"/>
<rect x="24.1704" y="6.7771" width="1.30866" height="1.30866" fill="#275A89"/>
<rect x="25.479" y="6.7771" width="1.30866" height="1.30866" fill="#224B7A"/>
<rect x="26.7881" y="6.7771" width="1.30866" height="1.30866" fill="#224B7A"/>
<rect x="28.0967" y="6.7771" width="1.30866" height="1.30866" fill="black"/>
<rect x="8.4668" y="8.08594" width="1.30866" height="1.30866" fill="black"/>
<rect x="9.77539" y="8.08594" width="1.30866" height="1.30866" fill="#224B7A"/>
<rect x="11.084" y="8.08594" width="1.30866" height="1.30866" fill="#224B7A"/>
<rect x="12.3926" y="8.08594" width="1.30866" height="1.30866" fill="#224B7A"/>
<rect x="13.7012" y="8.08594" width="1.30866" height="1.30866" fill="#224B7A"/>
<rect x="15.0098" y="8.08594" width="1.30866" height="1.30866" fill="#2C6897"/>
<rect x="16.3188" y="8.08594" width="1.30866" height="1.30866" fill="#2C6897"/>
<rect x="17.6274" y="8.08594" width="1.30866" height="1.30866" fill="#2C6897"/>
<rect x="18.936" y="8.08594" width="1.30866" height="1.30866" fill="#2C6897"/>
<rect x="20.2446" y="8.08594" width="1.30866" height="1.30866" fill="#2C6897"/>
<rect x="21.5532" y="8.08594" width="1.30866" height="1.30866" fill="#2C6897"/>
<rect x="22.8618" y="8.08594" width="1.30866" height="1.30866" fill="#2C6897"/>
<rect x="24.1704" y="8.08594" width="1.30866" height="1.30866" fill="#2C6897"/>
<rect x="25.479" y="8.08594" width="1.30866" height="1.30866" fill="#224B7A"/>
<rect x="26.7881" y="8.08594" width="1.30866" height="1.30866" fill="#224B7A"/>
<rect x="28.0967" y="8.08594" width="1.30866" height="1.30866" fill="black"/>
<rect x="7.1582" y="9.39453" width="1.30866" height="1.30866" fill="black"/>
<rect x="8.4668" y="9.39453" width="1.30866" height="1.30866" fill="#224B7A"/>
<rect x="9.77539" y="9.39453" width="1.30866" height="1.30866" fill="#224B7A"/>
<rect x="11.084" y="9.39453" width="1.30866" height="1.30866" fill="#224B7A"/>
<rect x="12.3926" y="9.39453" width="1.30866" height="1.30866" fill="#2C6897"/>
<rect x="13.7012" y="9.39453" width="1.30866" height="1.30866" fill="#2C6897"/>
<rect x="15.0098" y="9.39453" width="1.30866" height="1.30866" fill="#2C6897"/>
<rect x="16.3188" y="9.39453" width="1.30866" height="1.30866" fill="#2C6897"/>
<rect x="17.6274" y="9.39453" width="1.30866" height="1.30866" fill="#2C6897"/>
<rect x="18.936" y="9.39453" width="1.30866" height="1.30866" fill="#2C6897"/>
<rect x="20.2446" y="9.39453" width="1.30866" height="1.30866" fill="#2C6897"/>
<rect x="21.5532" y="9.39453" width="1.30866" height="1.30866" fill="#2C6897"/>
<rect x="22.8618" y="9.39453" width="1.30866" height="1.30866" fill="#2C6897"/>
<rect x="24.1704" y="9.39453" width="1.30866" height="1.30866" fill="#2C6897"/>
<rect x="25.479" y="9.39453" width="1.30866" height="1.30866" fill="#224B7A"/>
<rect x="26.7881" y="9.39453" width="1.30866" height="1.30866" fill="#224B7A"/>
<rect x="28.0967" y="9.39453" width="1.30866" height="1.30866" fill="#224B7A"/>
<rect x="5.84961" y="10.7031" width="1.30866" height="1.30866" fill="black"/>
<rect x="7.1582" y="10.7031" width="1.30866" height="1.30866" fill="#224B7A"/>
<rect x="8.4668" y="10.7031" width="1.30866" height="1.30866" fill="#224B7A"/>
<rect x="9.77539" y="10.7031" width="1.30866" height="1.30866" fill="#265483"/>
<rect x="11.084" y="10.7031" width="1.30866" height="1.30866" fill="#2C6897"/>
<rect x="12.3926" y="10.7031" width="1.30866" height="1.30866" fill="#2C6897"/>
<rect x="13.7012" y="10.7031" width="1.30866" height="1.30866" fill="#2C6897"/>
<rect x="15.0098" y="10.7031" width="1.30866" height="1.30866" fill="#2C6897"/>
<rect x="16.3188" y="10.7031" width="1.30866" height="1.30866" fill="#2C6897"/>
<rect x="17.6274" y="10.7031" width="1.30866" height="1.30866" fill="#2C6897"/>
<rect x="18.936" y="10.7031" width="1.30866" height="1.30866" fill="#2C6897"/>
<rect x="20.2446" y="10.7031" width="1.30866" height="1.30866" fill="#2C6897"/>
<rect x="21.5532" y="10.7031" width="1.30866" height="1.30866" fill="#2C6897"/>
<rect x="22.8618" y="10.7031" width="1.30866" height="1.30866" fill="#2C6897"/>
<rect x="24.1704" y="10.7031" width="1.30866" height="1.30866" fill="#2C6897"/>
<rect x="25.479" y="10.7031" width="1.30866" height="1.30866" fill="#224B7A"/>
<rect x="26.7881" y="10.7031" width="1.30866" height="1.30866" fill="#224B7A"/>
<rect x="28.0967" y="10.7031" width="1.30866" height="1.30866" fill="#224B7A"/>
<rect x="29.4053" y="10.7031" width="1.30866" height="1.30866" fill="black"/>
<rect x="5.84961" y="12.0117" width="1.30866" height="1.30866" fill="#152F4D"/>
<rect x="7.1582" y="12.0117" width="1.30866" height="1.30866" fill="#224B7A"/>
<rect x="8.4668" y="12.0117" width="1.30866" height="1.30866" fill="#2B6695"/>
<rect x="9.77539" y="12.0117" width="1.30866" height="1.30866" fill="#2C6897"/>
<rect x="11.084" y="12.0117" width="1.30866" height="1.30866" fill="#2C6897"/>
<rect x="12.3926" y="12.0117" width="1.30866" height="1.30866" fill="#2C6897"/>
<rect x="13.7012" y="12.0117" width="1.30866" height="1.30866" fill="#2C6897"/>
<rect x="15.0098" y="12.0117" width="1.30866" height="1.30866" fill="#2C6897"/>
<rect x="16.3188" y="12.0117" width="1.30866" height="1.30866" fill="#2C6897"/>
<rect x="17.6274" y="12.0117" width="1.30866" height="1.30866" fill="#2C6897"/>
<rect x="18.936" y="12.0117" width="1.30866" height="1.30866" fill="#2C6897"/>
<rect x="20.2446" y="12.0117" width="1.30866" height="1.30866" fill="#2C6897"/>
<rect x="21.5532" y="12.0117" width="1.30866" height="1.30866" fill="#2C6897"/>
<rect x="22.8618" y="12.0117" width="1.30866" height="1.30866" fill="#2C6897"/>
<rect x="24.1704" y="12.0117" width="1.30866" height="1.30866" fill="#2C6897"/>
<rect x="25.479" y="12.0117" width="1.30866" height="1.30866" fill="#224B7A"/>
<rect x="26.7881" y="12.0117" width="1.30866" height="1.30866" fill="#224B7A"/>
<rect x="28.0967" y="12.0117" width="1.30866" height="1.30866" fill="#224B7A"/>
<rect x="29.4053" y="12.0117" width="1.30866" height="1.30866" fill="#1A385C"/>
<rect x="4.54053" y="13.3206" width="1.30866" height="1.30866" fill="black"/>
<rect x="5.84961" y="13.3206" width="1.30866" height="1.30866" fill="#224B7A"/>
<rect x="7.1582" y="13.3206" width="1.30866" height="1.30866" fill="#2B6493"/>
<rect x="8.4668" y="13.3206" width="1.30866" height="1.30866" fill="#2C6897"/>
<rect x="9.77539" y="13.3206" width="1.30866" height="1.30866" fill="#2C6897"/>
<rect x="11.084" y="13.3206" width="1.30866" height="1.30866" fill="#2C6897"/>
<rect x="12.3926" y="13.3206" width="1.30866" height="1.30866" fill="#2C6897"/>
<rect x="13.7012" y="13.3206" width="1.30866" height="1.30866" fill="#2C6897"/>
<rect x="15.0098" y="13.3206" width="1.30866" height="1.30866" fill="#2C6897"/>
<rect x="16.3188" y="13.3206" width="1.30866" height="1.30866" fill="#2C6897"/>
<rect x="17.6274" y="13.3206" width="1.30866" height="1.30866" fill="#2C6897"/>
<rect x="18.936" y="13.3206" width="1.30866" height="1.30866" fill="#2C6897"/>
<rect x="20.2446" y="13.3206" width="1.30866" height="1.30866" fill="#2C6897"/>
<rect x="21.5532" y="13.3206" width="1.30866" height="1.30866" fill="#2C6897"/>
<rect x="22.8618" y="13.3206" width="1.30866" height="1.30866" fill="#2C6897"/>
<rect x="24.1704" y="13.3206" width="1.30866" height="1.30866" fill="#2C6897"/>
<rect x="25.479" y="13.3206" width="1.30866" height="1.30866" fill="#224B7A"/>
<rect x="26.7881" y="13.3206" width="1.30866" height="1.30866" fill="#224B7A"/>
<rect x="28.0967" y="13.3206" width="1.30866" height="1.30866" fill="#224B7A"/>
<rect x="29.4053" y="13.3206" width="1.30866" height="1.30866" fill="#224B7A"/>
<rect x="30.7139" y="13.3206" width="1.30866" height="1.30866" fill="black"/>
<rect x="4.54053" y="14.6292" width="1.30866" height="1.30866" fill="#020508"/>
<rect x="5.84961" y="14.6292" width="1.30866" height="1.30866" fill="#224B7A"/>
<rect x="7.1582" y="14.6292" width="1.30866" height="1.30866" fill="#2C6897"/>
<rect x="8.4668" y="14.6292" width="1.30866" height="1.30866" fill="#2C6897"/>
<rect x="9.77539" y="14.6292" width="1.30866" height="1.30866" fill="#0E212F"/>
<rect x="11.084" y="14.6292" width="1.30866" height="1.30866" fill="#050D13"/>
<rect x="12.3926" y="14.6292" width="1.30866" height="1.30866" fill="#2A618D"/>
<rect x="13.7012" y="14.6292" width="1.30866" height="1.30866" fill="#2C6897"/>
<rect x="15.0098" y="14.6292" width="1.30866" height="1.30866" fill="#2C6897"/>
<rect x="16.3188" y="14.6292" width="1.30866" height="1.30866" fill="#2C6897"/>
<rect x="17.6274" y="14.6292" width="1.30866" height="1.30866" fill="#2C6897"/>
<rect x="18.936" y="14.6292" width="1.30866" height="1.30866" fill="#2C6897"/>
<rect x="20.2446" y="14.6292" width="1.30866" height="1.30866" fill="#2C6897"/>
<rect x="21.5532" y="14.6292" width="1.30866" height="1.30866" fill="#2C6897"/>
<rect x="22.8618" y="14.6292" width="1.30866" height="1.30866" fill="#2C6897"/>
<rect x="24.1704" y="14.6292" width="1.30866" height="1.30866" fill="#2C6897"/>
<rect x="25.479" y="14.6292" width="1.30866" height="1.30866" fill="#224B7A"/>
<rect x="26.7881" y="14.6292" width="1.30866" height="1.30866" fill="#224B7A"/>
<rect x="28.0967" y="14.6292" width="1.30866" height="1.30866" fill="#224B7A"/>
<rect x="29.4053" y="14.6292" width="1.30866" height="1.30866" fill="#224B7A"/>
<rect x="30.7139" y="14.6292" width="1.30866" height="1.30866" fill="#09131F"/>
<rect x="4.54053" y="15.9377" width="1.30866" height="1.30866" fill="#204773"/>
<rect x="5.84961" y="15.9377" width="1.30866" height="1.30866" fill="#2B6493"/>
<rect x="7.1582" y="15.9377" width="1.30866" height="1.30866" fill="#060D13"/>
<rect x="8.4668" y="15.9377" width="1.30866" height="1.30866" fill="#152C2E"/>
<rect x="9.77539" y="15.9377" width="1.30866" height="1.30866" fill="#53AEB7"/>
<rect x="11.084" y="15.9377" width="1.30866" height="1.30866" fill="#53AEB7"/>
<rect x="12.3926" y="15.9377" width="1.30866" height="1.30866" fill="#53AEB7"/>
<rect x="13.7012" y="15.9377" width="1.30866" height="1.30866" fill="black"/>
<rect x="15.0098" y="15.9377" width="1.30866" height="1.30866" fill="#2C6897"/>
<rect x="16.3188" y="15.9377" width="1.30866" height="1.30866" fill="#2C6897"/>
<rect x="17.6274" y="15.9377" width="1.30866" height="1.30866" fill="#2C6897"/>
<rect x="18.936" y="15.9377" width="1.30866" height="1.30866" fill="#2C6897"/>
<rect x="20.2446" y="15.9377" width="1.30866" height="1.30866" fill="#2C6897"/>
<rect x="21.5532" y="15.9377" width="1.30866" height="1.30866" fill="#2C6897"/>
<rect x="22.8618" y="15.9377" width="1.30866" height="1.30866" fill="#2C6897"/>
<rect x="24.1704" y="15.9377" width="1.30866" height="1.30866" fill="#2C6897"/>
<rect x="25.479" y="15.9377" width="1.30866" height="1.30866" fill="#224B7A"/>
<rect x="26.7881" y="15.9377" width="1.30866" height="1.30866" fill="#224B7A"/>
<rect x="28.0967" y="15.9377" width="1.30866" height="1.30866" fill="#224B7A"/>
<rect x="29.4053" y="15.9377" width="1.30866" height="1.30866" fill="#224B7A"/>
<rect x="30.7139" y="15.9377" width="1.30866" height="1.30866" fill="#224B7A"/>
<rect x="32.0225" y="15.9377" width="1.30866" height="1.30866" fill="black"/>
<rect x="4.54053" y="17.2463" width="1.30866" height="1.30866" fill="#224B7A"/>
<rect x="5.84961" y="17.2463" width="1.30866" height="1.30866" fill="#2C6897"/>
<rect x="7.1582" y="17.2463" width="1.30866" height="1.30866" fill="black"/>
<rect x="8.4668" y="17.2463" width="1.30866" height="1.30866" fill="black"/>
<rect x="9.77539" y="17.2463" width="1.30866" height="1.30866" fill="black"/>
<rect x="11.084" y="17.2463" width="1.30866" height="1.30866" fill="#53AEB7"/>
<rect x="12.3926" y="17.2463" width="1.30866" height="1.30866" fill="#53AEB7"/>
<rect x="13.7012" y="17.2463" width="1.30866" height="1.30866" fill="#53AEB7"/>
<rect x="15.0098" y="17.2463" width="1.30866" height="1.30866" fill="#2C6897"/>
<rect x="16.3188" y="17.2463" width="1.30866" height="1.30866" fill="#2C6897"/>
<rect x="17.6274" y="17.2463" width="1.30866" height="1.30866" fill="#2C6897"/>
<rect x="18.936" y="17.2463" width="1.30866" height="1.30866" fill="#2C6897"/>
<rect x="20.2446" y="17.2463" width="1.30866" height="1.30866" fill="#2C6897"/>
<rect x="21.5532" y="17.2463" width="1.30866" height="1.30866" fill="#2C6897"/>
<rect x="22.8618" y="17.2463" width="1.30866" height="1.30866" fill="#2C6897"/>
<rect x="24.1704" y="17.2463" width="1.30866" height="1.30866" fill="#2C6897"/>
<rect x="25.479" y="17.2463" width="1.30866" height="1.30866" fill="#224B7A"/>
<rect x="26.7881" y="17.2463" width="1.30866" height="1.30866" fill="#224B7A"/>
<rect x="28.0967" y="17.2463" width="1.30866" height="1.30866" fill="#224B7A"/>
<rect x="29.4053" y="17.2463" width="1.30866" height="1.30866" fill="#224B7A"/>
<rect x="30.7139" y="17.2463" width="1.30866" height="1.30866" fill="#224B7A"/>
<rect x="32.0225" y="17.2463" width="1.30866" height="1.30866" fill="black"/>
<rect x="4.54053" y="18.5552" width="1.30866" height="1.30866" fill="#224B7A"/>
<rect x="5.84961" y="18.5552" width="1.30866" height="1.30866" fill="#060D13"/>
<rect x="7.1582" y="18.5552" width="1.30866" height="1.30866" fill="white"/>
<rect x="8.4668" y="18.5552" width="1.30866" height="1.30866" fill="black"/>
<rect x="9.77539" y="18.5552" width="1.30866" height="1.30866" fill="black"/>
<rect x="11.084" y="18.5552" width="1.30866" height="1.30866" fill="#53AEB7"/>
<rect x="12.3926" y="18.5552" width="1.30866" height="1.30866" fill="#53AEB7"/>
<rect x="13.7012" y="18.5552" width="1.30866" height="1.30866" fill="#346D72"/>
<rect x="15.0098" y="18.5552" width="1.30866" height="1.30866" fill="#2C6897"/>
<rect x="16.3188" y="18.5552" width="1.30866" height="1.30866" fill="#2C6897"/>
<rect x="17.6274" y="18.5552" width="1.30866" height="1.30866" fill="#2C6897"/>
<rect x="18.936" y="18.5552" width="1.30866" height="1.30866" fill="#2C6897"/>
<rect x="20.2446" y="18.5552" width="1.30866" height="1.30866" fill="#2C6897"/>
<rect x="21.5532" y="18.5552" width="1.30866" height="1.30866" fill="#2C6897"/>
<rect x="22.8618" y="18.5552" width="1.30866" height="1.30866" fill="#2C6897"/>
<rect x="24.1704" y="18.5552" width="1.30866" height="1.30866" fill="#2C6897"/>
<rect x="25.479" y="18.5552" width="1.30866" height="1.30866" fill="#224B7A"/>
<rect x="26.7881" y="18.5552" width="1.30866" height="1.30866" fill="#224B7A"/>
<rect x="28.0967" y="18.5552" width="1.30866" height="1.30866" fill="#224B7A"/>
<rect x="29.4053" y="18.5552" width="1.30866" height="1.30866" fill="#224B7A"/>
<rect x="30.7139" y="18.5552" width="1.30866" height="1.30866" fill="#224B7A"/>
<rect x="32.0225" y="18.5552" width="1.30866" height="1.30866" fill="#224B7A"/>
<rect x="33.3311" y="18.5552" width="1.30866" height="1.30866" fill="black"/>
<rect x="3.23193" y="19.8638" width="1.30866" height="1.30866" fill="black"/>
<rect x="4.54053" y="19.8638" width="1.30866" height="1.30866" fill="#2B6795"/>
<rect x="5.84961" y="19.8638" width="1.30866" height="1.30866" fill="black"/>
<rect x="7.1582" y="19.8638" width="1.30866" height="1.30866" fill="black"/>
<rect x="8.4668" y="19.8638" width="1.30866" height="1.30866" fill="black"/>
<rect x="9.77539" y="19.8638" width="1.30866" height="1.30866" fill="#4998A0"/>
<rect x="11.084" y="19.8638" width="1.30866" height="1.30866" fill="#53AEB7"/>
<rect x="12.3926" y="19.8638" width="1.30866" height="1.30866" fill="#53AEB7"/>
<rect x="13.7012" y="19.8638" width="1.30866" height="1.30866" fill="black"/>
<rect x="15.0098" y="19.8638" width="1.30866" height="1.30866" fill="#2C6897"/>
<rect x="16.3188" y="19.8638" width="1.30866" height="1.30866" fill="#2C6897"/>
<rect x="17.6274" y="19.8638" width="1.30866" height="1.30866" fill="#2C6897"/>
<rect x="18.936" y="19.8638" width="1.30866" height="1.30866" fill="#2C6897"/>
<rect x="20.2446" y="19.8638" width="1.30866" height="1.30866" fill="#2C6897"/>
<rect x="21.5532" y="19.8638" width="1.30866" height="1.30866" fill="#2C6897"/>
<rect x="22.8618" y="19.8638" width="1.30866" height="1.30866" fill="#2C6897"/>
<rect x="24.1704" y="19.8638" width="1.30866" height="1.30866" fill="#2C6897"/>
<rect x="25.479" y="19.8638" width="1.30866" height="1.30866" fill="#224B7A"/>
<rect x="26.7881" y="19.8638" width="1.30866" height="1.30866" fill="#224B7A"/>
<rect x="28.0967" y="19.8638" width="1.30866" height="1.30866" fill="#224B7A"/>
<rect x="29.4053" y="19.8638" width="1.30866" height="1.30866" fill="#224B7A"/>
<rect x="30.7139" y="19.8638" width="1.30866" height="1.30866" fill="#224B7A"/>
<rect x="32.0225" y="19.8638" width="1.30866" height="1.30866" fill="#224B7A"/>
<rect x="33.3311" y="19.8638" width="1.30866" height="1.30866" fill="#0B1726"/>
<rect x="3.23193" y="21.1724" width="1.30866" height="1.30866" fill="black"/>
<rect x="4.54053" y="21.1724" width="1.30866" height="1.30866" fill="#2C6897"/>
<rect x="5.84961" y="21.1724" width="1.30866" height="1.30866" fill="black"/>
<rect x="7.1582" y="21.1724" width="1.30866" height="1.30866" fill="#3A787E"/>
<rect x="8.4668" y="21.1724" width="1.30866" height="1.30866" fill="#53AEB7"/>
<rect x="9.77539" y="21.1724" width="1.30866" height="1.30866" fill="#53AEB7"/>
<rect x="11.084" y="21.1724" width="1.30866" height="1.30866" fill="#53AEB7"/>
<rect x="12.3926" y="21.1724" width="1.30866" height="1.30866" fill="black"/>
<rect x="13.7012" y="21.1724" width="1.30866" height="1.30866" fill="#2C6897"/>
<rect x="15.0098" y="21.1724" width="1.30866" height="1.30866" fill="#2C6897"/>
<rect x="16.3188" y="21.1724" width="1.30866" height="1.30866" fill="#2C6897"/>
<rect x="17.6274" y="21.1724" width="1.30866" height="1.30866" fill="#2C6897"/>
<rect x="18.936" y="21.1724" width="1.30866" height="1.30866" fill="#2C6897"/>
<rect x="20.2446" y="21.1724" width="1.30866" height="1.30866" fill="#2C6897"/>
<rect x="21.5532" y="21.1724" width="1.30866" height="1.30866" fill="#2C6897"/>
<rect x="22.8618" y="21.1724" width="1.30866" height="1.30866" fill="#2C6897"/>
<rect x="24.1704" y="21.1724" width="1.30866" height="1.30866" fill="#2C6897"/>
<rect x="25.479" y="21.1724" width="1.30866" height="1.30866" fill="#224B7A"/>
<rect x="26.7881" y="21.1724" width="1.30866" height="1.30866" fill="#1E426B"/>
<rect x="28.0967" y="21.1724" width="1.30866" height="1.30866" fill="#1E426B"/>
<rect x="29.4053" y="21.1724" width="1.30866" height="1.30866" fill="#224B7A"/>
<rect x="30.7139" y="21.1724" width="1.30866" height="1.30866" fill="#224B7A"/>
<rect x="32.0225" y="21.1724" width="1.30866" height="1.30866" fill="#224B7A"/>
<rect x="33.3311" y="21.1724" width="1.30866" height="1.30866" fill="#224B7A"/>
<rect x="34.6396" y="21.1724" width="1.30866" height="1.30866" fill="black"/>
<rect x="1.92334" y="22.481" width="1.30866" height="1.30866" fill="black"/>
<rect x="3.23193" y="22.481" width="1.30866" height="1.30866" fill="#224B7A"/>
<rect x="4.54053" y="22.481" width="1.30866" height="1.30866" fill="#224B7A"/>
<rect x="5.84961" y="22.481" width="1.30866" height="1.30866" fill="#224B7A"/>
<rect x="7.1582" y="22.481" width="1.30866" height="1.30866" fill="#2C6897"/>
<rect x="8.4668" y="22.481" width="1.30866" height="1.30866" fill="#2C6897"/>
<rect x="9.77539" y="22.481" width="1.30866" height="1.30866" fill="#275B84"/>
<rect x="11.084" y="22.481" width="1.30866" height="1.30866" fill="#2C6897"/>
<rect x="12.3926" y="22.481" width="1.30866" height="1.30866" fill="#2C6897"/>
<rect x="13.7012" y="22.481" width="1.30866" height="1.30866" fill="#2C6897"/>
<rect x="15.0098" y="22.481" width="1.30866" height="1.30866" fill="#2C6897"/>
<rect x="16.3188" y="22.481" width="1.30866" height="1.30866" fill="#2C6897"/>
<rect x="17.6274" y="22.481" width="1.30866" height="1.30866" fill="#2C6897"/>
<rect x="18.936" y="22.481" width="1.30866" height="1.30866" fill="#0E212F"/>
<rect x="20.2446" y="22.481" width="1.30866" height="1.30866" fill="black"/>
<rect x="21.5532" y="22.481" width="1.30866" height="1.30866" fill="#112739"/>
<rect x="22.8618" y="22.481" width="1.30866" height="1.30866" fill="#275B84"/>
<rect x="24.1704" y="22.481" width="1.30866" height="1.30866" fill="#2C6897"/>
<rect x="25.479" y="22.481" width="1.30866" height="1.30866" fill="#224B7A"/>
<rect x="26.7881" y="22.481" width="1.30866" height="1.30866" fill="#224B7A"/>
<rect x="28.0967" y="22.481" width="1.30866" height="1.30866" fill="#224B7A"/>
<rect x="29.4053" y="22.481" width="1.30866" height="1.30866" fill="#224B7A"/>
<rect x="30.7139" y="22.481" width="1.30866" height="1.30866" fill="#224B7A"/>
<rect x="32.0225" y="22.481" width="1.30866" height="1.30866" fill="#224B7A"/>
<rect x="33.3311" y="22.481" width="1.30866" height="1.30866" fill="#224B7A"/>
<rect x="34.6396" y="22.481" width="1.30866" height="1.30866" fill="black"/>
<rect x="0.614746" y="23.7898" width="1.30866" height="1.30866" fill="black"/>
<rect x="1.92334" y="23.7898" width="1.30866" height="1.30866" fill="black"/>
<rect x="3.23193" y="23.7898" width="1.30866" height="1.30866" fill="black"/>
<rect x="4.54053" y="23.7898" width="1.30866" height="1.30866" fill="#224B7A"/>
<rect x="5.84961" y="23.7898" width="1.30866" height="1.30866" fill="#224B7A"/>
<rect x="7.1582" y="23.7898" width="1.30866" height="1.30866" fill="#224B7A"/>
<rect x="8.4668" y="23.7898" width="1.30866" height="1.30866" fill="#224B7A"/>
<rect x="9.77539" y="23.7898" width="1.30866" height="1.30866" fill="#265685"/>
<rect x="11.084" y="23.7898" width="1.30866" height="1.30866" fill="#2C6897"/>
<rect x="12.3926" y="23.7898" width="1.30866" height="1.30866" fill="#2C6897"/>
<rect x="13.7012" y="23.7898" width="1.30866" height="1.30866" fill="#2C6897"/>
<rect x="15.0098" y="23.7898" width="1.30866" height="1.30866" fill="#132E42"/>
<rect x="16.3188" y="23.7898" width="1.30866" height="1.30866" fill="#193B55"/>
<rect x="17.6274" y="23.7898" width="1.30866" height="1.30866" fill="#2C6897"/>
<rect x="18.936" y="23.7898" width="1.30866" height="1.30866" fill="#2C6897"/>
<rect x="20.2446" y="23.7898" width="1.30866" height="1.30866" fill="#2C6897"/>
<rect x="21.5532" y="23.7898" width="1.30866" height="1.30866" fill="#2C6897"/>
<rect x="22.8618" y="23.7898" width="1.30866" height="1.30866" fill="#2C6897"/>
<rect x="24.1704" y="23.7898" width="1.30866" height="1.30866" fill="#2C6897"/>
<rect x="25.479" y="23.7898" width="1.30866" height="1.30866" fill="#224B7A"/>
<rect x="26.7881" y="23.7898" width="1.30866" height="1.30866" fill="#224B7A"/>
<rect x="28.0967" y="23.7898" width="1.30866" height="1.30866" fill="#224B7A"/>
<rect x="29.4053" y="23.7898" width="1.30866" height="1.30866" fill="#224B7A"/>
<rect x="30.7139" y="23.7898" width="1.30866" height="1.30866" fill="#224B7A"/>
<rect x="32.0225" y="23.7898" width="1.30866" height="1.30866" fill="#224B7A"/>
<rect x="33.3311" y="23.7898" width="1.30866" height="1.30866" fill="#05090F"/>
<rect x="1.92334" y="25.0984" width="1.30866" height="1.30866" fill="black"/>
<rect x="3.23193" y="25.0984" width="1.30866" height="1.30866" fill="#224B7A"/>
<rect x="4.54053" y="25.0984" width="1.30866" height="1.30866" fill="#224B7A"/>
<rect x="5.84961" y="25.0984" width="1.30866" height="1.30866" fill="#224B7A"/>
<rect x="7.1582" y="25.0984" width="1.30866" height="1.30866" fill="#224B7A"/>
<rect x="8.4668" y="25.0984" width="1.30866" height="1.30866" fill="#224B7A"/>
<rect x="9.77539" y="25.0984" width="1.30866" height="1.30866" fill="#224B7A"/>
<rect x="11.084" y="25.0984" width="1.30866" height="1.30866" fill="#224B7A"/>
<rect x="12.3926" y="25.0984" width="1.30866" height="1.30866" fill="#224B7A"/>
<rect x="13.7012" y="25.0984" width="1.30866" height="1.30866" fill="#2C6897"/>
<rect x="15.0098" y="25.0984" width="1.30866" height="1.30866" fill="#2C6897"/>
<rect x="16.3188" y="25.0984" width="1.30866" height="1.30866" fill="#03070A"/>
<rect x="17.6274" y="25.0984" width="1.30866" height="1.30866" fill="black"/>
<rect x="18.936" y="25.0984" width="1.30866" height="1.30866" fill="black"/>
<rect x="20.2446" y="25.0984" width="1.30866" height="1.30866" fill="black"/>
<rect x="21.5532" y="25.0984" width="1.30866" height="1.30866" fill="black"/>
<rect x="22.8618" y="25.0984" width="1.30866" height="1.30866" fill="black"/>
<rect x="24.1704" y="25.0984" width="1.30866" height="1.30866" fill="black"/>
<rect x="25.479" y="25.0984" width="1.30866" height="1.30866" fill="black"/>
<rect x="26.7881" y="25.0984" width="1.30866" height="1.30866" fill="black"/>
<rect x="28.0967" y="25.0984" width="1.30866" height="1.30866" fill="#224B7A"/>
<rect x="29.4053" y="25.0984" width="1.30866" height="1.30866" fill="#224B7A"/>
<rect x="30.7139" y="25.0984" width="1.30866" height="1.30866" fill="#224B7A"/>
<rect x="32.0225" y="25.0984" width="1.30866" height="1.30866" fill="#224B7A"/>
<rect x="1.92334" y="26.407" width="1.30866" height="1.30866" fill="#020508"/>
<rect x="3.23193" y="26.407" width="1.30866" height="1.30866" fill="#224B7A"/>
<rect x="4.54053" y="26.407" width="1.30866" height="1.30866" fill="#224B7A"/>
<rect x="5.84961" y="26.407" width="1.30866" height="1.30866" fill="#224B7A"/>
<rect x="7.1582" y="26.407" width="1.30866" height="1.30866" fill="black"/>
<rect x="8.4668" y="26.407" width="1.30866" height="1.30866" fill="#224B7A"/>
<rect x="9.77539" y="26.407" width="1.30866" height="1.30866" fill="#224B7A"/>
<rect x="11.084" y="26.407" width="1.30866" height="1.30866" fill="#224B7A"/>
<rect x="12.3926" y="26.407" width="1.30866" height="1.30866" fill="#224B7A"/>
<rect x="13.7012" y="26.407" width="1.30866" height="1.30866" fill="#224B7A"/>
<rect x="15.0098" y="26.407" width="1.30866" height="1.30866" fill="#224B7A"/>
<rect x="16.3188" y="26.407" width="1.30866" height="1.30866" fill="#285D8C"/>
<rect x="17.6274" y="26.407" width="1.30866" height="1.30866" fill="#2C6897"/>
<rect x="18.936" y="26.407" width="1.30866" height="1.30866" fill="#2C6897"/>
<rect x="20.2446" y="26.407" width="1.30866" height="1.30866" fill="#2C6897"/>
<rect x="21.5532" y="26.407" width="1.30866" height="1.30866" fill="#2C6897"/>
<rect x="22.8618" y="26.407" width="1.30866" height="1.30866" fill="#2C6897"/>
<rect x="24.1704" y="26.407" width="1.30866" height="1.30866" fill="#2C6897"/>
<rect x="25.479" y="26.407" width="1.30866" height="1.30866" fill="#224B7A"/>
<rect x="26.7881" y="26.407" width="1.30866" height="1.30866" fill="#224B7A"/>
<rect x="28.0967" y="26.407" width="1.30866" height="1.30866" fill="#224B7A"/>
<rect x="29.4053" y="26.407" width="1.30866" height="1.30866" fill="#224B7A"/>
<rect x="30.7139" y="26.407" width="1.30866" height="1.30866" fill="#224B7A"/>
<rect x="32.0225" y="26.407" width="1.30866" height="1.30866" fill="black"/>
<rect x="1.92334" y="27.7156" width="1.30866" height="1.30866" fill="black"/>
<rect x="3.23193" y="27.7156" width="1.30866" height="1.30866" fill="black"/>
<rect x="4.54053" y="27.7156" width="1.30866" height="1.30866" fill="#224B7A"/>
<rect x="5.84961" y="27.7156" width="1.30866" height="1.30866" fill="black"/>
<rect x="7.1582" y="27.7156" width="1.30866" height="1.30866" fill="#224B7A"/>
<rect x="8.4668" y="27.7156" width="1.30866" height="1.30866" fill="#224B7A"/>
<rect x="9.77539" y="27.7156" width="1.30866" height="1.30866" fill="#224B7A"/>
<rect x="11.084" y="27.7156" width="1.30866" height="1.30866" fill="#224B7A"/>
<rect x="12.3926" y="27.7156" width="1.30866" height="1.30866" fill="#224B7A"/>
<rect x="13.7012" y="27.7156" width="1.30866" height="1.30866" fill="#224B7A"/>
<rect x="15.0098" y="27.7156" width="1.30866" height="1.30866" fill="#224B7A"/>
<rect x="16.3188" y="27.7156" width="1.30866" height="1.30866" fill="#224B7A"/>
<rect x="17.6274" y="27.7156" width="1.30866" height="1.30866" fill="#224B7A"/>
<rect x="18.936" y="27.7156" width="1.30866" height="1.30866" fill="#224B7A"/>
<rect x="20.2446" y="27.7156" width="1.30866" height="1.30866" fill="#2C6897"/>
<rect x="21.5532" y="27.7156" width="1.30866" height="1.30866" fill="#2C6897"/>
<rect x="22.8618" y="27.7156" width="1.30866" height="1.30866" fill="#2C6897"/>
<rect x="24.1704" y="27.7156" width="1.30866" height="1.30866" fill="#2C6897"/>
<rect x="25.479" y="27.7156" width="1.30866" height="1.30866" fill="#224B7A"/>
<rect x="26.7881" y="27.7156" width="1.30866" height="1.30866" fill="#224B7A"/>
<rect x="28.0967" y="27.7156" width="1.30866" height="1.30866" fill="#224B7A"/>
<rect x="29.4053" y="27.7156" width="1.30866" height="1.30866" fill="#224B7A"/>
<rect x="30.7139" y="27.7156" width="1.30866" height="1.30866" fill="black"/>
<rect x="3.23193" y="29.0244" width="1.30866" height="1.30866" fill="#224B7A"/>
<rect x="4.54053" y="29.0244" width="1.30866" height="1.30866" fill="#224B7A"/>
<rect x="5.84961" y="29.0244" width="1.30866" height="1.30866" fill="#224B7A"/>
<rect x="7.1582" y="29.0244" width="1.30866" height="1.30866" fill="#224B7A"/>
<rect x="8.4668" y="29.0244" width="1.30866" height="1.30866" fill="#224B7A"/>
<rect x="9.77539" y="29.0244" width="1.30866" height="1.30866" fill="#224B7A"/>
<rect x="11.084" y="29.0244" width="1.30866" height="1.30866" fill="#224B7A"/>
<rect x="12.3926" y="29.0244" width="1.30866" height="1.30866" fill="#224B7A"/>
<rect x="13.7012" y="29.0244" width="1.30866" height="1.30866" fill="#224B7A"/>
<rect x="15.0098" y="29.0244" width="1.30866" height="1.30866" fill="#224B7A"/>
<rect x="16.3188" y="29.0244" width="1.30866" height="1.30866" fill="#224B7A"/>
<rect x="17.6274" y="29.0244" width="1.30866" height="1.30866" fill="#224B7A"/>
<rect x="18.936" y="29.0244" width="1.30866" height="1.30866" fill="#224B7A"/>
<rect x="20.2446" y="29.0244" width="1.30866" height="1.30866" fill="#224B7A"/>
<rect x="21.5532" y="29.0244" width="1.30866" height="1.30866" fill="#224B7A"/>
<rect x="22.8618" y="29.0244" width="1.30866" height="1.30866" fill="#2B6391"/>
<rect x="24.1704" y="29.0244" width="1.30866" height="1.30866" fill="#2C6897"/>
<rect x="25.479" y="29.0244" width="1.30866" height="1.30866" fill="#224B7A"/>
<rect x="26.7881" y="29.0244" width="1.30866" height="1.30866" fill="#224B7A"/>
<rect x="28.0967" y="29.0244" width="1.30866" height="1.30866" fill="#224B7A"/>
<rect x="29.4053" y="29.0244" width="1.30866" height="1.30866" fill="black"/>
<rect x="3.23193" y="30.333" width="1.30866" height="1.30866" fill="black"/>
<rect x="4.54053" y="30.333" width="1.30866" height="1.30866" fill="#224B7A"/>
<rect x="5.84961" y="30.333" width="1.30866" height="1.30866" fill="#224B7A"/>
<rect x="7.1582" y="30.333" width="1.30866" height="1.30866" fill="#224B7A"/>
<rect x="8.4668" y="30.333" width="1.30866" height="1.30866" fill="#224B7A"/>
<rect x="9.77539" y="30.333" width="1.30866" height="1.30866" fill="#224B7A"/>
<rect x="11.084" y="30.333" width="1.30866" height="1.30866" fill="#224B7A"/>
<rect x="12.3926" y="30.333" width="1.30866" height="1.30866" fill="#224B7A"/>
<rect x="13.7012" y="30.333" width="1.30866" height="1.30866" fill="#224B7A"/>
<rect x="15.0098" y="30.333" width="1.30866" height="1.30866" fill="#224B7A"/>
<rect x="16.3188" y="30.333" width="1.30866" height="1.30866" fill="#224B7A"/>
<rect x="17.6274" y="30.333" width="1.30866" height="1.30866" fill="#224B7A"/>
<rect x="18.936" y="30.333" width="1.30866" height="1.30866" fill="#224B7A"/>
<rect x="20.2446" y="30.333" width="1.30866" height="1.30866" fill="#224B7A"/>
<rect x="21.5532" y="30.333" width="1.30866" height="1.30866" fill="#224B7A"/>
<rect x="22.8618" y="30.333" width="1.30866" height="1.30866" fill="#224B7A"/>
<rect x="24.1704" y="30.333" width="1.30866" height="1.30866" fill="#224B7A"/>
<rect x="25.479" y="30.333" width="1.30866" height="1.30866" fill="#224B7A"/>
<rect x="26.7881" y="30.333" width="1.30866" height="1.30866" fill="#0F2135"/>
<rect x="28.0967" y="30.333" width="1.30866" height="1.30866" fill="black"/>
<rect x="5.84961" y="31.6416" width="1.30866" height="1.30866" fill="black"/>
<rect x="7.1582" y="31.6416" width="1.30866" height="1.30866" fill="black"/>
<rect x="8.4668" y="31.6416" width="1.30866" height="1.30866" fill="#224B7A"/>
<rect x="9.77539" y="31.6416" width="1.30866" height="1.30866" fill="#224B7A"/>
<rect x="11.084" y="31.6416" width="1.30866" height="1.30866" fill="#224B7A"/>
<rect x="12.3926" y="31.6416" width="1.30866" height="1.30866" fill="#224B7A"/>
<rect x="13.7012" y="31.6416" width="1.30866" height="1.30866" fill="#224B7A"/>
<rect x="15.0098" y="31.6416" width="1.30866" height="1.30866" fill="#224B7A"/>
<rect x="16.3188" y="31.6416" width="1.30866" height="1.30866" fill="#224B7A"/>
<rect x="17.6274" y="31.6416" width="1.30866" height="1.30866" fill="#224B7A"/>
<rect x="18.936" y="31.6416" width="1.30866" height="1.30866" fill="#224B7A"/>
<rect x="20.2446" y="31.6416" width="1.30866" height="1.30866" fill="#224B7A"/>
<rect x="21.5532" y="31.6416" width="1.30866" height="1.30866" fill="#224B7A"/>
<rect x="22.8618" y="31.6416" width="1.30866" height="1.30866" fill="#224B7A"/>
<rect x="24.1704" y="31.6416" width="1.30866" height="1.30866" fill="#204773"/>
<rect x="25.479" y="31.6416" width="1.30866" height="1.30866" fill="black"/>
<rect x="8.4668" y="32.9502" width="1.30866" height="1.30866" fill="black"/>
<rect x="9.77539" y="32.9502" width="1.30866" height="1.30866" fill="#09131F"/>
<rect x="11.084" y="32.9502" width="1.30866" height="1.30866" fill="#224B7A"/>
<rect x="12.3926" y="32.9502" width="1.30866" height="1.30866" fill="#224B7A"/>
<rect x="13.7012" y="32.9502" width="1.30866" height="1.30866" fill="#224B7A"/>
<rect x="15.0098" y="32.9502" width="1.30866" height="1.30866" fill="#224B7A"/>
<rect x="16.3188" y="32.9502" width="1.30866" height="1.30866" fill="#224B7A"/>
<rect x="17.6274" y="32.9502" width="1.30866" height="1.30866" fill="#224B7A"/>
<rect x="18.936" y="32.9502" width="1.30866" height="1.30866" fill="#224B7A"/>
<rect x="20.2446" y="32.9502" width="1.30866" height="1.30866" fill="#1A395C"/>
<rect x="21.5532" y="32.9502" width="1.30866" height="1.30866" fill="black"/>
<rect x="22.8618" y="32.9502" width="1.30866" height="1.30866" fill="black"/>
<rect x="11.084" y="34.259" width="1.30866" height="1.30866" fill="black"/>
<rect x="12.3926" y="34.259" width="1.30866" height="1.30866" fill="#224B7A"/>
<rect x="13.7012" y="34.259" width="1.30866" height="1.30866" fill="#224B7A"/>
<rect x="15.0098" y="34.259" width="1.30866" height="1.30866" fill="#1A395C"/>
<rect x="16.3188" y="34.259" width="1.30866" height="1.30866" fill="black"/>
<rect x="17.6274" y="34.259" width="1.30866" height="1.30866" fill="black"/>
<rect x="12.3926" y="35.5676" width="1.30866" height="1.30866" fill="black"/>
</svg>
