<svg width="36" height="36" viewBox="0 0 36 36" fill="none" xmlns="http://www.w3.org/2000/svg">
<rect x="9.23242" y="0.196777" width="1.30866" height="1.30866" fill="black"/>
<rect x="10.5415" y="0.196777" width="1.30866" height="1.30866" fill="#050A10"/>
<rect x="18.3931" y="0.196777" width="1.30866" height="1.30866" fill="black"/>
<rect x="19.7021" y="0.196777" width="1.30866" height="1.30866" fill="black"/>
<rect x="9.23242" y="1.50562" width="1.30866" height="1.30866" fill="#09131F"/>
<rect x="10.5415" y="1.50562" width="1.30866" height="1.30866" fill="#132B45"/>
<rect x="11.8501" y="1.50562" width="1.30866" height="1.30866" fill="black"/>
<rect x="17.0845" y="1.50562" width="1.30866" height="1.30866" fill="black"/>
<rect x="18.3931" y="1.50562" width="1.30866" height="1.30866" fill="#224B7A"/>
<rect x="19.7021" y="1.50562" width="1.30866" height="1.30866" fill="black"/>
<rect x="9.23242" y="2.81421" width="1.30866" height="1.30866" fill="#224B7A"/>
<rect x="10.5415" y="2.81421" width="1.30866" height="1.30866" fill="black"/>
<rect x="11.8501" y="2.81421" width="1.30866" height="1.30866" fill="#224B7A"/>
<rect x="13.1587" y="2.81421" width="1.30866" height="1.30866" fill="black"/>
<rect x="17.0845" y="2.81421" width="1.30866" height="1.30866" fill="#040A10"/>
<rect x="18.3931" y="2.81421" width="1.30866" height="1.30866" fill="#224B7A"/>
<rect x="19.7021" y="2.81421" width="1.30866" height="1.30866" fill="#204672"/>
<rect x="7.92383" y="4.1228" width="1.30866" height="1.30866" fill="black"/>
<rect x="9.23242" y="4.1228" width="1.30866" height="1.30866" fill="#224B7A"/>
<rect x="10.5415" y="4.1228" width="1.30866" height="1.30866" fill="#020508"/>
<rect x="11.8501" y="4.1228" width="1.30866" height="1.30866" fill="#224B7A"/>
<rect x="13.1587" y="4.1228" width="1.30866" height="1.30866" fill="#224B7A"/>
<rect x="14.4673" y="4.1228" width="1.30866" height="1.30866" fill="#224B7A"/>
<rect x="15.7759" y="4.1228" width="1.30866" height="1.30866" fill="#224B7A"/>
<rect x="17.0845" y="4.1228" width="1.30866" height="1.30866" fill="#224B7A"/>
<rect x="18.3931" y="4.1228" width="1.30866" height="1.30866" fill="#1A385C"/>
<rect x="19.7021" y="4.1228" width="1.30866" height="1.30866" fill="#020508"/>
<rect x="21.0107" y="4.1228" width="1.30866" height="1.30866" fill="black"/>
<rect x="22.3193" y="4.1228" width="1.30866" height="1.30866" fill="black"/>
<rect x="7.92383" y="5.4314" width="1.30866" height="1.30866" fill="#1A385C"/>
<rect x="9.23242" y="5.4314" width="1.30866" height="1.30866" fill="#224B7A"/>
<rect x="10.5415" y="5.4314" width="1.30866" height="1.30866" fill="#224B7A"/>
<rect x="11.8501" y="5.4314" width="1.30866" height="1.30866" fill="#224B7A"/>
<rect x="13.1587" y="5.4314" width="1.30866" height="1.30866" fill="#224B7A"/>
<rect x="14.4673" y="5.4314" width="1.30866" height="1.30866" fill="#224B7A"/>
<rect x="15.7759" y="5.4314" width="1.30866" height="1.30866" fill="#224B7A"/>
<rect x="17.0845" y="5.4314" width="1.30866" height="1.30866" fill="#224B7A"/>
<rect x="18.3931" y="5.4314" width="1.30866" height="1.30866" fill="#224B7A"/>
<rect x="19.7021" y="5.4314" width="1.30866" height="1.30866" fill="#224B7A"/>
<rect x="21.0107" y="5.4314" width="1.30866" height="1.30866" fill="#224B7A"/>
<rect x="22.3193" y="5.4314" width="1.30866" height="1.30866" fill="#224B7A"/>
<rect x="23.6279" y="5.4314" width="1.30866" height="1.30866" fill="#0D1C2E"/>
<rect x="24.9365" y="5.4314" width="1.30866" height="1.30866" fill="black"/>
<rect x="6.61523" y="6.74023" width="1.30866" height="1.30866" fill="black"/>
<rect x="7.92383" y="6.74023" width="1.30866" height="1.30866" fill="#224B7A"/>
<rect x="9.23242" y="6.74023" width="1.30866" height="1.30866" fill="#224B7A"/>
<rect x="10.5415" y="6.74023" width="1.30866" height="1.30866" fill="#224B7A"/>
<rect x="11.8501" y="6.74023" width="1.30866" height="1.30866" fill="#224B7A"/>
<rect x="13.1587" y="6.74023" width="1.30866" height="1.30866" fill="#224B7A"/>
<rect x="14.4673" y="6.74023" width="1.30866" height="1.30866" fill="#224B7A"/>
<rect x="15.7759" y="6.74023" width="1.30866" height="1.30866" fill="#224B7A"/>
<rect x="17.0845" y="6.74023" width="1.30866" height="1.30866" fill="#224B7A"/>
<rect x="18.3931" y="6.74023" width="1.30866" height="1.30866" fill="#224B7A"/>
<rect x="19.7021" y="6.74023" width="1.30866" height="1.30866" fill="#224B7A"/>
<rect x="21.0107" y="6.74023" width="1.30866" height="1.30866" fill="#224B7A"/>
<rect x="22.3193" y="6.74023" width="1.30866" height="1.30866" fill="#224B7A"/>
<rect x="23.6279" y="6.74023" width="1.30866" height="1.30866" fill="#224B7A"/>
<rect x="24.9365" y="6.74023" width="1.30866" height="1.30866" fill="#224B7A"/>
<rect x="26.2451" y="6.74023" width="1.30866" height="1.30866" fill="black"/>
<rect x="6.61523" y="8.04883" width="1.30866" height="1.30866" fill="black"/>
<rect x="7.92383" y="8.04883" width="1.30866" height="1.30866" fill="#224B7A"/>
<rect x="9.23242" y="8.04883" width="1.30866" height="1.30866" fill="#224B7A"/>
<rect x="10.5415" y="8.04883" width="1.30866" height="1.30866" fill="#224B7A"/>
<rect x="11.8501" y="8.04883" width="1.30866" height="1.30866" fill="#224B7A"/>
<rect x="13.1587" y="8.04883" width="1.30866" height="1.30866" fill="#224B7A"/>
<rect x="14.4673" y="8.04883" width="1.30866" height="1.30866" fill="#224B7A"/>
<rect x="15.7759" y="8.04883" width="1.30866" height="1.30866" fill="#224B7A"/>
<rect x="17.0845" y="8.04883" width="1.30866" height="1.30866" fill="#224B7A"/>
<rect x="18.3931" y="8.04883" width="1.30866" height="1.30866" fill="#224B7A"/>
<rect x="19.7021" y="8.04883" width="1.30866" height="1.30866" fill="#224B7A"/>
<rect x="21.0107" y="8.04883" width="1.30866" height="1.30866" fill="#224B7A"/>
<rect x="22.3193" y="8.04883" width="1.30866" height="1.30866" fill="#224B7A"/>
<rect x="23.6279" y="8.04883" width="1.30866" height="1.30866" fill="#224B7A"/>
<rect x="24.9365" y="8.04883" width="1.30866" height="1.30866" fill="#224B7A"/>
<rect x="26.2451" y="8.04883" width="1.30866" height="1.30866" fill="#224B7A"/>
<rect x="27.5537" y="8.04883" width="1.30866" height="1.30866" fill="#050A10"/>
<rect x="6.61523" y="9.35742" width="1.30866" height="1.30866" fill="#224B7A"/>
<rect x="7.92383" y="9.35742" width="1.30866" height="1.30866" fill="#224B7A"/>
<rect x="9.23242" y="9.35742" width="1.30866" height="1.30866" fill="#224B7A"/>
<rect x="10.5415" y="9.35742" width="1.30866" height="1.30866" fill="#224B7A"/>
<rect x="11.8501" y="9.35742" width="1.30866" height="1.30866" fill="#224B7A"/>
<rect x="13.1587" y="9.35742" width="1.30866" height="1.30866" fill="#224B7A"/>
<rect x="14.4673" y="9.35742" width="1.30866" height="1.30866" fill="#224B7A"/>
<rect x="15.7759" y="9.35742" width="1.30866" height="1.30866" fill="#224B7A"/>
<rect x="17.0845" y="9.35742" width="1.30866" height="1.30866" fill="#224B7A"/>
<rect x="18.3931" y="9.35742" width="1.30866" height="1.30866" fill="#224B7A"/>
<rect x="19.7021" y="9.35742" width="1.30866" height="1.30866" fill="#224B7A"/>
<rect x="21.0107" y="9.35742" width="1.30866" height="1.30866" fill="#224B7A"/>
<rect x="22.3193" y="9.35742" width="1.30866" height="1.30866" fill="#224B7A"/>
<rect x="23.6279" y="9.35742" width="1.30866" height="1.30866" fill="#224B7A"/>
<rect x="24.9365" y="9.35742" width="1.30866" height="1.30866" fill="#224B7A"/>
<rect x="26.2451" y="9.35742" width="1.30866" height="1.30866" fill="#224B7A"/>
<rect x="27.5537" y="9.35742" width="1.30866" height="1.30866" fill="#224B7A"/>
<rect x="28.8623" y="9.35742" width="1.30866" height="1.30866" fill="black"/>
<rect x="5.30664" y="10.666" width="1.30866" height="1.30866" fill="black"/>
<rect x="6.61523" y="10.666" width="1.30866" height="1.30866" fill="#224B7A"/>
<rect x="7.92383" y="10.666" width="1.30866" height="1.30866" fill="#224B7A"/>
<rect x="9.23242" y="10.666" width="1.30866" height="1.30866" fill="#224B7A"/>
<rect x="10.5415" y="10.666" width="1.30866" height="1.30866" fill="#224B7A"/>
<rect x="11.8501" y="10.666" width="1.30866" height="1.30866" fill="#224B7A"/>
<rect x="13.1587" y="10.666" width="1.30866" height="1.30866" fill="#224B7A"/>
<rect x="14.4673" y="10.666" width="1.30866" height="1.30866" fill="#224B7A"/>
<rect x="15.7759" y="10.666" width="1.30866" height="1.30866" fill="#224B7A"/>
<rect x="17.0845" y="10.666" width="1.30866" height="1.30866" fill="#224B7A"/>
<rect x="18.3931" y="10.666" width="1.30866" height="1.30866" fill="#224B7A"/>
<rect x="19.7021" y="10.666" width="1.30866" height="1.30866" fill="#224B7A"/>
<rect x="21.0107" y="10.666" width="1.30866" height="1.30866" fill="#224B7A"/>
<rect x="22.3193" y="10.666" width="1.30866" height="1.30866" fill="#224B7A"/>
<rect x="23.6279" y="10.666" width="1.30866" height="1.30866" fill="#224B7A"/>
<rect x="24.9365" y="10.666" width="1.30866" height="1.30866" fill="#224B7A"/>
<rect x="26.2451" y="10.666" width="1.30866" height="1.30866" fill="#224B7A"/>
<rect x="27.5537" y="10.666" width="1.30866" height="1.30866" fill="#224B7A"/>
<rect x="28.8623" y="10.666" width="1.30866" height="1.30866" fill="#224B7A"/>
<rect x="30.1714" y="10.666" width="1.30866" height="1.30866" fill="black"/>
<rect x="5.30664" y="11.9749" width="1.30866" height="1.30866" fill="#1E426B"/>
<rect x="6.61523" y="11.9749" width="1.30866" height="1.30866" fill="#224B7A"/>
<rect x="7.92383" y="11.9749" width="1.30866" height="1.30866" fill="#224B7A"/>
<rect x="9.23242" y="11.9749" width="1.30866" height="1.30866" fill="#224B7A"/>
<rect x="10.5415" y="11.9749" width="1.30866" height="1.30866" fill="#224B7A"/>
<rect x="11.8501" y="11.9749" width="1.30866" height="1.30866" fill="#224B7A"/>
<rect x="13.1587" y="11.9749" width="1.30866" height="1.30866" fill="#224B7A"/>
<rect x="14.4673" y="11.9749" width="1.30866" height="1.30866" fill="#224B7A"/>
<rect x="15.7759" y="11.9749" width="1.30866" height="1.30866" fill="#224B7A"/>
<rect x="17.0845" y="11.9749" width="1.30866" height="1.30866" fill="#224B7A"/>
<rect x="18.3931" y="11.9749" width="1.30866" height="1.30866" fill="#224B7A"/>
<rect x="19.7021" y="11.9749" width="1.30866" height="1.30866" fill="#224B7A"/>
<rect x="21.0107" y="11.9749" width="1.30866" height="1.30866" fill="#224B7A"/>
<rect x="22.3193" y="11.9749" width="1.30866" height="1.30866" fill="#224B7A"/>
<rect x="23.6279" y="11.9749" width="1.30866" height="1.30866" fill="#224B7A"/>
<rect x="24.9365" y="11.9749" width="1.30866" height="1.30866" fill="#224B7A"/>
<rect x="26.2451" y="11.9749" width="1.30866" height="1.30866" fill="#224B7A"/>
<rect x="27.5537" y="11.9749" width="1.30866" height="1.30866" fill="#224B7A"/>
<rect x="28.8623" y="11.9749" width="1.30866" height="1.30866" fill="#224B7A"/>
<rect x="30.1714" y="11.9749" width="1.30866" height="1.30866" fill="#09131F"/>
<rect x="3.99805" y="13.2834" width="1.30866" height="1.30866" fill="black"/>
<rect x="5.30664" y="13.2834" width="1.30866" height="1.30866" fill="#224B7A"/>
<rect x="6.61523" y="13.2834" width="1.30866" height="1.30866" fill="#224B7A"/>
<rect x="7.92383" y="13.2834" width="1.30866" height="1.30866" fill="#224B7A"/>
<rect x="9.23242" y="13.2834" width="1.30866" height="1.30866" fill="#224B7A"/>
<rect x="10.5415" y="13.2834" width="1.30866" height="1.30866" fill="#224B7A"/>
<rect x="11.8501" y="13.2834" width="1.30866" height="1.30866" fill="#224B7A"/>
<rect x="13.1587" y="13.2834" width="1.30866" height="1.30866" fill="#224B7A"/>
<rect x="14.4673" y="13.2834" width="1.30866" height="1.30866" fill="#224B7A"/>
<rect x="15.7759" y="13.2834" width="1.30866" height="1.30866" fill="#224B7A"/>
<rect x="17.0845" y="13.2834" width="1.30866" height="1.30866" fill="#224B7A"/>
<rect x="18.3931" y="13.2834" width="1.30866" height="1.30866" fill="#224B7A"/>
<rect x="19.7021" y="13.2834" width="1.30866" height="1.30866" fill="#224B7A"/>
<rect x="21.0107" y="13.2834" width="1.30866" height="1.30866" fill="#224B7A"/>
<rect x="22.3193" y="13.2834" width="1.30866" height="1.30866" fill="#224B7A"/>
<rect x="23.6279" y="13.2834" width="1.30866" height="1.30866" fill="#0D1C2E"/>
<rect x="24.9365" y="13.2834" width="1.30866" height="1.30866" fill="#050A10"/>
<rect x="26.2451" y="13.2834" width="1.30866" height="1.30866" fill="#1A395C"/>
<rect x="27.5537" y="13.2834" width="1.30866" height="1.30866" fill="#224B7A"/>
<rect x="28.8623" y="13.2834" width="1.30866" height="1.30866" fill="#224B7A"/>
<rect x="30.1714" y="13.2834" width="1.30866" height="1.30866" fill="#224B7A"/>
<rect x="3.99805" y="14.592" width="1.30866" height="1.30866" fill="#0D1C2E"/>
<rect x="5.30664" y="14.592" width="1.30866" height="1.30866" fill="#224B7A"/>
<rect x="6.61523" y="14.592" width="1.30866" height="1.30866" fill="#224B7A"/>
<rect x="7.92383" y="14.592" width="1.30866" height="1.30866" fill="#224B7A"/>
<rect x="9.23242" y="14.592" width="1.30866" height="1.30866" fill="#224B7A"/>
<rect x="10.5415" y="14.592" width="1.30866" height="1.30866" fill="#224B7A"/>
<rect x="11.8501" y="14.592" width="1.30866" height="1.30866" fill="#224B7A"/>
<rect x="13.1587" y="14.592" width="1.30866" height="1.30866" fill="#224B7A"/>
<rect x="14.4673" y="14.592" width="1.30866" height="1.30866" fill="#224B7A"/>
<rect x="15.7759" y="14.592" width="1.30866" height="1.30866" fill="#224B7A"/>
<rect x="17.0845" y="14.592" width="1.30866" height="1.30866" fill="#224B7A"/>
<rect x="18.3931" y="14.592" width="1.30866" height="1.30866" fill="#224B7A"/>
<rect x="19.7021" y="14.592" width="1.30866" height="1.30866" fill="#224B7A"/>
<rect x="21.0107" y="14.592" width="1.30866" height="1.30866" fill="#070E17"/>
<rect x="22.3193" y="14.592" width="1.30866" height="1.30866" fill="#53AEB7"/>
<rect x="23.6279" y="14.592" width="1.30866" height="1.30866" fill="#53AEB7"/>
<rect x="24.9365" y="14.592" width="1.30866" height="1.30866" fill="#53AEB7"/>
<rect x="26.2451" y="14.592" width="1.30866" height="1.30866" fill="#2A575C"/>
<rect x="27.5537" y="14.592" width="1.30866" height="1.30866" fill="black"/>
<rect x="28.8623" y="14.592" width="1.30866" height="1.30866" fill="#224B7A"/>
<rect x="30.1714" y="14.592" width="1.30866" height="1.30866" fill="#224B7A"/>
<rect x="31.48" y="14.592" width="1.30866" height="1.30866" fill="black"/>
<rect x="2.68945" y="15.9006" width="1.30866" height="1.30866" fill="black"/>
<rect x="3.99805" y="15.9006" width="1.30866" height="1.30866" fill="#224B7A"/>
<rect x="5.30664" y="15.9006" width="1.30866" height="1.30866" fill="#224B7A"/>
<rect x="6.61523" y="15.9006" width="1.30866" height="1.30866" fill="#224B7A"/>
<rect x="7.92383" y="15.9006" width="1.30866" height="1.30866" fill="#224B7A"/>
<rect x="9.23242" y="15.9006" width="1.30866" height="1.30866" fill="#224B7A"/>
<rect x="10.5415" y="15.9006" width="1.30866" height="1.30866" fill="#224B7A"/>
<rect x="11.8501" y="15.9006" width="1.30866" height="1.30866" fill="#224B7A"/>
<rect x="13.1587" y="15.9006" width="1.30866" height="1.30866" fill="#224B7A"/>
<rect x="14.4673" y="15.9006" width="1.30866" height="1.30866" fill="#224B7A"/>
<rect x="15.7759" y="15.9006" width="1.30866" height="1.30866" fill="#224B7A"/>
<rect x="17.0845" y="15.9006" width="1.30866" height="1.30866" fill="#224B7A"/>
<rect x="18.3931" y="15.9006" width="1.30866" height="1.30866" fill="#224B7A"/>
<rect x="19.7021" y="15.9006" width="1.30866" height="1.30866" fill="#224B7A"/>
<rect x="21.0107" y="15.9006" width="1.30866" height="1.30866" fill="black"/>
<rect x="22.3193" y="15.9006" width="1.30866" height="1.30866" fill="#53AEB7"/>
<rect x="23.6279" y="15.9006" width="1.30866" height="1.30866" fill="#53AEB7"/>
<rect x="24.9365" y="15.9006" width="1.30866" height="1.30866" fill="#53AEB7"/>
<rect x="26.2451" y="15.9006" width="1.30866" height="1.30866" fill="black"/>
<rect x="27.5537" y="15.9006" width="1.30866" height="1.30866" fill="black"/>
<rect x="28.8623" y="15.9006" width="1.30866" height="1.30866" fill="black"/>
<rect x="30.1714" y="15.9006" width="1.30866" height="1.30866" fill="#224B7A"/>
<rect x="31.48" y="15.9006" width="1.30866" height="1.30866" fill="black"/>
<rect x="2.68945" y="17.2095" width="1.30866" height="1.30866" fill="#0D1C2E"/>
<rect x="3.99805" y="17.2095" width="1.30866" height="1.30866" fill="#224B7A"/>
<rect x="5.30664" y="17.2095" width="1.30866" height="1.30866" fill="#224B7A"/>
<rect x="6.61523" y="17.2095" width="1.30866" height="1.30866" fill="#224B7A"/>
<rect x="7.92383" y="17.2095" width="1.30866" height="1.30866" fill="#224B7A"/>
<rect x="9.23242" y="17.2095" width="1.30866" height="1.30866" fill="#224B7A"/>
<rect x="10.5415" y="17.2095" width="1.30866" height="1.30866" fill="#224B7A"/>
<rect x="11.8501" y="17.2095" width="1.30866" height="1.30866" fill="#224B7A"/>
<rect x="13.1587" y="17.2095" width="1.30866" height="1.30866" fill="#224B7A"/>
<rect x="14.4673" y="17.2095" width="1.30866" height="1.30866" fill="#224B7A"/>
<rect x="15.7759" y="17.2095" width="1.30866" height="1.30866" fill="#224B7A"/>
<rect x="17.0845" y="17.2095" width="1.30866" height="1.30866" fill="#224B7A"/>
<rect x="18.3931" y="17.2095" width="1.30866" height="1.30866" fill="#224B7A"/>
<rect x="19.7021" y="17.2095" width="1.30866" height="1.30866" fill="#224B7A"/>
<rect x="21.0107" y="17.2095" width="1.30866" height="1.30866" fill="black"/>
<rect x="22.3193" y="17.2095" width="1.30866" height="1.30866" fill="#53AEB7"/>
<rect x="23.6279" y="17.2095" width="1.30866" height="1.30866" fill="#53AEB7"/>
<rect x="24.9365" y="17.2095" width="1.30866" height="1.30866" fill="#53AEB7"/>
<rect x="26.2451" y="17.2095" width="1.30866" height="1.30866" fill="black"/>
<rect x="27.5537" y="17.2095" width="1.30866" height="1.30866" fill="white"/>
<rect x="28.8623" y="17.2095" width="1.30866" height="1.30866" fill="black"/>
<rect x="30.1714" y="17.2095" width="1.30866" height="1.30866" fill="#224B7A"/>
<rect x="31.48" y="17.2095" width="1.30866" height="1.30866" fill="black"/>
<rect x="1.38086" y="18.5181" width="1.30866" height="1.30866" fill="black"/>
<rect x="2.68945" y="18.5181" width="1.30866" height="1.30866" fill="#224B7A"/>
<rect x="3.99805" y="18.5181" width="1.30866" height="1.30866" fill="#224B7A"/>
<rect x="5.30664" y="18.5181" width="1.30866" height="1.30866" fill="#224B7A"/>
<rect x="6.61523" y="18.5181" width="1.30866" height="1.30866" fill="#224B7A"/>
<rect x="7.92383" y="18.5181" width="1.30866" height="1.30866" fill="#224B7A"/>
<rect x="9.23242" y="18.5181" width="1.30866" height="1.30866" fill="#224B7A"/>
<rect x="10.5415" y="18.5181" width="1.30866" height="1.30866" fill="#224B7A"/>
<rect x="11.8501" y="18.5181" width="1.30866" height="1.30866" fill="#224B7A"/>
<rect x="13.1587" y="18.5181" width="1.30866" height="1.30866" fill="#224B7A"/>
<rect x="14.4673" y="18.5181" width="1.30866" height="1.30866" fill="#224B7A"/>
<rect x="15.7759" y="18.5181" width="1.30866" height="1.30866" fill="#224B7A"/>
<rect x="17.0845" y="18.5181" width="1.30866" height="1.30866" fill="#224B7A"/>
<rect x="18.3931" y="18.5181" width="1.30866" height="1.30866" fill="#224B7A"/>
<rect x="19.7021" y="18.5181" width="1.30866" height="1.30866" fill="#224B7A"/>
<rect x="21.0107" y="18.5181" width="1.30866" height="1.30866" fill="#224B7A"/>
<rect x="22.3193" y="18.5181" width="1.30866" height="1.30866" fill="#53AEB7"/>
<rect x="23.6279" y="18.5181" width="1.30866" height="1.30866" fill="#53AEB7"/>
<rect x="24.9365" y="18.5181" width="1.30866" height="1.30866" fill="#53AEB7"/>
<rect x="26.2451" y="18.5181" width="1.30866" height="1.30866" fill="black"/>
<rect x="27.5537" y="18.5181" width="1.30866" height="1.30866" fill="black"/>
<rect x="28.8623" y="18.5181" width="1.30866" height="1.30866" fill="#254D51"/>
<rect x="30.1714" y="18.5181" width="1.30866" height="1.30866" fill="#224B7A"/>
<rect x="31.48" y="18.5181" width="1.30866" height="1.30866" fill="black"/>
<rect x="0.0722656" y="19.8267" width="1.30866" height="1.30866" fill="black"/>
<rect x="1.38086" y="19.8267" width="1.30866" height="1.30866" fill="#224B7A"/>
<rect x="2.68945" y="19.8267" width="1.30866" height="1.30866" fill="#224B7A"/>
<rect x="3.99805" y="19.8267" width="1.30866" height="1.30866" fill="#224B7A"/>
<rect x="5.30664" y="19.8267" width="1.30866" height="1.30866" fill="#224B7A"/>
<rect x="6.61523" y="19.8267" width="1.30866" height="1.30866" fill="#224B7A"/>
<rect x="7.92383" y="19.8267" width="1.30866" height="1.30866" fill="#1A395C"/>
<rect x="9.23242" y="19.8267" width="1.30866" height="1.30866" fill="#224B7A"/>
<rect x="10.5415" y="19.8267" width="1.30866" height="1.30866" fill="#224B7A"/>
<rect x="11.8501" y="19.8267" width="1.30866" height="1.30866" fill="#224B7A"/>
<rect x="13.1587" y="19.8267" width="1.30866" height="1.30866" fill="#224B7A"/>
<rect x="14.4673" y="19.8267" width="1.30866" height="1.30866" fill="#224B7A"/>
<rect x="15.7759" y="19.8267" width="1.30866" height="1.30866" fill="#224B7A"/>
<rect x="17.0845" y="19.8267" width="1.30866" height="1.30866" fill="#224B7A"/>
<rect x="18.3931" y="19.8267" width="1.30866" height="1.30866" fill="#224B7A"/>
<rect x="19.7021" y="19.8267" width="1.30866" height="1.30866" fill="#224B7A"/>
<rect x="21.0107" y="19.8267" width="1.30866" height="1.30866" fill="#224B7A"/>
<rect x="22.3193" y="19.8267" width="1.30866" height="1.30866" fill="#11253D"/>
<rect x="23.6279" y="19.8267" width="1.30866" height="1.30866" fill="#4998A0"/>
<rect x="24.9365" y="19.8267" width="1.30866" height="1.30866" fill="#53AEB7"/>
<rect x="26.2451" y="19.8267" width="1.30866" height="1.30866" fill="#53AEB7"/>
<rect x="27.5537" y="19.8267" width="1.30866" height="1.30866" fill="#53AEB7"/>
<rect x="28.8623" y="19.8267" width="1.30866" height="1.30866" fill="black"/>
<rect x="30.1714" y="19.8267" width="1.30866" height="1.30866" fill="#224B7A"/>
<rect x="31.48" y="19.8267" width="1.30866" height="1.30866" fill="black"/>
<rect x="1.38086" y="21.1353" width="1.30866" height="1.30866" fill="#204773"/>
<rect x="2.68945" y="21.1353" width="1.30866" height="1.30866" fill="#224B7A"/>
<rect x="3.99805" y="21.1353" width="1.30866" height="1.30866" fill="#224B7A"/>
<rect x="5.30664" y="21.1353" width="1.30866" height="1.30866" fill="#224B7A"/>
<rect x="6.61523" y="21.1353" width="1.30866" height="1.30866" fill="#224B7A"/>
<rect x="7.92383" y="21.1353" width="1.30866" height="1.30866" fill="#224B7A"/>
<rect x="9.23242" y="21.1353" width="1.30866" height="1.30866" fill="#224B7A"/>
<rect x="10.5415" y="21.1353" width="1.30866" height="1.30866" fill="#224B7A"/>
<rect x="11.8501" y="21.1353" width="1.30866" height="1.30866" fill="#224B7A"/>
<rect x="13.1587" y="21.1353" width="1.30866" height="1.30866" fill="#132A45"/>
<rect x="14.4673" y="21.1353" width="1.30866" height="1.30866" fill="black"/>
<rect x="15.7759" y="21.1353" width="1.30866" height="1.30866" fill="black"/>
<rect x="17.0845" y="21.1353" width="1.30866" height="1.30866" fill="#1E426B"/>
<rect x="18.3931" y="21.1353" width="1.30866" height="1.30866" fill="#224B7A"/>
<rect x="19.7021" y="21.1353" width="1.30866" height="1.30866" fill="#224B7A"/>
<rect x="21.0107" y="21.1353" width="1.30866" height="1.30866" fill="#224B7A"/>
<rect x="22.3193" y="21.1353" width="1.30866" height="1.30866" fill="#224B7A"/>
<rect x="23.6279" y="21.1353" width="1.30866" height="1.30866" fill="#224B7A"/>
<rect x="24.9365" y="21.1353" width="1.30866" height="1.30866" fill="#224B7A"/>
<rect x="26.2451" y="21.1353" width="1.30866" height="1.30866" fill="#224B7A"/>
<rect x="27.5537" y="21.1353" width="1.30866" height="1.30866" fill="#224B7A"/>
<rect x="28.8623" y="21.1353" width="1.30866" height="1.30866" fill="#224B7A"/>
<rect x="30.1714" y="21.1353" width="1.30866" height="1.30866" fill="#224B7A"/>
<rect x="31.48" y="21.1353" width="1.30866" height="1.30866" fill="#224B7A"/>
<rect x="32.7886" y="21.1353" width="1.30866" height="1.30866" fill="black"/>
<rect x="1.38086" y="22.4441" width="1.30866" height="1.30866" fill="black"/>
<rect x="2.68945" y="22.4441" width="1.30866" height="1.30866" fill="#224B7A"/>
<rect x="3.99805" y="22.4441" width="1.30866" height="1.30866" fill="#224B7A"/>
<rect x="5.30664" y="22.4441" width="1.30866" height="1.30866" fill="#224B7A"/>
<rect x="6.61523" y="22.4441" width="1.30866" height="1.30866" fill="#224B7A"/>
<rect x="7.92383" y="22.4441" width="1.30866" height="1.30866" fill="#224B7A"/>
<rect x="9.23242" y="22.4441" width="1.30866" height="1.30866" fill="#224B7A"/>
<rect x="10.5415" y="22.4441" width="1.30866" height="1.30866" fill="#224B7A"/>
<rect x="11.8501" y="22.4441" width="1.30866" height="1.30866" fill="#224B7A"/>
<rect x="13.1587" y="22.4441" width="1.30866" height="1.30866" fill="#224B7A"/>
<rect x="14.4673" y="22.4441" width="1.30866" height="1.30866" fill="#224B7A"/>
<rect x="15.7759" y="22.4441" width="1.30866" height="1.30866" fill="#224B7A"/>
<rect x="17.0845" y="22.4441" width="1.30866" height="1.30866" fill="#224B7A"/>
<rect x="18.3931" y="22.4441" width="1.30866" height="1.30866" fill="#224B7A"/>
<rect x="19.7021" y="22.4441" width="1.30866" height="1.30866" fill="black"/>
<rect x="21.0107" y="22.4441" width="1.30866" height="1.30866" fill="#224B7A"/>
<rect x="22.3193" y="22.4441" width="1.30866" height="1.30866" fill="#224B7A"/>
<rect x="23.6279" y="22.4441" width="1.30866" height="1.30866" fill="#224B7A"/>
<rect x="24.9365" y="22.4441" width="1.30866" height="1.30866" fill="#224B7A"/>
<rect x="26.2451" y="22.4441" width="1.30866" height="1.30866" fill="#224B7A"/>
<rect x="27.5537" y="22.4441" width="1.30866" height="1.30866" fill="#224B7A"/>
<rect x="28.8623" y="22.4441" width="1.30866" height="1.30866" fill="#224B7A"/>
<rect x="30.1714" y="22.4441" width="1.30866" height="1.30866" fill="#224B7A"/>
<rect x="31.48" y="22.4441" width="1.30866" height="1.30866" fill="#09131F"/>
<rect x="32.7886" y="22.4441" width="1.30866" height="1.30866" fill="black"/>
<rect x="34.0972" y="22.4441" width="1.30866" height="1.30866" fill="black"/>
<rect x="2.68945" y="23.7527" width="1.30866" height="1.30866" fill="black"/>
<rect x="3.99805" y="23.7527" width="1.30866" height="1.30866" fill="#224B7A"/>
<rect x="5.30664" y="23.7527" width="1.30866" height="1.30866" fill="#224B7A"/>
<rect x="6.61523" y="23.7527" width="1.30866" height="1.30866" fill="#224B7A"/>
<rect x="7.92383" y="23.7527" width="1.30866" height="1.30866" fill="#224B7A"/>
<rect x="9.23242" y="23.7527" width="1.30866" height="1.30866" fill="black"/>
<rect x="10.5415" y="23.7527" width="1.30866" height="1.30866" fill="black"/>
<rect x="11.8501" y="23.7527" width="1.30866" height="1.30866" fill="black"/>
<rect x="13.1587" y="23.7527" width="1.30866" height="1.30866" fill="black"/>
<rect x="14.4673" y="23.7527" width="1.30866" height="1.30866" fill="black"/>
<rect x="15.7759" y="23.7527" width="1.30866" height="1.30866" fill="black"/>
<rect x="17.0845" y="23.7527" width="1.30866" height="1.30866" fill="black"/>
<rect x="18.3931" y="23.7527" width="1.30866" height="1.30866" fill="black"/>
<rect x="19.7021" y="23.7527" width="1.30866" height="1.30866" fill="#224B7A"/>
<rect x="21.0107" y="23.7527" width="1.30866" height="1.30866" fill="#224B7A"/>
<rect x="22.3193" y="23.7527" width="1.30866" height="1.30866" fill="#224B7A"/>
<rect x="23.6279" y="23.7527" width="1.30866" height="1.30866" fill="#224B7A"/>
<rect x="24.9365" y="23.7527" width="1.30866" height="1.30866" fill="#224B7A"/>
<rect x="26.2451" y="23.7527" width="1.30866" height="1.30866" fill="#224B7A"/>
<rect x="27.5537" y="23.7527" width="1.30866" height="1.30866" fill="#224B7A"/>
<rect x="28.8623" y="23.7527" width="1.30866" height="1.30866" fill="#224B7A"/>
<rect x="30.1714" y="23.7527" width="1.30866" height="1.30866" fill="#224B7A"/>
<rect x="31.48" y="23.7527" width="1.30866" height="1.30866" fill="#224B7A"/>
<rect x="32.7886" y="23.7527" width="1.30866" height="1.30866" fill="#0D1C2E"/>
<rect x="34.0972" y="23.7527" width="1.30866" height="1.30866" fill="black"/>
<rect x="3.99805" y="25.0613" width="1.30866" height="1.30866" fill="#0D1C2E"/>
<rect x="5.30664" y="25.0613" width="1.30866" height="1.30866" fill="#224B7A"/>
<rect x="6.61523" y="25.0613" width="1.30866" height="1.30866" fill="#224B7A"/>
<rect x="7.92383" y="25.0613" width="1.30866" height="1.30866" fill="#224B7A"/>
<rect x="9.23242" y="25.0613" width="1.30866" height="1.30866" fill="#224B7A"/>
<rect x="10.5415" y="25.0613" width="1.30866" height="1.30866" fill="#224B7A"/>
<rect x="11.8501" y="25.0613" width="1.30866" height="1.30866" fill="#224B7A"/>
<rect x="13.1587" y="25.0613" width="1.30866" height="1.30866" fill="#224B7A"/>
<rect x="14.4673" y="25.0613" width="1.30866" height="1.30866" fill="#224B7A"/>
<rect x="15.7759" y="25.0613" width="1.30866" height="1.30866" fill="#224B7A"/>
<rect x="17.0845" y="25.0613" width="1.30866" height="1.30866" fill="#224B7A"/>
<rect x="18.3931" y="25.0613" width="1.30866" height="1.30866" fill="#224B7A"/>
<rect x="19.7021" y="25.0613" width="1.30866" height="1.30866" fill="#224B7A"/>
<rect x="21.0107" y="25.0613" width="1.30866" height="1.30866" fill="#224B7A"/>
<rect x="22.3193" y="25.0613" width="1.30866" height="1.30866" fill="#224B7A"/>
<rect x="23.6279" y="25.0613" width="1.30866" height="1.30866" fill="#224B7A"/>
<rect x="24.9365" y="25.0613" width="1.30866" height="1.30866" fill="#224B7A"/>
<rect x="26.2451" y="25.0613" width="1.30866" height="1.30866" fill="#224B7A"/>
<rect x="27.5537" y="25.0613" width="1.30866" height="1.30866" fill="#224B7A"/>
<rect x="28.8623" y="25.0613" width="1.30866" height="1.30866" fill="#204773"/>
<rect x="30.1714" y="25.0613" width="1.30866" height="1.30866" fill="#224B7A"/>
<rect x="31.48" y="25.0613" width="1.30866" height="1.30866" fill="#224B7A"/>
<rect x="32.7886" y="25.0613" width="1.30866" height="1.30866" fill="#224B7A"/>
<rect x="5.30664" y="26.3701" width="1.30866" height="1.30866" fill="#11263D"/>
<rect x="6.61523" y="26.3701" width="1.30866" height="1.30866" fill="#224B7A"/>
<rect x="7.92383" y="26.3701" width="1.30866" height="1.30866" fill="#224B7A"/>
<rect x="9.23242" y="26.3701" width="1.30866" height="1.30866" fill="#224B7A"/>
<rect x="10.5415" y="26.3701" width="1.30866" height="1.30866" fill="#224B7A"/>
<rect x="11.8501" y="26.3701" width="1.30866" height="1.30866" fill="#224B7A"/>
<rect x="13.1587" y="26.3701" width="1.30866" height="1.30866" fill="#224B7A"/>
<rect x="14.4673" y="26.3701" width="1.30866" height="1.30866" fill="#224B7A"/>
<rect x="15.7759" y="26.3701" width="1.30866" height="1.30866" fill="#224B7A"/>
<rect x="17.0845" y="26.3701" width="1.30866" height="1.30866" fill="#224B7A"/>
<rect x="18.3931" y="26.3701" width="1.30866" height="1.30866" fill="#224B7A"/>
<rect x="19.7021" y="26.3701" width="1.30866" height="1.30866" fill="#224B7A"/>
<rect x="21.0107" y="26.3701" width="1.30866" height="1.30866" fill="#224B7A"/>
<rect x="22.3193" y="26.3701" width="1.30866" height="1.30866" fill="#224B7A"/>
<rect x="23.6279" y="26.3701" width="1.30866" height="1.30866" fill="#224B7A"/>
<rect x="24.9365" y="26.3701" width="1.30866" height="1.30866" fill="#224B7A"/>
<rect x="26.2451" y="26.3701" width="1.30866" height="1.30866" fill="#224B7A"/>
<rect x="27.5537" y="26.3701" width="1.30866" height="1.30866" fill="#224B7A"/>
<rect x="28.8623" y="26.3701" width="1.30866" height="1.30866" fill="#1E426B"/>
<rect x="30.1714" y="26.3701" width="1.30866" height="1.30866" fill="#152F4C"/>
<rect x="31.48" y="26.3701" width="1.30866" height="1.30866" fill="#09131F"/>
<rect x="32.7886" y="26.3701" width="1.30866" height="1.30866" fill="#11263D"/>
<rect x="6.61523" y="27.6787" width="1.30866" height="1.30866" fill="#04090F"/>
<rect x="7.92383" y="27.6787" width="1.30866" height="1.30866" fill="#224B7A"/>
<rect x="9.23242" y="27.6787" width="1.30866" height="1.30866" fill="#224B7A"/>
<rect x="10.5415" y="27.6787" width="1.30866" height="1.30866" fill="#224B7A"/>
<rect x="11.8501" y="27.6787" width="1.30866" height="1.30866" fill="#224B7A"/>
<rect x="13.1587" y="27.6787" width="1.30866" height="1.30866" fill="#224B7A"/>
<rect x="14.4673" y="27.6787" width="1.30866" height="1.30866" fill="#224B7A"/>
<rect x="15.7759" y="27.6787" width="1.30866" height="1.30866" fill="#224B7A"/>
<rect x="17.0845" y="27.6787" width="1.30866" height="1.30866" fill="#224B7A"/>
<rect x="18.3931" y="27.6787" width="1.30866" height="1.30866" fill="#224B7A"/>
<rect x="19.7021" y="27.6787" width="1.30866" height="1.30866" fill="#224B7A"/>
<rect x="21.0107" y="27.6787" width="1.30866" height="1.30866" fill="#224B7A"/>
<rect x="22.3193" y="27.6787" width="1.30866" height="1.30866" fill="#224B7A"/>
<rect x="23.6279" y="27.6787" width="1.30866" height="1.30866" fill="#224B7A"/>
<rect x="24.9365" y="27.6787" width="1.30866" height="1.30866" fill="#224B7A"/>
<rect x="26.2451" y="27.6787" width="1.30866" height="1.30866" fill="#224B7A"/>
<rect x="27.5537" y="27.6787" width="1.30866" height="1.30866" fill="#224B7A"/>
<rect x="28.8623" y="27.6787" width="1.30866" height="1.30866" fill="#224B7A"/>
<rect x="30.1714" y="27.6787" width="1.30866" height="1.30866" fill="#224B7A"/>
<rect x="31.48" y="27.6787" width="1.30866" height="1.30866" fill="#224B7A"/>
<rect x="32.7886" y="27.6787" width="1.30866" height="1.30866" fill="black"/>
<rect x="7.92383" y="28.9873" width="1.30866" height="1.30866" fill="black"/>
<rect x="9.23242" y="28.9873" width="1.30866" height="1.30866" fill="#224B7A"/>
<rect x="10.5415" y="28.9873" width="1.30866" height="1.30866" fill="#224B7A"/>
<rect x="11.8501" y="28.9873" width="1.30866" height="1.30866" fill="#224B7A"/>
<rect x="13.1587" y="28.9873" width="1.30866" height="1.30866" fill="#224B7A"/>
<rect x="14.4673" y="28.9873" width="1.30866" height="1.30866" fill="#224B7A"/>
<rect x="15.7759" y="28.9873" width="1.30866" height="1.30866" fill="#224B7A"/>
<rect x="17.0845" y="28.9873" width="1.30866" height="1.30866" fill="#224B7A"/>
<rect x="18.3931" y="28.9873" width="1.30866" height="1.30866" fill="#224B7A"/>
<rect x="19.7021" y="28.9873" width="1.30866" height="1.30866" fill="#224B7A"/>
<rect x="21.0107" y="28.9873" width="1.30866" height="1.30866" fill="#224B7A"/>
<rect x="22.3193" y="28.9873" width="1.30866" height="1.30866" fill="#224B7A"/>
<rect x="23.6279" y="28.9873" width="1.30866" height="1.30866" fill="#224B7A"/>
<rect x="24.9365" y="28.9873" width="1.30866" height="1.30866" fill="#224B7A"/>
<rect x="26.2451" y="28.9873" width="1.30866" height="1.30866" fill="#224B7A"/>
<rect x="27.5537" y="28.9873" width="1.30866" height="1.30866" fill="#224B7A"/>
<rect x="28.8623" y="28.9873" width="1.30866" height="1.30866" fill="#224B7A"/>
<rect x="30.1714" y="28.9873" width="1.30866" height="1.30866" fill="#224B7A"/>
<rect x="31.48" y="28.9873" width="1.30866" height="1.30866" fill="#11263D"/>
<rect x="32.7886" y="28.9873" width="1.30866" height="1.30866" fill="black"/>
<rect x="9.23242" y="30.2959" width="1.30866" height="1.30866" fill="black"/>
<rect x="10.5415" y="30.2959" width="1.30866" height="1.30866" fill="#04090F"/>
<rect x="11.8501" y="30.2959" width="1.30866" height="1.30866" fill="#224B7A"/>
<rect x="13.1587" y="30.2959" width="1.30866" height="1.30866" fill="#224B7A"/>
<rect x="14.4673" y="30.2959" width="1.30866" height="1.30866" fill="#224B7A"/>
<rect x="15.7759" y="30.2959" width="1.30866" height="1.30866" fill="#224B7A"/>
<rect x="17.0845" y="30.2959" width="1.30866" height="1.30866" fill="#224B7A"/>
<rect x="18.3931" y="30.2959" width="1.30866" height="1.30866" fill="#224B7A"/>
<rect x="19.7021" y="30.2959" width="1.30866" height="1.30866" fill="#224B7A"/>
<rect x="21.0107" y="30.2959" width="1.30866" height="1.30866" fill="#224B7A"/>
<rect x="22.3193" y="30.2959" width="1.30866" height="1.30866" fill="#224B7A"/>
<rect x="23.6279" y="30.2959" width="1.30866" height="1.30866" fill="#224B7A"/>
<rect x="24.9365" y="30.2959" width="1.30866" height="1.30866" fill="#224B7A"/>
<rect x="26.2451" y="30.2959" width="1.30866" height="1.30866" fill="#224B7A"/>
<rect x="27.5537" y="30.2959" width="1.30866" height="1.30866" fill="#11263D"/>
<rect x="28.8623" y="30.2959" width="1.30866" height="1.30866" fill="black"/>
<rect x="30.1714" y="30.2959" width="1.30866" height="1.30866" fill="black"/>
<rect x="11.8501" y="31.6047" width="1.30866" height="1.30866" fill="black"/>
<rect x="13.1587" y="31.6047" width="1.30866" height="1.30866" fill="black"/>
<rect x="14.4673" y="31.6047" width="1.30866" height="1.30866" fill="#0D1C2E"/>
<rect x="15.7759" y="31.6047" width="1.30866" height="1.30866" fill="#224B7A"/>
<rect x="17.0845" y="31.6047" width="1.30866" height="1.30866" fill="#224B7A"/>
<rect x="18.3931" y="31.6047" width="1.30866" height="1.30866" fill="#224B7A"/>
<rect x="19.7021" y="31.6047" width="1.30866" height="1.30866" fill="#224B7A"/>
<rect x="21.0107" y="31.6047" width="1.30866" height="1.30866" fill="#224B7A"/>
<rect x="22.3193" y="31.6047" width="1.30866" height="1.30866" fill="#224B7A"/>
<rect x="23.6279" y="31.6047" width="1.30866" height="1.30866" fill="#224B7A"/>
<rect x="24.9365" y="31.6047" width="1.30866" height="1.30866" fill="#224B7A"/>
<rect x="26.2451" y="31.6047" width="1.30866" height="1.30866" fill="black"/>
<rect x="17.0845" y="32.9133" width="1.30866" height="1.30866" fill="black"/>
<rect x="18.3931" y="32.9133" width="1.30866" height="1.30866" fill="black"/>
<rect x="19.7021" y="32.9133" width="1.30866" height="1.30866" fill="#0D1C2E"/>
<rect x="21.0107" y="32.9133" width="1.30866" height="1.30866" fill="#224B7A"/>
<rect x="22.3193" y="32.9133" width="1.30866" height="1.30866" fill="#224B7A"/>
<rect x="23.6279" y="32.9133" width="1.30866" height="1.30866" fill="#1C3D63"/>
<rect x="24.9365" y="32.9133" width="1.30866" height="1.30866" fill="black"/>
<rect x="22.3193" y="34.2219" width="1.30866" height="1.30866" fill="black"/>
</svg>
