<svg width="36" height="37" viewBox="0 0 36 37" fill="none" xmlns="http://www.w3.org/2000/svg">
<rect x="0.133789" y="27.0732" width="1.30866" height="1.30866" transform="rotate(-90 0.133789 27.0732)" fill="black"/>
<rect x="0.133789" y="25.7646" width="1.30866" height="1.30866" transform="rotate(-90 0.133789 25.7646)" fill="#050A10"/>
<rect x="0.133789" y="17.9126" width="1.30866" height="1.30866" transform="rotate(-90 0.133789 17.9126)" fill="black"/>
<rect x="0.133789" y="16.604" width="1.30866" height="1.30866" transform="rotate(-90 0.133789 16.604)" fill="black"/>
<rect x="1.44238" y="27.0732" width="1.30866" height="1.30866" transform="rotate(-90 1.44238 27.0732)" fill="#09131F"/>
<rect x="1.44238" y="25.7646" width="1.30866" height="1.30866" transform="rotate(-90 1.44238 25.7646)" fill="#132B45"/>
<rect x="1.44238" y="24.4561" width="1.30866" height="1.30866" transform="rotate(-90 1.44238 24.4561)" fill="black"/>
<rect x="1.44238" y="19.2214" width="1.30866" height="1.30866" transform="rotate(-90 1.44238 19.2214)" fill="black"/>
<rect x="1.44238" y="17.9126" width="1.30866" height="1.30866" transform="rotate(-90 1.44238 17.9126)" fill="#224B7A"/>
<rect x="1.44238" y="16.604" width="1.30866" height="1.30866" transform="rotate(-90 1.44238 16.604)" fill="black"/>
<rect x="2.75098" y="27.0732" width="1.30866" height="1.30866" transform="rotate(-90 2.75098 27.0732)" fill="#224B7A"/>
<rect x="2.75098" y="25.7646" width="1.30866" height="1.30866" transform="rotate(-90 2.75098 25.7646)" fill="black"/>
<rect x="2.75098" y="24.4561" width="1.30866" height="1.30866" transform="rotate(-90 2.75098 24.4561)" fill="#224B7A"/>
<rect x="2.75098" y="23.1472" width="1.30866" height="1.30866" transform="rotate(-90 2.75098 23.1472)" fill="black"/>
<rect x="2.75098" y="19.2214" width="1.30866" height="1.30866" transform="rotate(-90 2.75098 19.2214)" fill="#040A10"/>
<rect x="2.75098" y="17.9126" width="1.30866" height="1.30866" transform="rotate(-90 2.75098 17.9126)" fill="#224B7A"/>
<rect x="2.75098" y="16.604" width="1.30866" height="1.30866" transform="rotate(-90 2.75098 16.604)" fill="#204672"/>
<rect x="4.05957" y="28.3818" width="1.30866" height="1.30866" transform="rotate(-90 4.05957 28.3818)" fill="black"/>
<rect x="4.05957" y="27.0732" width="1.30866" height="1.30866" transform="rotate(-90 4.05957 27.0732)" fill="#224B7A"/>
<rect x="4.05957" y="25.7646" width="1.30866" height="1.30866" transform="rotate(-90 4.05957 25.7646)" fill="#020508"/>
<rect x="4.05957" y="24.4561" width="1.30866" height="1.30866" transform="rotate(-90 4.05957 24.4561)" fill="#224B7A"/>
<rect x="4.05957" y="23.1472" width="1.30866" height="1.30866" transform="rotate(-90 4.05957 23.1472)" fill="#224B7A"/>
<rect x="4.05957" y="21.8386" width="1.30866" height="1.30866" transform="rotate(-90 4.05957 21.8386)" fill="#224B7A"/>
<rect x="4.05957" y="20.53" width="1.30866" height="1.30866" transform="rotate(-90 4.05957 20.53)" fill="#224B7A"/>
<rect x="4.05957" y="19.2214" width="1.30866" height="1.30866" transform="rotate(-90 4.05957 19.2214)" fill="#224B7A"/>
<rect x="4.05957" y="17.9126" width="1.30866" height="1.30866" transform="rotate(-90 4.05957 17.9126)" fill="#1A385C"/>
<rect x="4.05957" y="16.604" width="1.30866" height="1.30866" transform="rotate(-90 4.05957 16.604)" fill="#020508"/>
<rect x="4.05957" y="15.2954" width="1.30866" height="1.30866" transform="rotate(-90 4.05957 15.2954)" fill="black"/>
<rect x="4.05957" y="13.9868" width="1.30866" height="1.30866" transform="rotate(-90 4.05957 13.9868)" fill="black"/>
<rect x="5.36816" y="28.3818" width="1.30866" height="1.30866" transform="rotate(-90 5.36816 28.3818)" fill="#1A385C"/>
<rect x="5.36816" y="27.0732" width="1.30866" height="1.30866" transform="rotate(-90 5.36816 27.0732)" fill="#224B7A"/>
<rect x="5.36816" y="25.7646" width="1.30866" height="1.30866" transform="rotate(-90 5.36816 25.7646)" fill="#224B7A"/>
<rect x="5.36816" y="24.4561" width="1.30866" height="1.30866" transform="rotate(-90 5.36816 24.4561)" fill="#224B7A"/>
<rect x="5.36816" y="23.1472" width="1.30866" height="1.30866" transform="rotate(-90 5.36816 23.1472)" fill="#224B7A"/>
<rect x="5.36816" y="21.8386" width="1.30866" height="1.30866" transform="rotate(-90 5.36816 21.8386)" fill="#224B7A"/>
<rect x="5.36816" y="20.53" width="1.30866" height="1.30866" transform="rotate(-90 5.36816 20.53)" fill="#224B7A"/>
<rect x="5.36816" y="19.2214" width="1.30866" height="1.30866" transform="rotate(-90 5.36816 19.2214)" fill="#224B7A"/>
<rect x="5.36816" y="17.9126" width="1.30866" height="1.30866" transform="rotate(-90 5.36816 17.9126)" fill="#224B7A"/>
<rect x="5.36816" y="16.604" width="1.30866" height="1.30866" transform="rotate(-90 5.36816 16.604)" fill="#224B7A"/>
<rect x="5.36816" y="15.2954" width="1.30866" height="1.30866" transform="rotate(-90 5.36816 15.2954)" fill="#224B7A"/>
<rect x="5.36816" y="13.9868" width="1.30866" height="1.30866" transform="rotate(-90 5.36816 13.9868)" fill="#224B7A"/>
<rect x="5.36816" y="12.678" width="1.30866" height="1.30866" transform="rotate(-90 5.36816 12.678)" fill="#0D1C2E"/>
<rect x="5.36816" y="11.3694" width="1.30866" height="1.30866" transform="rotate(-90 5.36816 11.3694)" fill="black"/>
<rect x="6.67676" y="29.6907" width="1.30866" height="1.30866" transform="rotate(-90 6.67676 29.6907)" fill="black"/>
<rect x="6.67676" y="28.3818" width="1.30866" height="1.30866" transform="rotate(-90 6.67676 28.3818)" fill="#224B7A"/>
<rect x="6.67676" y="27.0732" width="1.30866" height="1.30866" transform="rotate(-90 6.67676 27.0732)" fill="#224B7A"/>
<rect x="6.67676" y="25.7646" width="1.30866" height="1.30866" transform="rotate(-90 6.67676 25.7646)" fill="#224B7A"/>
<rect x="6.67676" y="24.4561" width="1.30866" height="1.30866" transform="rotate(-90 6.67676 24.4561)" fill="#224B7A"/>
<rect x="6.67676" y="23.1472" width="1.30866" height="1.30866" transform="rotate(-90 6.67676 23.1472)" fill="#224B7A"/>
<rect x="6.67676" y="21.8386" width="1.30866" height="1.30866" transform="rotate(-90 6.67676 21.8386)" fill="#224B7A"/>
<rect x="6.67676" y="20.53" width="1.30866" height="1.30866" transform="rotate(-90 6.67676 20.53)" fill="#224B7A"/>
<rect x="6.67676" y="19.2214" width="1.30866" height="1.30866" transform="rotate(-90 6.67676 19.2214)" fill="#224B7A"/>
<rect x="6.67676" y="17.9126" width="1.30866" height="1.30866" transform="rotate(-90 6.67676 17.9126)" fill="#224B7A"/>
<rect x="6.67676" y="16.604" width="1.30866" height="1.30866" transform="rotate(-90 6.67676 16.604)" fill="#224B7A"/>
<rect x="6.67676" y="15.2954" width="1.30866" height="1.30866" transform="rotate(-90 6.67676 15.2954)" fill="#224B7A"/>
<rect x="6.67676" y="13.9868" width="1.30866" height="1.30866" transform="rotate(-90 6.67676 13.9868)" fill="#224B7A"/>
<rect x="6.67676" y="12.678" width="1.30866" height="1.30866" transform="rotate(-90 6.67676 12.678)" fill="#224B7A"/>
<rect x="6.67676" y="11.3694" width="1.30866" height="1.30866" transform="rotate(-90 6.67676 11.3694)" fill="#224B7A"/>
<rect x="6.67676" y="10.0608" width="1.30866" height="1.30866" transform="rotate(-90 6.67676 10.0608)" fill="black"/>
<rect x="7.98535" y="29.6907" width="1.30866" height="1.30866" transform="rotate(-90 7.98535 29.6907)" fill="black"/>
<rect x="7.98535" y="28.3818" width="1.30866" height="1.30866" transform="rotate(-90 7.98535 28.3818)" fill="#224B7A"/>
<rect x="7.98535" y="27.0732" width="1.30866" height="1.30866" transform="rotate(-90 7.98535 27.0732)" fill="#224B7A"/>
<rect x="7.98535" y="25.7646" width="1.30866" height="1.30866" transform="rotate(-90 7.98535 25.7646)" fill="#224B7A"/>
<rect x="7.98535" y="24.4561" width="1.30866" height="1.30866" transform="rotate(-90 7.98535 24.4561)" fill="#224B7A"/>
<rect x="7.98535" y="23.1472" width="1.30866" height="1.30866" transform="rotate(-90 7.98535 23.1472)" fill="#224B7A"/>
<rect x="7.98535" y="21.8386" width="1.30866" height="1.30866" transform="rotate(-90 7.98535 21.8386)" fill="#224B7A"/>
<rect x="7.98535" y="20.53" width="1.30866" height="1.30866" transform="rotate(-90 7.98535 20.53)" fill="#224B7A"/>
<rect x="7.98535" y="19.2214" width="1.30866" height="1.30866" transform="rotate(-90 7.98535 19.2214)" fill="#224B7A"/>
<rect x="7.98535" y="17.9126" width="1.30866" height="1.30866" transform="rotate(-90 7.98535 17.9126)" fill="#224B7A"/>
<rect x="7.98535" y="16.604" width="1.30866" height="1.30866" transform="rotate(-90 7.98535 16.604)" fill="#224B7A"/>
<rect x="7.98535" y="15.2954" width="1.30866" height="1.30866" transform="rotate(-90 7.98535 15.2954)" fill="#224B7A"/>
<rect x="7.98535" y="13.9868" width="1.30866" height="1.30866" transform="rotate(-90 7.98535 13.9868)" fill="#224B7A"/>
<rect x="7.98535" y="12.678" width="1.30866" height="1.30866" transform="rotate(-90 7.98535 12.678)" fill="#224B7A"/>
<rect x="7.98535" y="11.3694" width="1.30866" height="1.30866" transform="rotate(-90 7.98535 11.3694)" fill="#224B7A"/>
<rect x="7.98535" y="10.0608" width="1.30866" height="1.30866" transform="rotate(-90 7.98535 10.0608)" fill="#224B7A"/>
<rect x="7.98535" y="8.7522" width="1.30866" height="1.30866" transform="rotate(-90 7.98535 8.7522)" fill="#050A10"/>
<rect x="9.29395" y="29.6907" width="1.30866" height="1.30866" transform="rotate(-90 9.29395 29.6907)" fill="#224B7A"/>
<rect x="9.29395" y="28.3818" width="1.30866" height="1.30866" transform="rotate(-90 9.29395 28.3818)" fill="#224B7A"/>
<rect x="9.29395" y="27.0732" width="1.30866" height="1.30866" transform="rotate(-90 9.29395 27.0732)" fill="#224B7A"/>
<rect x="9.29395" y="25.7646" width="1.30866" height="1.30866" transform="rotate(-90 9.29395 25.7646)" fill="#224B7A"/>
<rect x="9.29395" y="24.4561" width="1.30866" height="1.30866" transform="rotate(-90 9.29395 24.4561)" fill="#224B7A"/>
<rect x="9.29395" y="23.1472" width="1.30866" height="1.30866" transform="rotate(-90 9.29395 23.1472)" fill="#224B7A"/>
<rect x="9.29395" y="21.8386" width="1.30866" height="1.30866" transform="rotate(-90 9.29395 21.8386)" fill="#224B7A"/>
<rect x="9.29395" y="20.53" width="1.30866" height="1.30866" transform="rotate(-90 9.29395 20.53)" fill="#224B7A"/>
<rect x="9.29395" y="19.2214" width="1.30866" height="1.30866" transform="rotate(-90 9.29395 19.2214)" fill="#224B7A"/>
<rect x="9.29395" y="17.9126" width="1.30866" height="1.30866" transform="rotate(-90 9.29395 17.9126)" fill="#224B7A"/>
<rect x="9.29395" y="16.604" width="1.30866" height="1.30866" transform="rotate(-90 9.29395 16.604)" fill="#224B7A"/>
<rect x="9.29395" y="15.2954" width="1.30866" height="1.30866" transform="rotate(-90 9.29395 15.2954)" fill="#224B7A"/>
<rect x="9.29395" y="13.9868" width="1.30866" height="1.30866" transform="rotate(-90 9.29395 13.9868)" fill="#224B7A"/>
<rect x="9.29395" y="12.678" width="1.30866" height="1.30866" transform="rotate(-90 9.29395 12.678)" fill="#224B7A"/>
<rect x="9.29395" y="11.3694" width="1.30866" height="1.30866" transform="rotate(-90 9.29395 11.3694)" fill="#224B7A"/>
<rect x="9.29395" y="10.0608" width="1.30866" height="1.30866" transform="rotate(-90 9.29395 10.0608)" fill="#224B7A"/>
<rect x="9.29395" y="8.7522" width="1.30866" height="1.30866" transform="rotate(-90 9.29395 8.7522)" fill="#224B7A"/>
<rect x="9.29395" y="7.44336" width="1.30866" height="1.30866" transform="rotate(-90 9.29395 7.44336)" fill="black"/>
<rect x="10.603" y="30.9993" width="1.30866" height="1.30866" transform="rotate(-90 10.603 30.9993)" fill="black"/>
<rect x="10.603" y="29.6907" width="1.30866" height="1.30866" transform="rotate(-90 10.603 29.6907)" fill="#224B7A"/>
<rect x="10.603" y="28.3818" width="1.30866" height="1.30866" transform="rotate(-90 10.603 28.3818)" fill="#224B7A"/>
<rect x="10.603" y="27.0732" width="1.30866" height="1.30866" transform="rotate(-90 10.603 27.0732)" fill="#224B7A"/>
<rect x="10.603" y="25.7646" width="1.30866" height="1.30866" transform="rotate(-90 10.603 25.7646)" fill="#224B7A"/>
<rect x="10.603" y="24.4561" width="1.30866" height="1.30866" transform="rotate(-90 10.603 24.4561)" fill="#224B7A"/>
<rect x="10.603" y="23.1472" width="1.30866" height="1.30866" transform="rotate(-90 10.603 23.1472)" fill="#224B7A"/>
<rect x="10.603" y="21.8386" width="1.30866" height="1.30866" transform="rotate(-90 10.603 21.8386)" fill="#224B7A"/>
<rect x="10.603" y="20.53" width="1.30866" height="1.30866" transform="rotate(-90 10.603 20.53)" fill="#224B7A"/>
<rect x="10.603" y="19.2214" width="1.30866" height="1.30866" transform="rotate(-90 10.603 19.2214)" fill="#224B7A"/>
<rect x="10.603" y="17.9126" width="1.30866" height="1.30866" transform="rotate(-90 10.603 17.9126)" fill="#224B7A"/>
<rect x="10.603" y="16.604" width="1.30866" height="1.30866" transform="rotate(-90 10.603 16.604)" fill="#224B7A"/>
<rect x="10.603" y="15.2954" width="1.30866" height="1.30866" transform="rotate(-90 10.603 15.2954)" fill="#224B7A"/>
<rect x="10.603" y="13.9868" width="1.30866" height="1.30866" transform="rotate(-90 10.603 13.9868)" fill="#224B7A"/>
<rect x="10.603" y="12.678" width="1.30866" height="1.30866" transform="rotate(-90 10.603 12.678)" fill="#224B7A"/>
<rect x="10.603" y="11.3694" width="1.30866" height="1.30866" transform="rotate(-90 10.603 11.3694)" fill="#224B7A"/>
<rect x="10.603" y="10.0608" width="1.30866" height="1.30866" transform="rotate(-90 10.603 10.0608)" fill="#224B7A"/>
<rect x="10.603" y="8.7522" width="1.30866" height="1.30866" transform="rotate(-90 10.603 8.7522)" fill="#224B7A"/>
<rect x="10.603" y="7.44336" width="1.30866" height="1.30866" transform="rotate(-90 10.603 7.44336)" fill="#224B7A"/>
<rect x="10.603" y="6.13477" width="1.30866" height="1.30866" transform="rotate(-90 10.603 6.13477)" fill="black"/>
<rect x="11.9116" y="30.9993" width="1.30866" height="1.30866" transform="rotate(-90 11.9116 30.9993)" fill="#1E426B"/>
<rect x="11.9116" y="29.6907" width="1.30866" height="1.30866" transform="rotate(-90 11.9116 29.6907)" fill="#224B7A"/>
<rect x="11.9116" y="28.3818" width="1.30866" height="1.30866" transform="rotate(-90 11.9116 28.3818)" fill="#224B7A"/>
<rect x="11.9116" y="27.0732" width="1.30866" height="1.30866" transform="rotate(-90 11.9116 27.0732)" fill="#224B7A"/>
<rect x="11.9116" y="25.7646" width="1.30866" height="1.30866" transform="rotate(-90 11.9116 25.7646)" fill="#224B7A"/>
<rect x="11.9116" y="24.4561" width="1.30866" height="1.30866" transform="rotate(-90 11.9116 24.4561)" fill="#224B7A"/>
<rect x="11.9116" y="23.1472" width="1.30866" height="1.30866" transform="rotate(-90 11.9116 23.1472)" fill="#224B7A"/>
<rect x="11.9116" y="21.8386" width="1.30866" height="1.30866" transform="rotate(-90 11.9116 21.8386)" fill="#224B7A"/>
<rect x="11.9116" y="20.53" width="1.30866" height="1.30866" transform="rotate(-90 11.9116 20.53)" fill="#224B7A"/>
<rect x="11.9116" y="19.2214" width="1.30866" height="1.30866" transform="rotate(-90 11.9116 19.2214)" fill="#224B7A"/>
<rect x="11.9116" y="17.9126" width="1.30866" height="1.30866" transform="rotate(-90 11.9116 17.9126)" fill="#224B7A"/>
<rect x="11.9116" y="16.604" width="1.30866" height="1.30866" transform="rotate(-90 11.9116 16.604)" fill="#224B7A"/>
<rect x="11.9116" y="15.2954" width="1.30866" height="1.30866" transform="rotate(-90 11.9116 15.2954)" fill="#224B7A"/>
<rect x="11.9116" y="13.9868" width="1.30866" height="1.30866" transform="rotate(-90 11.9116 13.9868)" fill="#224B7A"/>
<rect x="11.9116" y="12.678" width="1.30866" height="1.30866" transform="rotate(-90 11.9116 12.678)" fill="#224B7A"/>
<rect x="11.9116" y="11.3694" width="1.30866" height="1.30866" transform="rotate(-90 11.9116 11.3694)" fill="#224B7A"/>
<rect x="11.9116" y="10.0608" width="1.30866" height="1.30866" transform="rotate(-90 11.9116 10.0608)" fill="#224B7A"/>
<rect x="11.9116" y="8.7522" width="1.30866" height="1.30866" transform="rotate(-90 11.9116 8.7522)" fill="#224B7A"/>
<rect x="11.9116" y="7.44336" width="1.30866" height="1.30866" transform="rotate(-90 11.9116 7.44336)" fill="#224B7A"/>
<rect x="11.9116" y="6.13477" width="1.30866" height="1.30866" transform="rotate(-90 11.9116 6.13477)" fill="#09131F"/>
<rect x="13.2202" y="32.3079" width="1.30866" height="1.30866" transform="rotate(-90 13.2202 32.3079)" fill="black"/>
<rect x="13.2202" y="30.9993" width="1.30866" height="1.30866" transform="rotate(-90 13.2202 30.9993)" fill="#224B7A"/>
<rect x="13.2202" y="29.6907" width="1.30866" height="1.30866" transform="rotate(-90 13.2202 29.6907)" fill="#224B7A"/>
<rect x="13.2202" y="28.3818" width="1.30866" height="1.30866" transform="rotate(-90 13.2202 28.3818)" fill="#224B7A"/>
<rect x="13.2202" y="27.0732" width="1.30866" height="1.30866" transform="rotate(-90 13.2202 27.0732)" fill="#224B7A"/>
<rect x="13.2202" y="25.7646" width="1.30866" height="1.30866" transform="rotate(-90 13.2202 25.7646)" fill="#224B7A"/>
<rect x="13.2202" y="24.4561" width="1.30866" height="1.30866" transform="rotate(-90 13.2202 24.4561)" fill="#224B7A"/>
<rect x="13.2202" y="23.1472" width="1.30866" height="1.30866" transform="rotate(-90 13.2202 23.1472)" fill="#224B7A"/>
<rect x="13.2202" y="21.8386" width="1.30866" height="1.30866" transform="rotate(-90 13.2202 21.8386)" fill="#224B7A"/>
<rect x="13.2202" y="20.53" width="1.30866" height="1.30866" transform="rotate(-90 13.2202 20.53)" fill="#224B7A"/>
<rect x="13.2202" y="19.2214" width="1.30866" height="1.30866" transform="rotate(-90 13.2202 19.2214)" fill="#224B7A"/>
<rect x="13.2202" y="17.9126" width="1.30866" height="1.30866" transform="rotate(-90 13.2202 17.9126)" fill="#224B7A"/>
<rect x="13.2202" y="16.604" width="1.30866" height="1.30866" transform="rotate(-90 13.2202 16.604)" fill="#224B7A"/>
<rect x="13.2202" y="15.2954" width="1.30866" height="1.30866" transform="rotate(-90 13.2202 15.2954)" fill="#224B7A"/>
<rect x="13.2202" y="13.9868" width="1.30866" height="1.30866" transform="rotate(-90 13.2202 13.9868)" fill="#224B7A"/>
<rect x="13.2202" y="12.678" width="1.30866" height="1.30866" transform="rotate(-90 13.2202 12.678)" fill="#0D1C2E"/>
<rect x="13.2202" y="11.3694" width="1.30866" height="1.30866" transform="rotate(-90 13.2202 11.3694)" fill="#050A10"/>
<rect x="13.2202" y="10.0608" width="1.30866" height="1.30866" transform="rotate(-90 13.2202 10.0608)" fill="#1A395C"/>
<rect x="13.2202" y="8.7522" width="1.30866" height="1.30866" transform="rotate(-90 13.2202 8.7522)" fill="#224B7A"/>
<rect x="13.2202" y="7.44336" width="1.30866" height="1.30866" transform="rotate(-90 13.2202 7.44336)" fill="#224B7A"/>
<rect x="13.2202" y="6.13477" width="1.30866" height="1.30866" transform="rotate(-90 13.2202 6.13477)" fill="#224B7A"/>
<rect x="14.5288" y="32.3079" width="1.30866" height="1.30866" transform="rotate(-90 14.5288 32.3079)" fill="#0D1C2E"/>
<rect x="14.5288" y="30.9993" width="1.30866" height="1.30866" transform="rotate(-90 14.5288 30.9993)" fill="#224B7A"/>
<rect x="14.5288" y="29.6907" width="1.30866" height="1.30866" transform="rotate(-90 14.5288 29.6907)" fill="#224B7A"/>
<rect x="14.5288" y="28.3818" width="1.30866" height="1.30866" transform="rotate(-90 14.5288 28.3818)" fill="#224B7A"/>
<rect x="14.5288" y="27.0732" width="1.30866" height="1.30866" transform="rotate(-90 14.5288 27.0732)" fill="#224B7A"/>
<rect x="14.5288" y="25.7646" width="1.30866" height="1.30866" transform="rotate(-90 14.5288 25.7646)" fill="#224B7A"/>
<rect x="14.5288" y="24.4561" width="1.30866" height="1.30866" transform="rotate(-90 14.5288 24.4561)" fill="#224B7A"/>
<rect x="14.5288" y="23.1472" width="1.30866" height="1.30866" transform="rotate(-90 14.5288 23.1472)" fill="#224B7A"/>
<rect x="14.5288" y="21.8386" width="1.30866" height="1.30866" transform="rotate(-90 14.5288 21.8386)" fill="#224B7A"/>
<rect x="14.5288" y="20.53" width="1.30866" height="1.30866" transform="rotate(-90 14.5288 20.53)" fill="#224B7A"/>
<rect x="14.5288" y="19.2214" width="1.30866" height="1.30866" transform="rotate(-90 14.5288 19.2214)" fill="#224B7A"/>
<rect x="14.5288" y="17.9126" width="1.30866" height="1.30866" transform="rotate(-90 14.5288 17.9126)" fill="#224B7A"/>
<rect x="14.5288" y="16.604" width="1.30866" height="1.30866" transform="rotate(-90 14.5288 16.604)" fill="#224B7A"/>
<rect x="14.5288" y="15.2954" width="1.30866" height="1.30866" transform="rotate(-90 14.5288 15.2954)" fill="#070E17"/>
<rect x="14.5288" y="13.9868" width="1.30866" height="1.30866" transform="rotate(-90 14.5288 13.9868)" fill="#53AEB7"/>
<rect x="14.5288" y="12.678" width="1.30866" height="1.30866" transform="rotate(-90 14.5288 12.678)" fill="#53AEB7"/>
<rect x="14.5288" y="11.3694" width="1.30866" height="1.30866" transform="rotate(-90 14.5288 11.3694)" fill="#53AEB7"/>
<rect x="14.5288" y="10.0608" width="1.30866" height="1.30866" transform="rotate(-90 14.5288 10.0608)" fill="#2A575C"/>
<rect x="14.5288" y="8.7522" width="1.30866" height="1.30866" transform="rotate(-90 14.5288 8.7522)" fill="black"/>
<rect x="14.5288" y="7.44336" width="1.30866" height="1.30866" transform="rotate(-90 14.5288 7.44336)" fill="#224B7A"/>
<rect x="14.5288" y="6.13477" width="1.30866" height="1.30866" transform="rotate(-90 14.5288 6.13477)" fill="#224B7A"/>
<rect x="14.5288" y="4.82617" width="1.30866" height="1.30866" transform="rotate(-90 14.5288 4.82617)" fill="black"/>
<rect x="15.8374" y="33.6165" width="1.30866" height="1.30866" transform="rotate(-90 15.8374 33.6165)" fill="black"/>
<rect x="15.8374" y="32.3079" width="1.30866" height="1.30866" transform="rotate(-90 15.8374 32.3079)" fill="#224B7A"/>
<rect x="15.8374" y="30.9993" width="1.30866" height="1.30866" transform="rotate(-90 15.8374 30.9993)" fill="#224B7A"/>
<rect x="15.8374" y="29.6907" width="1.30866" height="1.30866" transform="rotate(-90 15.8374 29.6907)" fill="#224B7A"/>
<rect x="15.8374" y="28.3818" width="1.30866" height="1.30866" transform="rotate(-90 15.8374 28.3818)" fill="#224B7A"/>
<rect x="15.8374" y="27.0732" width="1.30866" height="1.30866" transform="rotate(-90 15.8374 27.0732)" fill="#224B7A"/>
<rect x="15.8374" y="25.7646" width="1.30866" height="1.30866" transform="rotate(-90 15.8374 25.7646)" fill="#224B7A"/>
<rect x="15.8374" y="24.4561" width="1.30866" height="1.30866" transform="rotate(-90 15.8374 24.4561)" fill="#224B7A"/>
<rect x="15.8374" y="23.1472" width="1.30866" height="1.30866" transform="rotate(-90 15.8374 23.1472)" fill="#224B7A"/>
<rect x="15.8374" y="21.8386" width="1.30866" height="1.30866" transform="rotate(-90 15.8374 21.8386)" fill="#224B7A"/>
<rect x="15.8374" y="20.53" width="1.30866" height="1.30866" transform="rotate(-90 15.8374 20.53)" fill="#224B7A"/>
<rect x="15.8374" y="19.2214" width="1.30866" height="1.30866" transform="rotate(-90 15.8374 19.2214)" fill="#224B7A"/>
<rect x="15.8374" y="17.9126" width="1.30866" height="1.30866" transform="rotate(-90 15.8374 17.9126)" fill="#224B7A"/>
<rect x="15.8374" y="16.604" width="1.30866" height="1.30866" transform="rotate(-90 15.8374 16.604)" fill="#224B7A"/>
<rect x="15.8374" y="15.2954" width="1.30866" height="1.30866" transform="rotate(-90 15.8374 15.2954)" fill="black"/>
<rect x="15.8374" y="13.9868" width="1.30866" height="1.30866" transform="rotate(-90 15.8374 13.9868)" fill="#53AEB7"/>
<rect x="15.8374" y="12.678" width="1.30866" height="1.30866" transform="rotate(-90 15.8374 12.678)" fill="#53AEB7"/>
<rect x="15.8374" y="11.3694" width="1.30866" height="1.30866" transform="rotate(-90 15.8374 11.3694)" fill="#53AEB7"/>
<rect x="15.8374" y="10.0608" width="1.30866" height="1.30866" transform="rotate(-90 15.8374 10.0608)" fill="black"/>
<rect x="15.8374" y="8.7522" width="1.30866" height="1.30866" transform="rotate(-90 15.8374 8.7522)" fill="black"/>
<rect x="15.8374" y="7.44336" width="1.30866" height="1.30866" transform="rotate(-90 15.8374 7.44336)" fill="black"/>
<rect x="15.8374" y="6.13477" width="1.30866" height="1.30866" transform="rotate(-90 15.8374 6.13477)" fill="#224B7A"/>
<rect x="15.8374" y="4.82617" width="1.30866" height="1.30866" transform="rotate(-90 15.8374 4.82617)" fill="black"/>
<rect x="17.146" y="33.6165" width="1.30866" height="1.30866" transform="rotate(-90 17.146 33.6165)" fill="#0D1C2E"/>
<rect x="17.146" y="32.3079" width="1.30866" height="1.30866" transform="rotate(-90 17.146 32.3079)" fill="#224B7A"/>
<rect x="17.146" y="30.9993" width="1.30866" height="1.30866" transform="rotate(-90 17.146 30.9993)" fill="#224B7A"/>
<rect x="17.146" y="29.6907" width="1.30866" height="1.30866" transform="rotate(-90 17.146 29.6907)" fill="#224B7A"/>
<rect x="17.146" y="28.3818" width="1.30866" height="1.30866" transform="rotate(-90 17.146 28.3818)" fill="#224B7A"/>
<rect x="17.146" y="27.0732" width="1.30866" height="1.30866" transform="rotate(-90 17.146 27.0732)" fill="#224B7A"/>
<rect x="17.146" y="25.7646" width="1.30866" height="1.30866" transform="rotate(-90 17.146 25.7646)" fill="#224B7A"/>
<rect x="17.146" y="24.4561" width="1.30866" height="1.30866" transform="rotate(-90 17.146 24.4561)" fill="#224B7A"/>
<rect x="17.146" y="23.1472" width="1.30866" height="1.30866" transform="rotate(-90 17.146 23.1472)" fill="#224B7A"/>
<rect x="17.146" y="21.8386" width="1.30866" height="1.30866" transform="rotate(-90 17.146 21.8386)" fill="#224B7A"/>
<rect x="17.146" y="20.53" width="1.30866" height="1.30866" transform="rotate(-90 17.146 20.53)" fill="#224B7A"/>
<rect x="17.146" y="19.2214" width="1.30866" height="1.30866" transform="rotate(-90 17.146 19.2214)" fill="#224B7A"/>
<rect x="17.146" y="17.9126" width="1.30866" height="1.30866" transform="rotate(-90 17.146 17.9126)" fill="#224B7A"/>
<rect x="17.146" y="16.604" width="1.30866" height="1.30866" transform="rotate(-90 17.146 16.604)" fill="#224B7A"/>
<rect x="17.146" y="15.2954" width="1.30866" height="1.30866" transform="rotate(-90 17.146 15.2954)" fill="black"/>
<rect x="17.146" y="13.9868" width="1.30866" height="1.30866" transform="rotate(-90 17.146 13.9868)" fill="#53AEB7"/>
<rect x="17.146" y="12.678" width="1.30866" height="1.30866" transform="rotate(-90 17.146 12.678)" fill="#53AEB7"/>
<rect x="17.146" y="11.3694" width="1.30866" height="1.30866" transform="rotate(-90 17.146 11.3694)" fill="#53AEB7"/>
<rect x="17.146" y="10.0608" width="1.30866" height="1.30866" transform="rotate(-90 17.146 10.0608)" fill="black"/>
<rect x="17.146" y="8.7522" width="1.30866" height="1.30866" transform="rotate(-90 17.146 8.7522)" fill="white"/>
<rect x="17.146" y="7.44336" width="1.30866" height="1.30866" transform="rotate(-90 17.146 7.44336)" fill="black"/>
<rect x="17.146" y="6.13477" width="1.30866" height="1.30866" transform="rotate(-90 17.146 6.13477)" fill="#224B7A"/>
<rect x="17.146" y="4.82617" width="1.30866" height="1.30866" transform="rotate(-90 17.146 4.82617)" fill="black"/>
<rect x="18.4546" y="34.9253" width="1.30866" height="1.30866" transform="rotate(-90 18.4546 34.9253)" fill="black"/>
<rect x="18.4546" y="33.6165" width="1.30866" height="1.30866" transform="rotate(-90 18.4546 33.6165)" fill="#224B7A"/>
<rect x="18.4546" y="32.3079" width="1.30866" height="1.30866" transform="rotate(-90 18.4546 32.3079)" fill="#224B7A"/>
<rect x="18.4546" y="30.9993" width="1.30866" height="1.30866" transform="rotate(-90 18.4546 30.9993)" fill="#224B7A"/>
<rect x="18.4546" y="29.6907" width="1.30866" height="1.30866" transform="rotate(-90 18.4546 29.6907)" fill="#224B7A"/>
<rect x="18.4546" y="28.3818" width="1.30866" height="1.30866" transform="rotate(-90 18.4546 28.3818)" fill="#224B7A"/>
<rect x="18.4546" y="27.0732" width="1.30866" height="1.30866" transform="rotate(-90 18.4546 27.0732)" fill="#224B7A"/>
<rect x="18.4546" y="25.7646" width="1.30866" height="1.30866" transform="rotate(-90 18.4546 25.7646)" fill="#224B7A"/>
<rect x="18.4546" y="24.4561" width="1.30866" height="1.30866" transform="rotate(-90 18.4546 24.4561)" fill="#224B7A"/>
<rect x="18.4546" y="23.1472" width="1.30866" height="1.30866" transform="rotate(-90 18.4546 23.1472)" fill="#224B7A"/>
<rect x="18.4546" y="21.8386" width="1.30866" height="1.30866" transform="rotate(-90 18.4546 21.8386)" fill="#224B7A"/>
<rect x="18.4546" y="20.53" width="1.30866" height="1.30866" transform="rotate(-90 18.4546 20.53)" fill="#224B7A"/>
<rect x="18.4546" y="19.2214" width="1.30866" height="1.30866" transform="rotate(-90 18.4546 19.2214)" fill="#224B7A"/>
<rect x="18.4546" y="17.9126" width="1.30866" height="1.30866" transform="rotate(-90 18.4546 17.9126)" fill="#224B7A"/>
<rect x="18.4546" y="16.604" width="1.30866" height="1.30866" transform="rotate(-90 18.4546 16.604)" fill="#224B7A"/>
<rect x="18.4546" y="15.2954" width="1.30866" height="1.30866" transform="rotate(-90 18.4546 15.2954)" fill="#224B7A"/>
<rect x="18.4546" y="13.9868" width="1.30866" height="1.30866" transform="rotate(-90 18.4546 13.9868)" fill="#53AEB7"/>
<rect x="18.4546" y="12.678" width="1.30866" height="1.30866" transform="rotate(-90 18.4546 12.678)" fill="#53AEB7"/>
<rect x="18.4546" y="11.3694" width="1.30866" height="1.30866" transform="rotate(-90 18.4546 11.3694)" fill="#53AEB7"/>
<rect x="18.4546" y="10.0608" width="1.30866" height="1.30866" transform="rotate(-90 18.4546 10.0608)" fill="black"/>
<rect x="18.4546" y="8.7522" width="1.30866" height="1.30866" transform="rotate(-90 18.4546 8.7522)" fill="black"/>
<rect x="18.4546" y="7.44336" width="1.30866" height="1.30866" transform="rotate(-90 18.4546 7.44336)" fill="#254D51"/>
<rect x="18.4546" y="6.13477" width="1.30866" height="1.30866" transform="rotate(-90 18.4546 6.13477)" fill="#224B7A"/>
<rect x="18.4546" y="4.82617" width="1.30866" height="1.30866" transform="rotate(-90 18.4546 4.82617)" fill="black"/>
<rect x="19.7632" y="36.2339" width="1.30866" height="1.30866" transform="rotate(-90 19.7632 36.2339)" fill="black"/>
<rect x="19.7632" y="34.9253" width="1.30866" height="1.30866" transform="rotate(-90 19.7632 34.9253)" fill="#224B7A"/>
<rect x="19.7632" y="33.6165" width="1.30866" height="1.30866" transform="rotate(-90 19.7632 33.6165)" fill="#224B7A"/>
<rect x="19.7632" y="32.3079" width="1.30866" height="1.30866" transform="rotate(-90 19.7632 32.3079)" fill="#224B7A"/>
<rect x="19.7632" y="30.9993" width="1.30866" height="1.30866" transform="rotate(-90 19.7632 30.9993)" fill="#224B7A"/>
<rect x="19.7632" y="29.6907" width="1.30866" height="1.30866" transform="rotate(-90 19.7632 29.6907)" fill="#224B7A"/>
<rect x="19.7632" y="28.3818" width="1.30866" height="1.30866" transform="rotate(-90 19.7632 28.3818)" fill="#1A395C"/>
<rect x="19.7632" y="27.0732" width="1.30866" height="1.30866" transform="rotate(-90 19.7632 27.0732)" fill="#224B7A"/>
<rect x="19.7632" y="25.7646" width="1.30866" height="1.30866" transform="rotate(-90 19.7632 25.7646)" fill="#224B7A"/>
<rect x="19.7632" y="24.4561" width="1.30866" height="1.30866" transform="rotate(-90 19.7632 24.4561)" fill="#224B7A"/>
<rect x="19.7632" y="23.1472" width="1.30866" height="1.30866" transform="rotate(-90 19.7632 23.1472)" fill="#224B7A"/>
<rect x="19.7632" y="21.8386" width="1.30866" height="1.30866" transform="rotate(-90 19.7632 21.8386)" fill="#224B7A"/>
<rect x="19.7632" y="20.53" width="1.30866" height="1.30866" transform="rotate(-90 19.7632 20.53)" fill="#224B7A"/>
<rect x="19.7632" y="19.2214" width="1.30866" height="1.30866" transform="rotate(-90 19.7632 19.2214)" fill="#224B7A"/>
<rect x="19.7632" y="17.9126" width="1.30866" height="1.30866" transform="rotate(-90 19.7632 17.9126)" fill="#224B7A"/>
<rect x="19.7632" y="16.604" width="1.30866" height="1.30866" transform="rotate(-90 19.7632 16.604)" fill="#224B7A"/>
<rect x="19.7632" y="15.2954" width="1.30866" height="1.30866" transform="rotate(-90 19.7632 15.2954)" fill="#224B7A"/>
<rect x="19.7632" y="13.9868" width="1.30866" height="1.30866" transform="rotate(-90 19.7632 13.9868)" fill="#11253D"/>
<rect x="19.7632" y="12.678" width="1.30866" height="1.30866" transform="rotate(-90 19.7632 12.678)" fill="#4998A0"/>
<rect x="19.7632" y="11.3694" width="1.30866" height="1.30866" transform="rotate(-90 19.7632 11.3694)" fill="#53AEB7"/>
<rect x="19.7632" y="10.0608" width="1.30866" height="1.30866" transform="rotate(-90 19.7632 10.0608)" fill="#53AEB7"/>
<rect x="19.7632" y="8.7522" width="1.30866" height="1.30866" transform="rotate(-90 19.7632 8.7522)" fill="#53AEB7"/>
<rect x="19.7632" y="7.44336" width="1.30866" height="1.30866" transform="rotate(-90 19.7632 7.44336)" fill="black"/>
<rect x="19.7632" y="6.13477" width="1.30866" height="1.30866" transform="rotate(-90 19.7632 6.13477)" fill="#224B7A"/>
<rect x="19.7632" y="4.82617" width="1.30866" height="1.30866" transform="rotate(-90 19.7632 4.82617)" fill="black"/>
<rect x="21.0723" y="34.9253" width="1.30866" height="1.30866" transform="rotate(-90 21.0723 34.9253)" fill="#204773"/>
<rect x="21.0723" y="33.6165" width="1.30866" height="1.30866" transform="rotate(-90 21.0723 33.6165)" fill="#224B7A"/>
<rect x="21.0723" y="32.3079" width="1.30866" height="1.30866" transform="rotate(-90 21.0723 32.3079)" fill="#224B7A"/>
<rect x="21.0723" y="30.9993" width="1.30866" height="1.30866" transform="rotate(-90 21.0723 30.9993)" fill="#224B7A"/>
<rect x="21.0723" y="29.6907" width="1.30866" height="1.30866" transform="rotate(-90 21.0723 29.6907)" fill="#224B7A"/>
<rect x="21.0723" y="28.3818" width="1.30866" height="1.30866" transform="rotate(-90 21.0723 28.3818)" fill="#224B7A"/>
<rect x="21.0723" y="27.0732" width="1.30866" height="1.30866" transform="rotate(-90 21.0723 27.0732)" fill="#224B7A"/>
<rect x="21.0723" y="25.7646" width="1.30866" height="1.30866" transform="rotate(-90 21.0723 25.7646)" fill="#224B7A"/>
<rect x="21.0723" y="24.4561" width="1.30866" height="1.30866" transform="rotate(-90 21.0723 24.4561)" fill="#224B7A"/>
<rect x="21.0723" y="23.1472" width="1.30866" height="1.30866" transform="rotate(-90 21.0723 23.1472)" fill="#132A45"/>
<rect x="21.0723" y="21.8386" width="1.30866" height="1.30866" transform="rotate(-90 21.0723 21.8386)" fill="black"/>
<rect x="21.0723" y="20.53" width="1.30866" height="1.30866" transform="rotate(-90 21.0723 20.53)" fill="black"/>
<rect x="21.0723" y="19.2214" width="1.30866" height="1.30866" transform="rotate(-90 21.0723 19.2214)" fill="#1E426B"/>
<rect x="21.0723" y="17.9126" width="1.30866" height="1.30866" transform="rotate(-90 21.0723 17.9126)" fill="#224B7A"/>
<rect x="21.0723" y="16.604" width="1.30866" height="1.30866" transform="rotate(-90 21.0723 16.604)" fill="#224B7A"/>
<rect x="21.0723" y="15.2954" width="1.30866" height="1.30866" transform="rotate(-90 21.0723 15.2954)" fill="#224B7A"/>
<rect x="21.0723" y="13.9868" width="1.30866" height="1.30866" transform="rotate(-90 21.0723 13.9868)" fill="#224B7A"/>
<rect x="21.0723" y="12.678" width="1.30866" height="1.30866" transform="rotate(-90 21.0723 12.678)" fill="#224B7A"/>
<rect x="21.0723" y="11.3694" width="1.30866" height="1.30866" transform="rotate(-90 21.0723 11.3694)" fill="#224B7A"/>
<rect x="21.0723" y="10.0608" width="1.30866" height="1.30866" transform="rotate(-90 21.0723 10.0608)" fill="#224B7A"/>
<rect x="21.0723" y="8.7522" width="1.30866" height="1.30866" transform="rotate(-90 21.0723 8.7522)" fill="#224B7A"/>
<rect x="21.0723" y="7.44336" width="1.30866" height="1.30866" transform="rotate(-90 21.0723 7.44336)" fill="#224B7A"/>
<rect x="21.0723" y="6.13477" width="1.30866" height="1.30866" transform="rotate(-90 21.0723 6.13477)" fill="#224B7A"/>
<rect x="21.0723" y="4.82617" width="1.30866" height="1.30866" transform="rotate(-90 21.0723 4.82617)" fill="#224B7A"/>
<rect x="21.0723" y="3.51758" width="1.30866" height="1.30866" transform="rotate(-90 21.0723 3.51758)" fill="black"/>
<rect x="22.3809" y="34.9253" width="1.30866" height="1.30866" transform="rotate(-90 22.3809 34.9253)" fill="black"/>
<rect x="22.3809" y="33.6165" width="1.30866" height="1.30866" transform="rotate(-90 22.3809 33.6165)" fill="#224B7A"/>
<rect x="22.3809" y="32.3079" width="1.30866" height="1.30866" transform="rotate(-90 22.3809 32.3079)" fill="#224B7A"/>
<rect x="22.3809" y="30.9993" width="1.30866" height="1.30866" transform="rotate(-90 22.3809 30.9993)" fill="#224B7A"/>
<rect x="22.3809" y="29.6907" width="1.30866" height="1.30866" transform="rotate(-90 22.3809 29.6907)" fill="#224B7A"/>
<rect x="22.3809" y="28.3818" width="1.30866" height="1.30866" transform="rotate(-90 22.3809 28.3818)" fill="#224B7A"/>
<rect x="22.3809" y="27.0732" width="1.30866" height="1.30866" transform="rotate(-90 22.3809 27.0732)" fill="#224B7A"/>
<rect x="22.3809" y="25.7646" width="1.30866" height="1.30866" transform="rotate(-90 22.3809 25.7646)" fill="#224B7A"/>
<rect x="22.3809" y="24.4561" width="1.30866" height="1.30866" transform="rotate(-90 22.3809 24.4561)" fill="#224B7A"/>
<rect x="22.3809" y="23.1472" width="1.30866" height="1.30866" transform="rotate(-90 22.3809 23.1472)" fill="#224B7A"/>
<rect x="22.3809" y="21.8386" width="1.30866" height="1.30866" transform="rotate(-90 22.3809 21.8386)" fill="#224B7A"/>
<rect x="22.3809" y="20.53" width="1.30866" height="1.30866" transform="rotate(-90 22.3809 20.53)" fill="#224B7A"/>
<rect x="22.3809" y="19.2214" width="1.30866" height="1.30866" transform="rotate(-90 22.3809 19.2214)" fill="#224B7A"/>
<rect x="22.3809" y="17.9126" width="1.30866" height="1.30866" transform="rotate(-90 22.3809 17.9126)" fill="#224B7A"/>
<rect x="22.3809" y="16.604" width="1.30866" height="1.30866" transform="rotate(-90 22.3809 16.604)" fill="black"/>
<rect x="22.3809" y="15.2954" width="1.30866" height="1.30866" transform="rotate(-90 22.3809 15.2954)" fill="#224B7A"/>
<rect x="22.3809" y="13.9868" width="1.30866" height="1.30866" transform="rotate(-90 22.3809 13.9868)" fill="#224B7A"/>
<rect x="22.3809" y="12.678" width="1.30866" height="1.30866" transform="rotate(-90 22.3809 12.678)" fill="#224B7A"/>
<rect x="22.3809" y="11.3694" width="1.30866" height="1.30866" transform="rotate(-90 22.3809 11.3694)" fill="#224B7A"/>
<rect x="22.3809" y="10.0608" width="1.30866" height="1.30866" transform="rotate(-90 22.3809 10.0608)" fill="#224B7A"/>
<rect x="22.3809" y="8.7522" width="1.30866" height="1.30866" transform="rotate(-90 22.3809 8.7522)" fill="#224B7A"/>
<rect x="22.3809" y="7.44336" width="1.30866" height="1.30866" transform="rotate(-90 22.3809 7.44336)" fill="#224B7A"/>
<rect x="22.3809" y="6.13477" width="1.30866" height="1.30866" transform="rotate(-90 22.3809 6.13477)" fill="#224B7A"/>
<rect x="22.3809" y="4.82617" width="1.30866" height="1.30866" transform="rotate(-90 22.3809 4.82617)" fill="#09131F"/>
<rect x="22.3809" y="3.51758" width="1.30866" height="1.30866" transform="rotate(-90 22.3809 3.51758)" fill="black"/>
<rect x="22.3809" y="2.20874" width="1.30866" height="1.30866" transform="rotate(-90 22.3809 2.20874)" fill="black"/>
<rect x="23.6895" y="33.6165" width="1.30866" height="1.30866" transform="rotate(-90 23.6895 33.6165)" fill="black"/>
<rect x="23.6895" y="32.3079" width="1.30866" height="1.30866" transform="rotate(-90 23.6895 32.3079)" fill="#224B7A"/>
<rect x="23.6895" y="30.9993" width="1.30866" height="1.30866" transform="rotate(-90 23.6895 30.9993)" fill="#224B7A"/>
<rect x="23.6895" y="29.6907" width="1.30866" height="1.30866" transform="rotate(-90 23.6895 29.6907)" fill="#224B7A"/>
<rect x="23.6895" y="28.3818" width="1.30866" height="1.30866" transform="rotate(-90 23.6895 28.3818)" fill="#224B7A"/>
<rect x="23.6895" y="27.0732" width="1.30866" height="1.30866" transform="rotate(-90 23.6895 27.0732)" fill="black"/>
<rect x="23.6895" y="25.7646" width="1.30866" height="1.30866" transform="rotate(-90 23.6895 25.7646)" fill="black"/>
<rect x="23.6895" y="24.4561" width="1.30866" height="1.30866" transform="rotate(-90 23.6895 24.4561)" fill="black"/>
<rect x="23.6895" y="23.1472" width="1.30866" height="1.30866" transform="rotate(-90 23.6895 23.1472)" fill="black"/>
<rect x="23.6895" y="21.8386" width="1.30866" height="1.30866" transform="rotate(-90 23.6895 21.8386)" fill="black"/>
<rect x="23.6895" y="20.53" width="1.30866" height="1.30866" transform="rotate(-90 23.6895 20.53)" fill="black"/>
<rect x="23.6895" y="19.2214" width="1.30866" height="1.30866" transform="rotate(-90 23.6895 19.2214)" fill="black"/>
<rect x="23.6895" y="17.9126" width="1.30866" height="1.30866" transform="rotate(-90 23.6895 17.9126)" fill="black"/>
<rect x="23.6895" y="16.604" width="1.30866" height="1.30866" transform="rotate(-90 23.6895 16.604)" fill="#224B7A"/>
<rect x="23.6895" y="15.2954" width="1.30866" height="1.30866" transform="rotate(-90 23.6895 15.2954)" fill="#224B7A"/>
<rect x="23.6895" y="13.9868" width="1.30866" height="1.30866" transform="rotate(-90 23.6895 13.9868)" fill="#224B7A"/>
<rect x="23.6895" y="12.678" width="1.30866" height="1.30866" transform="rotate(-90 23.6895 12.678)" fill="#224B7A"/>
<rect x="23.6895" y="11.3694" width="1.30866" height="1.30866" transform="rotate(-90 23.6895 11.3694)" fill="#224B7A"/>
<rect x="23.6895" y="10.0608" width="1.30866" height="1.30866" transform="rotate(-90 23.6895 10.0608)" fill="#224B7A"/>
<rect x="23.6895" y="8.7522" width="1.30866" height="1.30866" transform="rotate(-90 23.6895 8.7522)" fill="#224B7A"/>
<rect x="23.6895" y="7.44336" width="1.30866" height="1.30866" transform="rotate(-90 23.6895 7.44336)" fill="#224B7A"/>
<rect x="23.6895" y="6.13477" width="1.30866" height="1.30866" transform="rotate(-90 23.6895 6.13477)" fill="#224B7A"/>
<rect x="23.6895" y="4.82617" width="1.30866" height="1.30866" transform="rotate(-90 23.6895 4.82617)" fill="#224B7A"/>
<rect x="23.6895" y="3.51758" width="1.30866" height="1.30866" transform="rotate(-90 23.6895 3.51758)" fill="#0D1C2E"/>
<rect x="23.6895" y="2.20874" width="1.30866" height="1.30866" transform="rotate(-90 23.6895 2.20874)" fill="black"/>
<rect x="24.998" y="32.3079" width="1.30866" height="1.30866" transform="rotate(-90 24.998 32.3079)" fill="#0D1C2E"/>
<rect x="24.998" y="30.9993" width="1.30866" height="1.30866" transform="rotate(-90 24.998 30.9993)" fill="#224B7A"/>
<rect x="24.998" y="29.6907" width="1.30866" height="1.30866" transform="rotate(-90 24.998 29.6907)" fill="#224B7A"/>
<rect x="24.998" y="28.3818" width="1.30866" height="1.30866" transform="rotate(-90 24.998 28.3818)" fill="#224B7A"/>
<rect x="24.998" y="27.0732" width="1.30866" height="1.30866" transform="rotate(-90 24.998 27.0732)" fill="#224B7A"/>
<rect x="24.998" y="25.7646" width="1.30866" height="1.30866" transform="rotate(-90 24.998 25.7646)" fill="#224B7A"/>
<rect x="24.998" y="24.4561" width="1.30866" height="1.30866" transform="rotate(-90 24.998 24.4561)" fill="#224B7A"/>
<rect x="24.998" y="23.1472" width="1.30866" height="1.30866" transform="rotate(-90 24.998 23.1472)" fill="#224B7A"/>
<rect x="24.998" y="21.8386" width="1.30866" height="1.30866" transform="rotate(-90 24.998 21.8386)" fill="#224B7A"/>
<rect x="24.998" y="20.53" width="1.30866" height="1.30866" transform="rotate(-90 24.998 20.53)" fill="#224B7A"/>
<rect x="24.998" y="19.2214" width="1.30866" height="1.30866" transform="rotate(-90 24.998 19.2214)" fill="#224B7A"/>
<rect x="24.998" y="17.9126" width="1.30866" height="1.30866" transform="rotate(-90 24.998 17.9126)" fill="#224B7A"/>
<rect x="24.998" y="16.604" width="1.30866" height="1.30866" transform="rotate(-90 24.998 16.604)" fill="#224B7A"/>
<rect x="24.998" y="15.2954" width="1.30866" height="1.30866" transform="rotate(-90 24.998 15.2954)" fill="#224B7A"/>
<rect x="24.998" y="13.9868" width="1.30866" height="1.30866" transform="rotate(-90 24.998 13.9868)" fill="#224B7A"/>
<rect x="24.998" y="12.678" width="1.30866" height="1.30866" transform="rotate(-90 24.998 12.678)" fill="#224B7A"/>
<rect x="24.998" y="11.3694" width="1.30866" height="1.30866" transform="rotate(-90 24.998 11.3694)" fill="#224B7A"/>
<rect x="24.998" y="10.0608" width="1.30866" height="1.30866" transform="rotate(-90 24.998 10.0608)" fill="#224B7A"/>
<rect x="24.998" y="8.7522" width="1.30866" height="1.30866" transform="rotate(-90 24.998 8.7522)" fill="#224B7A"/>
<rect x="24.998" y="7.44336" width="1.30866" height="1.30866" transform="rotate(-90 24.998 7.44336)" fill="#204773"/>
<rect x="24.998" y="6.13477" width="1.30866" height="1.30866" transform="rotate(-90 24.998 6.13477)" fill="#224B7A"/>
<rect x="24.998" y="4.82617" width="1.30866" height="1.30866" transform="rotate(-90 24.998 4.82617)" fill="#224B7A"/>
<rect x="24.998" y="3.51758" width="1.30866" height="1.30866" transform="rotate(-90 24.998 3.51758)" fill="#224B7A"/>
<rect x="26.3066" y="30.9993" width="1.30866" height="1.30866" transform="rotate(-90 26.3066 30.9993)" fill="#11263D"/>
<rect x="26.3066" y="29.6907" width="1.30866" height="1.30866" transform="rotate(-90 26.3066 29.6907)" fill="#224B7A"/>
<rect x="26.3066" y="28.3818" width="1.30866" height="1.30866" transform="rotate(-90 26.3066 28.3818)" fill="#224B7A"/>
<rect x="26.3066" y="27.0732" width="1.30866" height="1.30866" transform="rotate(-90 26.3066 27.0732)" fill="#224B7A"/>
<rect x="26.3066" y="25.7646" width="1.30866" height="1.30866" transform="rotate(-90 26.3066 25.7646)" fill="#224B7A"/>
<rect x="26.3066" y="24.4561" width="1.30866" height="1.30866" transform="rotate(-90 26.3066 24.4561)" fill="#224B7A"/>
<rect x="26.3066" y="23.1472" width="1.30866" height="1.30866" transform="rotate(-90 26.3066 23.1472)" fill="#224B7A"/>
<rect x="26.3066" y="21.8386" width="1.30866" height="1.30866" transform="rotate(-90 26.3066 21.8386)" fill="#224B7A"/>
<rect x="26.3066" y="20.53" width="1.30866" height="1.30866" transform="rotate(-90 26.3066 20.53)" fill="#224B7A"/>
<rect x="26.3066" y="19.2214" width="1.30866" height="1.30866" transform="rotate(-90 26.3066 19.2214)" fill="#224B7A"/>
<rect x="26.3066" y="17.9126" width="1.30866" height="1.30866" transform="rotate(-90 26.3066 17.9126)" fill="#224B7A"/>
<rect x="26.3066" y="16.604" width="1.30866" height="1.30866" transform="rotate(-90 26.3066 16.604)" fill="#224B7A"/>
<rect x="26.3066" y="15.2954" width="1.30866" height="1.30866" transform="rotate(-90 26.3066 15.2954)" fill="#224B7A"/>
<rect x="26.3066" y="13.9868" width="1.30866" height="1.30866" transform="rotate(-90 26.3066 13.9868)" fill="#224B7A"/>
<rect x="26.3066" y="12.678" width="1.30866" height="1.30866" transform="rotate(-90 26.3066 12.678)" fill="#224B7A"/>
<rect x="26.3066" y="11.3694" width="1.30866" height="1.30866" transform="rotate(-90 26.3066 11.3694)" fill="#224B7A"/>
<rect x="26.3066" y="10.0608" width="1.30866" height="1.30866" transform="rotate(-90 26.3066 10.0608)" fill="#224B7A"/>
<rect x="26.3066" y="8.7522" width="1.30866" height="1.30866" transform="rotate(-90 26.3066 8.7522)" fill="#224B7A"/>
<rect x="26.3066" y="7.44336" width="1.30866" height="1.30866" transform="rotate(-90 26.3066 7.44336)" fill="#1E426B"/>
<rect x="26.3066" y="6.13477" width="1.30866" height="1.30866" transform="rotate(-90 26.3066 6.13477)" fill="#152F4C"/>
<rect x="26.3066" y="4.82617" width="1.30866" height="1.30866" transform="rotate(-90 26.3066 4.82617)" fill="#09131F"/>
<rect x="26.3066" y="3.51758" width="1.30866" height="1.30866" transform="rotate(-90 26.3066 3.51758)" fill="#11263D"/>
<rect x="27.6152" y="29.6907" width="1.30866" height="1.30866" transform="rotate(-90 27.6152 29.6907)" fill="#04090F"/>
<rect x="27.6152" y="28.3818" width="1.30866" height="1.30866" transform="rotate(-90 27.6152 28.3818)" fill="#224B7A"/>
<rect x="27.6152" y="27.0732" width="1.30866" height="1.30866" transform="rotate(-90 27.6152 27.0732)" fill="#224B7A"/>
<rect x="27.6152" y="25.7646" width="1.30866" height="1.30866" transform="rotate(-90 27.6152 25.7646)" fill="#224B7A"/>
<rect x="27.6152" y="24.4561" width="1.30866" height="1.30866" transform="rotate(-90 27.6152 24.4561)" fill="#224B7A"/>
<rect x="27.6152" y="23.1472" width="1.30866" height="1.30866" transform="rotate(-90 27.6152 23.1472)" fill="#224B7A"/>
<rect x="27.6152" y="21.8386" width="1.30866" height="1.30866" transform="rotate(-90 27.6152 21.8386)" fill="#224B7A"/>
<rect x="27.6152" y="20.53" width="1.30866" height="1.30866" transform="rotate(-90 27.6152 20.53)" fill="#224B7A"/>
<rect x="27.6152" y="19.2214" width="1.30866" height="1.30866" transform="rotate(-90 27.6152 19.2214)" fill="#224B7A"/>
<rect x="27.6152" y="17.9126" width="1.30866" height="1.30866" transform="rotate(-90 27.6152 17.9126)" fill="#224B7A"/>
<rect x="27.6152" y="16.604" width="1.30866" height="1.30866" transform="rotate(-90 27.6152 16.604)" fill="#224B7A"/>
<rect x="27.6152" y="15.2954" width="1.30866" height="1.30866" transform="rotate(-90 27.6152 15.2954)" fill="#224B7A"/>
<rect x="27.6152" y="13.9868" width="1.30866" height="1.30866" transform="rotate(-90 27.6152 13.9868)" fill="#224B7A"/>
<rect x="27.6152" y="12.678" width="1.30866" height="1.30866" transform="rotate(-90 27.6152 12.678)" fill="#224B7A"/>
<rect x="27.6152" y="11.3694" width="1.30866" height="1.30866" transform="rotate(-90 27.6152 11.3694)" fill="#224B7A"/>
<rect x="27.6152" y="10.0608" width="1.30866" height="1.30866" transform="rotate(-90 27.6152 10.0608)" fill="#224B7A"/>
<rect x="27.6152" y="8.7522" width="1.30866" height="1.30866" transform="rotate(-90 27.6152 8.7522)" fill="#224B7A"/>
<rect x="27.6152" y="7.44336" width="1.30866" height="1.30866" transform="rotate(-90 27.6152 7.44336)" fill="#224B7A"/>
<rect x="27.6152" y="6.13477" width="1.30866" height="1.30866" transform="rotate(-90 27.6152 6.13477)" fill="#224B7A"/>
<rect x="27.6152" y="4.82617" width="1.30866" height="1.30866" transform="rotate(-90 27.6152 4.82617)" fill="#224B7A"/>
<rect x="27.6152" y="3.51758" width="1.30866" height="1.30866" transform="rotate(-90 27.6152 3.51758)" fill="black"/>
<rect x="28.9238" y="28.3818" width="1.30866" height="1.30866" transform="rotate(-90 28.9238 28.3818)" fill="black"/>
<rect x="28.9238" y="27.0732" width="1.30866" height="1.30866" transform="rotate(-90 28.9238 27.0732)" fill="#224B7A"/>
<rect x="28.9238" y="25.7646" width="1.30866" height="1.30866" transform="rotate(-90 28.9238 25.7646)" fill="#224B7A"/>
<rect x="28.9238" y="24.4561" width="1.30866" height="1.30866" transform="rotate(-90 28.9238 24.4561)" fill="#224B7A"/>
<rect x="28.9238" y="23.1472" width="1.30866" height="1.30866" transform="rotate(-90 28.9238 23.1472)" fill="#224B7A"/>
<rect x="28.9238" y="21.8386" width="1.30866" height="1.30866" transform="rotate(-90 28.9238 21.8386)" fill="#224B7A"/>
<rect x="28.9238" y="20.53" width="1.30866" height="1.30866" transform="rotate(-90 28.9238 20.53)" fill="#224B7A"/>
<rect x="28.9238" y="19.2214" width="1.30866" height="1.30866" transform="rotate(-90 28.9238 19.2214)" fill="#224B7A"/>
<rect x="28.9238" y="17.9126" width="1.30866" height="1.30866" transform="rotate(-90 28.9238 17.9126)" fill="#224B7A"/>
<rect x="28.9238" y="16.604" width="1.30866" height="1.30866" transform="rotate(-90 28.9238 16.604)" fill="#224B7A"/>
<rect x="28.9238" y="15.2954" width="1.30866" height="1.30866" transform="rotate(-90 28.9238 15.2954)" fill="#224B7A"/>
<rect x="28.9238" y="13.9868" width="1.30866" height="1.30866" transform="rotate(-90 28.9238 13.9868)" fill="#224B7A"/>
<rect x="28.9238" y="12.678" width="1.30866" height="1.30866" transform="rotate(-90 28.9238 12.678)" fill="#224B7A"/>
<rect x="28.9238" y="11.3694" width="1.30866" height="1.30866" transform="rotate(-90 28.9238 11.3694)" fill="#224B7A"/>
<rect x="28.9238" y="10.0608" width="1.30866" height="1.30866" transform="rotate(-90 28.9238 10.0608)" fill="#224B7A"/>
<rect x="28.9238" y="8.7522" width="1.30866" height="1.30866" transform="rotate(-90 28.9238 8.7522)" fill="#224B7A"/>
<rect x="28.9238" y="7.44336" width="1.30866" height="1.30866" transform="rotate(-90 28.9238 7.44336)" fill="#224B7A"/>
<rect x="28.9238" y="6.13477" width="1.30866" height="1.30866" transform="rotate(-90 28.9238 6.13477)" fill="#224B7A"/>
<rect x="28.9238" y="4.82617" width="1.30866" height="1.30866" transform="rotate(-90 28.9238 4.82617)" fill="#11263D"/>
<rect x="28.9238" y="3.51758" width="1.30866" height="1.30866" transform="rotate(-90 28.9238 3.51758)" fill="black"/>
<rect x="30.2324" y="27.0732" width="1.30866" height="1.30866" transform="rotate(-90 30.2324 27.0732)" fill="black"/>
<rect x="30.2324" y="25.7646" width="1.30866" height="1.30866" transform="rotate(-90 30.2324 25.7646)" fill="#04090F"/>
<rect x="30.2324" y="24.4561" width="1.30866" height="1.30866" transform="rotate(-90 30.2324 24.4561)" fill="#224B7A"/>
<rect x="30.2324" y="23.1472" width="1.30866" height="1.30866" transform="rotate(-90 30.2324 23.1472)" fill="#224B7A"/>
<rect x="30.2324" y="21.8386" width="1.30866" height="1.30866" transform="rotate(-90 30.2324 21.8386)" fill="#224B7A"/>
<rect x="30.2324" y="20.53" width="1.30866" height="1.30866" transform="rotate(-90 30.2324 20.53)" fill="#224B7A"/>
<rect x="30.2324" y="19.2214" width="1.30866" height="1.30866" transform="rotate(-90 30.2324 19.2214)" fill="#224B7A"/>
<rect x="30.2324" y="17.9126" width="1.30866" height="1.30866" transform="rotate(-90 30.2324 17.9126)" fill="#224B7A"/>
<rect x="30.2324" y="16.604" width="1.30866" height="1.30866" transform="rotate(-90 30.2324 16.604)" fill="#224B7A"/>
<rect x="30.2324" y="15.2954" width="1.30866" height="1.30866" transform="rotate(-90 30.2324 15.2954)" fill="#224B7A"/>
<rect x="30.2324" y="13.9868" width="1.30866" height="1.30866" transform="rotate(-90 30.2324 13.9868)" fill="#224B7A"/>
<rect x="30.2324" y="12.678" width="1.30866" height="1.30866" transform="rotate(-90 30.2324 12.678)" fill="#224B7A"/>
<rect x="30.2324" y="11.3694" width="1.30866" height="1.30866" transform="rotate(-90 30.2324 11.3694)" fill="#224B7A"/>
<rect x="30.2324" y="10.0608" width="1.30866" height="1.30866" transform="rotate(-90 30.2324 10.0608)" fill="#224B7A"/>
<rect x="30.2324" y="8.7522" width="1.30866" height="1.30866" transform="rotate(-90 30.2324 8.7522)" fill="#11263D"/>
<rect x="30.2324" y="7.44336" width="1.30866" height="1.30866" transform="rotate(-90 30.2324 7.44336)" fill="black"/>
<rect x="30.2324" y="6.13477" width="1.30866" height="1.30866" transform="rotate(-90 30.2324 6.13477)" fill="black"/>
<rect x="31.5415" y="24.4561" width="1.30866" height="1.30866" transform="rotate(-90 31.5415 24.4561)" fill="black"/>
<rect x="31.5415" y="23.1472" width="1.30866" height="1.30866" transform="rotate(-90 31.5415 23.1472)" fill="black"/>
<rect x="31.5415" y="21.8386" width="1.30866" height="1.30866" transform="rotate(-90 31.5415 21.8386)" fill="#0D1C2E"/>
<rect x="31.5415" y="20.53" width="1.30866" height="1.30866" transform="rotate(-90 31.5415 20.53)" fill="#224B7A"/>
<rect x="31.5415" y="19.2214" width="1.30866" height="1.30866" transform="rotate(-90 31.5415 19.2214)" fill="#224B7A"/>
<rect x="31.5415" y="17.9126" width="1.30866" height="1.30866" transform="rotate(-90 31.5415 17.9126)" fill="#224B7A"/>
<rect x="31.5415" y="16.604" width="1.30866" height="1.30866" transform="rotate(-90 31.5415 16.604)" fill="#224B7A"/>
<rect x="31.5415" y="15.2954" width="1.30866" height="1.30866" transform="rotate(-90 31.5415 15.2954)" fill="#224B7A"/>
<rect x="31.5415" y="13.9868" width="1.30866" height="1.30866" transform="rotate(-90 31.5415 13.9868)" fill="#224B7A"/>
<rect x="31.5415" y="12.678" width="1.30866" height="1.30866" transform="rotate(-90 31.5415 12.678)" fill="#224B7A"/>
<rect x="31.5415" y="11.3694" width="1.30866" height="1.30866" transform="rotate(-90 31.5415 11.3694)" fill="#224B7A"/>
<rect x="31.5415" y="10.0608" width="1.30866" height="1.30866" transform="rotate(-90 31.5415 10.0608)" fill="black"/>
<rect x="32.8501" y="19.2214" width="1.30866" height="1.30866" transform="rotate(-90 32.8501 19.2214)" fill="black"/>
<rect x="32.8501" y="17.9126" width="1.30866" height="1.30866" transform="rotate(-90 32.8501 17.9126)" fill="black"/>
<rect x="32.8501" y="16.604" width="1.30866" height="1.30866" transform="rotate(-90 32.8501 16.604)" fill="#0D1C2E"/>
<rect x="32.8501" y="15.2954" width="1.30866" height="1.30866" transform="rotate(-90 32.8501 15.2954)" fill="#224B7A"/>
<rect x="32.8501" y="13.9868" width="1.30866" height="1.30866" transform="rotate(-90 32.8501 13.9868)" fill="#224B7A"/>
<rect x="32.8501" y="12.678" width="1.30866" height="1.30866" transform="rotate(-90 32.8501 12.678)" fill="#1C3D63"/>
<rect x="32.8501" y="11.3694" width="1.30866" height="1.30866" transform="rotate(-90 32.8501 11.3694)" fill="black"/>
<rect x="34.1587" y="13.9868" width="1.30866" height="1.30866" transform="rotate(-90 34.1587 13.9868)" fill="black"/>
</svg>
