<svg width="38" height="36" viewBox="0 0 38 36" fill="none" xmlns="http://www.w3.org/2000/svg">
<rect x="0.571777" y="19.9229" width="1.30866" height="1.30866" transform="rotate(-90 0.571777 19.9229)" fill="black"/>
<rect x="0.571777" y="10.7622" width="1.30866" height="1.30866" transform="rotate(-90 0.571777 10.7622)" fill="black"/>
<rect x="1.88037" y="19.9229" width="1.30866" height="1.30866" transform="rotate(-90 1.88037 19.9229)" fill="#1A385C"/>
<rect x="1.88037" y="12.0708" width="1.30866" height="1.30866" transform="rotate(-90 1.88037 12.0708)" fill="black"/>
<rect x="1.88037" y="10.7622" width="1.30866" height="1.30866" transform="rotate(-90 1.88037 10.7622)" fill="#09131F"/>
<rect x="3.18896" y="21.2314" width="1.30866" height="1.30866" transform="rotate(-90 3.18896 21.2314)" fill="black"/>
<rect x="3.18896" y="19.9229" width="1.30866" height="1.30866" transform="rotate(-90 3.18896 19.9229)" fill="#224B7A"/>
<rect x="3.18896" y="18.6143" width="1.30866" height="1.30866" transform="rotate(-90 3.18896 18.6143)" fill="black"/>
<rect x="3.18896" y="13.3796" width="1.30866" height="1.30866" transform="rotate(-90 3.18896 13.3796)" fill="black"/>
<rect x="3.18896" y="12.0708" width="1.30866" height="1.30866" transform="rotate(-90 3.18896 12.0708)" fill="#224B7A"/>
<rect x="3.18896" y="10.7622" width="1.30866" height="1.30866" transform="rotate(-90 3.18896 10.7622)" fill="#1E426B"/>
<rect x="3.18896" y="9.45361" width="1.30866" height="1.30866" transform="rotate(-90 3.18896 9.45361)" fill="black"/>
<rect x="4.49756" y="21.2314" width="1.30866" height="1.30866" transform="rotate(-90 4.49756 21.2314)" fill="black"/>
<rect x="4.49756" y="19.9229" width="1.30866" height="1.30866" transform="rotate(-90 4.49756 19.9229)" fill="#224B7A"/>
<rect x="4.49756" y="18.6143" width="1.30866" height="1.30866" transform="rotate(-90 4.49756 18.6143)" fill="#224B7A"/>
<rect x="4.49756" y="13.3796" width="1.30866" height="1.30866" transform="rotate(-90 4.49756 13.3796)" fill="#204773"/>
<rect x="4.49756" y="12.0708" width="1.30866" height="1.30866" transform="rotate(-90 4.49756 12.0708)" fill="#224B7A"/>
<rect x="4.49756" y="10.7622" width="1.30866" height="1.30866" transform="rotate(-90 4.49756 10.7622)" fill="#224B7A"/>
<rect x="4.49756" y="9.45361" width="1.30866" height="1.30866" transform="rotate(-90 4.49756 9.45361)" fill="black"/>
<rect x="5.80615" y="22.54" width="1.30866" height="1.30866" transform="rotate(-90 5.80615 22.54)" fill="black"/>
<rect x="5.80615" y="21.2314" width="1.30866" height="1.30866" transform="rotate(-90 5.80615 21.2314)" fill="black"/>
<rect x="5.80615" y="19.9229" width="1.30866" height="1.30866" transform="rotate(-90 5.80615 19.9229)" fill="#132A45"/>
<rect x="5.80615" y="18.6143" width="1.30866" height="1.30866" transform="rotate(-90 5.80615 18.6143)" fill="#224B7A"/>
<rect x="5.80615" y="17.3054" width="1.30866" height="1.30866" transform="rotate(-90 5.80615 17.3054)" fill="#224B7A"/>
<rect x="5.80615" y="15.9968" width="1.30866" height="1.30866" transform="rotate(-90 5.80615 15.9968)" fill="#234D7C"/>
<rect x="5.80615" y="14.6882" width="1.30866" height="1.30866" transform="rotate(-90 5.80615 14.6882)" fill="#2C6897"/>
<rect x="5.80615" y="13.3796" width="1.30866" height="1.30866" transform="rotate(-90 5.80615 13.3796)" fill="#224B7A"/>
<rect x="5.80615" y="12.0708" width="1.30866" height="1.30866" transform="rotate(-90 5.80615 12.0708)" fill="#0F2135"/>
<rect x="5.80615" y="10.7622" width="1.30866" height="1.30866" transform="rotate(-90 5.80615 10.7622)" fill="#224B7A"/>
<rect x="5.80615" y="9.45361" width="1.30866" height="1.30866" transform="rotate(-90 5.80615 9.45361)" fill="#1C3D63"/>
<rect x="7.11523" y="25.1575" width="1.30866" height="1.30866" transform="rotate(-90 7.11523 25.1575)" fill="black"/>
<rect x="7.11523" y="23.8489" width="1.30866" height="1.30866" transform="rotate(-90 7.11523 23.8489)" fill="#224B7A"/>
<rect x="7.11523" y="22.54" width="1.30866" height="1.30866" transform="rotate(-90 7.11523 22.54)" fill="#224B7A"/>
<rect x="7.11523" y="21.2314" width="1.30866" height="1.30866" transform="rotate(-90 7.11523 21.2314)" fill="#224B7A"/>
<rect x="7.11523" y="19.9229" width="1.30866" height="1.30866" transform="rotate(-90 7.11523 19.9229)" fill="#224B7A"/>
<rect x="7.11523" y="18.6143" width="1.30866" height="1.30866" transform="rotate(-90 7.11523 18.6143)" fill="#2B6695"/>
<rect x="7.11523" y="17.3054" width="1.30866" height="1.30866" transform="rotate(-90 7.11523 17.3054)" fill="#2C6897"/>
<rect x="7.11523" y="15.9968" width="1.30866" height="1.30866" transform="rotate(-90 7.11523 15.9968)" fill="#2C6897"/>
<rect x="7.11523" y="14.6882" width="1.30866" height="1.30866" transform="rotate(-90 7.11523 14.6882)" fill="#2C6897"/>
<rect x="7.11523" y="13.3796" width="1.30866" height="1.30866" transform="rotate(-90 7.11523 13.3796)" fill="#2C6897"/>
<rect x="7.11523" y="12.0708" width="1.30866" height="1.30866" transform="rotate(-90 7.11523 12.0708)" fill="#275A89"/>
<rect x="7.11523" y="10.7622" width="1.30866" height="1.30866" transform="rotate(-90 7.11523 10.7622)" fill="#224B7A"/>
<rect x="7.11523" y="9.45361" width="1.30866" height="1.30866" transform="rotate(-90 7.11523 9.45361)" fill="#224B7A"/>
<rect x="7.11523" y="8.14502" width="1.30866" height="1.30866" transform="rotate(-90 7.11523 8.14502)" fill="black"/>
<rect x="8.42383" y="27.7747" width="1.30866" height="1.30866" transform="rotate(-90 8.42383 27.7747)" fill="black"/>
<rect x="8.42383" y="26.4661" width="1.30866" height="1.30866" transform="rotate(-90 8.42383 26.4661)" fill="#224B7A"/>
<rect x="8.42383" y="25.1575" width="1.30866" height="1.30866" transform="rotate(-90 8.42383 25.1575)" fill="#224B7A"/>
<rect x="8.42383" y="23.8489" width="1.30866" height="1.30866" transform="rotate(-90 8.42383 23.8489)" fill="#224B7A"/>
<rect x="8.42383" y="22.54" width="1.30866" height="1.30866" transform="rotate(-90 8.42383 22.54)" fill="#224B7A"/>
<rect x="8.42383" y="21.2314" width="1.30866" height="1.30866" transform="rotate(-90 8.42383 21.2314)" fill="#2C6897"/>
<rect x="8.42383" y="19.9229" width="1.30866" height="1.30866" transform="rotate(-90 8.42383 19.9229)" fill="#2C6897"/>
<rect x="8.42383" y="18.6143" width="1.30866" height="1.30866" transform="rotate(-90 8.42383 18.6143)" fill="#2C6897"/>
<rect x="8.42383" y="17.3054" width="1.30866" height="1.30866" transform="rotate(-90 8.42383 17.3054)" fill="#2C6897"/>
<rect x="8.42383" y="15.9968" width="1.30866" height="1.30866" transform="rotate(-90 8.42383 15.9968)" fill="#2C6897"/>
<rect x="8.42383" y="14.6882" width="1.30866" height="1.30866" transform="rotate(-90 8.42383 14.6882)" fill="#2C6897"/>
<rect x="8.42383" y="13.3796" width="1.30866" height="1.30866" transform="rotate(-90 8.42383 13.3796)" fill="#2C6897"/>
<rect x="8.42383" y="12.0708" width="1.30866" height="1.30866" transform="rotate(-90 8.42383 12.0708)" fill="#2C6897"/>
<rect x="8.42383" y="10.7622" width="1.30866" height="1.30866" transform="rotate(-90 8.42383 10.7622)" fill="#224B7A"/>
<rect x="8.42383" y="9.45361" width="1.30866" height="1.30866" transform="rotate(-90 8.42383 9.45361)" fill="#224B7A"/>
<rect x="8.42383" y="8.14502" width="1.30866" height="1.30866" transform="rotate(-90 8.42383 8.14502)" fill="black"/>
<rect x="9.73242" y="29.0835" width="1.30866" height="1.30866" transform="rotate(-90 9.73242 29.0835)" fill="black"/>
<rect x="9.73242" y="27.7747" width="1.30866" height="1.30866" transform="rotate(-90 9.73242 27.7747)" fill="#224B7A"/>
<rect x="9.73242" y="26.4661" width="1.30866" height="1.30866" transform="rotate(-90 9.73242 26.4661)" fill="#224B7A"/>
<rect x="9.73242" y="25.1575" width="1.30866" height="1.30866" transform="rotate(-90 9.73242 25.1575)" fill="#224B7A"/>
<rect x="9.73242" y="23.8489" width="1.30866" height="1.30866" transform="rotate(-90 9.73242 23.8489)" fill="#2C6897"/>
<rect x="9.73242" y="22.54" width="1.30866" height="1.30866" transform="rotate(-90 9.73242 22.54)" fill="#2C6897"/>
<rect x="9.73242" y="21.2314" width="1.30866" height="1.30866" transform="rotate(-90 9.73242 21.2314)" fill="#2C6897"/>
<rect x="9.73242" y="19.9229" width="1.30866" height="1.30866" transform="rotate(-90 9.73242 19.9229)" fill="#2C6897"/>
<rect x="9.73242" y="18.6143" width="1.30866" height="1.30866" transform="rotate(-90 9.73242 18.6143)" fill="#2C6897"/>
<rect x="9.73242" y="17.3054" width="1.30866" height="1.30866" transform="rotate(-90 9.73242 17.3054)" fill="#2C6897"/>
<rect x="9.73242" y="15.9968" width="1.30866" height="1.30866" transform="rotate(-90 9.73242 15.9968)" fill="#2C6897"/>
<rect x="9.73242" y="14.6882" width="1.30866" height="1.30866" transform="rotate(-90 9.73242 14.6882)" fill="#2C6897"/>
<rect x="9.73242" y="13.3796" width="1.30866" height="1.30866" transform="rotate(-90 9.73242 13.3796)" fill="#2C6897"/>
<rect x="9.73242" y="12.0708" width="1.30866" height="1.30866" transform="rotate(-90 9.73242 12.0708)" fill="#2C6897"/>
<rect x="9.73242" y="10.7622" width="1.30866" height="1.30866" transform="rotate(-90 9.73242 10.7622)" fill="#224B7A"/>
<rect x="9.73242" y="9.45361" width="1.30866" height="1.30866" transform="rotate(-90 9.73242 9.45361)" fill="#224B7A"/>
<rect x="9.73242" y="8.14502" width="1.30866" height="1.30866" transform="rotate(-90 9.73242 8.14502)" fill="#224B7A"/>
<rect x="11.041" y="30.3921" width="1.30866" height="1.30866" transform="rotate(-90 11.041 30.3921)" fill="black"/>
<rect x="11.041" y="29.0835" width="1.30866" height="1.30866" transform="rotate(-90 11.041 29.0835)" fill="#224B7A"/>
<rect x="11.041" y="27.7747" width="1.30866" height="1.30866" transform="rotate(-90 11.041 27.7747)" fill="#224B7A"/>
<rect x="11.041" y="26.4661" width="1.30866" height="1.30866" transform="rotate(-90 11.041 26.4661)" fill="#265483"/>
<rect x="11.041" y="25.1575" width="1.30866" height="1.30866" transform="rotate(-90 11.041 25.1575)" fill="#2C6897"/>
<rect x="11.041" y="23.8489" width="1.30866" height="1.30866" transform="rotate(-90 11.041 23.8489)" fill="#2C6897"/>
<rect x="11.041" y="22.54" width="1.30866" height="1.30866" transform="rotate(-90 11.041 22.54)" fill="#2C6897"/>
<rect x="11.041" y="21.2314" width="1.30866" height="1.30866" transform="rotate(-90 11.041 21.2314)" fill="#2C6897"/>
<rect x="11.041" y="19.9229" width="1.30866" height="1.30866" transform="rotate(-90 11.041 19.9229)" fill="#2C6897"/>
<rect x="11.041" y="18.6143" width="1.30866" height="1.30866" transform="rotate(-90 11.041 18.6143)" fill="#2C6897"/>
<rect x="11.041" y="17.3054" width="1.30866" height="1.30866" transform="rotate(-90 11.041 17.3054)" fill="#2C6897"/>
<rect x="11.041" y="15.9968" width="1.30866" height="1.30866" transform="rotate(-90 11.041 15.9968)" fill="#2C6897"/>
<rect x="11.041" y="14.6882" width="1.30866" height="1.30866" transform="rotate(-90 11.041 14.6882)" fill="#2C6897"/>
<rect x="11.041" y="13.3796" width="1.30866" height="1.30866" transform="rotate(-90 11.041 13.3796)" fill="#2C6897"/>
<rect x="11.041" y="12.0708" width="1.30866" height="1.30866" transform="rotate(-90 11.041 12.0708)" fill="#2C6897"/>
<rect x="11.041" y="10.7622" width="1.30866" height="1.30866" transform="rotate(-90 11.041 10.7622)" fill="#224B7A"/>
<rect x="11.041" y="9.45361" width="1.30866" height="1.30866" transform="rotate(-90 11.041 9.45361)" fill="#224B7A"/>
<rect x="11.041" y="8.14502" width="1.30866" height="1.30866" transform="rotate(-90 11.041 8.14502)" fill="#224B7A"/>
<rect x="11.041" y="6.83618" width="1.30866" height="1.30866" transform="rotate(-90 11.041 6.83618)" fill="black"/>
<rect x="12.3496" y="30.3921" width="1.30866" height="1.30866" transform="rotate(-90 12.3496 30.3921)" fill="#152F4D"/>
<rect x="12.3496" y="29.0835" width="1.30866" height="1.30866" transform="rotate(-90 12.3496 29.0835)" fill="#224B7A"/>
<rect x="12.3496" y="27.7747" width="1.30866" height="1.30866" transform="rotate(-90 12.3496 27.7747)" fill="#2B6695"/>
<rect x="12.3496" y="26.4661" width="1.30866" height="1.30866" transform="rotate(-90 12.3496 26.4661)" fill="#2C6897"/>
<rect x="12.3496" y="25.1575" width="1.30866" height="1.30866" transform="rotate(-90 12.3496 25.1575)" fill="#2C6897"/>
<rect x="12.3496" y="23.8489" width="1.30866" height="1.30866" transform="rotate(-90 12.3496 23.8489)" fill="#2C6897"/>
<rect x="12.3496" y="22.54" width="1.30866" height="1.30866" transform="rotate(-90 12.3496 22.54)" fill="#2C6897"/>
<rect x="12.3496" y="21.2314" width="1.30866" height="1.30866" transform="rotate(-90 12.3496 21.2314)" fill="#2C6897"/>
<rect x="12.3496" y="19.9229" width="1.30866" height="1.30866" transform="rotate(-90 12.3496 19.9229)" fill="#2C6897"/>
<rect x="12.3496" y="18.6143" width="1.30866" height="1.30866" transform="rotate(-90 12.3496 18.6143)" fill="#2C6897"/>
<rect x="12.3496" y="17.3054" width="1.30866" height="1.30866" transform="rotate(-90 12.3496 17.3054)" fill="#2C6897"/>
<rect x="12.3496" y="15.9968" width="1.30866" height="1.30866" transform="rotate(-90 12.3496 15.9968)" fill="#2C6897"/>
<rect x="12.3496" y="14.6882" width="1.30866" height="1.30866" transform="rotate(-90 12.3496 14.6882)" fill="#2C6897"/>
<rect x="12.3496" y="13.3796" width="1.30866" height="1.30866" transform="rotate(-90 12.3496 13.3796)" fill="#2C6897"/>
<rect x="12.3496" y="12.0708" width="1.30866" height="1.30866" transform="rotate(-90 12.3496 12.0708)" fill="#2C6897"/>
<rect x="12.3496" y="10.7622" width="1.30866" height="1.30866" transform="rotate(-90 12.3496 10.7622)" fill="#224B7A"/>
<rect x="12.3496" y="9.45361" width="1.30866" height="1.30866" transform="rotate(-90 12.3496 9.45361)" fill="#224B7A"/>
<rect x="12.3496" y="8.14502" width="1.30866" height="1.30866" transform="rotate(-90 12.3496 8.14502)" fill="#224B7A"/>
<rect x="12.3496" y="6.83618" width="1.30866" height="1.30866" transform="rotate(-90 12.3496 6.83618)" fill="#1A385C"/>
<rect x="13.6582" y="31.7007" width="1.30866" height="1.30866" transform="rotate(-90 13.6582 31.7007)" fill="black"/>
<rect x="13.6582" y="30.3921" width="1.30866" height="1.30866" transform="rotate(-90 13.6582 30.3921)" fill="#224B7A"/>
<rect x="13.6582" y="29.0835" width="1.30866" height="1.30866" transform="rotate(-90 13.6582 29.0835)" fill="#2B6493"/>
<rect x="13.6582" y="27.7747" width="1.30866" height="1.30866" transform="rotate(-90 13.6582 27.7747)" fill="#2C6897"/>
<rect x="13.6582" y="26.4661" width="1.30866" height="1.30866" transform="rotate(-90 13.6582 26.4661)" fill="#2C6897"/>
<rect x="13.6582" y="25.1575" width="1.30866" height="1.30866" transform="rotate(-90 13.6582 25.1575)" fill="#2C6897"/>
<rect x="13.6582" y="23.8489" width="1.30866" height="1.30866" transform="rotate(-90 13.6582 23.8489)" fill="#2C6897"/>
<rect x="13.6582" y="22.54" width="1.30866" height="1.30866" transform="rotate(-90 13.6582 22.54)" fill="#2C6897"/>
<rect x="13.6582" y="21.2314" width="1.30866" height="1.30866" transform="rotate(-90 13.6582 21.2314)" fill="#2C6897"/>
<rect x="13.6582" y="19.9229" width="1.30866" height="1.30866" transform="rotate(-90 13.6582 19.9229)" fill="#2C6897"/>
<rect x="13.6582" y="18.6143" width="1.30866" height="1.30866" transform="rotate(-90 13.6582 18.6143)" fill="#2C6897"/>
<rect x="13.6582" y="17.3054" width="1.30866" height="1.30866" transform="rotate(-90 13.6582 17.3054)" fill="#2C6897"/>
<rect x="13.6582" y="15.9968" width="1.30866" height="1.30866" transform="rotate(-90 13.6582 15.9968)" fill="#2C6897"/>
<rect x="13.6582" y="14.6882" width="1.30866" height="1.30866" transform="rotate(-90 13.6582 14.6882)" fill="#2C6897"/>
<rect x="13.6582" y="13.3796" width="1.30866" height="1.30866" transform="rotate(-90 13.6582 13.3796)" fill="#2C6897"/>
<rect x="13.6582" y="12.0708" width="1.30866" height="1.30866" transform="rotate(-90 13.6582 12.0708)" fill="#2C6897"/>
<rect x="13.6582" y="10.7622" width="1.30866" height="1.30866" transform="rotate(-90 13.6582 10.7622)" fill="#224B7A"/>
<rect x="13.6582" y="9.45361" width="1.30866" height="1.30866" transform="rotate(-90 13.6582 9.45361)" fill="#224B7A"/>
<rect x="13.6582" y="8.14502" width="1.30866" height="1.30866" transform="rotate(-90 13.6582 8.14502)" fill="#224B7A"/>
<rect x="13.6582" y="6.83618" width="1.30866" height="1.30866" transform="rotate(-90 13.6582 6.83618)" fill="#224B7A"/>
<rect x="13.6582" y="5.52759" width="1.30866" height="1.30866" transform="rotate(-90 13.6582 5.52759)" fill="black"/>
<rect x="14.9668" y="31.7007" width="1.30866" height="1.30866" transform="rotate(-90 14.9668 31.7007)" fill="#020508"/>
<rect x="14.9668" y="30.3921" width="1.30866" height="1.30866" transform="rotate(-90 14.9668 30.3921)" fill="#224B7A"/>
<rect x="14.9668" y="29.0835" width="1.30866" height="1.30866" transform="rotate(-90 14.9668 29.0835)" fill="#2C6897"/>
<rect x="14.9668" y="27.7747" width="1.30866" height="1.30866" transform="rotate(-90 14.9668 27.7747)" fill="#2C6897"/>
<rect x="14.9668" y="26.4661" width="1.30866" height="1.30866" transform="rotate(-90 14.9668 26.4661)" fill="#0E212F"/>
<rect x="14.9668" y="25.1575" width="1.30866" height="1.30866" transform="rotate(-90 14.9668 25.1575)" fill="#050D13"/>
<rect x="14.9668" y="23.8489" width="1.30866" height="1.30866" transform="rotate(-90 14.9668 23.8489)" fill="#2A618D"/>
<rect x="14.9668" y="22.54" width="1.30866" height="1.30866" transform="rotate(-90 14.9668 22.54)" fill="#2C6897"/>
<rect x="14.9668" y="21.2314" width="1.30866" height="1.30866" transform="rotate(-90 14.9668 21.2314)" fill="#2C6897"/>
<rect x="14.9668" y="19.9229" width="1.30866" height="1.30866" transform="rotate(-90 14.9668 19.9229)" fill="#2C6897"/>
<rect x="14.9668" y="18.6143" width="1.30866" height="1.30866" transform="rotate(-90 14.9668 18.6143)" fill="#2C6897"/>
<rect x="14.9668" y="17.3054" width="1.30866" height="1.30866" transform="rotate(-90 14.9668 17.3054)" fill="#2C6897"/>
<rect x="14.9668" y="15.9968" width="1.30866" height="1.30866" transform="rotate(-90 14.9668 15.9968)" fill="#2C6897"/>
<rect x="14.9668" y="14.6882" width="1.30866" height="1.30866" transform="rotate(-90 14.9668 14.6882)" fill="#2C6897"/>
<rect x="14.9668" y="13.3796" width="1.30866" height="1.30866" transform="rotate(-90 14.9668 13.3796)" fill="#2C6897"/>
<rect x="14.9668" y="12.0708" width="1.30866" height="1.30866" transform="rotate(-90 14.9668 12.0708)" fill="#2C6897"/>
<rect x="14.9668" y="10.7622" width="1.30866" height="1.30866" transform="rotate(-90 14.9668 10.7622)" fill="#224B7A"/>
<rect x="14.9668" y="9.45361" width="1.30866" height="1.30866" transform="rotate(-90 14.9668 9.45361)" fill="#224B7A"/>
<rect x="14.9668" y="8.14502" width="1.30866" height="1.30866" transform="rotate(-90 14.9668 8.14502)" fill="#224B7A"/>
<rect x="14.9668" y="6.83618" width="1.30866" height="1.30866" transform="rotate(-90 14.9668 6.83618)" fill="#224B7A"/>
<rect x="14.9668" y="5.52759" width="1.30866" height="1.30866" transform="rotate(-90 14.9668 5.52759)" fill="#09131F"/>
<rect x="16.2759" y="31.7007" width="1.30866" height="1.30866" transform="rotate(-90 16.2759 31.7007)" fill="#204773"/>
<rect x="16.2759" y="30.3921" width="1.30866" height="1.30866" transform="rotate(-90 16.2759 30.3921)" fill="#2B6493"/>
<rect x="16.2759" y="29.0835" width="1.30866" height="1.30866" transform="rotate(-90 16.2759 29.0835)" fill="#060D13"/>
<rect x="16.2759" y="27.7747" width="1.30866" height="1.30866" transform="rotate(-90 16.2759 27.7747)" fill="#152C2E"/>
<rect x="16.2759" y="26.4661" width="1.30866" height="1.30866" transform="rotate(-90 16.2759 26.4661)" fill="#53AEB7"/>
<rect x="16.2759" y="25.1575" width="1.30866" height="1.30866" transform="rotate(-90 16.2759 25.1575)" fill="#53AEB7"/>
<rect x="16.2759" y="23.8489" width="1.30866" height="1.30866" transform="rotate(-90 16.2759 23.8489)" fill="#53AEB7"/>
<rect x="16.2759" y="22.54" width="1.30866" height="1.30866" transform="rotate(-90 16.2759 22.54)" fill="black"/>
<rect x="16.2759" y="21.2314" width="1.30866" height="1.30866" transform="rotate(-90 16.2759 21.2314)" fill="#2C6897"/>
<rect x="16.2759" y="19.9229" width="1.30866" height="1.30866" transform="rotate(-90 16.2759 19.9229)" fill="#2C6897"/>
<rect x="16.2759" y="18.6143" width="1.30866" height="1.30866" transform="rotate(-90 16.2759 18.6143)" fill="#2C6897"/>
<rect x="16.2759" y="17.3054" width="1.30866" height="1.30866" transform="rotate(-90 16.2759 17.3054)" fill="#2C6897"/>
<rect x="16.2759" y="15.9968" width="1.30866" height="1.30866" transform="rotate(-90 16.2759 15.9968)" fill="#2C6897"/>
<rect x="16.2759" y="14.6882" width="1.30866" height="1.30866" transform="rotate(-90 16.2759 14.6882)" fill="#2C6897"/>
<rect x="16.2759" y="13.3796" width="1.30866" height="1.30866" transform="rotate(-90 16.2759 13.3796)" fill="#2C6897"/>
<rect x="16.2759" y="12.0708" width="1.30866" height="1.30866" transform="rotate(-90 16.2759 12.0708)" fill="#2C6897"/>
<rect x="16.2759" y="10.7622" width="1.30866" height="1.30866" transform="rotate(-90 16.2759 10.7622)" fill="#224B7A"/>
<rect x="16.2759" y="9.45361" width="1.30866" height="1.30866" transform="rotate(-90 16.2759 9.45361)" fill="#224B7A"/>
<rect x="16.2759" y="8.14502" width="1.30866" height="1.30866" transform="rotate(-90 16.2759 8.14502)" fill="#224B7A"/>
<rect x="16.2759" y="6.83618" width="1.30866" height="1.30866" transform="rotate(-90 16.2759 6.83618)" fill="#224B7A"/>
<rect x="16.2759" y="5.52759" width="1.30866" height="1.30866" transform="rotate(-90 16.2759 5.52759)" fill="#224B7A"/>
<rect x="16.2759" y="4.21899" width="1.30866" height="1.30866" transform="rotate(-90 16.2759 4.21899)" fill="black"/>
<rect x="17.5845" y="31.7007" width="1.30866" height="1.30866" transform="rotate(-90 17.5845 31.7007)" fill="#224B7A"/>
<rect x="17.5845" y="30.3921" width="1.30866" height="1.30866" transform="rotate(-90 17.5845 30.3921)" fill="#2C6897"/>
<rect x="17.5845" y="29.0835" width="1.30866" height="1.30866" transform="rotate(-90 17.5845 29.0835)" fill="black"/>
<rect x="17.5845" y="27.7747" width="1.30866" height="1.30866" transform="rotate(-90 17.5845 27.7747)" fill="black"/>
<rect x="17.5845" y="26.4661" width="1.30866" height="1.30866" transform="rotate(-90 17.5845 26.4661)" fill="black"/>
<rect x="17.5845" y="25.1575" width="1.30866" height="1.30866" transform="rotate(-90 17.5845 25.1575)" fill="#53AEB7"/>
<rect x="17.5845" y="23.8489" width="1.30866" height="1.30866" transform="rotate(-90 17.5845 23.8489)" fill="#53AEB7"/>
<rect x="17.5845" y="22.54" width="1.30866" height="1.30866" transform="rotate(-90 17.5845 22.54)" fill="#53AEB7"/>
<rect x="17.5845" y="21.2314" width="1.30866" height="1.30866" transform="rotate(-90 17.5845 21.2314)" fill="#2C6897"/>
<rect x="17.5845" y="19.9229" width="1.30866" height="1.30866" transform="rotate(-90 17.5845 19.9229)" fill="#2C6897"/>
<rect x="17.5845" y="18.6143" width="1.30866" height="1.30866" transform="rotate(-90 17.5845 18.6143)" fill="#2C6897"/>
<rect x="17.5845" y="17.3054" width="1.30866" height="1.30866" transform="rotate(-90 17.5845 17.3054)" fill="#2C6897"/>
<rect x="17.5845" y="15.9968" width="1.30866" height="1.30866" transform="rotate(-90 17.5845 15.9968)" fill="#2C6897"/>
<rect x="17.5845" y="14.6882" width="1.30866" height="1.30866" transform="rotate(-90 17.5845 14.6882)" fill="#2C6897"/>
<rect x="17.5845" y="13.3796" width="1.30866" height="1.30866" transform="rotate(-90 17.5845 13.3796)" fill="#2C6897"/>
<rect x="17.5845" y="12.0708" width="1.30866" height="1.30866" transform="rotate(-90 17.5845 12.0708)" fill="#2C6897"/>
<rect x="17.5845" y="10.7622" width="1.30866" height="1.30866" transform="rotate(-90 17.5845 10.7622)" fill="#224B7A"/>
<rect x="17.5845" y="9.45361" width="1.30866" height="1.30866" transform="rotate(-90 17.5845 9.45361)" fill="#224B7A"/>
<rect x="17.5845" y="8.14502" width="1.30866" height="1.30866" transform="rotate(-90 17.5845 8.14502)" fill="#224B7A"/>
<rect x="17.5845" y="6.83618" width="1.30866" height="1.30866" transform="rotate(-90 17.5845 6.83618)" fill="#224B7A"/>
<rect x="17.5845" y="5.52759" width="1.30866" height="1.30866" transform="rotate(-90 17.5845 5.52759)" fill="#224B7A"/>
<rect x="17.5845" y="4.21899" width="1.30866" height="1.30866" transform="rotate(-90 17.5845 4.21899)" fill="black"/>
<rect x="18.8931" y="31.7007" width="1.30866" height="1.30866" transform="rotate(-90 18.8931 31.7007)" fill="#224B7A"/>
<rect x="18.8931" y="30.3921" width="1.30866" height="1.30866" transform="rotate(-90 18.8931 30.3921)" fill="#060D13"/>
<rect x="18.8931" y="29.0835" width="1.30866" height="1.30866" transform="rotate(-90 18.8931 29.0835)" fill="white"/>
<rect x="18.8931" y="27.7747" width="1.30866" height="1.30866" transform="rotate(-90 18.8931 27.7747)" fill="black"/>
<rect x="18.8931" y="26.4661" width="1.30866" height="1.30866" transform="rotate(-90 18.8931 26.4661)" fill="black"/>
<rect x="18.8931" y="25.1575" width="1.30866" height="1.30866" transform="rotate(-90 18.8931 25.1575)" fill="#53AEB7"/>
<rect x="18.8931" y="23.8489" width="1.30866" height="1.30866" transform="rotate(-90 18.8931 23.8489)" fill="#53AEB7"/>
<rect x="18.8931" y="22.54" width="1.30866" height="1.30866" transform="rotate(-90 18.8931 22.54)" fill="#346D72"/>
<rect x="18.8931" y="21.2314" width="1.30866" height="1.30866" transform="rotate(-90 18.8931 21.2314)" fill="#2C6897"/>
<rect x="18.8931" y="19.9229" width="1.30866" height="1.30866" transform="rotate(-90 18.8931 19.9229)" fill="#2C6897"/>
<rect x="18.8931" y="18.6143" width="1.30866" height="1.30866" transform="rotate(-90 18.8931 18.6143)" fill="#2C6897"/>
<rect x="18.8931" y="17.3054" width="1.30866" height="1.30866" transform="rotate(-90 18.8931 17.3054)" fill="#2C6897"/>
<rect x="18.8931" y="15.9968" width="1.30866" height="1.30866" transform="rotate(-90 18.8931 15.9968)" fill="#2C6897"/>
<rect x="18.8931" y="14.6882" width="1.30866" height="1.30866" transform="rotate(-90 18.8931 14.6882)" fill="#2C6897"/>
<rect x="18.8931" y="13.3796" width="1.30866" height="1.30866" transform="rotate(-90 18.8931 13.3796)" fill="#2C6897"/>
<rect x="18.8931" y="12.0708" width="1.30866" height="1.30866" transform="rotate(-90 18.8931 12.0708)" fill="#2C6897"/>
<rect x="18.8931" y="10.7622" width="1.30866" height="1.30866" transform="rotate(-90 18.8931 10.7622)" fill="#224B7A"/>
<rect x="18.8931" y="9.45361" width="1.30866" height="1.30866" transform="rotate(-90 18.8931 9.45361)" fill="#224B7A"/>
<rect x="18.8931" y="8.14502" width="1.30866" height="1.30866" transform="rotate(-90 18.8931 8.14502)" fill="#224B7A"/>
<rect x="18.8931" y="6.83618" width="1.30866" height="1.30866" transform="rotate(-90 18.8931 6.83618)" fill="#224B7A"/>
<rect x="18.8931" y="5.52759" width="1.30866" height="1.30866" transform="rotate(-90 18.8931 5.52759)" fill="#224B7A"/>
<rect x="18.8931" y="4.21899" width="1.30866" height="1.30866" transform="rotate(-90 18.8931 4.21899)" fill="#224B7A"/>
<rect x="18.8931" y="2.9104" width="1.30866" height="1.30866" transform="rotate(-90 18.8931 2.9104)" fill="black"/>
<rect x="20.2017" y="33.0093" width="1.30866" height="1.30866" transform="rotate(-90 20.2017 33.0093)" fill="black"/>
<rect x="20.2017" y="31.7007" width="1.30866" height="1.30866" transform="rotate(-90 20.2017 31.7007)" fill="#2B6795"/>
<rect x="20.2017" y="30.3921" width="1.30866" height="1.30866" transform="rotate(-90 20.2017 30.3921)" fill="black"/>
<rect x="20.2017" y="29.0835" width="1.30866" height="1.30866" transform="rotate(-90 20.2017 29.0835)" fill="black"/>
<rect x="20.2017" y="27.7747" width="1.30866" height="1.30866" transform="rotate(-90 20.2017 27.7747)" fill="black"/>
<rect x="20.2017" y="26.4661" width="1.30866" height="1.30866" transform="rotate(-90 20.2017 26.4661)" fill="#4998A0"/>
<rect x="20.2017" y="25.1575" width="1.30866" height="1.30866" transform="rotate(-90 20.2017 25.1575)" fill="#53AEB7"/>
<rect x="20.2017" y="23.8489" width="1.30866" height="1.30866" transform="rotate(-90 20.2017 23.8489)" fill="#53AEB7"/>
<rect x="20.2017" y="22.54" width="1.30866" height="1.30866" transform="rotate(-90 20.2017 22.54)" fill="black"/>
<rect x="20.2017" y="21.2314" width="1.30866" height="1.30866" transform="rotate(-90 20.2017 21.2314)" fill="#2C6897"/>
<rect x="20.2017" y="19.9229" width="1.30866" height="1.30866" transform="rotate(-90 20.2017 19.9229)" fill="#2C6897"/>
<rect x="20.2017" y="18.6143" width="1.30866" height="1.30866" transform="rotate(-90 20.2017 18.6143)" fill="#2C6897"/>
<rect x="20.2017" y="17.3054" width="1.30866" height="1.30866" transform="rotate(-90 20.2017 17.3054)" fill="#2C6897"/>
<rect x="20.2017" y="15.9968" width="1.30866" height="1.30866" transform="rotate(-90 20.2017 15.9968)" fill="#2C6897"/>
<rect x="20.2017" y="14.6882" width="1.30866" height="1.30866" transform="rotate(-90 20.2017 14.6882)" fill="#2C6897"/>
<rect x="20.2017" y="13.3796" width="1.30866" height="1.30866" transform="rotate(-90 20.2017 13.3796)" fill="#2C6897"/>
<rect x="20.2017" y="12.0708" width="1.30866" height="1.30866" transform="rotate(-90 20.2017 12.0708)" fill="#2C6897"/>
<rect x="20.2017" y="10.7622" width="1.30866" height="1.30866" transform="rotate(-90 20.2017 10.7622)" fill="#224B7A"/>
<rect x="20.2017" y="9.45361" width="1.30866" height="1.30866" transform="rotate(-90 20.2017 9.45361)" fill="#224B7A"/>
<rect x="20.2017" y="8.14502" width="1.30866" height="1.30866" transform="rotate(-90 20.2017 8.14502)" fill="#224B7A"/>
<rect x="20.2017" y="6.83618" width="1.30866" height="1.30866" transform="rotate(-90 20.2017 6.83618)" fill="#224B7A"/>
<rect x="20.2017" y="5.52759" width="1.30866" height="1.30866" transform="rotate(-90 20.2017 5.52759)" fill="#224B7A"/>
<rect x="20.2017" y="4.21899" width="1.30866" height="1.30866" transform="rotate(-90 20.2017 4.21899)" fill="#224B7A"/>
<rect x="20.2017" y="2.9104" width="1.30866" height="1.30866" transform="rotate(-90 20.2017 2.9104)" fill="#0B1726"/>
<rect x="21.5103" y="33.0093" width="1.30866" height="1.30866" transform="rotate(-90 21.5103 33.0093)" fill="black"/>
<rect x="21.5103" y="31.7007" width="1.30866" height="1.30866" transform="rotate(-90 21.5103 31.7007)" fill="#2C6897"/>
<rect x="21.5103" y="30.3921" width="1.30866" height="1.30866" transform="rotate(-90 21.5103 30.3921)" fill="black"/>
<rect x="21.5103" y="29.0835" width="1.30866" height="1.30866" transform="rotate(-90 21.5103 29.0835)" fill="#3A787E"/>
<rect x="21.5103" y="27.7747" width="1.30866" height="1.30866" transform="rotate(-90 21.5103 27.7747)" fill="#53AEB7"/>
<rect x="21.5103" y="26.4661" width="1.30866" height="1.30866" transform="rotate(-90 21.5103 26.4661)" fill="#53AEB7"/>
<rect x="21.5103" y="25.1575" width="1.30866" height="1.30866" transform="rotate(-90 21.5103 25.1575)" fill="#53AEB7"/>
<rect x="21.5103" y="23.8489" width="1.30866" height="1.30866" transform="rotate(-90 21.5103 23.8489)" fill="black"/>
<rect x="21.5103" y="22.54" width="1.30866" height="1.30866" transform="rotate(-90 21.5103 22.54)" fill="#2C6897"/>
<rect x="21.5103" y="21.2314" width="1.30866" height="1.30866" transform="rotate(-90 21.5103 21.2314)" fill="#2C6897"/>
<rect x="21.5103" y="19.9229" width="1.30866" height="1.30866" transform="rotate(-90 21.5103 19.9229)" fill="#2C6897"/>
<rect x="21.5103" y="18.6143" width="1.30866" height="1.30866" transform="rotate(-90 21.5103 18.6143)" fill="#2C6897"/>
<rect x="21.5103" y="17.3054" width="1.30866" height="1.30866" transform="rotate(-90 21.5103 17.3054)" fill="#2C6897"/>
<rect x="21.5103" y="15.9968" width="1.30866" height="1.30866" transform="rotate(-90 21.5103 15.9968)" fill="#2C6897"/>
<rect x="21.5103" y="14.6882" width="1.30866" height="1.30866" transform="rotate(-90 21.5103 14.6882)" fill="#2C6897"/>
<rect x="21.5103" y="13.3796" width="1.30866" height="1.30866" transform="rotate(-90 21.5103 13.3796)" fill="#2C6897"/>
<rect x="21.5103" y="12.0708" width="1.30866" height="1.30866" transform="rotate(-90 21.5103 12.0708)" fill="#2C6897"/>
<rect x="21.5103" y="10.7622" width="1.30866" height="1.30866" transform="rotate(-90 21.5103 10.7622)" fill="#224B7A"/>
<rect x="21.5103" y="9.45361" width="1.30866" height="1.30866" transform="rotate(-90 21.5103 9.45361)" fill="#1E426B"/>
<rect x="21.5103" y="8.14502" width="1.30866" height="1.30866" transform="rotate(-90 21.5103 8.14502)" fill="#1E426B"/>
<rect x="21.5103" y="6.83618" width="1.30866" height="1.30866" transform="rotate(-90 21.5103 6.83618)" fill="#224B7A"/>
<rect x="21.5103" y="5.52759" width="1.30866" height="1.30866" transform="rotate(-90 21.5103 5.52759)" fill="#224B7A"/>
<rect x="21.5103" y="4.21899" width="1.30866" height="1.30866" transform="rotate(-90 21.5103 4.21899)" fill="#224B7A"/>
<rect x="21.5103" y="2.9104" width="1.30866" height="1.30866" transform="rotate(-90 21.5103 2.9104)" fill="#224B7A"/>
<rect x="21.5103" y="1.60156" width="1.30866" height="1.30866" transform="rotate(-90 21.5103 1.60156)" fill="black"/>
<rect x="22.8188" y="34.3181" width="1.30866" height="1.30866" transform="rotate(-90 22.8188 34.3181)" fill="black"/>
<rect x="22.8188" y="33.0093" width="1.30866" height="1.30866" transform="rotate(-90 22.8188 33.0093)" fill="#224B7A"/>
<rect x="22.8188" y="31.7007" width="1.30866" height="1.30866" transform="rotate(-90 22.8188 31.7007)" fill="#224B7A"/>
<rect x="22.8188" y="30.3921" width="1.30866" height="1.30866" transform="rotate(-90 22.8188 30.3921)" fill="#224B7A"/>
<rect x="22.8188" y="29.0835" width="1.30866" height="1.30866" transform="rotate(-90 22.8188 29.0835)" fill="#2C6897"/>
<rect x="22.8188" y="27.7747" width="1.30866" height="1.30866" transform="rotate(-90 22.8188 27.7747)" fill="#2C6897"/>
<rect x="22.8188" y="26.4661" width="1.30866" height="1.30866" transform="rotate(-90 22.8188 26.4661)" fill="#275B84"/>
<rect x="22.8188" y="25.1575" width="1.30866" height="1.30866" transform="rotate(-90 22.8188 25.1575)" fill="#2C6897"/>
<rect x="22.8188" y="23.8489" width="1.30866" height="1.30866" transform="rotate(-90 22.8188 23.8489)" fill="#2C6897"/>
<rect x="22.8188" y="22.54" width="1.30866" height="1.30866" transform="rotate(-90 22.8188 22.54)" fill="#2C6897"/>
<rect x="22.8188" y="21.2314" width="1.30866" height="1.30866" transform="rotate(-90 22.8188 21.2314)" fill="#2C6897"/>
<rect x="22.8188" y="19.9229" width="1.30866" height="1.30866" transform="rotate(-90 22.8188 19.9229)" fill="#2C6897"/>
<rect x="22.8188" y="18.6143" width="1.30866" height="1.30866" transform="rotate(-90 22.8188 18.6143)" fill="#2C6897"/>
<rect x="22.8188" y="17.3054" width="1.30866" height="1.30866" transform="rotate(-90 22.8188 17.3054)" fill="#0E212F"/>
<rect x="22.8188" y="15.9968" width="1.30866" height="1.30866" transform="rotate(-90 22.8188 15.9968)" fill="black"/>
<rect x="22.8188" y="14.6882" width="1.30866" height="1.30866" transform="rotate(-90 22.8188 14.6882)" fill="#112739"/>
<rect x="22.8188" y="13.3796" width="1.30866" height="1.30866" transform="rotate(-90 22.8188 13.3796)" fill="#275B84"/>
<rect x="22.8188" y="12.0708" width="1.30866" height="1.30866" transform="rotate(-90 22.8188 12.0708)" fill="#2C6897"/>
<rect x="22.8188" y="10.7622" width="1.30866" height="1.30866" transform="rotate(-90 22.8188 10.7622)" fill="#224B7A"/>
<rect x="22.8188" y="9.45361" width="1.30866" height="1.30866" transform="rotate(-90 22.8188 9.45361)" fill="#224B7A"/>
<rect x="22.8188" y="8.14502" width="1.30866" height="1.30866" transform="rotate(-90 22.8188 8.14502)" fill="#224B7A"/>
<rect x="22.8188" y="6.83618" width="1.30866" height="1.30866" transform="rotate(-90 22.8188 6.83618)" fill="#224B7A"/>
<rect x="22.8188" y="5.52759" width="1.30866" height="1.30866" transform="rotate(-90 22.8188 5.52759)" fill="#224B7A"/>
<rect x="22.8188" y="4.21899" width="1.30866" height="1.30866" transform="rotate(-90 22.8188 4.21899)" fill="#224B7A"/>
<rect x="22.8188" y="2.9104" width="1.30866" height="1.30866" transform="rotate(-90 22.8188 2.9104)" fill="#224B7A"/>
<rect x="22.8188" y="1.60156" width="1.30866" height="1.30866" transform="rotate(-90 22.8188 1.60156)" fill="black"/>
<rect x="24.1274" y="35.6267" width="1.30866" height="1.30866" transform="rotate(-90 24.1274 35.6267)" fill="black"/>
<rect x="24.1274" y="34.3181" width="1.30866" height="1.30866" transform="rotate(-90 24.1274 34.3181)" fill="black"/>
<rect x="24.1274" y="33.0093" width="1.30866" height="1.30866" transform="rotate(-90 24.1274 33.0093)" fill="black"/>
<rect x="24.1274" y="31.7007" width="1.30866" height="1.30866" transform="rotate(-90 24.1274 31.7007)" fill="#224B7A"/>
<rect x="24.1274" y="30.3921" width="1.30866" height="1.30866" transform="rotate(-90 24.1274 30.3921)" fill="#224B7A"/>
<rect x="24.1274" y="29.0835" width="1.30866" height="1.30866" transform="rotate(-90 24.1274 29.0835)" fill="#224B7A"/>
<rect x="24.1274" y="27.7747" width="1.30866" height="1.30866" transform="rotate(-90 24.1274 27.7747)" fill="#224B7A"/>
<rect x="24.1274" y="26.4661" width="1.30866" height="1.30866" transform="rotate(-90 24.1274 26.4661)" fill="#265685"/>
<rect x="24.1274" y="25.1575" width="1.30866" height="1.30866" transform="rotate(-90 24.1274 25.1575)" fill="#2C6897"/>
<rect x="24.1274" y="23.8489" width="1.30866" height="1.30866" transform="rotate(-90 24.1274 23.8489)" fill="#2C6897"/>
<rect x="24.1274" y="22.54" width="1.30866" height="1.30866" transform="rotate(-90 24.1274 22.54)" fill="#2C6897"/>
<rect x="24.1274" y="21.2314" width="1.30866" height="1.30866" transform="rotate(-90 24.1274 21.2314)" fill="#132E42"/>
<rect x="24.1274" y="19.9229" width="1.30866" height="1.30866" transform="rotate(-90 24.1274 19.9229)" fill="#193B55"/>
<rect x="24.1274" y="18.6143" width="1.30866" height="1.30866" transform="rotate(-90 24.1274 18.6143)" fill="#2C6897"/>
<rect x="24.1274" y="17.3054" width="1.30866" height="1.30866" transform="rotate(-90 24.1274 17.3054)" fill="#2C6897"/>
<rect x="24.1274" y="15.9968" width="1.30866" height="1.30866" transform="rotate(-90 24.1274 15.9968)" fill="#2C6897"/>
<rect x="24.1274" y="14.6882" width="1.30866" height="1.30866" transform="rotate(-90 24.1274 14.6882)" fill="#2C6897"/>
<rect x="24.1274" y="13.3796" width="1.30866" height="1.30866" transform="rotate(-90 24.1274 13.3796)" fill="#2C6897"/>
<rect x="24.1274" y="12.0708" width="1.30866" height="1.30866" transform="rotate(-90 24.1274 12.0708)" fill="#2C6897"/>
<rect x="24.1274" y="10.7622" width="1.30866" height="1.30866" transform="rotate(-90 24.1274 10.7622)" fill="#224B7A"/>
<rect x="24.1274" y="9.45361" width="1.30866" height="1.30866" transform="rotate(-90 24.1274 9.45361)" fill="#224B7A"/>
<rect x="24.1274" y="8.14502" width="1.30866" height="1.30866" transform="rotate(-90 24.1274 8.14502)" fill="#224B7A"/>
<rect x="24.1274" y="6.83618" width="1.30866" height="1.30866" transform="rotate(-90 24.1274 6.83618)" fill="#224B7A"/>
<rect x="24.1274" y="5.52759" width="1.30866" height="1.30866" transform="rotate(-90 24.1274 5.52759)" fill="#224B7A"/>
<rect x="24.1274" y="4.21899" width="1.30866" height="1.30866" transform="rotate(-90 24.1274 4.21899)" fill="#224B7A"/>
<rect x="24.1274" y="2.9104" width="1.30866" height="1.30866" transform="rotate(-90 24.1274 2.9104)" fill="#05090F"/>
<rect x="25.436" y="34.3181" width="1.30866" height="1.30866" transform="rotate(-90 25.436 34.3181)" fill="black"/>
<rect x="25.436" y="33.0093" width="1.30866" height="1.30866" transform="rotate(-90 25.436 33.0093)" fill="#224B7A"/>
<rect x="25.436" y="31.7007" width="1.30866" height="1.30866" transform="rotate(-90 25.436 31.7007)" fill="#224B7A"/>
<rect x="25.436" y="30.3921" width="1.30866" height="1.30866" transform="rotate(-90 25.436 30.3921)" fill="#224B7A"/>
<rect x="25.436" y="29.0835" width="1.30866" height="1.30866" transform="rotate(-90 25.436 29.0835)" fill="#224B7A"/>
<rect x="25.436" y="27.7747" width="1.30866" height="1.30866" transform="rotate(-90 25.436 27.7747)" fill="#224B7A"/>
<rect x="25.436" y="26.4661" width="1.30866" height="1.30866" transform="rotate(-90 25.436 26.4661)" fill="#224B7A"/>
<rect x="25.436" y="25.1575" width="1.30866" height="1.30866" transform="rotate(-90 25.436 25.1575)" fill="#224B7A"/>
<rect x="25.436" y="23.8489" width="1.30866" height="1.30866" transform="rotate(-90 25.436 23.8489)" fill="#224B7A"/>
<rect x="25.436" y="22.54" width="1.30866" height="1.30866" transform="rotate(-90 25.436 22.54)" fill="#2C6897"/>
<rect x="25.436" y="21.2314" width="1.30866" height="1.30866" transform="rotate(-90 25.436 21.2314)" fill="#2C6897"/>
<rect x="25.436" y="19.9229" width="1.30866" height="1.30866" transform="rotate(-90 25.436 19.9229)" fill="#03070A"/>
<rect x="25.436" y="18.6143" width="1.30866" height="1.30866" transform="rotate(-90 25.436 18.6143)" fill="black"/>
<rect x="25.436" y="17.3054" width="1.30866" height="1.30866" transform="rotate(-90 25.436 17.3054)" fill="black"/>
<rect x="25.436" y="15.9968" width="1.30866" height="1.30866" transform="rotate(-90 25.436 15.9968)" fill="black"/>
<rect x="25.436" y="14.6882" width="1.30866" height="1.30866" transform="rotate(-90 25.436 14.6882)" fill="black"/>
<rect x="25.436" y="13.3796" width="1.30866" height="1.30866" transform="rotate(-90 25.436 13.3796)" fill="black"/>
<rect x="25.436" y="12.0708" width="1.30866" height="1.30866" transform="rotate(-90 25.436 12.0708)" fill="black"/>
<rect x="25.436" y="10.7622" width="1.30866" height="1.30866" transform="rotate(-90 25.436 10.7622)" fill="black"/>
<rect x="25.436" y="9.45361" width="1.30866" height="1.30866" transform="rotate(-90 25.436 9.45361)" fill="black"/>
<rect x="25.436" y="8.14502" width="1.30866" height="1.30866" transform="rotate(-90 25.436 8.14502)" fill="#224B7A"/>
<rect x="25.436" y="6.83618" width="1.30866" height="1.30866" transform="rotate(-90 25.436 6.83618)" fill="#224B7A"/>
<rect x="25.436" y="5.52759" width="1.30866" height="1.30866" transform="rotate(-90 25.436 5.52759)" fill="#224B7A"/>
<rect x="25.436" y="4.21899" width="1.30866" height="1.30866" transform="rotate(-90 25.436 4.21899)" fill="#224B7A"/>
<rect x="26.7451" y="34.3181" width="1.30866" height="1.30866" transform="rotate(-90 26.7451 34.3181)" fill="#020508"/>
<rect x="26.7451" y="33.0093" width="1.30866" height="1.30866" transform="rotate(-90 26.7451 33.0093)" fill="#224B7A"/>
<rect x="26.7451" y="31.7007" width="1.30866" height="1.30866" transform="rotate(-90 26.7451 31.7007)" fill="#224B7A"/>
<rect x="26.7451" y="30.3921" width="1.30866" height="1.30866" transform="rotate(-90 26.7451 30.3921)" fill="#224B7A"/>
<rect x="26.7451" y="29.0835" width="1.30866" height="1.30866" transform="rotate(-90 26.7451 29.0835)" fill="black"/>
<rect x="26.7451" y="27.7747" width="1.30866" height="1.30866" transform="rotate(-90 26.7451 27.7747)" fill="#224B7A"/>
<rect x="26.7451" y="26.4661" width="1.30866" height="1.30866" transform="rotate(-90 26.7451 26.4661)" fill="#224B7A"/>
<rect x="26.7451" y="25.1575" width="1.30866" height="1.30866" transform="rotate(-90 26.7451 25.1575)" fill="#224B7A"/>
<rect x="26.7451" y="23.8489" width="1.30866" height="1.30866" transform="rotate(-90 26.7451 23.8489)" fill="#224B7A"/>
<rect x="26.7451" y="22.54" width="1.30866" height="1.30866" transform="rotate(-90 26.7451 22.54)" fill="#224B7A"/>
<rect x="26.7451" y="21.2314" width="1.30866" height="1.30866" transform="rotate(-90 26.7451 21.2314)" fill="#224B7A"/>
<rect x="26.7451" y="19.9229" width="1.30866" height="1.30866" transform="rotate(-90 26.7451 19.9229)" fill="#285D8C"/>
<rect x="26.7451" y="18.6143" width="1.30866" height="1.30866" transform="rotate(-90 26.7451 18.6143)" fill="#2C6897"/>
<rect x="26.7451" y="17.3054" width="1.30866" height="1.30866" transform="rotate(-90 26.7451 17.3054)" fill="#2C6897"/>
<rect x="26.7451" y="15.9968" width="1.30866" height="1.30866" transform="rotate(-90 26.7451 15.9968)" fill="#2C6897"/>
<rect x="26.7451" y="14.6882" width="1.30866" height="1.30866" transform="rotate(-90 26.7451 14.6882)" fill="#2C6897"/>
<rect x="26.7451" y="13.3796" width="1.30866" height="1.30866" transform="rotate(-90 26.7451 13.3796)" fill="#2C6897"/>
<rect x="26.7451" y="12.0708" width="1.30866" height="1.30866" transform="rotate(-90 26.7451 12.0708)" fill="#2C6897"/>
<rect x="26.7451" y="10.7622" width="1.30866" height="1.30866" transform="rotate(-90 26.7451 10.7622)" fill="#224B7A"/>
<rect x="26.7451" y="9.45361" width="1.30866" height="1.30866" transform="rotate(-90 26.7451 9.45361)" fill="#224B7A"/>
<rect x="26.7451" y="8.14502" width="1.30866" height="1.30866" transform="rotate(-90 26.7451 8.14502)" fill="#224B7A"/>
<rect x="26.7451" y="6.83618" width="1.30866" height="1.30866" transform="rotate(-90 26.7451 6.83618)" fill="#224B7A"/>
<rect x="26.7451" y="5.52759" width="1.30866" height="1.30866" transform="rotate(-90 26.7451 5.52759)" fill="#224B7A"/>
<rect x="26.7451" y="4.21899" width="1.30866" height="1.30866" transform="rotate(-90 26.7451 4.21899)" fill="black"/>
<rect x="28.0537" y="34.3181" width="1.30866" height="1.30866" transform="rotate(-90 28.0537 34.3181)" fill="black"/>
<rect x="28.0537" y="33.0093" width="1.30866" height="1.30866" transform="rotate(-90 28.0537 33.0093)" fill="black"/>
<rect x="28.0537" y="31.7007" width="1.30866" height="1.30866" transform="rotate(-90 28.0537 31.7007)" fill="#224B7A"/>
<rect x="28.0537" y="30.3921" width="1.30866" height="1.30866" transform="rotate(-90 28.0537 30.3921)" fill="black"/>
<rect x="28.0537" y="29.0835" width="1.30866" height="1.30866" transform="rotate(-90 28.0537 29.0835)" fill="#224B7A"/>
<rect x="28.0537" y="27.7747" width="1.30866" height="1.30866" transform="rotate(-90 28.0537 27.7747)" fill="#224B7A"/>
<rect x="28.0537" y="26.4661" width="1.30866" height="1.30866" transform="rotate(-90 28.0537 26.4661)" fill="#224B7A"/>
<rect x="28.0537" y="25.1575" width="1.30866" height="1.30866" transform="rotate(-90 28.0537 25.1575)" fill="#224B7A"/>
<rect x="28.0537" y="23.8489" width="1.30866" height="1.30866" transform="rotate(-90 28.0537 23.8489)" fill="#224B7A"/>
<rect x="28.0537" y="22.54" width="1.30866" height="1.30866" transform="rotate(-90 28.0537 22.54)" fill="#224B7A"/>
<rect x="28.0537" y="21.2314" width="1.30866" height="1.30866" transform="rotate(-90 28.0537 21.2314)" fill="#224B7A"/>
<rect x="28.0537" y="19.9229" width="1.30866" height="1.30866" transform="rotate(-90 28.0537 19.9229)" fill="#224B7A"/>
<rect x="28.0537" y="18.6143" width="1.30866" height="1.30866" transform="rotate(-90 28.0537 18.6143)" fill="#224B7A"/>
<rect x="28.0537" y="17.3054" width="1.30866" height="1.30866" transform="rotate(-90 28.0537 17.3054)" fill="#224B7A"/>
<rect x="28.0537" y="15.9968" width="1.30866" height="1.30866" transform="rotate(-90 28.0537 15.9968)" fill="#2C6897"/>
<rect x="28.0537" y="14.6882" width="1.30866" height="1.30866" transform="rotate(-90 28.0537 14.6882)" fill="#2C6897"/>
<rect x="28.0537" y="13.3796" width="1.30866" height="1.30866" transform="rotate(-90 28.0537 13.3796)" fill="#2C6897"/>
<rect x="28.0537" y="12.0708" width="1.30866" height="1.30866" transform="rotate(-90 28.0537 12.0708)" fill="#2C6897"/>
<rect x="28.0537" y="10.7622" width="1.30866" height="1.30866" transform="rotate(-90 28.0537 10.7622)" fill="#224B7A"/>
<rect x="28.0537" y="9.45361" width="1.30866" height="1.30866" transform="rotate(-90 28.0537 9.45361)" fill="#224B7A"/>
<rect x="28.0537" y="8.14502" width="1.30866" height="1.30866" transform="rotate(-90 28.0537 8.14502)" fill="#224B7A"/>
<rect x="28.0537" y="6.83618" width="1.30866" height="1.30866" transform="rotate(-90 28.0537 6.83618)" fill="#224B7A"/>
<rect x="28.0537" y="5.52759" width="1.30866" height="1.30866" transform="rotate(-90 28.0537 5.52759)" fill="black"/>
<rect x="29.3623" y="33.0093" width="1.30866" height="1.30866" transform="rotate(-90 29.3623 33.0093)" fill="#224B7A"/>
<rect x="29.3623" y="31.7007" width="1.30866" height="1.30866" transform="rotate(-90 29.3623 31.7007)" fill="#224B7A"/>
<rect x="29.3623" y="30.3921" width="1.30866" height="1.30866" transform="rotate(-90 29.3623 30.3921)" fill="#224B7A"/>
<rect x="29.3623" y="29.0835" width="1.30866" height="1.30866" transform="rotate(-90 29.3623 29.0835)" fill="#224B7A"/>
<rect x="29.3623" y="27.7747" width="1.30866" height="1.30866" transform="rotate(-90 29.3623 27.7747)" fill="#224B7A"/>
<rect x="29.3623" y="26.4661" width="1.30866" height="1.30866" transform="rotate(-90 29.3623 26.4661)" fill="#224B7A"/>
<rect x="29.3623" y="25.1575" width="1.30866" height="1.30866" transform="rotate(-90 29.3623 25.1575)" fill="#224B7A"/>
<rect x="29.3623" y="23.8489" width="1.30866" height="1.30866" transform="rotate(-90 29.3623 23.8489)" fill="#224B7A"/>
<rect x="29.3623" y="22.54" width="1.30866" height="1.30866" transform="rotate(-90 29.3623 22.54)" fill="#224B7A"/>
<rect x="29.3623" y="21.2314" width="1.30866" height="1.30866" transform="rotate(-90 29.3623 21.2314)" fill="#224B7A"/>
<rect x="29.3623" y="19.9229" width="1.30866" height="1.30866" transform="rotate(-90 29.3623 19.9229)" fill="#224B7A"/>
<rect x="29.3623" y="18.6143" width="1.30866" height="1.30866" transform="rotate(-90 29.3623 18.6143)" fill="#224B7A"/>
<rect x="29.3623" y="17.3054" width="1.30866" height="1.30866" transform="rotate(-90 29.3623 17.3054)" fill="#224B7A"/>
<rect x="29.3623" y="15.9968" width="1.30866" height="1.30866" transform="rotate(-90 29.3623 15.9968)" fill="#224B7A"/>
<rect x="29.3623" y="14.6882" width="1.30866" height="1.30866" transform="rotate(-90 29.3623 14.6882)" fill="#224B7A"/>
<rect x="29.3623" y="13.3796" width="1.30866" height="1.30866" transform="rotate(-90 29.3623 13.3796)" fill="#2B6391"/>
<rect x="29.3623" y="12.0708" width="1.30866" height="1.30866" transform="rotate(-90 29.3623 12.0708)" fill="#2C6897"/>
<rect x="29.3623" y="10.7622" width="1.30866" height="1.30866" transform="rotate(-90 29.3623 10.7622)" fill="#224B7A"/>
<rect x="29.3623" y="9.45361" width="1.30866" height="1.30866" transform="rotate(-90 29.3623 9.45361)" fill="#224B7A"/>
<rect x="29.3623" y="8.14502" width="1.30866" height="1.30866" transform="rotate(-90 29.3623 8.14502)" fill="#224B7A"/>
<rect x="29.3623" y="6.83618" width="1.30866" height="1.30866" transform="rotate(-90 29.3623 6.83618)" fill="black"/>
<rect x="30.6709" y="33.0093" width="1.30866" height="1.30866" transform="rotate(-90 30.6709 33.0093)" fill="black"/>
<rect x="30.6709" y="31.7007" width="1.30866" height="1.30866" transform="rotate(-90 30.6709 31.7007)" fill="#224B7A"/>
<rect x="30.6709" y="30.3921" width="1.30866" height="1.30866" transform="rotate(-90 30.6709 30.3921)" fill="#224B7A"/>
<rect x="30.6709" y="29.0835" width="1.30866" height="1.30866" transform="rotate(-90 30.6709 29.0835)" fill="#224B7A"/>
<rect x="30.6709" y="27.7747" width="1.30866" height="1.30866" transform="rotate(-90 30.6709 27.7747)" fill="#224B7A"/>
<rect x="30.6709" y="26.4661" width="1.30866" height="1.30866" transform="rotate(-90 30.6709 26.4661)" fill="#224B7A"/>
<rect x="30.6709" y="25.1575" width="1.30866" height="1.30866" transform="rotate(-90 30.6709 25.1575)" fill="#224B7A"/>
<rect x="30.6709" y="23.8489" width="1.30866" height="1.30866" transform="rotate(-90 30.6709 23.8489)" fill="#224B7A"/>
<rect x="30.6709" y="22.54" width="1.30866" height="1.30866" transform="rotate(-90 30.6709 22.54)" fill="#224B7A"/>
<rect x="30.6709" y="21.2314" width="1.30866" height="1.30866" transform="rotate(-90 30.6709 21.2314)" fill="#224B7A"/>
<rect x="30.6709" y="19.9229" width="1.30866" height="1.30866" transform="rotate(-90 30.6709 19.9229)" fill="#224B7A"/>
<rect x="30.6709" y="18.6143" width="1.30866" height="1.30866" transform="rotate(-90 30.6709 18.6143)" fill="#224B7A"/>
<rect x="30.6709" y="17.3054" width="1.30866" height="1.30866" transform="rotate(-90 30.6709 17.3054)" fill="#224B7A"/>
<rect x="30.6709" y="15.9968" width="1.30866" height="1.30866" transform="rotate(-90 30.6709 15.9968)" fill="#224B7A"/>
<rect x="30.6709" y="14.6882" width="1.30866" height="1.30866" transform="rotate(-90 30.6709 14.6882)" fill="#224B7A"/>
<rect x="30.6709" y="13.3796" width="1.30866" height="1.30866" transform="rotate(-90 30.6709 13.3796)" fill="#224B7A"/>
<rect x="30.6709" y="12.0708" width="1.30866" height="1.30866" transform="rotate(-90 30.6709 12.0708)" fill="#224B7A"/>
<rect x="30.6709" y="10.7622" width="1.30866" height="1.30866" transform="rotate(-90 30.6709 10.7622)" fill="#224B7A"/>
<rect x="30.6709" y="9.45361" width="1.30866" height="1.30866" transform="rotate(-90 30.6709 9.45361)" fill="#0F2135"/>
<rect x="30.6709" y="8.14502" width="1.30866" height="1.30866" transform="rotate(-90 30.6709 8.14502)" fill="black"/>
<rect x="31.9795" y="30.3921" width="1.30866" height="1.30866" transform="rotate(-90 31.9795 30.3921)" fill="black"/>
<rect x="31.9795" y="29.0835" width="1.30866" height="1.30866" transform="rotate(-90 31.9795 29.0835)" fill="black"/>
<rect x="31.9795" y="27.7747" width="1.30866" height="1.30866" transform="rotate(-90 31.9795 27.7747)" fill="#224B7A"/>
<rect x="31.9795" y="26.4661" width="1.30866" height="1.30866" transform="rotate(-90 31.9795 26.4661)" fill="#224B7A"/>
<rect x="31.9795" y="25.1575" width="1.30866" height="1.30866" transform="rotate(-90 31.9795 25.1575)" fill="#224B7A"/>
<rect x="31.9795" y="23.8489" width="1.30866" height="1.30866" transform="rotate(-90 31.9795 23.8489)" fill="#224B7A"/>
<rect x="31.9795" y="22.54" width="1.30866" height="1.30866" transform="rotate(-90 31.9795 22.54)" fill="#224B7A"/>
<rect x="31.9795" y="21.2314" width="1.30866" height="1.30866" transform="rotate(-90 31.9795 21.2314)" fill="#224B7A"/>
<rect x="31.9795" y="19.9229" width="1.30866" height="1.30866" transform="rotate(-90 31.9795 19.9229)" fill="#224B7A"/>
<rect x="31.9795" y="18.6143" width="1.30866" height="1.30866" transform="rotate(-90 31.9795 18.6143)" fill="#224B7A"/>
<rect x="31.9795" y="17.3054" width="1.30866" height="1.30866" transform="rotate(-90 31.9795 17.3054)" fill="#224B7A"/>
<rect x="31.9795" y="15.9968" width="1.30866" height="1.30866" transform="rotate(-90 31.9795 15.9968)" fill="#224B7A"/>
<rect x="31.9795" y="14.6882" width="1.30866" height="1.30866" transform="rotate(-90 31.9795 14.6882)" fill="#224B7A"/>
<rect x="31.9795" y="13.3796" width="1.30866" height="1.30866" transform="rotate(-90 31.9795 13.3796)" fill="#224B7A"/>
<rect x="31.9795" y="12.0708" width="1.30866" height="1.30866" transform="rotate(-90 31.9795 12.0708)" fill="#204773"/>
<rect x="31.9795" y="10.7622" width="1.30866" height="1.30866" transform="rotate(-90 31.9795 10.7622)" fill="black"/>
<rect x="33.2881" y="27.7747" width="1.30866" height="1.30866" transform="rotate(-90 33.2881 27.7747)" fill="black"/>
<rect x="33.2881" y="26.4661" width="1.30866" height="1.30866" transform="rotate(-90 33.2881 26.4661)" fill="#09131F"/>
<rect x="33.2881" y="25.1575" width="1.30866" height="1.30866" transform="rotate(-90 33.2881 25.1575)" fill="#224B7A"/>
<rect x="33.2881" y="23.8489" width="1.30866" height="1.30866" transform="rotate(-90 33.2881 23.8489)" fill="#224B7A"/>
<rect x="33.2881" y="22.54" width="1.30866" height="1.30866" transform="rotate(-90 33.2881 22.54)" fill="#224B7A"/>
<rect x="33.2881" y="21.2314" width="1.30866" height="1.30866" transform="rotate(-90 33.2881 21.2314)" fill="#224B7A"/>
<rect x="33.2881" y="19.9229" width="1.30866" height="1.30866" transform="rotate(-90 33.2881 19.9229)" fill="#224B7A"/>
<rect x="33.2881" y="18.6143" width="1.30866" height="1.30866" transform="rotate(-90 33.2881 18.6143)" fill="#224B7A"/>
<rect x="33.2881" y="17.3054" width="1.30866" height="1.30866" transform="rotate(-90 33.2881 17.3054)" fill="#224B7A"/>
<rect x="33.2881" y="15.9968" width="1.30866" height="1.30866" transform="rotate(-90 33.2881 15.9968)" fill="#1A395C"/>
<rect x="33.2881" y="14.6882" width="1.30866" height="1.30866" transform="rotate(-90 33.2881 14.6882)" fill="black"/>
<rect x="33.2881" y="13.3796" width="1.30866" height="1.30866" transform="rotate(-90 33.2881 13.3796)" fill="black"/>
<rect x="34.5967" y="25.1575" width="1.30866" height="1.30866" transform="rotate(-90 34.5967 25.1575)" fill="black"/>
<rect x="34.5967" y="23.8489" width="1.30866" height="1.30866" transform="rotate(-90 34.5967 23.8489)" fill="#224B7A"/>
<rect x="34.5967" y="22.54" width="1.30866" height="1.30866" transform="rotate(-90 34.5967 22.54)" fill="#224B7A"/>
<rect x="34.5967" y="21.2314" width="1.30866" height="1.30866" transform="rotate(-90 34.5967 21.2314)" fill="#1A395C"/>
<rect x="34.5967" y="19.9229" width="1.30866" height="1.30866" transform="rotate(-90 34.5967 19.9229)" fill="black"/>
<rect x="34.5967" y="18.6143" width="1.30866" height="1.30866" transform="rotate(-90 34.5967 18.6143)" fill="black"/>
<rect x="35.9053" y="23.8489" width="1.30866" height="1.30866" transform="rotate(-90 35.9053 23.8489)" fill="black"/>
</svg>
