<svg width="81" height="81" viewBox="0 0 81 81" fill="none" xmlns="http://www.w3.org/2000/svg">
<g clip-path="url(#clip0_236_319)">
<path d="M5.76004 79.0395C5.67546 79.026 5.35574 78.8602 5.33205 78.7537L5.16966 76.5021L2.96882 76.5021L2.89608 74.1236L0.932076 73.8529L1.01328 5.44256L3.13968 5.28524L3.13969 3.0844L5.33883 3.08609L5.49615 0.79052L75.045 0.790526L75.2023 3.0861L77.4979 3.24342L77.5707 5.28525L79.7715 5.28525L79.7715 73.9646L77.5723 73.9646L77.5723 76.5021L75.3918 76.5207L75.204 79.0396L5.76174 79.0395L5.76004 79.0395ZM75.0332 76.1637C75.1397 75.8186 75.0416 74.3097 75.0332 73.7954C75.1465 73.7954 75.2582 73.7954 75.3715 73.7954C76.0921 73.8056 77.4032 74.3909 77.4099 73.381L77.4099 6.03634L77.2323 5.62188L75.023 5.54745L74.864 3.42274L5.67547 3.25356C5.30331 3.37705 5.53844 5.22095 5.67547 5.62018L3.64549 5.62018C3.55414 5.59988 3.29193 5.56774 3.30546 5.70815L3.30546 73.6973C3.33252 73.8834 4.087 73.7836 4.32214 73.7954C4.7146 73.814 5.11553 73.7802 5.50799 73.7954L5.50799 76.5038L74.7101 76.4259C74.842 76.3786 74.9909 76.3025 75.0349 76.1637L75.0332 76.1637Z" fill="#020201"/>
<path d="M75.0328 76.1636C74.9905 76.3024 74.8416 76.3785 74.708 76.4258L5.50422 76.5037L5.50422 73.7953C5.11345 73.7818 4.71253 73.8156 4.32176 73.7953L3.64171 73.3589L3.64172 6.05653L5.50762 5.87383C4.81404 5.79263 4.31331 5.77233 3.64511 5.62008L5.67509 5.62008C5.53976 5.21916 5.30292 3.37526 5.67509 3.25177L74.8636 3.42094L75.0226 5.54566L77.2319 5.62009L77.056 6.54204L77.0746 73.0392C76.7566 73.9391 76.0038 73.4046 75.3711 73.7936C75.2578 73.7936 75.1461 73.7936 75.0328 73.7936C75.0328 73.7378 75.0328 73.6803 75.0328 73.6245C75.0226 73.1187 75.0412 72.6061 75.0328 72.1003L72.4936 72.1003C72.4885 72.0225 72.4006 71.9548 72.3245 71.9328L72.4936 69.7337L69.787 69.7337C69.7904 69.6542 69.9291 69.5002 69.9561 69.3953L69.9561 11.0334L11.425 11.0334L11.4182 68.6459C11.3286 68.8997 11.5891 69.2515 11.5942 69.3953C11.5959 69.4512 11.5925 69.5087 11.5942 69.5645L9.05839 69.7354L9.05838 71.5945L8.88753 71.7636L6.68669 71.7636L6.68499 73.6955L8.88753 73.7936C8.70144 74.3959 6.26377 74.0338 5.67339 74.1337C5.84594 74.8035 5.99649 75.5039 5.67339 76.1603L75.0311 76.1603L75.0328 76.1636ZM72.4953 10.6967L72.4953 8.49759L69.7887 8.49759L69.7887 10.6967L72.4953 10.6967ZM11.4267 10.6967L11.4267 8.49759L9.05839 8.49758L9.05839 10.6967L11.4267 10.6967ZM74.8636 8.49759L74.8636 6.12928L72.5697 6.28829L72.4953 8.33012L74.8653 8.49759L74.8636 8.49759ZM6.69008 8.49758C7.4564 8.23707 8.1246 8.58048 8.87062 8.30981L8.89092 6.12927L6.69008 6.12927L6.69008 8.49928L6.69008 8.49758Z" fill="#FDBB01"/>
<path d="M75.0335 76.1638L5.67577 76.1638C6.00057 75.5058 5.84832 74.8037 5.67577 74.1355C6.26616 74.0374 8.70383 74.3977 8.88991 73.7955L8.88991 71.7655L9.05908 71.5964C9.95227 71.5693 10.6966 71.9465 11.5779 71.5777C11.5966 70.9129 11.6253 70.2295 11.5966 69.5664C11.5949 69.5105 11.5982 69.453 11.5966 69.3972L69.9585 69.3972C69.9315 69.5021 69.7927 69.656 69.7894 69.7355C69.7741 70.1754 69.6845 71.8467 69.9484 72.0294L72.3268 71.9347C72.403 71.9567 72.4909 72.026 72.496 72.1039C72.5315 72.7196 72.4706 73.3489 72.496 73.9664C73.3401 73.8784 74.3467 74.2336 75.0352 73.6263C75.0352 73.6822 75.0352 73.7397 75.0352 73.7955C75.0436 74.3098 75.1417 75.8187 75.0352 76.1638L75.0335 76.1638Z" fill="#FDD702"/>
<path d="M75.3715 73.7953C76.0024 73.4062 76.7552 73.9408 77.0749 73.0408L77.0563 6.54371L77.2323 5.62176L77.4082 6.03621L77.4082 73.3809C77.4014 74.3908 76.0921 73.8055 75.3715 73.7953Z" fill="#FDD702"/>
<path d="M4.32245 73.7953C4.089 73.7835 3.33283 73.885 3.30407 73.6972L3.30408 5.70807C3.29224 5.56766 3.55445 5.5998 3.6458 5.62179C4.314 5.77404 4.81473 5.79434 5.50831 5.87554L3.64241 6.05823L3.6424 73.3589L4.32245 73.7953Z" fill="#FDD702"/>
<path d="M11.596 69.3972C11.591 69.2551 11.3305 68.9016 11.4201 68.6478L11.4269 11.0352L69.958 11.0352L69.958 69.3972L11.596 69.3972ZM13.626 67.1981L67.7589 67.1981L67.7589 13.4036L13.626 13.4036L13.626 67.1981Z" fill="#FEE628"/>
<path d="M69.789 69.7354L72.4956 69.7354L72.3264 71.9346L69.948 72.0293C69.6858 71.8466 69.7737 70.1752 69.789 69.7354Z" fill="#FEE628"/>
<path d="M69.789 10.6968L72.4956 10.6968L72.4956 8.49763L69.789 8.49763L69.789 10.6968Z" fill="#FEE628"/>
<path d="M74.8643 8.49756L72.4943 8.33009L72.5704 6.28826L74.8643 6.12925L74.8643 8.49756Z" fill="#FEE628"/>
<path d="M9.05845 10.6968L11.4268 10.6968L11.4268 8.49763L9.05845 8.49763L9.05845 10.6968Z" fill="#FEE628"/>
<path d="M9.05874 71.5963L9.05874 69.7371L11.5962 69.5663C11.625 70.2311 11.5962 70.9145 11.5776 71.5777C10.6963 71.9464 9.95193 71.5675 9.05874 71.5963Z" fill="#FEE628"/>
<path d="M6.69076 8.49756L6.69076 6.12925L8.8916 6.12925L8.8713 8.30979C8.12698 8.58045 7.45877 8.23704 6.69076 8.49756Z" fill="#FEE628"/>
<path d="M75.0331 73.6263C74.3463 74.2336 73.3398 73.8767 72.494 73.9663C72.4686 73.3506 72.5295 72.7196 72.494 72.1038L75.0331 72.1038C75.0399 72.6079 75.0213 73.1205 75.0331 73.6263Z" fill="#FEE628"/>
<path d="M8.88965 73.7954L6.68712 73.6973L6.68881 71.7637L8.88965 71.7654L8.88965 73.7954Z" fill="#FEE628"/>
<path d="M13.626 67.198L13.626 13.4035L67.7588 13.4035L67.7588 67.198L13.626 67.198ZM53.5489 43.684L46.7823 43.684L46.7823 22.3692L34.0949 22.3692L33.9258 43.684L27.4975 43.684L27.4975 45.8849L29.7068 45.9576L29.9385 48.0942L32.1597 48.4105L32.2324 50.6215L34.3588 50.7788L34.4316 53.159L36.4632 53.159L36.536 55.3683L38.6624 55.5256L38.8552 57.8719L41.2946 57.7366L41.5264 55.4309L44.074 55.5273L44.4309 53.1759L46.7569 52.9644L46.9396 50.6942L49.1506 50.6215L49.2284 48.4122L51.1806 48.4224L51.1806 46.2215L53.4745 46.0642L53.5489 43.6857L53.5489 43.684Z" fill="#FDD702"/>
<path d="M53.5488 43.6839L53.4744 46.0624L51.1788 46.2197L51.1822 48.4222L49.23 48.4121L49.1522 50.6214L46.9412 50.6941L46.7585 52.9643L44.4325 53.1758L44.0739 55.5272L41.528 55.4308L41.2945 57.7348L38.8551 57.8701L38.664 55.5238L36.5376 55.3665L36.4648 53.1555L34.4315 53.1589L34.3587 50.7787L32.2323 50.6214L32.1596 48.4104L29.9401 48.0924L29.7067 45.9575L27.4957 45.8848L27.4974 43.6839L33.9257 43.6839L34.0948 22.3691L46.7822 22.3691L46.7822 43.6839L53.5488 43.6839Z" fill="#020201"/>
</g>
<defs>
<clipPath id="clip0_236_319">
<rect width="80" height="80" fill="white" transform="translate(80.7285 80.053) rotate(-180)"/>
</clipPath>
</defs>
</svg>
