<svg width="81" height="81" viewBox="0 0 81 81" fill="none" xmlns="http://www.w3.org/2000/svg">
<g clip-path="url(#clip0_77_6)">
<path d="M75.697 1.60889C75.7816 1.62242 76.1013 1.7882 76.125 1.89478L76.2874 4.14636H78.4882L78.561 6.52483L80.525 6.79549L80.4438 75.2059L78.3174 75.3632V77.564L76.1182 77.5623L75.9609 79.8579H6.41202L6.2547 77.5623L3.95913 77.405L3.88639 75.3632H1.68555V6.68384H3.88469V4.14636L6.06523 4.12776L6.25301 1.60889H75.6953H75.697ZM6.42386 4.48469C6.31729 4.82979 6.41541 6.33874 6.42386 6.85301C6.31052 6.85301 6.19887 6.85301 6.08553 6.85301C5.36489 6.84286 4.05386 6.25754 4.0471 7.26746V74.6121L4.22472 75.0266L6.43401 75.101L6.59303 77.2257L75.7816 77.3949C76.1537 77.2714 75.9186 75.4275 75.7816 75.0282H77.8116C77.9029 75.0485 78.1651 75.0807 78.1516 74.9403V6.95112C78.1245 6.76504 77.37 6.86485 77.1349 6.85301C76.7424 6.8344 76.3415 6.86823 75.949 6.85301V4.14467L6.74696 4.22249C6.61502 4.26985 6.46615 4.34598 6.42217 4.48469H6.42386Z" fill="#020201"/>
<path d="M6.42424 4.4848C6.46654 4.34608 6.6154 4.26996 6.74904 4.22259L75.9528 4.14478V6.85311C76.3436 6.86664 76.7445 6.83281 77.1353 6.85311L77.8153 7.28956V74.5919L75.9494 74.7746C76.643 74.8558 77.1437 74.8761 77.8119 75.0283H75.7819C75.9173 75.4293 76.1541 77.2732 75.7819 77.3967L6.59341 77.2275L6.43439 75.1028L4.2251 75.0283L4.40103 74.1064L4.38242 7.60928C4.70045 6.70932 5.45324 7.24388 6.08591 6.8548C6.19925 6.8548 6.3109 6.8548 6.42424 6.8548C6.42424 6.91063 6.42424 6.96814 6.42424 7.02397C6.43439 7.52977 6.41579 8.04234 6.42424 8.54814H8.96341C8.96849 8.62596 9.05646 8.69363 9.13258 8.71562L8.96341 10.9148H11.6701C11.6667 10.9943 11.528 11.1482 11.5009 11.2531V69.6151H70.032L70.0388 12.0025C70.1284 11.7487 69.8679 11.3969 69.8629 11.2531C69.8612 11.1973 69.8646 11.1398 69.8629 11.0839L72.3986 10.9131V9.05395L72.5695 8.88478H74.7703L74.772 6.95292L72.5695 6.8548C72.7556 6.25257 75.1933 6.61459 75.7836 6.51478C75.6111 5.84488 75.4605 5.14454 75.7836 4.48818H6.42594L6.42424 4.4848ZM8.96172 69.9517V72.1508H11.6684V69.9517H8.96172ZM70.0303 69.9517V72.1508H72.3986V69.9517H70.0303ZM6.59341 72.1508V74.5192L8.88729 74.3601L8.96172 72.3183L6.59172 72.1508H6.59341ZM74.767 72.1508C74.0006 72.4114 73.3324 72.068 72.5864 72.3386L72.5661 74.5192H74.767V72.1492V72.1508Z" fill="#FDBB01"/>
<path d="M6.42355 4.48462H75.7813C75.4565 5.14267 75.6087 5.84471 75.7813 6.51291C75.1909 6.61102 72.7532 6.2507 72.5671 6.85293V8.88291L72.398 9.05208C71.5048 9.07914 70.7604 8.70191 69.8791 9.07069C69.8605 9.7355 69.8317 10.4189 69.8605 11.0821C69.8622 11.1379 69.8588 11.1954 69.8605 11.2512H11.4985C11.5256 11.1463 11.6643 10.9924 11.6677 10.9129C11.6829 10.4731 11.7726 8.80171 11.5087 8.61901L9.1302 8.71375C9.05407 8.69176 8.96611 8.6224 8.96103 8.54458C8.92551 7.92882 8.98641 7.29953 8.96103 6.68207C8.1169 6.77004 7.11036 6.41479 6.42186 7.0221C6.42186 6.96627 6.42186 6.90876 6.42186 6.85293C6.4134 6.33867 6.31529 4.82972 6.42186 4.48462H6.42355Z" fill="#FDD702"/>
<path d="M6.08558 6.85313C5.45459 7.24221 4.70181 6.70765 4.38208 7.60761L4.40069 74.1047L4.22476 75.0267L4.04883 74.6122V7.26759C4.05559 6.25767 5.36493 6.84298 6.08558 6.85313Z" fill="#FDD702"/>
<path d="M77.1346 6.8531C77.368 6.86495 78.1242 6.76345 78.153 6.95122V74.9404C78.1648 75.0808 77.9026 75.0486 77.8112 75.0266C77.143 74.8744 76.6423 74.8541 75.9487 74.7729L77.8146 74.5902V7.28955L77.1346 6.8531Z" fill="#FDD702"/>
<path d="M69.861 11.2512C69.8661 11.3933 70.1266 11.7469 70.0369 12.0006L70.0302 69.6132H11.499V11.2512H69.861ZM67.831 13.4504H13.6982V67.2449H67.831V13.4504Z" fill="#FEE628"/>
<path d="M11.6681 10.913H8.96143L9.13059 8.71387L11.5091 8.61914C11.7713 8.80184 11.6833 10.4732 11.6681 10.913Z" fill="#FEE628"/>
<path d="M11.6681 69.9517H8.96143V72.1508H11.6681V69.9517Z" fill="#FEE628"/>
<path d="M6.59277 72.1509L8.96278 72.3184L8.88665 74.3602L6.59277 74.5192V72.1509Z" fill="#FEE628"/>
<path d="M72.3986 69.9517H70.0303V72.1508H72.3986V69.9517Z" fill="#FEE628"/>
<path d="M72.3983 9.05218V10.9113L69.8608 11.0822C69.8321 10.4173 69.8608 9.73391 69.8794 9.07079C70.7608 8.70201 71.5051 9.08094 72.3983 9.05218Z" fill="#FEE628"/>
<path d="M74.7663 72.1509V74.5192H72.5654L72.5857 72.3386C73.3301 72.068 73.9983 72.4114 74.7663 72.1509Z" fill="#FEE628"/>
<path d="M6.42389 7.02214C7.1107 6.41484 8.11724 6.77177 8.96306 6.68212C8.98844 7.29788 8.92754 7.92886 8.96306 8.54462H6.42389C6.41712 8.04051 6.43573 7.52794 6.42389 7.02214Z" fill="#FEE628"/>
<path d="M72.5674 6.85303L74.7699 6.95114L74.7682 8.8847L72.5674 8.88301V6.85303Z" fill="#FEE628"/>
<path d="M67.8311 13.4504V67.2449H13.6982V13.4504H67.8311ZM27.9081 36.9644H34.6747V58.2792H47.3621L47.5313 36.9644H53.9595V34.7636L51.7502 34.6908L51.5185 32.5543L49.2974 32.2379L49.2246 30.0269L47.0982 29.8696L47.0255 27.4895H44.9938L44.921 25.2802L42.7946 25.1228L42.6018 22.7765L40.1624 22.9118L39.9307 25.2176L37.3831 25.1211L37.0261 27.4725L34.7001 27.684L34.5174 29.9542L32.3064 30.0269L32.2286 32.2362L30.2764 32.2261V34.4269L27.9825 34.5842L27.9081 36.9627V36.9644Z" fill="#FDD702"/>
<path d="M27.9082 36.9645L27.9826 34.586L30.2782 34.4287L30.2748 32.2262L32.227 32.2363L32.3048 30.027L34.5158 29.9543L34.6985 27.6841L37.0245 27.4727L37.3831 25.1213L39.9291 25.2177L40.1625 22.9137L42.6019 22.7783L42.793 25.1246L44.9194 25.282L44.9922 27.493L47.0256 27.4896L47.0983 29.8697L49.2247 30.027L49.2974 32.238L51.5169 32.5561L51.7503 34.6909L53.9613 34.7637L53.9596 36.9645H47.5314L47.3622 58.2793H34.6748V36.9645H27.9082Z" fill="#020201"/>
</g>
<defs>
<clipPath id="clip0_77_6">
<rect width="80" height="80" fill="white" transform="translate(0.728516 0.595459)"/>
</clipPath>
</defs>
</svg>
