<svg width="80" height="81" viewBox="0 0 80 81" fill="none" xmlns="http://www.w3.org/2000/svg">
<g clip-path="url(#clip0_77_11)">
<path d="M0.374061 4.73706H0.202148V75.9091H0.374061V4.73706Z" fill="#FEE628"/>
<path d="M4.50018 2.50224C4.50878 1.70285 4.49502 0.894855 4.50018 0.095459H75.0705C75.6602 0.502893 75.0413 2.11544 75.49 2.4266L77.565 2.50052V4.73711H79.7981V75.8232L79.5248 76.0552L77.5632 76.081V78.3176L75.3284 78.3159C75.1736 78.4706 75.6086 80.2671 75.0722 80.5525H4.32827V78.3176H1.92149V75.9108H0.374268V4.73883H1.9232L1.92149 2.50224C2.77933 2.4988 3.64405 2.51084 4.5019 2.50224C4.49502 3.23287 4.45892 4.01336 4.5019 4.73711C4.50534 4.79384 4.49846 4.85229 4.5019 4.90902L2.26703 5.08094L2.08652 5.49524C2.31345 28.217 1.81662 50.9577 2.09512 73.6742C2.10371 74.3602 2.08996 75.053 2.09512 75.7389C2.91858 75.6667 3.8727 75.8352 4.67553 75.7389V77.9755L75.1599 77.8019C75.1702 77.575 75.1444 77.3412 75.1599 77.1142C75.1719 76.944 75.1547 76.7704 75.1599 76.5985C75.1616 76.5418 75.1599 76.4833 75.1599 76.4266C75.1633 76.2547 75.1564 76.0828 75.1599 75.9108C75.1599 75.8541 75.1599 75.7957 75.1599 75.7389C75.3215 75.7166 75.5312 75.7733 75.6756 75.7389H77.5667C77.6681 75.4965 77.3948 75.2249 77.3948 75.1372V4.91075H75.1582L74.9983 2.5796C51.5236 2.59164 27.9887 2.30626 4.50362 2.50396L4.50018 2.50224Z" fill="#020201"/>
<path d="M4.49977 2.50234C27.9865 2.30293 51.5197 2.5883 74.9944 2.57799L75.1543 4.91085H77.3909V75.1356C77.3909 75.2233 77.6643 75.4949 77.5628 75.7373H75.6718C76.117 75.6324 76.4935 75.4468 77.0471 75.5671V73.5024L75.1646 73.6829C75.1371 74.3654 75.1646 75.0548 75.156 75.7373C75.156 75.794 75.156 75.8525 75.156 75.9092C74.6334 75.8129 74.8277 76.1705 74.8122 76.5023C74.8002 76.755 74.9051 77.6026 74.7125 77.6318H4.84188L4.67169 75.9092V75.7373C5.49171 75.6376 5.76505 75.103 4.83156 74.9568L4.8436 73.5024C4.01154 73.3787 3.22074 73.6159 2.4351 73.6761L2.26318 5.08276L4.49805 4.91085C4.53587 5.44034 4.82641 6.1555 4.66825 6.80189C5.52609 6.80533 6.39082 6.7933 7.24866 6.80189C7.67845 6.80533 8.33859 6.6678 8.62397 6.97381C8.28702 6.94114 7.93116 6.99443 7.59077 6.97381L7.42058 9.20867H9.65545C9.63825 9.3187 9.66748 9.44248 9.65545 9.55422V68.5221C10.8863 68.5393 12.1241 68.498 13.3585 68.5135C21.9214 68.6235 30.4672 68.6235 38.9958 68.627C49.3192 68.6304 59.732 68.3055 69.9969 68.6923C69.9849 69.0224 69.617 70.7209 69.8233 70.9289L72.3281 70.7673L72.4037 68.6923C71.6043 68.6717 70.7946 68.7233 69.9952 68.6923C70.7104 49.1372 69.4606 29.1523 69.9952 9.55422C70.0055 9.39434 70.1637 9.24994 70.1671 9.2104L72.2301 9.38231L72.402 7.14572H70.511C71.0267 6.82252 71.9189 6.98584 72.5739 6.97381C73.3664 6.96005 74.2105 7.09586 74.9566 6.77782L74.9824 4.67876C74.9446 4.53779 74.752 4.54811 74.6351 4.56702C74.6455 4.14755 74.8277 3.79857 74.8071 3.36363C74.8002 3.2175 74.7916 3.08513 74.6351 3.0198L4.93815 2.84445C4.74733 2.87539 4.85048 3.33784 4.83844 3.53554C4.81437 3.93438 4.85907 4.34182 4.83844 4.74066H4.49462C4.45164 4.01518 4.48774 3.2347 4.49462 2.50407L4.49977 2.50234ZM9.65716 68.6889H7.25038V70.7518H9.65716V68.6889ZM7.42229 73.1586L7.2607 71.1713L5.01379 71.0957V73.1603H7.42229V73.1586ZM74.4701 71.0939H72.4054L72.3074 73.1689L74.3085 73.2549L74.4701 71.0939Z" fill="#FDBB01"/>
<path d="M4.67213 75.909L4.84232 77.6281H74.713C74.9038 77.6024 74.8006 76.7531 74.8127 76.5021C74.8281 76.1703 74.6339 75.8127 75.1565 75.909C75.1531 76.0809 75.1599 76.2528 75.1565 76.4247L74.988 76.5107L75.1565 76.5967C75.1513 76.7686 75.1685 76.9422 75.1565 77.1124C74.8883 77.1829 74.8986 77.745 75.1565 77.8001L4.67041 77.9737V75.909H4.67213Z" fill="#FDD702"/>
<path d="M2.43726 73.6744C2.3238 73.683 2.2069 73.6692 2.09343 73.6744C1.81493 50.9578 2.31004 28.2171 2.08484 5.49536L2.26535 5.08105L2.43726 73.6744Z" fill="#FDD702"/>
<path d="M4.84384 3.53369L5.69137 3.81563L5.53149 4.90728H7.42254L7.25062 6.80004C6.39278 6.79316 5.52806 6.8052 4.67021 6.80004C4.82837 6.15193 4.53784 5.43849 4.50002 4.909C4.49658 4.85226 4.50345 4.79381 4.50002 4.73708H4.84384C4.86447 4.33996 4.81977 3.93253 4.84384 3.53369Z" fill="#FEE628"/>
<path d="M2.43682 73.6743C3.22246 73.6141 4.01326 73.3786 4.84532 73.5007L4.83328 74.955C5.76677 75.1012 5.49343 75.6375 4.67341 75.7355C3.85338 75.8335 2.91645 75.665 2.09299 75.7355C2.08783 75.0496 2.10159 74.3568 2.09299 73.6708C2.20645 73.6657 2.32335 73.6794 2.43682 73.6708V73.6743Z" fill="#FEE628"/>
<path d="M75.1564 75.7373C75.1667 75.0548 75.1375 74.3654 75.165 73.6829L77.0474 73.5024V75.5671C76.4922 75.4468 76.1174 75.6324 75.6721 75.739C75.5277 75.7734 75.318 75.7167 75.1564 75.739V75.7373Z" fill="#FEE628"/>
<path d="M75.1563 77.8002C74.8984 77.7452 74.8881 77.183 75.1563 77.1125C75.1408 77.3395 75.1666 77.5733 75.1563 77.8002Z" fill="#FDBB01"/>
<path d="M75.1563 76.5967L74.9878 76.5108L75.1563 76.4248C75.1563 76.4815 75.158 76.54 75.1563 76.5967Z" fill="#FDBB01"/>
<path d="M69.9987 9.55078C69.4641 29.1489 70.7139 49.1338 69.9987 68.6889C70.7964 68.7181 71.6078 68.6682 72.4072 68.6889L72.3316 70.7639L69.8268 70.9255C69.6205 70.7192 69.9884 69.0189 70.0004 68.6889C59.7355 68.3038 49.3227 68.6287 38.9993 68.6235C30.4707 68.6201 21.9267 68.6201 13.362 68.5101C12.1276 68.4946 10.8898 68.5359 9.65723 68.5187V9.55078H70.0004H69.9987ZM67.7638 11.6137H12.064V66.2821H67.7638V11.6137Z" fill="#FEE628"/>
<path d="M74.6406 3.01789L74.4704 3.10557V3.36H74.8125C74.8331 3.79494 74.6509 4.14392 74.6406 4.56339C73.9134 4.68545 73.3357 4.64762 72.5862 4.74389L72.5776 6.97017C71.9226 6.9822 71.0304 6.81889 70.5146 7.14208C69.9508 7.72831 70.2379 8.48301 70.1708 9.20504C70.1674 9.24458 70.0092 9.38899 69.9989 9.54887H9.65742C9.66946 9.43712 9.64023 9.31335 9.65742 9.20504C9.66086 9.17753 9.91529 9.00219 9.96515 8.74603C10.0717 8.20623 10.3382 7.23835 9.74166 7.14208C9.4305 7.09223 8.86147 6.99252 8.62594 6.96845C8.34057 6.66244 7.68042 6.79997 7.25064 6.79654L7.42255 4.90549H5.53151L5.69139 3.81385L4.84386 3.53191C4.85589 3.33593 4.75274 2.87176 4.94357 2.84082L74.6406 3.01617V3.01789Z" fill="#FDD702"/>
<path d="M74.6403 4.5653C74.7555 4.54639 74.9498 4.53608 74.9876 4.67705L74.9618 6.7761C74.2157 7.09414 73.3716 6.95833 72.5791 6.97208L72.5877 4.74581C73.3372 4.64782 73.9131 4.68736 74.6421 4.5653H74.6403Z" fill="#FEE628"/>
<path d="M8.62575 6.97207C8.86299 6.99442 9.43203 7.09413 9.74147 7.14571C10.3363 7.24198 10.0715 8.20985 9.96496 8.74966C9.9151 9.00581 9.66067 9.18116 9.65723 9.20867H7.42236L7.59256 6.97207C7.93123 6.99442 8.28709 6.93941 8.62575 6.97207Z" fill="#FEE628"/>
<path d="M9.65727 68.6887H7.25049V70.7517H9.65727V68.6887Z" fill="#FEE628"/>
<path d="M7.42266 73.1584H5.01588L5.01416 71.0938L7.26106 71.1711L7.42266 73.1584Z" fill="#FEE628"/>
<path d="M74.4703 71.0938L74.307 73.2547L72.3076 73.1705L72.4039 71.0938H74.4703Z" fill="#FEE628"/>
<path d="M70.5146 7.1438H72.4057L72.2338 9.37867L70.1708 9.20676C70.2378 8.48472 69.9507 7.73002 70.5146 7.1438Z" fill="#FEE628"/>
<path d="M74.8123 3.36189H74.4702V3.10574L74.6404 3.01807C74.7968 3.08339 74.8054 3.21577 74.8123 3.36189Z" fill="#FEE628"/>
<path d="M67.7638 11.6135V66.2819H12.064V11.6135H67.7638ZM37.5071 26.2261L35.1072 26.5768L34.9267 28.6329L32.7176 28.6587L32.36 30.7939L30.3039 30.8884L29.9171 33.2522L27.5327 33.4465L27.3728 35.7793L25.3013 35.8567L25.1294 38.0916C22.4733 37.8475 23.1163 38.3752 23.2366 40.4984L25.2256 40.6582L25.3013 42.9034L27.5465 42.9808L27.7063 45.1417H29.9429L30.1148 47.3749H32.5216V49.6115L34.7668 49.6854L35.1003 51.8463L37.3335 51.6744V45.4856H57.4473V32.764L37.5054 32.5921V26.2313L37.5071 26.2261Z" fill="#FDD702"/>
<path d="M37.5071 26.2261V32.5869L57.4491 32.7588V45.4804H37.3352V51.6692L35.1021 51.8412L34.7686 49.6802L32.5217 49.6063V47.3697H30.1166L29.9447 45.1331H27.7081L27.5482 42.9739L25.303 42.8965L25.2274 40.6513L23.2384 40.4915C23.118 38.3683 22.4751 37.8406 25.1311 38.0847L25.303 35.8498L27.3746 35.7724L27.5345 33.4396L29.9189 33.2453L30.3057 30.8815L32.3618 30.787L32.7194 28.6518L34.9284 28.626L35.109 26.5699L37.5089 26.2192L37.5071 26.2261Z" fill="#020201"/>
</g>
<defs>
<clipPath id="clip0_77_11">
<rect width="80" height="80" fill="white" transform="translate(0 0.323975)"/>
</clipPath>
</defs>
</svg>
