<svg width="80" height="81" viewBox="0 0 80 81" fill="none" xmlns="http://www.w3.org/2000/svg">
<g clip-path="url(#clip0_236_257)">
<path d="M79.6259 4.73706H79.7979V75.9091H79.6259V4.73706Z" fill="#FEE628"/>
<path d="M75.5001 2.50224C75.4915 1.70285 75.5052 0.894855 75.5001 0.095459H4.92975C4.34009 0.502893 4.95898 2.11544 4.51028 2.4266L2.43529 2.50052V4.73711H0.202144V75.8232L0.475485 76.0552L2.43701 76.081V78.3176L4.67188 78.3159C4.82661 78.4706 4.39166 80.2671 4.92803 80.5525H75.672V78.3176H78.0788V75.9108H79.626V4.73883H78.077L78.0788 2.50224C77.2209 2.4988 76.3562 2.51084 75.4983 2.50224C75.5052 3.23287 75.5413 4.01336 75.4983 4.73711C75.4949 4.79384 75.5018 4.85229 75.4983 4.90902L77.7332 5.08094L77.9137 5.49524C77.6868 28.217 78.1836 50.9577 77.9051 73.6742C77.8965 74.3602 77.9103 75.053 77.9051 75.7389C77.0817 75.6667 76.1275 75.8352 75.3247 75.7389V77.9755L4.84036 77.8019C4.83005 77.575 4.85583 77.3412 4.84036 77.1142C4.82833 76.944 4.84552 76.7704 4.84036 76.5985C4.83864 76.5418 4.84036 76.4833 4.84036 76.4266C4.83692 76.2547 4.8438 76.0828 4.84036 75.9108C4.84036 75.8541 4.84036 75.7957 4.84036 75.7389C4.67876 75.7166 4.46903 75.7733 4.32462 75.7389H2.43358C2.33215 75.4965 2.60549 75.2249 2.60549 75.1372V4.91075H4.84208L5.00196 2.5796C28.4767 2.59164 52.0116 2.30626 75.4966 2.50396L75.5001 2.50224Z" fill="#020201"/>
<path d="M75.5007 2.50234C52.014 2.30293 28.4808 2.5883 5.00605 2.57799L4.84617 4.91085H2.60958V75.1356C2.60958 75.2233 2.33624 75.4949 2.43766 75.7373H4.32871C3.88345 75.6324 3.50696 75.4468 2.9534 75.5671V73.5024L4.83585 73.6829C4.86336 74.3654 4.83585 75.0548 4.84445 75.7373C4.84445 75.794 4.84445 75.8525 4.84445 75.9092C5.36706 75.8129 5.1728 76.1705 5.18827 76.5023C5.20031 76.755 5.09544 77.6026 5.28798 77.6318H75.1586L75.3288 75.9092V75.7373C74.5088 75.6376 74.2354 75.103 75.1689 74.9568L75.1569 73.5024C75.9889 73.3787 76.7797 73.6159 77.5654 73.6761L77.7373 5.08276L75.5024 4.91085C75.4646 5.44034 75.1741 6.1555 75.3322 6.80189C74.4744 6.80533 73.6097 6.7933 72.7518 6.80189C72.322 6.80533 71.6619 6.6678 71.3765 6.97381C71.7135 6.94114 72.0693 6.99443 72.4097 6.97381L72.5799 9.20867H70.345C70.3622 9.3187 70.333 9.44248 70.345 9.55422V68.5221C69.1141 68.5393 67.8764 68.498 66.642 68.5135C58.079 68.6235 49.5332 68.6235 41.0046 68.627C30.6813 68.6304 20.2685 68.3055 10.0036 68.6923C10.0156 69.0224 10.3835 70.7209 10.1772 70.9289L7.67242 70.7673L7.59678 68.6923C8.39617 68.6717 9.20588 68.7233 10.0053 68.6923C9.29012 49.1372 10.5399 29.1523 10.0053 9.55422C9.99496 9.39434 9.8368 9.24994 9.83336 9.2104L7.77041 9.38231L7.59849 7.14572H9.48954C8.9738 6.82252 8.08157 6.98584 7.42658 6.97381C6.63406 6.96005 5.78997 7.09586 5.04387 6.77782L5.01808 4.67876C5.0559 4.53779 5.24844 4.54811 5.36534 4.56702C5.35503 4.14755 5.1728 3.79857 5.19343 3.36363C5.20031 3.2175 5.2089 3.08513 5.36534 3.0198L75.0623 2.84445C75.2532 2.87539 75.15 3.33784 75.162 3.53554C75.1861 3.93438 75.1414 4.34182 75.162 4.74066H75.5059C75.5489 4.01518 75.5127 3.2347 75.5059 2.50407L75.5007 2.50234ZM70.3433 68.6889H72.7501V70.7518H70.3433V68.6889ZM72.5782 73.1586L72.7398 71.1713L74.9867 71.0957V73.1603H72.5782V73.1586ZM5.53038 71.0939H7.59506L7.69305 73.1689L5.69198 73.2549L5.53038 71.0939Z" fill="#FDBB01"/>
<path d="M75.3284 75.909L75.1582 77.6281H5.28753C5.09671 77.6024 5.19986 76.7531 5.18782 76.5021C5.17235 76.1703 5.36661 75.8127 4.844 75.909C4.84744 76.0809 4.84056 76.2528 4.844 76.4247L5.01247 76.5107L4.844 76.5967C4.84915 76.7686 4.83196 76.9422 4.844 77.1124C5.11218 77.1829 5.10187 77.745 4.844 77.8001L75.3301 77.9737V75.909H75.3284Z" fill="#FDD702"/>
<path d="M77.5627 73.6744C77.6762 73.683 77.7931 73.6692 77.9066 73.6744C78.1851 50.9578 77.69 28.2171 77.9152 5.49536L77.7347 5.08105L77.5627 73.6744Z" fill="#FDD702"/>
<path d="M75.1562 3.53369L74.3086 3.81563L74.4685 4.90728H72.5775L72.7494 6.80004C73.6072 6.79316 74.4719 6.8052 75.3298 6.80004C75.1716 6.15193 75.4622 5.43849 75.5 4.909C75.5034 4.85226 75.4965 4.79381 75.5 4.73708H75.1562C75.1355 4.33996 75.1802 3.93253 75.1562 3.53369Z" fill="#FEE628"/>
<path d="M77.5632 73.6743C76.7775 73.6141 75.9867 73.3786 75.1547 73.5007L75.1667 74.955C74.2332 75.1012 74.5066 75.6375 75.3266 75.7355C76.1466 75.8335 77.0835 75.665 77.907 75.7355C77.9122 75.0496 77.8984 74.3568 77.907 73.6708C77.7935 73.6657 77.6766 73.6794 77.5632 73.6708V73.6743Z" fill="#FEE628"/>
<path d="M4.84408 75.7373C4.83377 75.0548 4.863 74.3654 4.83549 73.6829L2.95304 73.5024V75.5671C3.50832 75.4468 3.88309 75.6324 4.32835 75.739C4.47275 75.7734 4.68249 75.7167 4.84408 75.739V75.7373Z" fill="#FEE628"/>
<path d="M4.84373 77.8002C5.1016 77.7452 5.11191 77.183 4.84373 77.1125C4.8592 77.3395 4.83341 77.5733 4.84373 77.8002Z" fill="#FDBB01"/>
<path d="M4.84422 76.5967L5.0127 76.5108L4.84422 76.4248C4.84422 76.4815 4.8425 76.54 4.84422 76.5967Z" fill="#FDBB01"/>
<path d="M10.0013 9.55078C10.5359 29.1489 9.28613 49.1338 10.0013 68.6889C9.20361 68.7181 8.39218 68.6682 7.59279 68.6889L7.66843 70.7639L10.1732 70.9255C10.3795 70.7192 10.0116 69.0189 9.99957 68.6889C20.2645 68.3038 30.6773 68.6287 41.0007 68.6235C49.5293 68.6201 58.0733 68.6201 66.638 68.5101C67.8724 68.4946 69.1102 68.5359 70.3428 68.5187V9.55078H9.99957H10.0013ZM12.2362 11.6137H67.936V66.2821H12.2362V11.6137Z" fill="#FEE628"/>
<path d="M5.35994 3.01789L5.53013 3.10557V3.36H5.18802C5.16739 3.79494 5.34962 4.14392 5.35994 4.56339C6.08713 4.68545 6.66476 4.64762 7.4143 4.74389L7.42289 6.97017C8.07788 6.9822 8.97011 6.81889 9.48585 7.14208C10.0497 7.72831 9.76263 8.48301 9.82967 9.20504C9.83311 9.24458 9.99127 9.38899 10.0016 9.54887H70.3431C70.331 9.43712 70.3603 9.31335 70.3431 9.20504C70.3396 9.17753 70.0852 9.00219 70.0353 8.74603C69.9288 8.20623 69.6623 7.23835 70.2588 7.14208C70.57 7.09223 71.139 6.99252 71.3745 6.96845C71.6599 6.66244 72.3201 6.79997 72.7498 6.79654L72.5779 4.90549H74.469L74.3091 3.81385L75.1566 3.53191C75.1446 3.33593 75.2477 2.87176 75.0569 2.84082L5.35994 3.01617V3.01789Z" fill="#FDD702"/>
<path d="M5.35966 4.5653C5.24448 4.54639 5.05022 4.53608 5.0124 4.67705L5.03819 6.7761C5.78429 7.09414 6.62838 6.95833 7.4209 6.97208L7.4123 4.74581C6.66276 4.64782 6.08685 4.68736 5.35794 4.5653H5.35966Z" fill="#FEE628"/>
<path d="M71.3747 6.97207C71.1375 6.99442 70.5685 7.09413 70.259 7.14571C69.6642 7.24198 69.9289 8.20985 70.0355 8.74966C70.0854 9.00581 70.3398 9.18116 70.3433 9.20867H72.5781L72.4079 6.97207C72.0693 6.99442 71.7134 6.93941 71.3747 6.97207Z" fill="#FEE628"/>
<path d="M70.3432 68.6887H72.75V70.7517H70.3432V68.6887Z" fill="#FEE628"/>
<path d="M72.5778 73.1584H74.9846L74.9863 71.0938L72.7394 71.1711L72.5778 73.1584Z" fill="#FEE628"/>
<path d="M5.52971 71.0938L5.69303 73.2547L7.69238 73.1705L7.59611 71.0938H5.52971Z" fill="#FEE628"/>
<path d="M9.48586 7.1438H7.59482L7.76673 9.37867L9.82969 9.20676C9.76264 8.48472 10.0497 7.73002 9.48586 7.1438Z" fill="#FEE628"/>
<path d="M5.18817 3.36189H5.53027V3.10574L5.36008 3.01807C5.20364 3.08339 5.19504 3.21577 5.18817 3.36189Z" fill="#FEE628"/>
<path d="M12.2367 11.6135V66.2819H67.9365V11.6135H12.2367ZM42.4934 26.2261L44.8933 26.5768L45.0738 28.6329L47.2829 28.6587L47.6405 30.7939L49.6965 30.8884L50.0834 33.2522L52.4678 33.4465L52.6277 35.7793L54.6992 35.8567L54.8711 38.0916C57.5272 37.8475 56.8842 38.3752 56.7639 40.4984L54.7749 40.6582L54.6992 42.9034L52.454 42.9808L52.2942 45.1417H50.0576L49.8857 47.3749H47.4789V49.6115L45.2337 49.6854L44.9002 51.8463L42.667 51.6744V45.4856H22.5532V32.764L42.4951 32.5921V26.2313L42.4934 26.2261Z" fill="#FDD702"/>
<path d="M42.4933 26.2261V32.5869L22.5514 32.7588V45.4804H42.6653V51.6692L44.8984 51.8412L45.2319 49.6802L47.4788 49.6063V47.3697H49.8839L50.0558 45.1331H52.2924L52.4523 42.9739L54.6975 42.8965L54.7731 40.6513L56.7621 40.4915C56.8825 38.3683 57.5254 37.8406 54.8694 38.0847L54.6975 35.8498L52.6259 35.7724L52.466 33.4396L50.0816 33.2453L49.6948 30.8815L47.6387 30.787L47.2811 28.6518L45.072 28.626L44.8915 26.5699L42.4916 26.2192L42.4933 26.2261Z" fill="#020201"/>
</g>
<defs>
<clipPath id="clip0_236_257">
<rect width="80" height="80" fill="white" transform="matrix(-1 0 0 1 80 0.323975)"/>
</clipPath>
</defs>
</svg>
