<?xml version="1.0" standalone="no"?>
<!DOCTYPE svg PUBLIC "-//W3C//DTD SVG 20010904//EN"
 "http://www.w3.org/TR/2001/REC-SVG-20010904/DTD/svg10.dtd">
<svg version="1.0" xmlns="http://www.w3.org/2000/svg"
 width="149.000000pt" height="37.000000pt" viewBox="0 0 149.000000 37.000000"
 preserveAspectRatio="xMidYMid meet">

<g transform="translate(0.000000,37.000000) scale(0.100000,-0.100000)"
fill="#000000" stroke="none">
<path d="M17 342 c-14 -15 -17 -42 -17 -155 0 -82 5 -146 12 -162 l11 -25 717
0 717 0 11 25 c7 16 12 81 12 165 0 113 -3 142 -16 154 -14 14 -93 16 -723 16
-673 0 -709 -1 -724 -18z m1437 -8 c14 -5 16 -28 16 -146 0 -107 -3 -143 -14
-154 -12 -12 -122 -14 -719 -14 -634 0 -705 2 -711 16 -8 21 -8 289 1 297 8 9
1406 9 1427 1z"/>
<path d="M103 246 c-31 -15 -29 -33 7 -66 33 -31 37 -45 15 -54 -8 -3 -15 -15
-15 -26 0 -17 6 -20 50 -20 42 0 50 3 50 19 0 10 -7 21 -15 25 -22 8 -18 29
10 56 14 13 25 30 25 38 0 37 -76 54 -127 28z m87 -28 c0 -12 -7 -30 -16 -40
-16 -17 -18 -17 -30 0 -7 9 -14 27 -14 40 0 18 5 22 30 22 24 0 30 -4 30 -22z
m30 2 c0 -5 -5 -10 -11 -10 -5 0 -7 5 -4 10 3 6 8 10 11 10 2 0 4 -4 4 -10z
m-40 -110 c0 -5 -12 -10 -26 -10 -14 0 -23 4 -19 10 3 6 15 10 26 10 10 0 19
-4 19 -10z"/>
<path d="M352 178 l3 -53 38 -3 c28 -2 37 0 37 12 0 9 -9 16 -20 16 -17 0 -20
7 -20 40 0 34 -3 40 -21 40 -18 0 -20 -5 -17 -52z"/>
<path d="M440 175 l0 -55 56 1 c37 1 57 6 61 15 7 19 23 18 23 -1 0 -8 7 -15
16 -15 12 0 14 10 12 53 l-3 52 -40 0 c-33 0 -41 -4 -43 -21 -2 -16 -8 -20
-28 -16 -29 5 -32 22 -4 22 11 0 20 5 20 10 0 6 -16 10 -35 10 l-35 0 0 -55z
m140 15 c0 -11 -4 -20 -10 -20 -5 0 -10 9 -10 20 0 11 5 20 10 20 6 0 10 -9
10 -20z m-60 -35 c0 -9 -9 -15 -25 -15 -16 0 -25 6 -25 15 0 9 9 15 25 15 16
0 25 -6 25 -15z"/>
<path d="M620 176 l0 -56 34 0 c43 0 58 19 54 67 -3 37 -4 38 -45 41 l-43 3 0
-55z m60 -1 c0 -24 -5 -35 -15 -35 -10 0 -15 11 -15 35 0 24 5 35 15 35 10 0
15 -11 15 -35z"/>
<path d="M720 175 l0 -56 58 3 c50 3 57 6 60 26 5 30 22 28 22 -3 0 -15 6 -25
15 -25 12 0 14 12 12 53 l-2 52 -42 3 c-40 3 -43 1 -43 -21 0 -20 -4 -23 -25
-19 -30 5 -34 22 -5 22 11 0 20 5 20 10 0 6 -16 10 -35 10 l-35 0 0 -55z m140
25 c0 -5 -4 -10 -10 -10 -5 0 -10 5 -10 10 0 6 5 10 10 10 6 0 10 -4 10 -10z
m-60 -45 c0 -9 -9 -15 -25 -15 -16 0 -25 6 -25 15 0 9 9 15 25 15 16 0 25 -6
25 -15z"/>
<path d="M900 176 l0 -56 34 0 c43 0 55 15 53 65 -2 40 -2 40 -44 43 l-43 3 0
-55z m60 24 c0 -5 -7 -10 -15 -10 -8 0 -15 5 -15 10 0 6 7 10 15 10 8 0 15 -4
15 -10z m0 -45 c0 -8 -7 -15 -15 -15 -8 0 -15 7 -15 15 0 8 7 15 15 15 8 0 15
-7 15 -15z"/>
<path d="M1007 223 c-9 -8 -9 -66 -1 -87 7 -18 54 -22 71 -5 8 8 13 8 17 0 10
-16 36 -13 36 4 0 19 16 19 24 0 3 -10 16 -14 38 -12 25 2 34 8 36 25 4 29 20
28 24 0 3 -20 10 -23 56 -26 36 -2 57 1 67 12 18 18 20 67 3 84 -15 15 -88 16
-88 1 0 -8 -4 -8 -13 -1 -15 13 -165 14 -173 1 -3 -5 -13 -5 -24 1 -21 11 -63
13 -73 3z m43 -48 c0 -19 -4 -35 -10 -35 -5 0 -10 16 -10 35 0 19 5 35 10 35
6 0 10 -16 10 -35z m100 15 c0 -11 -4 -20 -10 -20 -5 0 -10 9 -10 20 0 11 5
20 10 20 6 0 10 -9 10 -20z m100 10 c0 -5 -4 -10 -10 -10 -5 0 -10 5 -10 10 0
6 5 10 10 10 6 0 10 -4 10 -10z m100 -25 c0 -19 -4 -35 -10 -35 -5 0 -10 16
-10 35 0 19 5 35 10 35 6 0 10 -16 10 -35z m-60 5 c0 -5 -5 -10 -11 -10 -5 0
-7 5 -4 10 3 6 8 10 11 10 2 0 4 -4 4 -10z"/>
<path d="M240 210 c0 -5 11 -10 25 -10 14 0 25 5 25 10 0 6 -11 10 -25 10 -14
0 -25 -4 -25 -10z"/>
<path d="M230 180 c0 -5 14 -10 30 -10 17 0 30 5 30 10 0 6 -13 10 -30 10 -16
0 -30 -4 -30 -10z"/>
<path d="M225 140 c28 -12 63 -12 70 0 4 6 -12 10 -42 9 -36 0 -43 -3 -28 -9z"/>
</g>
</svg>
