<svg width="81" height="81" viewBox="0 0 81 81" fill="none" xmlns="http://www.w3.org/2000/svg">
<g clip-path="url(#clip0_236_197)">
<path d="M1.10258 4.73706H0.930664V75.9091H1.10258V4.73706Z" fill="#FEE628"/>
<path d="M5.22845 2.50224C5.23705 1.70285 5.2233 0.894855 5.22845 0.095459H75.7988C76.3884 0.502893 75.7695 2.11544 76.2182 2.4266L78.2932 2.50052V4.73711H80.5264V75.8232L80.253 76.0552L78.2915 76.081V78.3176L76.0566 78.3159C75.9019 78.4706 76.3369 80.2671 75.8005 80.5525H5.05654V78.3176H2.64976V75.9108H1.10254V4.73883H2.65148L2.64976 2.50224C3.5076 2.4988 4.37233 2.51084 5.23017 2.50224C5.2233 3.23287 5.18719 4.01336 5.23017 4.73711C5.23361 4.79384 5.22673 4.85229 5.23017 4.90902L2.9953 5.08094L2.81479 5.49524C3.04172 28.217 2.54489 50.9577 2.82339 73.6742C2.83198 74.3602 2.81823 75.053 2.82339 75.7389C3.64685 75.6667 4.60097 75.8352 5.4038 75.7389V77.9755L75.8882 77.8019C75.8985 77.575 75.8727 77.3412 75.8882 77.1142C75.9002 76.944 75.883 76.7704 75.8882 76.5985C75.8899 76.5418 75.8882 76.4833 75.8882 76.4266C75.8916 76.2547 75.8847 76.0828 75.8882 75.9108C75.8882 75.8541 75.8882 75.7957 75.8882 75.7389C76.0498 75.7166 76.2595 75.7733 76.4039 75.7389H78.2949C78.3964 75.4965 78.123 75.2249 78.123 75.1372V4.91075H75.8864L75.7266 2.5796C52.2518 2.59164 28.7169 2.30626 5.23189 2.50396L5.22845 2.50224Z" fill="#020201"/>
<path d="M5.2278 2.50234C28.7146 2.30293 52.2477 2.5883 75.7225 2.57799L75.8823 4.91085H78.1189V75.1356C78.1189 75.2233 78.3923 75.4949 78.2909 75.7373H76.3998C76.8451 75.6324 77.2216 75.4468 77.7751 75.5671V73.5024L75.8927 73.6829C75.8652 74.3654 75.8927 75.0548 75.8841 75.7373C75.8841 75.794 75.8841 75.8525 75.8841 75.9092C75.3615 75.8129 75.5557 76.1705 75.5402 76.5023C75.5282 76.755 75.6331 77.6026 75.4405 77.6318H5.56991L5.39971 75.9092V75.7373C6.21974 75.6376 6.49308 75.103 5.55959 74.9568L5.57163 73.5024C4.73957 73.3787 3.94877 73.6159 3.16312 73.6761L2.99121 5.08276L5.22608 4.91085C5.2639 5.44034 5.55443 6.1555 5.39627 6.80189C6.25412 6.80533 7.11884 6.7933 7.97669 6.80189C8.40647 6.80533 9.06662 6.6678 9.35199 6.97381C9.01504 6.94114 8.65918 6.99443 8.3188 6.97381L8.1486 9.20867H10.3835C10.3663 9.3187 10.3955 9.44248 10.3835 9.55422V68.5221C11.6144 68.5393 12.8521 68.498 14.0865 68.5135C22.6495 68.6235 31.1953 68.6235 39.7239 68.627C50.0473 68.6304 60.46 68.3055 70.725 68.6923C70.7129 69.0224 70.345 70.7209 70.5513 70.9289L73.0561 70.7673L73.1317 68.6923C72.3323 68.6717 71.5226 68.7233 70.7232 68.6923C71.4384 49.1372 70.1886 29.1523 70.7232 9.55422C70.7336 9.39434 70.8917 9.24994 70.8952 9.2104L72.9581 9.38231L73.13 7.14572H71.239C71.7547 6.82252 72.6469 6.98584 73.3019 6.97381C74.0945 6.96005 74.9385 7.09586 75.6846 6.77782L75.7104 4.67876C75.6726 4.53779 75.4801 4.54811 75.3632 4.56702C75.3735 4.14755 75.5557 3.79857 75.5351 3.36363C75.5282 3.2175 75.5196 3.08513 75.3632 3.0198L5.66618 2.84445C5.47535 2.87539 5.5785 3.33784 5.56647 3.53554C5.5424 3.93438 5.5871 4.34182 5.56647 4.74066H5.22264C5.17966 4.01518 5.21577 3.2347 5.22264 2.50407L5.2278 2.50234ZM10.3852 68.6889H7.97841V70.7518H10.3852V68.6889ZM8.15032 73.1586L7.98872 71.1713L5.74182 71.0957V73.1603H8.15032V73.1586ZM75.1981 71.0939H73.1335L73.0355 73.1689L75.0365 73.2549L75.1981 71.0939Z" fill="#FDBB01"/>
<path d="M5.40016 75.909L5.57035 77.6281H75.441C75.6318 77.6024 75.5287 76.7531 75.5407 76.5021C75.5562 76.1703 75.3619 75.8127 75.8845 75.909C75.8811 76.0809 75.888 76.2528 75.8845 76.4247L75.716 76.5107L75.8845 76.5967C75.8794 76.7686 75.8966 76.9422 75.8845 77.1124C75.6163 77.1829 75.6266 77.745 75.8845 77.8001L5.39844 77.9737V75.909H5.40016Z" fill="#FDD702"/>
<path d="M3.16578 73.6744C3.05231 73.683 2.93541 73.6692 2.82195 73.6744C2.54345 50.9578 3.03856 28.2171 2.81335 5.49536L2.99386 5.08105L3.16578 73.6744Z" fill="#FDD702"/>
<path d="M5.57236 3.53369L6.41989 3.81563L6.26001 4.90728H8.15105L7.97914 6.80004C7.12129 6.79316 6.25657 6.8052 5.39873 6.80004C5.55689 6.15193 5.26635 5.43849 5.22853 4.909C5.22509 4.85226 5.23197 4.79381 5.22853 4.73708H5.57236C5.59299 4.33996 5.54829 3.93253 5.57236 3.53369Z" fill="#FEE628"/>
<path d="M3.16533 73.6743C3.95098 73.6141 4.74178 73.3786 5.57383 73.5007L5.5618 74.955C6.49529 75.1012 6.22195 75.6375 5.40192 75.7355C4.5819 75.8335 3.64497 75.665 2.82151 75.7355C2.81635 75.0496 2.8301 74.3568 2.82151 73.6708C2.93497 73.6657 3.05187 73.6794 3.16533 73.6708V73.6743Z" fill="#FEE628"/>
<path d="M75.8844 75.7373C75.8947 75.0548 75.8655 74.3654 75.893 73.6829L77.7755 73.5024V75.5671C77.2202 75.4468 76.8454 75.6324 76.4002 75.739C76.2558 75.7734 76.046 75.7167 75.8844 75.739V75.7373Z" fill="#FEE628"/>
<path d="M75.8848 77.8002C75.6269 77.7452 75.6166 77.183 75.8848 77.1125C75.8693 77.3395 75.8951 77.5733 75.8848 77.8002Z" fill="#FDBB01"/>
<path d="M75.8843 76.5967L75.7158 76.5108L75.8843 76.4248C75.8843 76.4815 75.886 76.54 75.8843 76.5967Z" fill="#FDBB01"/>
<path d="M70.7272 9.55078C70.1926 29.1489 71.4424 49.1338 70.7272 68.6889C71.5249 68.7181 72.3363 68.6682 73.1357 68.6889L73.0601 70.7639L70.5553 70.9255C70.349 70.7192 70.7169 69.0189 70.7289 68.6889C60.464 68.3038 50.0512 68.6287 39.7279 68.6235C31.1993 68.6201 22.6552 68.6201 14.0905 68.5101C12.8561 68.4946 11.6184 68.5359 10.3857 68.5187V9.55078H70.7289H70.7272ZM68.4924 11.6137H12.7925V66.2821H68.4924V11.6137Z" fill="#FEE628"/>
<path d="M75.3686 3.01789L75.1984 3.10557V3.36H75.5405C75.5611 3.79494 75.3789 4.14392 75.3686 4.56339C74.6414 4.68545 74.0638 4.64762 73.3142 4.74389L73.3056 6.97017C72.6506 6.9822 71.7584 6.81889 71.2427 7.14208C70.6788 7.72831 70.9659 8.48301 70.8988 9.20504C70.8954 9.24458 70.7372 9.38899 70.7269 9.54887H10.3855C10.3975 9.43712 10.3683 9.31335 10.3855 9.20504C10.3889 9.17753 10.6433 9.00219 10.6932 8.74603C10.7998 8.20623 11.0662 7.23835 10.4697 7.14208C10.1585 7.09223 9.58949 6.99252 9.35397 6.96845C9.0686 6.66244 8.40845 6.79997 7.97867 6.79654L8.15058 4.90549H6.25954L6.41942 3.81385L5.57188 3.53191C5.58392 3.33593 5.48077 2.87176 5.67159 2.84082L75.3686 3.01617V3.01789Z" fill="#FDD702"/>
<path d="M75.3689 4.5653C75.484 4.54639 75.6783 4.53608 75.7161 4.67705L75.6903 6.7761C74.9442 7.09414 74.1001 6.95833 73.3076 6.97208L73.3162 4.74581C74.0658 4.64782 74.6417 4.68736 75.3706 4.5653H75.3689Z" fill="#FEE628"/>
<path d="M9.35378 6.97207C9.59102 6.99442 10.1601 7.09413 10.4695 7.14571C11.0643 7.24198 10.7996 8.20985 10.693 8.74966C10.6431 9.00581 10.3887 9.18116 10.3853 9.20867H8.15039L8.32058 6.97207C8.65925 6.99442 9.01511 6.93941 9.35378 6.97207Z" fill="#FEE628"/>
<path d="M10.3853 68.6887H7.97852V70.7517H10.3853V68.6887Z" fill="#FEE628"/>
<path d="M8.15069 73.1584H5.74391L5.74219 71.0938L7.98909 71.1711L8.15069 73.1584Z" fill="#FEE628"/>
<path d="M75.1988 71.0938L75.0355 73.2547L73.0361 73.1705L73.1324 71.0938H75.1988Z" fill="#FEE628"/>
<path d="M71.2427 7.1438H73.1337L72.9618 9.37867L70.8988 9.20676C70.9659 8.48472 70.6788 7.73002 71.2427 7.1438Z" fill="#FEE628"/>
<path d="M75.5403 3.36189H75.1982V3.10574L75.3684 3.01807C75.5249 3.08339 75.5335 3.21577 75.5403 3.36189Z" fill="#FEE628"/>
<path d="M68.4918 11.6135V66.2819H12.792V11.6135H68.4918ZM38.2351 26.2261L35.8352 26.5768L35.6547 28.6329L33.4456 28.6587L33.088 30.7939L31.032 30.8884L30.6452 33.2522L28.2607 33.4465L28.1009 35.7793L26.0293 35.8567L25.8574 38.0916C23.2013 37.8475 23.8443 38.3752 23.9646 40.4984L25.9537 40.6582L26.0293 42.9034L28.2745 42.9808L28.4344 45.1417H30.671L30.8429 47.3749H33.2496V49.6115L35.4948 49.6854L35.8283 51.8463L38.0615 51.6744V45.4856H58.1753V32.764L38.2334 32.5921V26.2313L38.2351 26.2261Z" fill="#FDD702"/>
<path d="M38.2352 26.2261V32.5869L58.1771 32.7588V45.4804H38.0633V51.6692L35.8301 51.8412L35.4966 49.6802L33.2497 49.6063V47.3697H30.8446L30.6727 45.1331H28.4361L28.2762 42.9739L26.0311 42.8965L25.9554 40.6513L23.9664 40.4915C23.846 38.3683 23.2031 37.8406 25.8591 38.0847L26.0311 35.8498L28.1026 35.7724L28.2625 33.4396L30.6469 33.2453L31.0337 30.8815L33.0898 30.787L33.4474 28.6518L35.6565 28.626L35.837 26.5699L38.2369 26.2192L38.2352 26.2261Z" fill="#FDD702"/>
<path d="M1.10258 4.73706H0.930664V75.9091H1.10258V4.73706Z" fill="#FEE628"/>
<path d="M5.22845 2.50224C5.23705 1.70285 5.2233 0.894855 5.22845 0.095459H75.7988C76.3884 0.502893 75.7695 2.11544 76.2182 2.4266L78.2932 2.50052V4.73711H80.5264V75.8232L80.253 76.0552L78.2915 76.081V78.3176L76.0566 78.3159C75.9019 78.4706 76.3369 80.2671 75.8005 80.5525H5.05654V78.3176H2.64976V75.9108H1.10254V4.73883H2.65148L2.64976 2.50224C3.5076 2.4988 4.37233 2.51084 5.23017 2.50224C5.2233 3.23287 5.18719 4.01336 5.23017 4.73711C5.23361 4.79384 5.22673 4.85229 5.23017 4.90902L2.9953 5.08094L2.81479 5.49524C3.04172 28.217 2.54489 50.9577 2.82339 73.6742C2.83198 74.3602 2.81823 75.053 2.82339 75.7389C3.64685 75.6667 4.60097 75.8352 5.4038 75.7389V77.9755L75.8882 77.8019C75.8985 77.575 75.8727 77.3412 75.8882 77.1142C75.9002 76.944 75.883 76.7704 75.8882 76.5985C75.8899 76.5418 75.8882 76.4833 75.8882 76.4266C75.8916 76.2547 75.8847 76.0828 75.8882 75.9108C75.8882 75.8541 75.8882 75.7957 75.8882 75.7389C76.0498 75.7166 76.2595 75.7733 76.4039 75.7389H78.2949C78.3964 75.4965 78.123 75.2249 78.123 75.1372V4.91075H75.8864L75.7266 2.5796C52.2518 2.59164 28.7169 2.30626 5.23189 2.50396L5.22845 2.50224Z" fill="#020201"/>
<path d="M5.2278 2.50234C28.7146 2.30293 52.2477 2.5883 75.7225 2.57799L75.8823 4.91085H78.1189V75.1356C78.1189 75.2233 78.3923 75.4949 78.2909 75.7373H76.3998C76.8451 75.6324 77.2216 75.4468 77.7751 75.5671V73.5024L75.8927 73.6829C75.8652 74.3654 75.8927 75.0548 75.8841 75.7373C75.8841 75.794 75.8841 75.8525 75.8841 75.9092C75.3615 75.8129 75.5557 76.1705 75.5402 76.5023C75.5282 76.755 75.6331 77.6026 75.4405 77.6318H5.56991L5.39971 75.9092V75.7373C6.21974 75.6376 6.49308 75.103 5.55959 74.9568L5.57163 73.5024C4.73957 73.3787 3.94877 73.6159 3.16312 73.6761L2.99121 5.08276L5.22608 4.91085C5.2639 5.44034 5.55443 6.1555 5.39627 6.80189C6.25412 6.80533 7.11884 6.7933 7.97669 6.80189C8.40647 6.80533 9.06662 6.6678 9.35199 6.97381C9.01504 6.94114 8.65918 6.99443 8.3188 6.97381L8.1486 9.20867H10.3835C10.3663 9.3187 10.3955 9.44248 10.3835 9.55422V68.5221C11.6144 68.5393 12.8521 68.498 14.0865 68.5135C22.6495 68.6235 31.1953 68.6235 39.7239 68.627C50.0473 68.6304 60.46 68.3055 70.725 68.6923C70.7129 69.0224 70.345 70.7209 70.5513 70.9289L73.0561 70.7673L73.1317 68.6923C72.3323 68.6717 71.5226 68.7233 70.7232 68.6923C71.4384 49.1372 70.1886 29.1523 70.7232 9.55422C70.7336 9.39434 70.8917 9.24994 70.8952 9.2104L72.9581 9.38231L73.13 7.14572H71.239C71.7547 6.82252 72.6469 6.98584 73.3019 6.97381C74.0945 6.96005 74.9385 7.09586 75.6846 6.77782L75.7104 4.67876C75.6726 4.53779 75.4801 4.54811 75.3632 4.56702C75.3735 4.14755 75.5557 3.79857 75.5351 3.36363C75.5282 3.2175 75.5196 3.08513 75.3632 3.0198L5.66618 2.84445C5.47535 2.87539 5.5785 3.33784 5.56647 3.53554C5.5424 3.93438 5.5871 4.34182 5.56647 4.74066H5.22264C5.17966 4.01518 5.21577 3.2347 5.22264 2.50407L5.2278 2.50234ZM10.3852 68.6889H7.97841V70.7518H10.3852V68.6889ZM8.15032 73.1586L7.98872 71.1713L5.74182 71.0957V73.1603H8.15032V73.1586ZM75.1981 71.0939H73.1335L73.0355 73.1689L75.0365 73.2549L75.1981 71.0939Z" fill="#FDBB01"/>
<path d="M5.40016 75.909L5.57035 77.6281H75.441C75.6318 77.6024 75.5287 76.7531 75.5407 76.5021C75.5562 76.1703 75.3619 75.8127 75.8845 75.909C75.8811 76.0809 75.888 76.2528 75.8845 76.4247L75.716 76.5107L75.8845 76.5967C75.8794 76.7686 75.8966 76.9422 75.8845 77.1124C75.6163 77.1829 75.6266 77.745 75.8845 77.8001L5.39844 77.9737V75.909H5.40016Z" fill="#FDD702"/>
<path d="M3.16578 73.6744C3.05231 73.683 2.93541 73.6692 2.82195 73.6744C2.54345 50.9578 3.03856 28.2171 2.81335 5.49536L2.99386 5.08105L3.16578 73.6744Z" fill="#FDD702"/>
<path d="M5.57236 3.53369L6.41989 3.81563L6.26001 4.90728H8.15105L7.97914 6.80004C7.12129 6.79316 6.25657 6.8052 5.39873 6.80004C5.55689 6.15193 5.26635 5.43849 5.22853 4.909C5.22509 4.85226 5.23197 4.79381 5.22853 4.73708H5.57236C5.59299 4.33996 5.54829 3.93253 5.57236 3.53369Z" fill="#FEE628"/>
<path d="M3.16533 73.6743C3.95098 73.6141 4.74178 73.3786 5.57383 73.5007L5.5618 74.955C6.49529 75.1012 6.22195 75.6375 5.40192 75.7355C4.5819 75.8335 3.64497 75.665 2.82151 75.7355C2.81635 75.0496 2.8301 74.3568 2.82151 73.6708C2.93497 73.6657 3.05187 73.6794 3.16533 73.6708V73.6743Z" fill="#FEE628"/>
<path d="M75.8844 75.7373C75.8947 75.0548 75.8655 74.3654 75.893 73.6829L77.7755 73.5024V75.5671C77.2202 75.4468 76.8454 75.6324 76.4002 75.739C76.2558 75.7734 76.046 75.7167 75.8844 75.739V75.7373Z" fill="#FEE628"/>
<path d="M75.8848 77.8002C75.6269 77.7452 75.6166 77.183 75.8848 77.1125C75.8693 77.3395 75.8951 77.5733 75.8848 77.8002Z" fill="#FDBB01"/>
<path d="M75.8843 76.5967L75.7158 76.5108L75.8843 76.4248C75.8843 76.4815 75.886 76.54 75.8843 76.5967Z" fill="#FDBB01"/>
<path d="M70.7272 9.55078C70.1926 29.1489 71.4424 49.1338 70.7272 68.6889C71.5249 68.7181 72.3363 68.6682 73.1357 68.6889L73.0601 70.7639L70.5553 70.9255C70.349 70.7192 70.7169 69.0189 70.7289 68.6889C60.464 68.3038 50.0512 68.6287 39.7279 68.6235C31.1993 68.6201 22.6552 68.6201 14.0905 68.5101C12.8561 68.4946 11.6184 68.5359 10.3857 68.5187V9.55078H70.7289H70.7272ZM68.4924 11.6137H12.7925V66.2821H68.4924V11.6137Z" fill="#FEE628"/>
<path d="M75.3686 3.01789L75.1984 3.10557V3.36H75.5405C75.5611 3.79494 75.3789 4.14392 75.3686 4.56339C74.6414 4.68545 74.0638 4.64762 73.3142 4.74389L73.3056 6.97017C72.6506 6.9822 71.7584 6.81889 71.2427 7.14208C70.6788 7.72831 70.9659 8.48301 70.8988 9.20504C70.8954 9.24458 70.7372 9.38899 70.7269 9.54887H10.3855C10.3975 9.43712 10.3683 9.31335 10.3855 9.20504C10.3889 9.17753 10.6433 9.00219 10.6932 8.74603C10.7998 8.20623 11.0662 7.23835 10.4697 7.14208C10.1585 7.09223 9.58949 6.99252 9.35397 6.96845C9.0686 6.66244 8.40845 6.79997 7.97867 6.79654L8.15058 4.90549H6.25954L6.41942 3.81385L5.57188 3.53191C5.58392 3.33593 5.48077 2.87176 5.67159 2.84082L75.3686 3.01617V3.01789Z" fill="#FDD702"/>
<path d="M75.3689 4.5653C75.484 4.54639 75.6783 4.53608 75.7161 4.67705L75.6903 6.7761C74.9442 7.09414 74.1001 6.95833 73.3076 6.97208L73.3162 4.74581C74.0658 4.64782 74.6417 4.68736 75.3706 4.5653H75.3689Z" fill="#FEE628"/>
<path d="M9.35378 6.97207C9.59102 6.99442 10.1601 7.09413 10.4695 7.14571C11.0643 7.24198 10.7996 8.20985 10.693 8.74966C10.6431 9.00581 10.3887 9.18116 10.3853 9.20867H8.15039L8.32058 6.97207C8.65925 6.99442 9.01511 6.93941 9.35378 6.97207Z" fill="#FEE628"/>
<path d="M10.3853 68.6887H7.97852V70.7517H10.3853V68.6887Z" fill="#FEE628"/>
<path d="M8.15069 73.1584H5.74391L5.74219 71.0938L7.98909 71.1711L8.15069 73.1584Z" fill="#FEE628"/>
<path d="M75.1988 71.0938L75.0355 73.2547L73.0361 73.1705L73.1324 71.0938H75.1988Z" fill="#FEE628"/>
<path d="M71.2427 7.1438H73.1337L72.9618 9.37867L70.8988 9.20676C70.9659 8.48472 70.6788 7.73002 71.2427 7.1438Z" fill="#FEE628"/>
<path d="M75.5403 3.36189H75.1982V3.10574L75.3684 3.01807C75.5249 3.08339 75.5335 3.21577 75.5403 3.36189Z" fill="#FEE628"/>
<path d="M68.4918 11.6135V66.2819H12.792V11.6135H68.4918ZM38.2351 26.2261L35.8352 26.5768L35.6547 28.6329L33.4456 28.6587L33.088 30.7939L31.032 30.8884L30.6452 33.2522L28.2607 33.4465L28.1009 35.7793L26.0293 35.8567L25.8574 38.0916C23.2013 37.8475 23.8443 38.3752 23.9646 40.4984L25.9537 40.6582L26.0293 42.9034L28.2745 42.9808L28.4344 45.1417H30.671L30.8429 47.3749H33.2496V49.6115L35.4948 49.6854L35.8283 51.8463L38.0615 51.6744V45.4856H58.1753V32.764L38.2334 32.5921V26.2313L38.2351 26.2261Z" fill="#FDD702"/>
<path d="M38.2352 26.2261V32.5869L58.1771 32.7588V45.4804H38.0633V51.6692L35.8301 51.8412L35.4966 49.6802L33.2497 49.6063V47.3697H30.8446L30.6727 45.1331H28.4361L28.2762 42.9739L26.0311 42.8965L25.9554 40.6513L23.9664 40.4915C23.846 38.3683 23.2031 37.8406 25.8591 38.0847L26.0311 35.8498L28.1026 35.7724L28.2625 33.4396L30.6469 33.2453L31.0337 30.8815L33.0898 30.787L33.4474 28.6518L35.6565 28.626L35.837 26.5699L38.2369 26.2192L38.2352 26.2261Z" fill="#FDD702"/>
<path d="M64.0539 35.5833V37.0517H61.117V45.8625H58.1801V37.0517H55.2432V35.5833H64.0539Z" fill="black"/>
<path d="M51.2889 37.0517H48.352V39.9886H51.2889V37.0517ZM52.7573 41.4571H54.2258V45.8625H51.2889V41.4571H48.352V45.8625H45.415V35.5833H52.7573V37.0517H54.2258V39.9886H52.7573V41.4571Z" fill="black"/>
<path d="M41.4608 41.4571V37.0517H38.5238V41.4571H41.4608ZM38.5238 42.9256V45.8625H35.5869V37.0517H37.0554V35.5833H42.9292V37.0517H44.3977V45.8625H41.4608V42.9256H38.5238Z" fill="black"/>
<path d="M34.5696 35.5833V37.0517H31.6326V45.8625H28.6957V37.0517H25.7588V35.5833H34.5696Z" fill="black"/>
<path d="M21.8045 37.0517H18.8676V39.9886H23.273V41.4571H24.7414V44.394H23.273V45.8625H17.3991V44.394H15.9307V42.9256H18.8676V44.394H21.8045V41.4571H17.3991V39.9886H15.9307V37.0517H17.3991V35.5833H23.273V37.0517H24.7414V38.5202H21.8045V37.0517Z" fill="black"/>
</g>
<defs>
<clipPath id="clip0_236_197">
<rect width="80" height="80" fill="white" transform="translate(0.728516 0.323975)"/>
</clipPath>
</defs>
</svg>
